<!DOCTYPE svg PUBLIC "-//W3C//DTD SVG 20010904//EN" "http://www.w3.org/TR/2001/REC-SVG-20010904/DTD/svg10.dtd">
<svg version="1.0" xmlns="http://www.w3.org/2000/svg" width="64px" height="64px" viewBox="0 0 640 640" preserveAspectRatio="xMidYMid meet">
<g id="layer101" fill="#ffffff" stroke="none">
 <path d="M0 625 l0 -15 20 0 20 0 0 -48 0 -47 -20 -13 -20 -12 0 -29 0 -30 16 -15 15 -16 23 0 23 0 16 18 17 19 0 26 0 27 -20 12 -20 13 0 47 0 48 110 0 110 0 0 -13 0 -14 -20 -18 -20 -18 0 -22 0 -21 13 -16 c6 -9 22 -19 34 -23 l23 -6 25 25 25 25 0 16 0 16 -25 25 c-14 14 -25 29 -25 34 l0 10 130 0 130 0 0 -26 0 -25 -16 -16 -15 -15 3 -21 3 -20 20 -12 20 -13 23 9 22 8 0 29 0 30 -15 12 -15 12 0 24 0 24 15 0 15 0 0 15 0 15 -320 0 -320 0 0 -15z m327 -86 l11 -11 -5 -14 -5 -14 -18 0 -19 0 -6 10 -7 11 12 14 c15 18 22 19 37 4z m280 -35 l-6 -6 -10 7 -11 6 6 11 6 10 11 -11 11 -11 -7 -6z m-531 -35 l6 -11 -15 -15 -15 -15 -11 6 -11 7 0 20 0 19 19 0 20 0 7 -11z"/>
 <path d="M80 565 l0 -35 15 0 15 0 0 35 0 35 -15 0 -15 0 0 -35z"/>
 <path d="M124 586 c-3 -8 -4 -23 -2 -32 l3 -17 13 -5 12 -4 0 36 0 36 -10 0 c-6 0 -13 -6 -16 -14z"/>
 <path d="M170 461 l0 -141 -50 0 -50 0 0 35 0 35 -16 0 -15 0 3 -47 3 -48 75 0 75 0 0 149 0 149 -12 5 -13 4 0 -141z"/>
 <path d="M210 565 l0 -35 15 0 15 0 0 35 0 35 -15 0 -15 0 0 -35z"/>
 <path d="M380 565 l0 -35 15 0 15 0 0 35 0 35 -15 0 -15 0 0 -35z"/>
 <path d="M420 565 l0 -35 15 0 15 0 0 35 0 35 -15 0 -15 0 0 -35z"/>
 <path d="M465 588 c-3 -7 -6 -85 -7 -172 l-3 -160 -67 -17 -68 -17 0 115 0 115 -12 -4 -13 -5 -3 -122 -3 -121 16 -6 15 -6 73 17 c39 10 80 22 90 27 l17 9 -2 176 -3 176 -12 5 -13 4 -5 -14z"/>
 <path d="M510 565 l0 -35 15 0 15 0 0 35 0 35 -15 0 -15 0 0 -35z"/>
 <path d="M124 505 l-6 -15 6 -16 6 -15 10 6 10 6 0 25 0 24 -10 0 c-6 0 -13 -7 -16 -15z"/>
 <path d="M214 506 l-6 -16 6 -16 6 -15 10 6 10 6 0 19 0 19 -10 6 -10 6 -6 -15z"/>
 <path d="M384 506 l-6 -16 6 -16 6 -15 10 6 10 6 0 19 0 19 -10 6 -10 6 -6 -15z"/>
 <path d="M424 505 l-6 -15 6 -16 6 -15 10 6 10 6 0 25 0 24 -10 0 c-6 0 -13 -7 -16 -15z"/>
 <path d="M512 496 l3 -27 10 1 10 0 0 22 0 21 -13 5 -14 4 4 -26z"/>
 <path d="M122 428 l3 -21 13 -5 12 -4 0 26 0 26 -16 0 -15 0 3 -22z"/>
 <path d="M210 425 l0 -25 15 0 15 0 0 25 0 25 -15 0 -15 0 0 -25z"/>
 <path d="M250 425 l0 -25 15 0 15 0 0 25 0 25 -15 0 -15 0 0 -25z"/>
 <path d="M340 424 l0 -26 13 4 12 5 3 21 3 22 -15 0 -16 0 0 -26z"/>
 <path d="M380 425 l0 -25 15 0 15 0 0 25 0 25 -15 0 -15 0 0 -25z"/>
 <path d="M420 425 l0 -25 15 0 15 0 0 25 0 25 -15 0 -15 0 0 -25z"/>
 <path d="M510 425 l0 -25 15 0 15 0 0 25 0 25 -15 0 -15 0 0 -25z"/>
 <path d="M550 425 l0 -25 15 0 15 0 0 25 0 25 -15 0 -15 0 0 -25z"/>
 <path d="M590 391 l0 -59 -40 -16 -40 -16 0 -90 0 -90 -12 0 c-7 0 -30 5 -50 10 l-37 11 -3 27 -3 27 -10 -2 -10 -3 0 -37 0 -38 59 -16 60 -15 4 -12 4 -12 14 0 14 0 0 110 0 109 40 12 40 12 0 74 0 73 -15 0 -15 0 0 -59z"/>
 <path d="M80 365 l0 -25 15 0 15 0 0 25 0 25 -15 0 -15 0 0 -25z"/>
 <path d="M127 383 c-4 -3 -7 -15 -7 -25 l0 -18 15 0 15 0 0 25 0 25 -8 0 c-5 0 -12 -3 -15 -7z"/>
 <path d="M210 365 l0 -25 15 0 15 0 0 25 0 25 -15 0 -15 0 0 -25z"/>
 <path d="M250 365 l0 -25 15 0 15 0 0 25 0 25 -15 0 -15 0 0 -25z"/>
 <path d="M340 366 l0 -26 16 0 15 0 -3 22 -3 21 -12 5 -13 4 0 -26z"/>
 <path d="M380 365 l0 -25 15 0 15 0 0 25 0 25 -15 0 -15 0 0 -25z"/>
 <path d="M420 365 l0 -25 15 0 15 0 0 25 0 25 -15 0 -15 0 0 -25z"/>
 <path d="M510 365 l0 -25 15 0 15 0 0 25 0 25 -15 0 -15 0 0 -25z"/>
 <path d="M550 365 l0 -25 15 0 15 0 0 25 0 25 -15 0 -15 0 0 -25z"/>
 <path d="M210 294 l0 -26 13 4 12 5 3 21 3 22 -15 0 -16 0 0 -26z"/>
 <path d="M252 298 l3 -21 13 -5 12 -4 0 26 0 26 -16 0 -15 0 3 -22z"/>
 <path d="M340 294 l0 -26 13 4 12 5 3 21 3 22 -15 0 -16 0 0 -26z"/>
 <path d="M380 295 l0 -25 15 0 15 0 0 25 0 25 -15 0 -15 0 0 -25z"/>
 <path d="M422 298 l3 -21 13 -5 12 -4 0 26 0 26 -16 0 -15 0 3 -22z"/>
 <path d="M127 273 l-7 -6 0 -49 0 -48 25 -12 25 -11 0 -48 0 -48 30 -16 30 -16 0 -9 0 -10 15 0 15 0 0 10 0 9 30 16 31 16 -3 62 -3 62 -10 0 -10 0 -3 -51 -3 -51 -22 -10 -22 -10 -22 10 -23 10 0 49 0 48 -25 12 -25 11 0 44 0 43 -8 0 c-5 0 -12 -3 -15 -7z"/>
 <path d="M170 235 l0 -27 13 5 12 4 0 18 0 18 -12 5 -13 4 0 -27z"/>
 <path d="M210 235 l0 -25 15 0 15 0 0 25 0 25 -15 0 -15 0 0 -25z"/>
 <path d="M250 235 l0 -25 15 0 15 0 0 25 0 25 -15 0 -15 0 0 -25z"/>
 <path d="M214 186 l-6 -16 6 -16 6 -15 10 6 10 6 0 19 0 19 -10 6 -10 6 -6 -15z"/>
 <path d="M254 186 l-6 -16 6 -16 6 -15 10 6 10 6 0 19 0 19 -10 6 -10 6 -6 -15z"/>
 <path d="M424 185 l-6 -15 6 -16 6 -15 10 6 10 6 0 25 0 24 -10 0 c-6 0 -13 -7 -16 -15z"/>
 <path d="M464 186 l-6 -16 6 -16 6 -16 13 5 12 4 0 23 0 23 -12 4 -13 5 -6 -16z"/>
 <path d="M210 105 l0 -25 15 0 15 0 0 25 0 25 -15 0 -15 0 0 -25z"/>
 <path d="M250 105 l0 -25 15 0 15 0 0 25 0 25 -15 0 -15 0 0 -25z"/>
 </g>

</svg>