<!DOCTYPE svg PUBLIC "-//W3C//DTD SVG 20010904//EN" "http://www.w3.org/TR/2001/REC-SVG-20010904/DTD/svg10.dtd">
<svg version="1.0" xmlns="http://www.w3.org/2000/svg" width="450px" height="450px" viewBox="0 0 4500 4500" preserveAspectRatio="xMidYMid meet">
<g id="layer101" fill="#000000" stroke="none">
 <path d="M633 3665 c-17 -7 -36 -22 -42 -34 -14 -26 -16 -2164 -2 -2159 6 2 323 201 705 443 l696 440 0 167 c0 138 3 169 16 182 13 14 50 16 249 16 221 0 235 -1 245 -19 6 -11 10 -90 10 -183 l0 -163 661 -400 c363 -220 678 -411 700 -424 l39 -23 0 1052 c0 702 -3 1058 -10 1071 -28 52 55 49 -1652 49 -1323 -1 -1588 -3 -1615 -15z"/>
 <path d="M1413 1841 c-911 -576 -865 -541 -804 -602 l29 -29 446 0 446 0 0 -166 c0 -193 8 -220 75 -259 l42 -25 594 0 c557 0 597 2 635 19 24 11 50 33 62 53 20 33 22 49 22 207 l0 171 444 0 444 0 32 26 c28 24 31 31 28 76 l-3 50 -215 131 c-356 216 -1435 869 -1440 872 -3 2 -380 -234 -837 -524z m1427 -775 c0 -79 -3 -151 -6 -160 -6 -14 -66 -16 -583 -16 -435 0 -580 3 -589 12 -8 8 -12 58 -12 160 l0 148 595 0 595 0 0 -144z"/>
 </g>

</svg>