<!DOCTYPE svg PUBLIC "-//W3C//DTD SVG 20010904//EN" "http://www.w3.org/TR/2001/REC-SVG-20010904/DTD/svg10.dtd">
<svg version="1.0" xmlns="http://www.w3.org/2000/svg" width="128px" height="128px" viewBox="0 0 1280 1280" preserveAspectRatio="xMidYMid meet">
<g id="layer101" fill="#ffffff" stroke="none">
 <path d="M600 1261 c-5 -11 -10 -36 -10 -55 l0 -36 -52 0 c-38 0 -57 -5 -73 -20 l-21 -19 -101 69 c-56 39 -108 70 -117 70 -25 0 -43 -40 -57 -123 -29 -183 10 -332 108 -416 l49 -42 -9 -85 c-20 -197 64 -394 235 -549 40 -36 70 -55 86 -55 19 0 50 25 116 92 152 155 216 313 202 502 l-7 91 52 44 c101 86 139 233 110 418 -14 84 -32 123 -57 123 -9 0 -65 -33 -124 -74 l-107 -75 -11 25 c-10 22 -18 24 -72 24 l-60 0 0 43 c0 24 -5 48 -12 55 -18 18 -56 14 -68 -7z m-250 -170 c36 -24 66 -45 68 -46 1 -1 -6 -26 -16 -56 -11 -30 -27 -87 -37 -126 -9 -40 -20 -73 -24 -73 -17 0 -53 51 -71 99 -15 38 -20 76 -20 149 0 54 3 102 6 105 8 7 8 8 94 -52z m680 -51 c0 -115 -22 -189 -69 -234 l-29 -28 -17 59 c-9 32 -26 91 -38 131 -19 64 -20 75 -7 82 8 5 44 29 79 54 36 24 69 43 73 40 4 -3 8 -50 8 -104z m-440 -119 c0 -179 5 -201 49 -201 37 0 41 19 41 198 l0 173 33 -3 c32 -3 32 -4 74 -128 57 -174 86 -331 81 -445 -3 -76 -9 -101 -37 -162 l-34 -73 -162 0 -162 0 -27 59 c-14 33 -31 86 -37 118 -23 122 17 349 103 581 17 46 23 52 49 52 l29 0 0 -169z m141 -728 c-5 -10 -27 -35 -49 -57 l-40 -38 -30 20 c-16 12 -41 37 -56 57 l-27 35 106 0 c98 0 105 -1 96 -17z"/>
 <path d="M563 570 c-65 -39 -86 -139 -43 -200 76 -106 240 -63 256 67 14 110 -118 192 -213 133z m120 -67 c42 -48 17 -123 -42 -123 -45 0 -71 26 -71 70 0 29 6 43 22 54 30 21 71 20 91 -1z"/>
 </g>

</svg>