<!DOCTYPE svg PUBLIC "-//W3C//DTD SVG 20010904//EN" "http://www.w3.org/TR/2001/REC-SVG-20010904/DTD/svg10.dtd">
<svg version="1.0" xmlns="http://www.w3.org/2000/svg" width="457px" height="457px" viewBox="0 0 4570 4570" preserveAspectRatio="xMidYMid meet">
 <g id="layer101" fill="none" stroke-width="5" stroke="black">
  <path d="M2294.29 915.18C2305.5 912.64 2321.14 922.21 2331.43 926.28C2359.37 937.36 2387.56 947.97 2415.71 958.5C2528.54 1000.7 2640.51 1045.33 2752.86 1088.84C3169.94 1250.39 3586.79 1413.37 4005.71 1570.07C4135.66 1618.67 4265.16 1668.97 4394.29 1719.71C4424.5 1731.59 4456.59 1741.04 4485.71 1755.37C4491.03 1757.97 4513.31 1765.67 4509.74 1773.99C4506.31 1782 4484.71 1785.43 4477.14 1788.3C4444.73 1800.57 4411.46 1810.94 4378.57 1821.9C4245.8 1866.16 4112.76 1909.56 3980 1953.81C3614.74 2075.56 3248.93 2195.93 2882.86 2315.24C2771.76 2351.46 2660.84 2388.29 2550 2425.24C2478.97 2448.91 2407.5 2476.09 2334.29 2492.26C2266.44 2507.24 2205.23 2479.36 2141.43 2458.1C2035.84 2422.9 1930.3 2387.23 1824.29 2353.34C1527.69 2258.59 1232.31 2159.99 935.71 2065.23C816.58 2027.16 698.32 1985.67 578.57 1949.6C443.02 1908.77 310.16 1858.97 174.29 1819.17C142.58 1809.89 110.7 1800.27 80 1788C75.12 1786.06 50.87 1779.3 53.35 1771.91C56.25 1763.26 79.43 1756.81 87.14 1753.46C120.55 1738.93 154.4 1725.06 188.57 1712.4C323.64 1662.4 458.08 1610.23 592.86 1559.4C967.65 1418.03 1342.76 1277.52 1717.14 1135.11C1845.76 1086.18 1974.24 1036.89 2102.86 987.97C2146.26 971.46 2189.41 954.35 2232.86 937.97C2252.74 930.46 2273.56 919.87 2294.29 915.18M3912.86 2037.89C3927.47 2034.99 3929.96 2050.31 3931.99 2061.43C3936.94 2088.79 3938.57 2117.97 3938.57 2145.71C3938.57 2268.07 3937.14 2390.49 3937.14 2512.86C3937.14 2611.97 3937.14 2712.37 3932.8 2811.43C3931.47 2841.84 3932.7 2872.41 3931.37 2902.86C3930.37 2925.77 3926.66 2951.46 3930.21 2974.29C3932.49 2988.9 3958.33 3008.03 3968.56 3018.57C3987.9 3038.51 4002.76 3064.86 4005.47 3092.86C4008.36 3122.6 3997.87 3149.69 3984.63 3175.71C3979.27 3186.26 3963.87 3204.96 3965.2 3217.14C3966.56 3229.53 3983.59 3243.57 3989.87 3254.29C3998.3 3268.67 3999.63 3288 4001.19 3304.29C4006.93 3364.54 4004.26 3425.21 4005.73 3485.71C4008.33 3591.8 4008.57 3698.1 4008.57 3804.29C4008.57 3910.49 4010 4016.6 4010 4122.86C4010 4147.66 4011.43 4172.3 4011.43 4197.14C4011.43 4204 4014.36 4218.59 4005.63 4220.97C3987.8 4225.87 3962.81 4221.43 3944.29 4221.43L3811.43 4221.43L3767.14 4221.43C3762.89 4221.43 3754.5 4222.96 3751.47 4219.14C3746.97 4213.46 3750 4197 3750 4190L3750 4108.57L3750 3795.71C3750 3707.14 3751.43 3618.46 3751.43 3530C3751.43 3450.19 3749.67 3369.4 3757.39 3290C3759.24 3270.89 3763.76 3253.33 3774.4 3237.14C3777.91 3231.79 3794.56 3221.49 3794.93 3216.93C3795.69 3207.73 3779 3191.29 3774.53 3182.86C3761.33 3157.99 3750.36 3131.64 3753.1 3102.86C3755.76 3074.96 3763.73 3047.31 3782.5 3025.77C3791.77 3015.13 3816.06 3003.73 3819.54 2990C3822.49 2978.43 3820 2963.36 3820 2951.43L3820 2870L3820 2607.14L3820 2205.71L3820 2101.43C3820 2092.49 3816.04 2071 3821.47 2063.66C3825.44 2058.27 3839.54 2057.44 3845.71 2055.9C3868.06 2050.31 3890.29 2042.34 3912.86 2037.89M961.75 2147.2C971 2141.91 993.63 2155 1002.86 2158.1C1041.47 2171.01 1079.95 2184.27 1118.57 2197.14C1276.28 2249.71 1433.71 2303.14 1591.43 2355.71C1762.54 2412.76 1933.01 2473.29 2105.71 2525.31C2150.96 2538.94 2195.79 2553.64 2241.43 2565.93C2259.81 2570.89 2285.26 2580.61 2304.29 2576.07C2344.37 2566.5 2383.69 2550.87 2422.86 2538.1C2494.83 2514.64 2566.69 2490.87 2638.57 2467.14C2850.59 2397.17 3062.49 2326.79 3274.29 2256.19C3359.11 2227.91 3444.19 2198.81 3530 2173.69C3550.56 2167.66 3570.9 2160.84 3591.43 2154.69C3597.84 2152.76 3610.07 2146.67 3616.7 2149.49C3624.23 2152.69 3622.79 2176 3622.86 2182.86C3623.29 2217.09 3627.14 2251.44 3627.14 2285.71C3627.16 2407.16 3632.51 2528.66 3627.2 2650C3625.93 2679.17 3623.6 2708.01 3621.56 2737.14C3621.07 2744.16 3622.93 2762.76 3616.69 2767.13C3606.09 2774.54 3581.13 2770.7 3568.57 2771.56C3528.11 2774.33 3487.53 2776.33 3447.14 2780.24C3312.31 2793.29 3179.03 2820.04 3048.57 2856.31C2867.06 2906.79 2692.63 2977.61 2524.29 3061.79C2471.27 3088.29 2419.4 3117.5 2368.57 3148C2344.51 3162.43 2314.6 3187.34 2285.71 3189.73C2270.63 3190.97 2257.67 3179.49 2245.71 3172.04C2222.56 3157.61 2198.27 3144.84 2174.29 3131.87C2080.79 3081.3 1985.23 3030.33 1887.14 2989.17C1690.26 2906.56 1486.16 2838.54 1275.71 2800.6C1208.64 2788.51 1140.74 2780.49 1072.86 2775.84C1048.71 2774.19 1024.17 2772.04 1000 2771.44C986.44 2771.11 967.26 2773.07 954.5 2768.24C946.22 2765.11 950 2743.04 950 2735.71L950 2632.86C950 2510.97 951.43 2388.91 951.43 2267.14C951.43 2237.26 950.27 2206.87 953.1 2177.14C953.87 2169.07 953.7 2151.8 961.75 2147.2"/>
</g>

</svg>