<!DOCTYPE svg PUBLIC "-//W3C//DTD SVG 20010904//EN" "http://www.w3.org/TR/2001/REC-SVG-20010904/DTD/svg10.dtd">
<svg version="1.0" xmlns="http://www.w3.org/2000/svg" width="218px" height="222px" viewBox="0 0 2180 2220" preserveAspectRatio="xMidYMid meet">
 <g id="layer101" fill="none" stroke-width="5" stroke="black">
  <path d="M1665.71 1095.71C1665.71 1071.63 1672.11 1049.41 1675.53 1025.71C1677.17 1014.27 1679.33 1001.46 1672.04 991.43C1650.14 961.27 1613.54 972.24 1582.86 978.87C1531.66 989.94 1480.97 1003.8 1430 1015.88C1397.69 1023.54 1362.5 1028.28 1331.43 1040L1330 1038.57C1327.73 1010.73 1317.23 981.43 1310.53 954.29C1297.9 903.11 1285.77 851.7 1275.43 800C1270.42 774.98 1254.71 729.38 1268.12 705.71C1292.5 662.69 1358.95 696.66 1395.71 696.66C1409.56 696.66 1423.94 694.6 1437.14 690.36C1507.27 667.86 1526.67 593.88 1512.56 528.57C1503.83 488.2 1462.11 457.82 1425.71 443.94C1417.81 440.92 1411.52 433.66 1402.86 432.94C1391.05 431.96 1385.84 440.06 1375.71 443.94C1339.79 457.69 1311.03 479.28 1277.14 496.77C1263.28 503.93 1246.15 513.54 1230 508.87C1200.49 500.34 1193.67 455.32 1186.98 430C1166.08 350.9 1144.59 271.64 1128.29 191.43C1123.65 168.59 1118.28 145.84 1114.4 122.86C1113.35 116.61 1108.96 103.48 1112.9 97.88C1116.57 92.65 1128.5 92.02 1134.29 90.86C1154.67 86.75 1175.11 82.68 1195.71 79.81C1219.14 76.56 1242.32 78.71 1265.71 76.66C1331.77 70.87 1398.62 75.59 1464.29 82.62C1587.99 95.86 1702.76 153.32 1801.43 227.32C1852.19 265.39 1900.69 308.64 1938.34 360C1998.39 441.86 2036.3 539.47 2056 638.57C2066.5 691.37 2070 743.43 2070 797.14C2070 814.97 2074.54 839.86 2069.54 856.94C2068.06 862.04 2061.59 862.86 2057.14 864.07C2043.83 867.68 2030.5 871.38 2017.14 874.81C1980.11 884.34 1942.03 891.27 1905.71 903.33C1891.53 908.04 1872.91 913.62 1864.7 927.15C1848.54 953.74 1882.83 991.65 1895.99 1012.86C1929.59 1066.96 1949.13 1141.66 1892.86 1189.37C1865.39 1212.67 1823.97 1232.57 1787.14 1229.87C1731.27 1225.78 1674.23 1181.43 1665.34 1127.14C1663.67 1116.93 1661.24 1107.45 1664.29 1097.14L1665.71 1095.71C1670.07 1103.89 1670.07 1116.11 1665.71 1124.29M148.57 1310L145.71 1315.71C125.06 1300.15 91.51 1276 91.47 1247.14C91.42 1209.01 138.51 1171.5 162.86 1147.14C209.73 1100.25 254.04 1042.8 277.07 980C293.6 934.9 295.45 885.97 298.7 838.57C302.77 779.15 307.59 719.48 322.11 661.43C367.76 478.85 536.69 371.61 701.43 305.71C757.63 283.23 816.69 261.3 877.14 254.06C892.17 252.27 922.69 245.4 936.69 252.29C942.82 255.31 940 271.45 940 277.14L940 352.86C940 423.79 941.4 494.9 941.43 565.71C941.44 593.09 936.01 635.46 953.62 658.57C982.88 696.98 1023.01 662.52 1058.57 651.47C1115.02 633.93 1179.7 639.29 1212.25 695.71C1218.93 707.3 1223.37 719.81 1226.2 732.86C1241.01 801.28 1200.62 882.27 1125.71 889.76C1107.74 891.55 1089.89 888.48 1072.86 882.86C1044.06 873.34 1017.02 853.23 985.71 852.86C972.08 852.7 956.64 854.82 949.88 868.59C940.78 887.16 943.09 912.76 942.85 932.86C942.43 968.16 941.25 1003.23 942.8 1038.57C947.53 1146.55 940 1251.96 940 1360C940 1400.51 940.41 1441.03 938.63 1481.43C937.82 1499.67 937.65 1521.04 921.42 1532.8C913.25 1538.73 903.15 1545.71 892.86 1546.87C872.51 1549.16 849.99 1530.66 831.43 1524.09C799.01 1512.61 757.82 1505.13 724.29 1516.23C709.66 1521.06 697.83 1532.19 687.14 1542.86C676 1553.99 663.69 1565.44 657 1580C644.52 1607.19 648.4 1647.74 656.33 1675.71C674.83 1741 744.04 1783.73 808.57 1759.39C839.2 1747.84 899.06 1707.1 924.71 1745.71C940.57 1769.59 935.07 1814.1 935.74 1841.43C937.43 1910.81 936.91 1980.64 939.94 2050C940.92 2072.29 940 2094.83 940 2117.14C940 2123.46 937.45 2137.16 942.29 2142C947.8 2147.5 965.57 2144.29 972.86 2144.29C1001.47 2144.29 1030.07 2143.2 1058.57 2142.86C1171.44 2141.51 1284.32 2141.44 1397.14 2141.43C1429.69 2141.43 1463.23 2140.67 1495.71 2138.44C1501.59 2138.04 1523.79 2138.81 1526.13 2132.4C1527.66 2128.21 1524.06 2122.3 1522.46 2118.57C1517.53 2107.1 1512.29 2095.76 1507.36 2084.29C1489.01 2041.57 1473.91 1997.67 1461.64 1952.86C1431.17 1841.53 1434.47 1714.57 1468.61 1604.29C1487.67 1542.67 1511.53 1483.94 1544.93 1428.57C1569.3 1388.18 1599.27 1351.42 1624.36 1311.43C1639.36 1287.5 1653.2 1263.11 1667.14 1238.57C1669.79 1233.92 1681.07 1218.93 1678.23 1213.72C1676.33 1210.23 1668.93 1211.43 1665.71 1211.43L1631.43 1211.43C1596.07 1211.43 1560.9 1211.2 1525.71 1214.29C1511.34 1215.55 1492.17 1218.48 1484.94 1232.86C1474.87 1252.88 1490.96 1280.94 1496.54 1300C1507.74 1338.32 1514.34 1381.68 1508.14 1421.43C1505.43 1438.84 1494.93 1450.84 1482.86 1462.86C1454.3 1491.29 1426.77 1501.43 1387.14 1501.43C1359.32 1501.43 1326.77 1499.43 1301.43 1486.76C1257.69 1464.89 1235.75 1410.08 1240.24 1362.86C1242.15 1342.83 1246.14 1322.99 1253.72 1304.29C1259.58 1289.83 1268.55 1276.6 1272.63 1261.43C1276.33 1247.68 1273.95 1231.02 1261.41 1222.43C1243.21 1209.97 1213.63 1214.59 1192.86 1212.61C1136.01 1207.2 1077.14 1208.57 1020 1208.57C1003.76 1208.57 987.7 1207.14 971.43 1207.14C962.37 1207.14 952.45 1208.64 944.29 1204.29M1387.14 437.14C1394.89 441.28 1405.11 441.28 1412.86 437.14M117.14 1201.43C187.62 1201.43 258.22 1200.34 328.57 1200C349.58 1199.9 391.75 1202.27 403.76 1181.43C422.74 1148.49 394.39 1103.33 382.59 1072.86C363.41 1023.36 372.32 973.93 412.86 937.39C426.2 925.36 441.51 916.3 458.57 910.74C548.2 881.53 657.06 960.62 631.59 1057.14C623.16 1089.1 601.59 1118.99 601.43 1152.86C601.36 1167.01 601.64 1183.05 615.72 1191.03C636.48 1202.79 671.19 1199.46 694.29 1200.02C751.35 1201.42 808.54 1201.43 865.71 1201.43C886.49 1201.43 923.05 1194.48 941.43 1204.29M148.57 1312.86L180 1338.57L181.43 1340L180 1341.43L178.57 1342.86L174.29 1338.57M147.14 1314.29L151.43 1318.57M150 1320L155.71 1322.86M180 1341.43L195.71 1365.71C201.08 1360.81 198.87 1357.22 192.86 1354.29M178.57 1342.86L191.43 1355.71M200 1362.86L200 1370L201.43 1371.43L205.71 1371.43L204.29 1365.71M198.57 1364.29L201.43 1367.14M201.43 1371.43C202.45 1395.29 200.63 1409.47 189.65 1431.43C185.2 1440.33 170.43 1459.97 172.59 1470C177.1 1490.83 214.57 1498.21 216.77 1521.43C217.78 1531.94 204.81 1544.74 202.26 1555.71C197.23 1577.27 219.65 1596.8 232.86 1610L234.29 1608.57C234.69 1596.97 220.93 1587.04 215.57 1577.14C210.64 1568.03 210.82 1557.43 205.71 1548.57M232.86 1610C233.8 1620.81 236.38 1635.54 242.86 1644.29L245.71 1635.71M244.29 1644.29C253.74 1657.43 244.94 1671.59 245.71 1685.71M241.43 1645.71C241.43 1653.89 237.91 1673 244.29 1678.57M241.43 1678.57L234.29 1710L224.66 1771.43L227.14 1812.86L225.71 1814.29C221.35 1806.11 221.35 1793.89 225.71 1785.71M225.71 1814.29C225.71 1871.71 288.1 1893.13 335.71 1902.57C409.26 1917.17 490.89 1894.76 564.29 1886.9C573.87 1885.89 586.72 1886.74 595.71 1883.43C602.24 1881.01 605.65 1874.19 612.86 1873.07C627.94 1870.73 631.84 1878.7 644.29 1883.43C658.23 1888.73 671.62 1888.1 684.28 1897.9C701.37 1911.13 708.15 1932.94 713.87 1952.86C725.7 1994.07 731.92 2036.94 742.32 2078.57C746.23 2094.2 748.93 2125.54 761.75 2136.41C771.38 2144.57 793.69 2144.14 805.71 2144.29C837.72 2144.66 869.5 2146.1 901.43 2145.71C913.77 2145.57 930.34 2148.77 941.43 2142.86M592.86 1877.14L601.43 1878.57M638.57 1878.57L645.71 1875.71M604.29 1878.57C612.86 1883.14 627.14 1883.14 635.71 1878.57"/>
</g>

</svg>