<!DOCTYPE svg PUBLIC "-//W3C//DTD SVG 20010904//EN" "http://www.w3.org/TR/2001/REC-SVG-20010904/DTD/svg10.dtd">
<svg version="1.0" xmlns="http://www.w3.org/2000/svg" width="1000px" height="1000px" viewBox="0 0 10000 10000" preserveAspectRatio="xMidYMid meet">
<g id="layer101" fill="none" stroke="#fff" stroke-width="20px">
 <path d="M4421 9549 c-36 -4 -105 -17 -155 -28 -50 -11 -124 -25 -164 -31 -41 -6 -115 -21 -165 -35 -51 -13 -126 -31 -167 -40 -41 -10 -100 -27 -130 -40 -30 -13 -83 -31 -118 -39 -35 -9 -82 -27 -105 -40 -23 -13 -58 -27 -77 -31 -19 -4 -62 -20 -95 -36 -33 -16 -68 -29 -79 -29 -10 0 -40 -13 -65 -29 -26 -15 -58 -32 -72 -36 -34 -11 -251 -124 -270 -141 -14 -13 -54 -35 -154 -87 -22 -11 -58 -36 -79 -54 -22 -18 -43 -33 -48 -33 -4 0 -36 -20 -70 -45 -35 -24 -78 -55 -96 -67 -18 -13 -62 -45 -97 -73 -34 -27 -86 -68 -115 -90 -132 -101 -357 -307 -440 -403 -30 -35 -79 -89 -108 -120 -121 -128 -157 -195 -133 -241 7 -12 31 -43 54 -70 23 -26 64 -79 91 -117 27 -38 70 -98 95 -133 25 -35 62 -83 81 -107 19 -24 44 -55 55 -70 11 -14 32 -40 46 -58 14 -17 47 -62 73 -99 26 -38 79 -107 117 -155 39 -48 86 -109 105 -137 37 -53 45 -64 164 -220 41 -54 108 -143 148 -199 89 -124 112 -146 158 -146 40 0 38 -2 184 171 25 29 86 98 135 152 154 168 252 278 350 392 53 61 105 115 117 122 31 17 58 0 101 -65 21 -31 51 -73 65 -93 15 -19 55 -73 90 -120 34 -46 85 -114 114 -152 28 -37 69 -93 89 -125 21 -31 57 -81 81 -111 85 -106 133 -172 161 -216 16 -25 43 -63 60 -84 110 -136 134 -166 152 -196 11 -18 39 -57 62 -87 49 -63 116 -152 170 -226 21 -29 56 -77 79 -105 23 -29 48 -66 57 -84 35 -67 106 -94 146 -54 11 11 28 35 37 53 9 18 40 60 68 93 29 33 81 101 116 150 35 50 89 121 120 159 30 37 63 80 72 95 24 36 38 55 148 196 52 67 118 153 145 190 28 37 62 83 77 103 15 21 40 54 55 74 16 20 102 134 193 254 91 119 174 229 185 244 11 15 67 90 125 166 58 76 113 150 123 164 9 14 37 50 62 80 39 48 168 219 246 327 53 73 -13 68 996 72 542 2 915 7 925 12 23 12 32 48 19 81 -5 14 -38 54 -73 89 -35 35 -90 95 -123 133 -57 65 -90 98 -210 211 -73 69 -173 156 -205 180 -53 39 -105 80 -140 110 -37 33 -229 167 -283 198 -18 11 -43 29 -57 41 -14 13 -43 32 -65 43 -85 44 -134 71 -163 92 -36 25 -228 125 -262 136 -14 4 -41 18 -61 31 -20 12 -56 28 -80 34 -24 6 -57 19 -74 29 -16 9 -52 23 -80 30 -27 8 -68 24 -91 37 -22 13 -72 31 -110 40 -38 10 -91 27 -119 40 -27 12 -84 29 -125 38 -41 9 -116 28 -167 41 -50 14 -124 29 -165 35 -40 6 -127 23 -193 38 l-120 26 -540 2 c-297 1 -569 -2 -604 -7z"/>
 <path d="M9251 6364 c-12 -15 -21 -32 -21 -39 0 -6 -15 -32 -33 -56 -155 -204 -375 -504 -409 -558 -9 -14 -22 -32 -28 -39 -6 -7 -33 -41 -58 -75 -26 -35 -57 -76 -70 -92 -12 -17 -45 -63 -72 -102 -28 -40 -70 -97 -94 -126 -24 -30 -49 -65 -56 -78 -7 -13 -38 -55 -69 -94 -60 -74 -63 -78 -142 -195 -28 -41 -59 -84 -69 -95 -20 -22 -36 -44 -130 -175 -64 -91 -83 -116 -145 -196 -22 -28 -58 -77 -80 -108 -22 -32 -64 -87 -92 -124 -29 -37 -63 -86 -75 -109 -12 -23 -28 -45 -36 -48 -23 -9 -56 18 -96 79 -20 30 -41 58 -47 62 -6 3 -27 31 -47 61 -20 31 -46 68 -57 83 -11 15 -55 76 -97 136 -42 60 -86 120 -98 134 -11 14 -30 39 -43 57 -12 17 -43 59 -69 92 -27 34 -48 64 -48 67 0 8 -63 95 -111 154 -41 50 -95 125 -135 185 -15 22 -47 63 -70 91 -24 28 -64 82 -90 120 -180 269 -254 335 -301 268 -10 -14 -34 -45 -53 -69 -19 -24 -48 -61 -63 -82 -119 -161 -173 -232 -196 -260 -14 -17 -37 -48 -51 -68 -14 -20 -41 -56 -60 -80 -82 -101 -137 -172 -188 -242 -29 -41 -77 -103 -105 -138 -29 -34 -70 -88 -92 -120 -22 -32 -63 -85 -90 -119 -28 -34 -79 -99 -113 -146 -108 -146 -125 -169 -186 -243 -32 -40 -69 -88 -82 -107 -13 -19 -36 -52 -51 -72 -15 -20 -50 -67 -78 -103 -27 -37 -75 -98 -105 -135 -30 -37 -77 -99 -105 -137 -27 -37 -71 -95 -98 -128 -26 -33 -85 -109 -130 -169 -45 -60 -93 -124 -107 -142 -14 -18 -48 -63 -77 -101 -28 -37 -75 -97 -103 -133 -65 -82 -135 -175 -180 -237 -19 -26 -38 -50 -41 -53 -11 -8 -104 -132 -134 -177 -41 -64 -62 -59 -132 32 -73 95 -107 141 -138 185 -14 19 -43 58 -65 85 -22 28 -51 66 -64 86 -14 20 -37 50 -52 65 -14 16 -42 54 -61 84 -20 30 -54 77 -76 103 -22 27 -62 79 -88 115 -71 99 -93 128 -167 224 -37 48 -82 112 -101 142 -18 31 -37 56 -41 56 -5 0 -19 19 -33 43 -14 23 -37 53 -51 66 -14 14 -26 30 -26 36 0 6 -12 22 -26 36 -14 13 -30 33 -34 44 -5 11 -46 68 -92 127 -46 59 -117 153 -158 209 -41 56 -80 107 -85 113 -6 6 -43 56 -82 111 -39 55 -86 118 -104 141 -19 22 -63 82 -99 133 -36 51 -91 125 -124 164 -32 39 -78 101 -102 137 -47 68 -70 99 -144 195 -25 32 -54 70 -65 86 -95 133 -201 277 -214 291 -15 15 -41 50 -221 298 -68 94 -122 165 -210 280 -25 32 -56 75 -70 95 -14 20 -37 51 -51 68 -15 18 -36 51 -48 75 -24 48 -58 66 -103 57 -39 -9 -56 -40 -80 -142 -11 -48 -32 -135 -48 -193 -16 -58 -33 -145 -40 -195 -14 -114 -18 -126 -38 -123 -16 3 -17 -50 -17 -727 0 -685 1 -730 17 -727 20 3 22 -3 43 -146 8 -56 25 -140 38 -185 14 -45 32 -118 42 -162 10 -44 26 -100 37 -124 10 -25 28 -79 39 -120 11 -42 29 -89 39 -106 10 -16 25 -57 35 -90 9 -33 23 -67 30 -75 7 -8 21 -42 30 -75 9 -33 27 -76 40 -95 12 -19 26 -46 30 -60 13 -46 191 -368 221 -401 8 -8 14 -21 14 -28 0 -7 15 -32 32 -56 18 -24 41 -56 50 -72 63 -105 289 -402 415 -543 119 -133 321 -330 439 -427 111 -90 201 -162 243 -192 70 -51 191 -134 222 -153 15 -9 46 -30 70 -47 23 -17 45 -31 49 -31 5 0 31 -16 60 -35 29 -19 56 -35 61 -35 4 0 28 -13 52 -30 50 -33 236 -130 250 -130 6 0 31 -13 56 -28 25 -16 70 -34 98 -41 29 -7 63 -21 76 -31 13 -11 46 -24 73 -31 27 -6 67 -22 89 -34 22 -12 76 -32 121 -44 44 -11 98 -29 120 -39 21 -11 75 -27 119 -36 44 -9 118 -28 165 -42 47 -13 132 -30 190 -38 121 -16 141 -22 133 -42 -4 -12 99 -14 727 -14 628 0 731 2 727 14 -8 20 12 26 133 42 58 8 143 25 190 38 47 14 119 32 160 41 41 9 102 27 135 40 33 13 89 31 125 40 35 9 82 27 105 40 22 13 56 26 75 30 19 4 53 18 76 30 22 13 63 29 90 36 27 7 70 25 95 41 25 15 50 28 54 28 15 0 202 96 247 127 26 18 52 33 57 33 5 0 31 15 59 33 27 19 56 36 64 40 9 3 67 40 129 83 63 43 137 93 164 112 28 18 68 49 90 67 22 19 67 55 100 81 145 111 207 167 365 325 129 129 254 266 290 319 13 19 47 63 76 97 49 59 187 249 229 317 11 17 32 48 48 67 15 20 27 39 27 43 0 8 48 90 96 166 35 56 144 267 144 279 0 6 11 28 24 49 13 20 30 62 39 92 9 30 28 77 42 104 14 27 25 56 25 64 0 8 13 40 29 71 16 32 34 84 41 117 7 32 25 88 40 124 15 36 33 92 40 125 6 33 24 110 40 170 16 61 32 137 35 170 4 33 18 110 30 170 32 152 35 195 39 565 4 407 -6 691 -28 790 -10 41 -28 136 -40 210 -13 74 -36 182 -50 240 -15 58 -34 134 -43 170 -29 112 -105 164 -152 104z"/>
 </g>

</svg>