<!DOCTYPE svg PUBLIC "-//W3C//DTD SVG 20010904//EN" "http://www.w3.org/TR/2001/REC-SVG-20010904/DTD/svg10.dtd">
<svg version="1.0" xmlns="http://www.w3.org/2000/svg" width="1000px" height="1000px" viewBox="0 0 10000 10000" preserveAspectRatio="xMidYMid meet">
<g id="layer102" fill="none" stroke="#000" stroke-width="20px">
<path d="M4725 9254 c-82 -7 -179 -17 -215 -23 -36 -6 -96 -15 -135 -20 -198 -29 -614 -154 -820 -247 -16 -7 -88 -36 -160 -64 -220 -86 -669 -319 -651 -337 3 -3 28 9 56 26 28 17 53 31 56 31 3 0 18 8 32 19 40 27 204 113 209 108 4 -4 -31 -27 -107 -69 -42 -24 -178 -124 -202 -149 -10 -10 -14 -20 -9 -23 5 -3 65 35 134 84 69 50 128 90 131 90 3 0 30 16 60 35 30 19 58 35 61 35 3 0 24 12 48 27 64 42 128 73 149 73 10 0 18 5 18 10 0 6 7 10 15 10 8 0 15 3 15 8 0 8 91 52 108 52 6 0 45 15 86 34 68 31 356 130 451 155 95 25 168 41 186 41 11 0 27 4 37 9 25 13 168 39 312 56 382 44 907 17 1246 -65 45 -11 89 -20 98 -20 15 0 138 -37 271 -82 107 -37 308 -118 410 -167 55 -27 124 -59 153 -71 28 -13 52 -27 52 -32 0 -4 6 -8 14 -8 8 0 16 -6 19 -14 3 -7 38 -30 79 -50 40 -21 82 -46 93 -56 11 -10 31 -24 45 -29 32 -14 93 -51 100 -60 3 -4 34 -28 70 -53 36 -26 78 -60 94 -77 17 -17 36 -31 43 -31 7 0 13 -4 13 -8 0 -4 24 -26 53 -47 28 -22 56 -46 61 -53 4 -8 20 -24 34 -35 14 -12 55 -50 91 -85 36 -34 76 -65 89 -68 27 -8 64 22 93 76 11 19 28 49 39 65 25 39 50 94 50 111 0 7 4 15 9 18 5 3 11 16 14 28 3 13 15 59 27 103 14 50 24 124 27 195 6 130 17 160 62 160 30 0 140 -52 187 -89 64 -50 152 -141 200 -206 16 -22 34 -46 41 -52 17 -19 103 -199 103 -216 0 -9 4 -18 9 -21 5 -3 12 -18 15 -33 7 -27 11 -44 35 -138 9 -34 7 -47 -13 -90 -51 -108 -67 -148 -73 -176 -3 -16 -10 -32 -14 -35 -5 -3 -9 -18 -9 -35 0 -16 -4 -29 -9 -29 -5 0 -16 -35 -26 -77 -9 -43 -23 -95 -31 -116 -18 -47 -18 -102 -1 -119 16 -16 137 -196 137 -204 0 -3 14 -25 30 -50 64 -92 187 -324 268 -504 47 -106 132 -330 136 -360 1 -9 4 -20 8 -25 5 -10 40 -119 59 -190 6 -22 15 -51 20 -65 4 -14 11 -45 15 -70 3 -25 11 -51 16 -57 13 -17 858 -19 858 -3 0 7 -112 10 -332 10 -183 0 -374 0 -424 0 l-91 0 -12 58 c-7 31 -16 68 -20 82 -5 14 -14 43 -20 65 -33 120 -125 384 -170 490 -12 28 -30 68 -39 90 -67 158 -240 468 -356 640 -59 86 -81 127 -79 145 13 100 112 406 170 522 29 60 29 83 -2 190 -62 215 -140 344 -305 509 -83 82 -123 114 -180 142 -88 44 -122 47 -155 11 -23 -25 -25 -35 -25 -119 0 -106 -20 -226 -56 -335 -29 -85 -103 -220 -121 -220 -7 0 -13 4 -13 8 0 8 -87 79 -230 188 -165 125 -427 289 -433 271 -3 -9 -11 -8 -32 1 -15 7 -25 16 -21 19 3 4 12 1 18 -5 14 -14 28 -16 28 -4 0 11 -219 121 -445 223 -357 162 -506 215 -768 274 -220 50 -337 67 -602 89 -210 18 -353 18 -560 0z m2494 -664 c6 0 11 -4 11 -10 0 -5 5 -10 10 -10 12 0 124 -72 128 -82 2 -5 10 -8 18 -8 8 0 14 -4 14 -10 0 -5 6 -10 14 -10 8 0 16 -3 18 -8 2 -4 28 -25 58 -47 110 -79 270 -210 270 -221 0 -18 -26 -35 -44 -28 -9 3 -16 10 -16 14 0 5 -8 11 -17 15 -10 3 -45 31 -78 61 -65 60 -188 169 -251 222 -21 18 -78 58 -126 89 -48 31 -85 60 -82 65 3 5 18 -1 34 -12 15 -11 33 -20 39 -20z"/>
<path d="M5080 9091 c0 -11 4 -21 9 -21 18 0 21 18 6 30 -13 10 -15 9 -15 -9z"/>
<path d="M4430 9031 c-8 -5 -69 -19 -135 -31 -66 -13 -138 -28 -160 -35 -22 -7 -60 -18 -85 -25 -25 -6 -52 -16 -61 -20 -9 -5 -41 -11 -72 -15 -32 -4 -57 -11 -57 -16 0 -5 -10 -13 -22 -18 -89 -34 -117 -45 -145 -57 -17 -8 -34 -14 -38 -14 -9 0 -65 -25 -135 -60 -30 -15 -107 -54 -170 -85 -151 -76 -392 -233 -382 -250 4 -6 32 -33 62 -59 30 -26 66 -58 80 -70 49 -42 305 -226 315 -226 2 0 28 -14 57 -32 85 -51 322 -166 331 -161 4 2 5 19 3 36 -3 18 -17 108 -32 202 l-26 169 37 34 c32 30 42 34 75 29 24 -3 63 -23 103 -51 35 -25 67 -46 70 -46 12 0 97 -62 97 -71 0 -5 4 -9 9 -9 14 0 101 -60 101 -69 0 -4 16 -13 36 -20 48 -17 61 -4 74 75 5 32 14 94 21 137 6 42 16 77 20 77 5 0 9 21 9 48 1 63 24 243 60 451 25 146 24 185 -5 188 -11 1 -27 -2 -35 -6z"/>
<path d="M2705 8550 c-4 -6 -25 -22 -48 -37 -61 -38 -207 -146 -203 -150 2 -2 22 9 43 24 22 15 81 57 132 92 50 35 91 67 91 72 0 12 -7 11 -15 -1z"/>
<path d="M5696 8512 c-2 -4 -1 -14 5 -22 5 -8 9 -37 9 -65 0 -27 5 -67 11 -88 5 -20 14 -70 20 -110 18 -138 21 -148 44 -163 17 -11 29 -12 49 -5 14 6 26 15 26 21 0 5 6 10 14 10 8 0 16 4 18 8 3 8 96 72 104 72 3 0 12 7 21 16 22 22 6 48 -89 147 -43 44 -78 87 -78 94 0 7 -6 13 -13 13 -7 0 -29 12 -48 26 -48 36 -87 55 -93 46z"/>
<path d="M2704 8415 c-6 -15 -88 -76 -140 -103 -13 -7 -24 -17 -24 -21 0 -4 -27 -27 -60 -50 -33 -23 -67 -50 -76 -59 -10 -9 -29 -26 -44 -37 -38 -28 -200 -177 -284 -261 -122 -121 -196 -204 -306 -344 -41 -52 -77 -97 -81 -100 -3 -3 -41 -57 -83 -120 -42 -63 -88 -132 -102 -153 -15 -21 -38 -60 -51 -85 -14 -26 -28 -49 -32 -52 -4 -3 -19 -30 -34 -60 -15 -30 -54 -107 -87 -170 -33 -63 -60 -123 -60 -133 0 -9 -4 -25 -9 -35 -4 -9 -23 -62 -41 -117 -32 -98 -44 -130 -71 -190 -7 -16 -13 -36 -14 -43 0 -7 -6 -17 -14 -21 -8 -5 -11 -16 -6 -30 4 -12 2 -27 -3 -34 -5 -7 -17 -46 -27 -87 -10 -41 -21 -84 -25 -95 -4 -11 -20 -72 -35 -135 -15 -63 -33 -124 -40 -135 -11 -18 -15 -38 -30 -135 -3 -14 -11 -68 -19 -120 -59 -372 -33 -973 60 -1395 38 -175 126 -479 165 -570 4 -11 33 -81 65 -155 70 -167 240 -504 272 -538 7 -8 19 -27 28 -43 34 -66 260 -388 294 -419 3 -3 26 -30 50 -60 91 -112 292 -319 409 -420 35 -30 73 -65 84 -76 12 -12 58 -50 102 -84 44 -35 82 -67 83 -72 2 -4 12 -8 23 -8 10 0 19 -4 19 -9 0 -5 27 -26 60 -47 33 -22 60 -42 60 -46 0 -3 28 -23 63 -42 34 -20 89 -54 122 -76 33 -21 78 -48 100 -60 22 -11 67 -36 100 -55 33 -19 67 -37 75 -41 131 -61 199 -92 270 -121 47 -20 94 -39 105 -44 11 -4 44 -16 73 -25 29 -9 55 -20 58 -25 3 -5 14 -9 25 -9 11 0 45 -9 77 -21 127 -46 434 -119 622 -148 260 -40 354 -46 637 -46 409 1 584 22 1038 127 50 11 99 24 110 28 11 4 70 24 130 43 148 48 175 57 210 72 17 8 62 25 100 40 60 23 361 168 405 195 8 5 61 36 118 70 57 33 115 69 130 79 15 10 54 36 87 57 33 21 80 55 105 74 25 20 63 48 85 62 22 15 56 42 75 61 19 18 53 46 75 62 22 17 56 47 76 67 20 21 42 38 48 38 6 0 11 7 11 15 0 8 3 15 8 15 4 0 33 25 66 55 32 30 62 55 67 55 5 0 9 6 9 13 0 7 8 20 18 28 35 32 215 228 226 247 6 11 39 54 74 95 34 42 96 127 137 189 41 62 82 123 90 135 8 12 15 26 15 31 0 6 7 12 15 16 8 3 15 10 15 17 0 6 8 23 19 37 37 54 126 224 199 382 82 177 195 490 236 658 9 34 22 88 30 120 24 94 54 258 76 417 17 117 23 219 27 465 5 277 3 338 -16 505 -11 105 -26 217 -32 250 -21 118 -63 313 -80 370 -66 224 -102 340 -119 380 -4 11 -29 74 -56 139 -56 141 -185 398 -275 549 -35 59 -69 117 -76 128 -6 12 -17 25 -25 30 -9 6 -13 32 -14 81 -1 93 -2 98 -14 98 -6 0 -10 -43 -10 -110 0 -293 -72 -408 -305 -483 -122 -39 -643 -23 -687 21 -7 7 -22 12 -35 12 -13 0 -31 4 -41 9 -9 6 -44 22 -77 37 -51 23 -210 117 -225 134 -3 3 -34 30 -70 60 -140 117 -346 337 -473 507 -68 89 -98 111 -117 87 -7 -8 -18 -14 -25 -14 -25 0 -103 -41 -110 -57 -4 -10 -14 -56 -21 -103 -24 -154 -21 -147 -92 -216 -37 -35 -70 -64 -74 -64 -5 0 -8 -7 -8 -15 0 -8 3 -15 8 -15 4 0 21 -12 37 -28 17 -15 60 -51 95 -81 73 -61 130 -119 169 -171 14 -19 38 -48 53 -64 16 -17 28 -34 28 -39 0 -5 15 -30 33 -56 31 -42 46 -67 116 -194 12 -21 21 -43 21 -49 0 -6 14 -40 30 -75 17 -34 30 -72 30 -82 0 -11 5 -23 10 -26 6 -3 10 -17 10 -31 0 -13 4 -32 9 -42 13 -26 30 -116 41 -222 6 -52 15 -108 20 -125 5 -16 7 -57 5 -89 -4 -70 6 -96 40 -96 13 0 27 -4 30 -10 3 -5 15 -10 26 -10 28 0 129 -59 129 -76 0 -8 5 -14 10 -14 12 0 64 -51 84 -83 34 -54 66 -176 66 -251 0 -41 -5 -78 -10 -81 -6 -3 -10 -18 -10 -32 0 -38 -57 -137 -108 -188 -24 -25 -48 -45 -53 -45 -4 0 -14 -7 -23 -15 -22 -22 -103 -55 -136 -55 -16 0 -32 -6 -37 -12 -4 -7 -6 -191 -5 -408 2 -264 -1 -412 -8 -445 -6 -27 -15 -68 -20 -90 -10 -49 -26 -102 -41 -135 -26 -59 -44 -95 -49 -100 -3 -3 -21 -27 -40 -55 -39 -57 -124 -145 -138 -145 -6 0 -12 -6 -15 -13 -3 -7 -38 -29 -78 -48 -66 -32 -104 -45 -229 -80 -19 -5 -107 -11 -195 -13 -88 -2 -173 -9 -188 -15 -16 -6 -76 -11 -135 -11 -59 0 -172 -7 -252 -15 -79 -9 -149 -14 -156 -11 -6 2 -46 0 -90 -6 -43 -5 -155 -14 -249 -18 -93 -5 -186 -11 -205 -14 -19 -2 -102 -7 -184 -11 -83 -3 -154 -9 -159 -12 -4 -3 -96 -8 -203 -12 -119 -5 -199 -12 -206 -19 -7 -7 -10 -65 -9 -172 2 -156 2 -162 -20 -181 -13 -11 -33 -22 -45 -25 -28 -7 -195 13 -231 28 -49 19 -108 48 -124 60 -9 6 -24 8 -34 4 -16 -6 -17 -19 -10 -171 l7 -164 -31 -31 -31 -31 -102 3 c-57 1 -114 8 -128 15 -14 7 -32 13 -41 13 -9 0 -42 11 -73 25 -31 14 -61 25 -66 25 -6 0 -28 12 -49 28 -21 15 -49 34 -61 42 -55 37 -174 173 -208 237 -19 37 -38 70 -42 73 -4 3 -10 19 -14 35 -4 17 -14 62 -23 100 -24 108 -30 584 -8 713 17 100 31 156 46 182 5 8 12 22 15 30 69 171 209 319 379 399 94 45 99 46 188 67 l77 18 -2 179 -3 178 -71 30 c-96 40 -173 116 -234 229 -23 41 -25 56 -25 182 0 97 4 141 13 150 6 6 12 19 12 28 0 23 73 119 123 160 23 20 62 44 87 54 98 39 94 34 102 138 11 160 24 273 32 286 4 7 12 37 16 65 12 75 30 140 41 151 5 6 9 19 9 29 0 10 6 31 14 45 8 15 27 59 42 97 16 39 31 72 34 75 3 3 18 30 34 60 34 63 95 153 108 158 4 2 8 10 8 18 0 8 15 30 33 48 17 18 44 48 59 67 34 43 118 129 127 129 4 0 14 8 22 18 21 23 76 71 122 105 20 15 37 33 37 39 0 6 -25 35 -55 65 -74 73 -91 110 -98 211 -6 94 -20 123 -69 141 -52 20 -81 33 -103 44 -11 6 -42 21 -70 34 -113 54 -243 126 -369 206 -118 74 -286 205 -425 330 -116 105 -121 110 -121 134 0 26 -18 31 -26 8z"/>
<path d="M2342 8283 c-51 -42 -90 -78 -88 -80 4 -4 44 26 156 117 19 16 33 31 30 34 -3 3 -47 -29 -98 -71z"/>
<path d="M2158 8119 c-40 -39 -62 -64 -48 -53 14 10 34 28 46 39 11 11 35 33 53 48 19 15 31 30 28 33 -3 3 -38 -27 -79 -67z"/>
<path d="M1952 7923 c-144 -153 -209 -233 -92 -113 46 47 115 118 153 157 39 40 68 75 65 78 -3 3 -60 -52 -126 -122z"/>
<path d="M1753 7708 c-42 -55 -65 -88 -60 -88 8 0 79 91 75 96 -3 2 -10 -1 -15 -8z"/>
<path d="M1615 7533 c-123 -174 -157 -225 -153 -229 2 -2 28 31 58 74 29 42 78 110 107 149 30 40 53 77 51 82 -1 5 -30 -30 -63 -76z"/>
<path d="M4850 7370 c-134 -19 -248 -46 -315 -75 -16 -7 -61 -24 -100 -39 -38 -15 -90 -39 -115 -54 -25 -15 -61 -36 -79 -47 -194 -115 -391 -299 -503 -470 -134 -203 -207 -384 -248 -620 -18 -102 -20 -161 -20 -811 0 -558 3 -704 13 -712 7 -6 87 -13 182 -17 94 -3 184 -8 200 -10 17 -3 129 -9 250 -15 121 -6 261 -13 310 -16 50 -2 178 -9 285 -14 486 -23 632 -31 725 -40 55 -5 152 -9 215 -10 63 0 171 -5 240 -12 186 -17 535 -17 585 1 50 18 99 49 114 74 16 24 15 1485 0 1572 -53 298 -157 535 -328 747 -85 106 -228 238 -335 310 -88 58 -275 158 -297 158 -6 0 -25 6 -42 14 -51 23 -118 44 -177 56 -30 7 -71 16 -90 22 -45 12 -398 19 -470 8z m360 -581 c76 -12 137 -31 200 -63 94 -47 200 -124 200 -145 0 -5 9 -13 21 -16 11 -4 27 -22 36 -40 13 -28 14 -39 4 -62 -16 -40 -64 -67 -91 -53 -11 6 -20 7 -20 3 0 -4 -7 2 -15 13 -8 10 -15 15 -15 11 0 -4 -18 11 -40 34 -22 23 -43 40 -46 37 -3 -3 -31 9 -61 28 -31 19 -61 34 -66 34 -4 0 -6 4 -3 9 4 5 -2 7 -13 4 -10 -3 -22 1 -26 8 -6 8 -4 10 5 4 9 -6 11 -4 5 4 -4 8 -17 10 -31 7 -13 -4 -24 -2 -24 3 0 5 -7 12 -16 15 -9 4 -13 2 -8 -5 5 -8 -3 -9 -27 -3 -45 12 -222 10 -279 -3 -87 -19 -228 -95 -293 -158 -41 -40 -79 -50 -116 -31 -68 36 -68 89 -2 159 84 89 236 169 381 202 69 16 254 18 340 4z m-76 -748 c50 -29 54 -93 9 -133 -15 -14 -32 -16 -87 -13 -38 3 -76 10 -84 17 -13 11 -14 11 -8 -2 5 -8 -1 -6 -13 6 -31 29 -31 87 -1 119 21 22 32 25 89 24 43 0 76 -6 95 -18z m394 -500 c7 -4 27 -29 45 -56 39 -60 84 -81 153 -70 49 7 75 28 132 104 19 25 31 31 62 31 32 0 43 -6 64 -33 32 -42 32 -55 2 -115 -77 -152 -282 -215 -439 -135 -74 37 -157 147 -157 206 0 31 34 74 63 80 23 4 53 -1 75 -12z m-1102 -8 c65 -42 94 -146 59 -212 -50 -98 -186 -119 -263 -40 -65 67 -62 161 8 231 36 36 41 38 104 38 46 0 75 -5 92 -17z"/>
<path d="M1359 7148 c-94 -158 -214 -387 -206 -395 3 -3 28 39 55 94 76 153 116 225 166 300 25 39 46 74 46 78 0 5 7 16 16 26 9 10 14 23 12 29 -2 6 -42 -53 -89 -132z"/>
<path d="M8320 7115 c0 -8 5 -15 10 -15 6 0 10 7 10 15 0 8 -4 15 -10 15 -5 0 -10 -7 -10 -15z"/>
<path d="M1120 6688 c-12 -29 -28 -66 -36 -83 -30 -67 -78 -195 -106 -285 -17 -52 -38 -120 -48 -151 -10 -31 -28 -99 -41 -150 -12 -52 -30 -100 -38 -107 -14 -11 -14 -12 4 -10 19 3 29 29 42 106 3 18 9 35 14 38 5 3 9 15 9 27 0 22 36 146 70 242 9 28 25 75 35 105 18 54 94 242 117 287 6 13 9 25 6 28 -3 3 -15 -18 -28 -47z"/>
<path d="M0 5910 c0 -6 151 -11 409 -12 323 -2 407 0 404 10 -6 15 -813 18 -813 2z"/>
<path d="M3206 5556 c-82 -89 -116 -160 -116 -242 0 -49 31 -135 65 -180 26 -34 105 -94 124 -94 8 0 12 85 13 265 1 146 2 275 2 287 2 41 -28 29 -88 -36z"/>
<path d="M0 4655 l0 -635 388 -2 c213 -1 407 -2 432 -3 l44 0 27 -105 c58 -225 143 -473 220 -638 16 -35 29 -65 29 -68 0 -6 123 -252 148 -296 11 -20 32 -55 46 -77 15 -22 26 -43 26 -46 0 -5 142 -221 175 -266 11 -15 37 -51 57 -81 62 -91 244 -304 367 -431 103 -107 254 -244 397 -362 171 -141 574 -406 574 -377 0 5 -8 12 -17 16 -22 7 -68 34 -110 64 -17 12 -36 22 -42 22 -6 0 -11 5 -11 10 0 6 -6 10 -14 10 -8 0 -16 3 -18 8 -1 4 -30 25 -63 47 -320 214 -664 524 -903 813 -108 131 -127 156 -177 226 -27 39 -53 73 -57 74 -4 2 -8 8 -8 14 0 5 -11 24 -25 42 -14 18 -25 38 -25 44 0 6 -3 12 -7 14 -9 3 -83 114 -83 123 0 3 -12 24 -26 47 -34 53 -182 345 -213 418 -13 30 -30 71 -38 90 -25 59 -30 72 -58 150 -14 41 -30 84 -35 96 -4 12 -24 77 -44 145 -20 68 -45 151 -55 184 -37 118 -51 171 -62 230 -5 33 -16 98 -24 145 -8 47 -24 177 -36 290 -18 172 -21 245 -16 453 l4 247 -383 0 -384 0 0 -635z"/>
<path d="M9254 4967 c0 -247 -4 -349 -17 -437 -9 -63 -22 -149 -28 -190 -16 -115 -50 -294 -58 -305 -4 -5 -13 -35 -20 -65 -7 -30 -16 -64 -21 -75 -4 -11 -13 -38 -19 -60 -44 -159 -105 -343 -149 -445 -28 -66 -42 -100 -58 -137 -22 -52 -155 -319 -184 -368 -65 -114 -163 -270 -171 -273 -5 -2 -9 -8 -9 -13 0 -6 -4 -15 -10 -22 -5 -7 -55 -73 -110 -147 -56 -74 -111 -146 -123 -160 -12 -14 -59 -68 -104 -120 -135 -157 -395 -401 -566 -529 -29 -22 -74 -57 -102 -78 -27 -21 -88 -63 -135 -93 -47 -30 -86 -58 -88 -62 -2 -5 -10 -8 -18 -8 -8 0 -14 -3 -14 -7 0 -5 -10 -13 -23 -19 -12 -6 -51 -28 -87 -49 -61 -35 -149 -83 -230 -125 -19 -10 -71 -35 -115 -55 -44 -20 -97 -45 -118 -56 -22 -10 -47 -19 -58 -19 -10 0 -19 -4 -19 -10 0 -5 -6 -10 -12 -10 -11 0 -114 -36 -175 -61 -13 -5 -33 -13 -45 -18 -13 -5 -32 -12 -43 -14 -11 -3 -45 -13 -75 -22 -30 -9 -71 -20 -90 -25 -19 -5 -53 -14 -75 -20 -22 -6 -60 -16 -85 -22 -25 -5 -63 -14 -85 -19 -330 -76 -770 -111 -1126 -90 -112 7 -235 16 -274 21 -119 15 -209 29 -230 34 -23 6 -179 34 -212 39 -12 2 -26 6 -29 10 -4 4 -21 7 -37 7 -112 0 176 -62 493 -107 177 -25 756 -30 932 -8 73 9 149 18 168 20 54 5 201 33 350 65 178 39 182 40 205 50 11 5 61 21 110 35 131 39 246 79 353 125 12 6 32 14 45 19 65 26 184 82 277 130 281 144 389 214 749 485 225 170 625 600 804 866 116 171 217 333 217 347 0 3 9 17 20 33 20 28 111 207 148 290 54 124 66 151 94 225 16 44 36 94 43 110 7 17 22 62 34 100 12 39 30 99 41 135 11 36 30 106 43 155 l22 90 75 0 c41 0 231 1 423 3 l347 2 0 635 0 635 -372 0 -373 0 -1 -323z"/>
<path d="M3340 4350 c-82 -6 -120 -14 -170 -36 -198 -86 -321 -216 -391 -414 -22 -61 -23 -83 -27 -373 -4 -346 0 -380 64 -513 31 -65 108 -157 170 -205 70 -54 190 -105 259 -111 l40 -3 5 308 5 309 33 29 c18 16 44 29 58 29 35 0 84 -30 89 -55 25 -139 49 -197 99 -238 34 -28 109 -65 141 -68 l30 -4 3 151 3 151 29 28 c24 23 40 29 87 32 32 2 110 8 173 14 63 6 147 13 185 15 39 1 133 8 210 13 77 6 219 15 315 21 96 6 256 17 355 25 99 8 286 21 415 30 129 9 287 20 350 26 63 6 156 14 205 19 97 8 145 23 233 70 84 45 186 146 198 198 4 12 10 22 14 22 14 0 57 122 70 196 12 66 10 207 -3 220 -3 3 -32 -1 -64 -9 -102 -26 -218 -29 -453 -13 -124 9 -324 21 -445 26 -121 6 -301 16 -400 21 -99 5 -214 11 -255 13 -320 16 -500 27 -530 31 -19 3 -147 10 -285 16 -137 6 -270 12 -295 13 -25 2 -108 6 -185 10 -77 4 -160 8 -185 10 -25 2 -92 0 -150 -4z"/>
<path d="M2974 1239 c-5 -10 265 -143 273 -135 8 7 23 -1 -135 77 -73 36 -135 62 -138 58z"/>
<path d="M3260 1095 c0 -10 241 -108 248 -100 9 8 -10 25 -29 25 -11 0 -41 10 -67 21 -120 55 -152 66 -152 54z"/>
<path d="M3520 990 c0 -5 1 -10 3 -10 1 0 54 -18 117 -40 63 -22 121 -40 129 -40 29 0 -4 18 -74 39 -68 21 -101 33 -137 52 -23 12 -38 11 -38 -1z"/>
<path d="M3790 901 c0 -5 18 -15 41 -21 22 -6 47 -14 55 -17 8 -3 14 0 14 6 0 5 -18 15 -41 21 -22 6 -47 14 -55 17 -8 3 -14 0 -14 -6z"/>
<path d="M3911 866 c2 -2 14 -9 27 -15 18 -10 22 -9 22 4 0 10 -9 15 -27 15 -14 0 -24 -2 -22 -4z"/>
</g>


</svg>