<!DOCTYPE svg PUBLIC "-//W3C//DTD SVG 20010904//EN" "http://www.w3.org/TR/2001/REC-SVG-20010904/DTD/svg10.dtd">
<svg version="1.0" xmlns="http://www.w3.org/2000/svg" width="1000px" height="1000px" viewBox="0 0 10000 10000" preserveAspectRatio="xMidYMid meet">
<g id="layer101" fill="#313131" stroke="none">
 <path d="M2390 9743 c-45 -45 -60 -76 -60 -129 0 -53 16 -83 70 -131 l25 -22 743 -1 742 0 -2 -575 -3 -575 -1690 -2 -1690 -3 -52 -21 c-115 -47 -175 -106 -222 -217 l-21 -49 0 -3424 c0 -1935 4 -3432 9 -3442 75 -148 98 -175 191 -221 l75 -36 738 -3 c569 -2 737 -5 738 -15 0 -7 0 -113 -1 -237 0 -291 5 -323 60 -372 l43 -38 2917 0 2917 0 43 38 c55 49 60 81 60 372 -1 124 -1 230 -1 237 1 10 169 13 739 15 l737 3 75 36 c93 46 116 73 191 221 5 10 9 1507 9 3442 l0 3424 -21 49 c-47 111 -108 170 -222 216 -48 20 -71 22 -307 22 -253 0 -255 0 -291 -24 -78 -53 -100 -136 -57 -212 36 -64 57 -69 301 -69 210 0 262 -6 279 -33 4 -7 8 -1525 8 -3374 l0 -3363 -23 -15 c-21 -13 -109 -15 -720 -13 l-697 3 -2 385 -3 385 -24 33 c-34 44 -102 76 -148 69 -44 -8 -99 -50 -124 -97 -18 -33 -19 -72 -19 -737 l0 -703 -2700 0 -2700 0 0 3105 0 3105 250 0 250 0 0 -634 c0 -681 0 -675 52 -723 12 -11 41 -26 63 -33 29 -8 368 -10 1266 -8 l1225 3 41 27 c76 50 73 18 73 732 l0 635 623 3 c586 3 624 4 649 22 43 28 72 83 72 135 1 57 -36 111 -98 140 l-42 21 -2864 0 -2864 0 -42 -21 c-116 -56 -129 -195 -25 -274 25 -19 46 -20 539 -25 l512 -5 0 -2770 0 -2770 -697 -3 c-611 -2 -699 0 -720 13 l-23 15 0 3363 c0 1849 4 3367 8 3374 4 6 20 17 35 22 20 8 955 11 3098 11 3389 0 3115 -6 3159 66 48 77 24 165 -60 217 -34 21 -45 22 -360 25 l-325 2 -3 575 -2 575 401 0 c389 0 403 1 435 21 86 53 91 190 11 262 l-31 27 -2246 -1 -2245 -1 -25 -25z m3380 -858 l0 -575 -770 0 -770 0 0 575 0 575 770 0 770 0 0 -575z m-570 -2670 l0 -535 -1045 0 -1045 0 0 535 0 535 1045 0 1045 0 0 -535z"/>
 <path d="M7665 9746 c-75 -28 -191 -83 -229 -110 -39 -29 -171 -187 -198 -239 -37 -70 -47 -107 -63 -222 -13 -95 -15 -465 -15 -2709 0 -1900 3 -2609 11 -2635 27 -84 44 -130 71 -189 15 -34 28 -65 28 -67 0 -2 23 -57 50 -122 28 -65 55 -134 60 -153 8 -34 79 -208 121 -299 11 -24 29 -67 40 -95 11 -28 26 -64 33 -81 7 -16 20 -54 30 -83 9 -29 28 -78 42 -110 14 -31 40 -90 57 -131 28 -65 38 -78 76 -99 55 -30 103 -31 157 -4 52 26 57 33 87 117 24 66 101 255 132 320 26 56 55 136 55 150 0 8 12 40 26 72 26 57 39 88 55 128 4 11 19 45 32 75 36 79 91 216 112 280 9 30 28 78 40 105 13 28 37 85 54 128 l31 78 -2 2677 -3 2677 -30 80 c-17 45 -44 103 -60 129 -17 27 -36 60 -44 74 -25 47 -147 156 -212 191 -35 18 -101 46 -146 62 -75 27 -92 29 -210 28 -104 -2 -139 -6 -188 -23z m299 -298 c74 -21 166 -91 215 -163 46 -67 56 -136 56 -375 l0 -215 -377 -3 -378 -2 0 227 c0 268 5 291 87 398 54 70 102 104 188 131 51 16 156 17 209 2z m276 -3243 l0 -2165 -380 0 -380 0 0 2165 0 2165 380 0 380 0 0 -2165z m-80 -2503 c0 -10 -6 -26 -13 -37 -7 -11 -20 -36 -27 -55 -7 -19 -33 -82 -58 -140 -24 -58 -50 -125 -57 -150 -12 -40 -83 -216 -120 -297 -8 -17 -15 -36 -15 -42 0 -6 -4 -11 -9 -11 -10 0 -61 111 -61 133 0 16 -32 98 -50 130 -6 9 -24 52 -41 95 -17 42 -39 95 -49 117 -35 77 -70 169 -70 182 0 8 -7 27 -15 44 -9 16 -13 34 -10 39 4 6 121 10 301 10 275 0 294 -1 294 -18z"/>
 <path d="M2869 5037 c-46 -31 -70 -81 -66 -137 7 -97 57 -144 160 -155 34 -3 597 -5 1252 -3 l1190 3 42 28 c97 66 98 198 2 261 l-39 26 -1253 0 -1254 0 -34 -23z"/>
 <path d="M5893 5039 c-102 -65 -99 -206 5 -271 l37 -23 405 0 405 0 37 23 c106 66 108 207 4 271 -32 20 -47 21 -447 21 -401 0 -415 -1 -446 -21z"/>
 <path d="M2920 4453 c-14 -3 -40 -16 -58 -30 -83 -63 -79 -202 7 -260 l34 -23 1250 0 c1245 0 1249 0 1286 21 49 28 71 60 78 117 7 64 -17 115 -70 150 l-41 27 -1230 1 c-677 1 -1242 -1 -1256 -3z"/>
 <path d="M5925 4445 c-132 -47 -147 -215 -26 -283 38 -22 46 -22 445 -22 l406 0 40 26 c49 33 85 101 76 147 -9 45 -51 103 -88 124 -30 16 -71 18 -423 20 -318 2 -397 0 -430 -12z"/>
 <path d="M2910 3841 c-14 -5 -36 -14 -49 -22 -27 -16 -61 -88 -61 -129 0 -44 34 -114 66 -136 28 -19 58 -19 1290 -19 l1261 0 37 29 c97 74 83 212 -27 265 -43 21 -46 21 -1268 20 -673 0 -1235 -4 -1249 -8z"/>
 <path d="M5908 3830 c-119 -63 -123 -214 -7 -279 35 -20 52 -21 450 -21 391 0 415 1 453 20 123 60 119 223 -8 281 -38 17 -72 19 -446 18 -382 0 -407 -1 -442 -19z"/>
 <path d="M2863 3008 c-84 -60 -81 -207 6 -265 l34 -23 2097 0 2097 0 34 23 c87 59 90 206 5 265 l-32 22 -2105 0 -2104 0 -32 -22z"/>
 <path d="M2906 2413 c-45 -7 -72 -30 -90 -77 -15 -38 -16 -104 -14 -617 3 -623 2 -609 59 -651 14 -11 43 -23 65 -28 52 -13 4096 -13 4148 0 22 5 51 17 65 28 57 42 56 28 59 651 3 630 2 638 -57 678 -25 17 -128 18 -2116 19 -1149 1 -2103 -1 -2119 -3z m3984 -678 l0 -375 -1890 0 -1890 0 0 375 0 375 1890 0 1890 0 0 -375z"/>
 </g>

</svg>