<!DOCTYPE svg PUBLIC "-//W3C//DTD SVG 20010904//EN" "http://www.w3.org/TR/2001/REC-SVG-20010904/DTD/svg10.dtd">
<svg version="1.0" xmlns="http://www.w3.org/2000/svg" width="1000px" height="1000px" viewBox="0 0 10000 10000" preserveAspectRatio="xMidYMid meet">
<g id="layer101" fill="#313131" stroke="none">
 <path d="M4830 9827 c-80 -40 -184 -135 -216 -199 l-24 -48 -2171 0 c-2396 0 -2201 5 -2253 -63 l-26 -34 0 -3470 0 -3470 35 -36 c19 -20 52 -41 73 -46 20 -6 125 -11 233 -11 l197 0 4 -202 c2 -134 8 -210 16 -225 6 -11 27 -31 46 -42 32 -20 45 -21 429 -21 l396 0 48 -58 c113 -134 300 -299 425 -374 64 -38 180 -98 191 -98 4 0 26 -8 50 -19 253 -112 614 -153 907 -101 108 19 271 66 345 100 23 10 59 23 80 29 22 6 50 17 61 25 12 9 57 37 102 64 154 95 301 224 430 380 l44 52 1141 -2 1142 -3 5 -745 c6 -734 6 -746 27 -798 23 -57 29 -66 83 -125 19 -21 39 -45 43 -53 9 -16 70 -50 137 -76 40 -16 85 -18 433 -18 213 0 395 4 405 9 9 5 41 19 71 32 64 28 161 129 197 204 41 87 44 160 44 884 l-1 686 628 5 c595 5 629 6 656 24 48 33 51 48 55 264 l4 202 197 0 c108 0 213 5 233 11 21 5 54 26 73 46 l35 36 0 3470 0 3470 -26 34 c-52 68 71 63 -1569 63 l-1485 0 -40 -26 c-43 -29 -54 -53 -54 -124 0 -80 10 -99 60 -120 45 -20 80 -20 1435 -20 l1389 0 0 -3275 0 -3276 -122 3 -123 3 -5 252 -5 252 -28 29 c-51 53 -180 51 -223 -3 -42 -53 -45 -104 -42 -578 l3 -447 -525 0 -525 0 0 1443 0 1442 -27 46 c-15 25 -44 61 -64 79 l-37 32 2 127 c1 84 -4 149 -14 196 -8 39 -20 90 -25 115 -11 52 -33 116 -43 126 -4 4 -7 18 -7 31 l0 23 300 0 c276 0 304 2 338 19 47 24 67 60 67 121 0 61 -20 96 -71 126 l-41 24 -389 1 -389 0 -43 57 c-96 127 -115 148 -160 172 -37 20 -61 25 -118 25 -61 0 -77 -4 -119 -30 -27 -16 -62 -49 -79 -72 -17 -23 -51 -66 -75 -97 l-43 -56 -556 0 -555 0 -42 -25 c-99 -57 -102 -196 -6 -244 39 -20 55 -21 511 -21 504 0 486 2 461 -48 -10 -19 -23 -52 -41 -99 -25 -67 -52 -302 -44 -391 l6 -73 -46 -46 c-89 -88 -81 74 -84 -1555 l-2 -1448 -695 0 -695 0 0 2930 0 2930 1938 0 1937 0 -3 -2147 c-2 -1570 0 -2162 8 -2201 14 -63 53 -105 116 -122 38 -11 48 -10 87 9 24 12 53 31 63 42 19 21 19 89 19 2598 0 1417 -3 2588 -7 2603 -5 15 -24 36 -45 50 l-38 23 -1893 5 -1893 5 0 155 0 155 408 6 c224 3 419 9 433 13 68 20 93 142 45 215 -14 21 -37 43 -51 50 -17 8 -151 11 -444 11 l-420 0 -24 48 c-33 65 -136 160 -217 200 -62 30 -73 32 -170 32 -97 0 -108 -3 -169 -33z m245 -281 c58 -38 60 -49 63 -323 l3 -253 -141 0 -141 0 3 254 c3 239 4 256 24 283 44 61 129 78 189 39z m-514 -416 l0 -155 -1893 -5 -1893 -5 -37 -23 c-20 -12 -40 -30 -45 -40 -10 -20 -17 -1412 -8 -1491 15 -120 140 -165 233 -85 59 50 64 88 60 467 l-3 317 1938 0 1937 0 0 -2930 0 -2930 -209 0 -209 0 9 39 c5 21 17 58 27 82 10 24 24 64 31 89 8 25 19 65 27 90 44 150 61 461 35 635 -19 122 -67 293 -107 382 -8 17 -14 39 -14 48 0 35 -145 274 -223 368 -73 88 -232 243 -307 299 -75 56 -235 158 -248 158 -4 0 -41 14 -82 32 -41 17 -111 44 -155 59 l-80 28 -5 1153 c-4 947 -8 1159 -19 1188 -36 91 -44 107 -64 130 -72 80 -184 144 -282 160 -161 26 -353 -60 -423 -190 -72 -131 -66 -20 -72 -1294 l-5 -1149 -45 -14 c-114 -36 -231 -86 -372 -160 -117 -61 -379 -299 -483 -438 -57 -77 -135 -202 -135 -217 0 -5 -10 -28 -23 -51 -53 -97 -122 -304 -147 -442 -20 -114 -28 -279 -18 -395 17 -219 52 -357 145 -578 4 -9 -41 -12 -208 -12 l-214 0 0 2293 0 2292 -21 40 c-44 85 -136 110 -213 59 -22 -14 -43 -33 -48 -42 -4 -9 -10 -946 -13 -2082 l-5 -2065 -122 -3 -123 -3 0 3276 0 3275 2066 -2 2065 -3 0 -155z m284 -590 l0 -135 -1933 0 -1933 0 0 133 c0 72 1 134 1 137 0 3 870 4 1933 3 l1932 -3 0 -135z m4176 0 l0 -135 -1933 0 -1933 0 -3 124 c-1 69 0 131 2 138 4 11 353 13 1936 11 l1931 -3 0 -135z m-6051 -1655 c16 -8 38 -28 49 -44 21 -29 21 -31 21 -1128 l0 -1099 -130 -1 -130 0 0 1094 c0 1208 -4 1133 63 1173 38 24 87 26 127 5z m4366 -858 c75 -107 79 -114 112 -187 49 -109 60 -138 76 -195 10 -33 21 -74 27 -91 10 -34 11 -166 0 -204 -6 -23 -11 -25 -71 -25 l-65 0 -5 142 -6 143 -34 35 c-64 66 -154 71 -214 11 -44 -44 -56 -94 -56 -225 l0 -111 -64 0 c-49 0 -65 4 -70 16 -9 24 -7 210 3 236 5 13 14 43 21 68 16 58 22 75 49 128 11 24 21 51 21 59 0 14 48 103 61 113 3 3 15 19 25 35 43 68 105 155 112 155 4 0 39 -46 78 -103z m342 -1135 l3 -132 -422 2 -421 3 1 124 c1 69 4 128 7 133 3 4 191 7 417 6 l412 -3 3 -133z m0 -1722 l-3 -1281 -419 1 c-231 0 -420 1 -420 3 -1 1 0 577 2 1280 l2 1277 420 0 420 0 -2 -1280z m-4601 1140 c166 -22 261 -51 432 -131 81 -39 173 -95 179 -111 2 -4 10 -8 17 -8 18 0 124 -88 193 -160 53 -55 162 -193 162 -205 0 -3 14 -26 30 -50 17 -24 30 -46 30 -48 0 -3 16 -39 35 -80 86 -183 125 -361 125 -567 0 -113 -15 -237 -39 -330 -30 -119 -111 -310 -160 -379 -12 -16 -21 -32 -21 -35 0 -25 -157 -209 -242 -283 -53 -46 -250 -183 -263 -183 -2 0 -32 -13 -67 -30 -76 -35 -188 -77 -243 -91 -265 -64 -562 -47 -805 46 -71 27 -228 104 -243 120 -8 8 -38 27 -66 42 -87 48 -278 231 -314 303 -7 14 -30 47 -50 73 -45 59 -114 201 -156 319 -49 142 -65 242 -65 428 0 186 16 286 65 428 43 123 110 257 163 327 25 33 46 66 46 74 0 24 241 257 290 280 25 11 59 33 75 47 50 44 253 134 380 170 141 40 358 54 512 34z m4601 -2857 l3 -133 -419 0 c-230 0 -421 2 -423 4 -2 2 -3 63 -1 135 l3 131 417 -2 417 -3 3 -132z m0 -673 c4 -372 30 -350 -416 -350 -350 0 -358 1 -401 56 -20 25 -21 38 -21 279 0 138 2 254 4 256 2 2 190 3 418 2 l413 -2 3 -241z"/>
 <path d="M5820 7531 c-76 -24 -115 -78 -108 -152 6 -63 50 -112 114 -128 60 -15 869 -15 930 0 56 14 100 57 115 112 10 37 9 47 -12 85 -12 24 -36 53 -53 65 -31 22 -34 22 -496 24 -256 1 -476 -2 -490 -6z"/>
 <path d="M5813 6859 c-44 -13 -88 -60 -100 -106 -18 -73 34 -151 117 -173 25 -7 461 -9 1282 -8 l1244 3 41 27 c108 71 87 224 -35 258 -48 13 -2503 12 -2549 -1z"/>
 <path d="M5812 5523 c-12 -2 -37 -19 -56 -37 -87 -82 -41 -234 77 -251 23 -4 133 -5 244 -3 l202 3 30 29 c17 16 38 49 47 73 16 40 16 46 0 86 -9 24 -30 57 -47 73 l-30 29 -222 1 c-122 1 -232 0 -245 -3z"/>
 </g>

</svg>