<!DOCTYPE svg PUBLIC "-//W3C//DTD SVG 20010904//EN" "http://www.w3.org/TR/2001/REC-SVG-20010904/DTD/svg10.dtd">
<svg version="1.0" xmlns="http://www.w3.org/2000/svg" width="1000px" height="1000px" viewBox="0 0 10000 10000" preserveAspectRatio="xMidYMid meet">
<g id="layer101" fill="#313131" stroke="none">
 <path d="M4820 9510 c-118 -10 -260 -25 -315 -34 -133 -22 -299 -54 -355 -67 -25 -6 -72 -17 -106 -25 -34 -7 -72 -17 -85 -23 -13 -5 -53 -17 -89 -27 -136 -37 -336 -106 -416 -145 -22 -10 -45 -19 -51 -19 -6 0 -24 -7 -40 -15 -15 -8 -59 -29 -98 -46 -683 -305 -1338 -834 -1791 -1449 -212 -287 -393 -592 -504 -850 -17 -41 -40 -92 -51 -113 -10 -21 -19 -43 -19 -50 0 -7 -7 -25 -16 -42 -9 -16 -22 -48 -29 -70 -8 -22 -32 -92 -55 -155 -23 -63 -47 -138 -54 -166 -8 -27 -18 -66 -24 -85 -6 -18 -18 -65 -27 -104 -9 -38 -22 -95 -29 -125 -16 -65 -49 -250 -71 -405 -27 -180 -37 -423 -32 -715 6 -296 25 -474 81 -770 36 -186 113 -470 171 -625 15 -38 33 -88 40 -110 15 -46 28 -77 126 -300 29 -66 69 -147 87 -180 19 -33 38 -70 43 -82 4 -12 21 -41 36 -65 30 -47 45 -73 82 -140 47 -85 309 -461 341 -488 3 -3 21 -25 40 -50 141 -184 566 -595 744 -720 11 -8 64 -46 116 -85 259 -191 609 -391 885 -505 55 -22 109 -45 120 -50 39 -17 177 -67 305 -109 207 -69 504 -139 685 -161 38 -5 117 -16 175 -24 58 -8 162 -17 233 -21 70 -4 127 -11 127 -16 0 -5 78 -9 175 -9 97 0 175 4 175 9 0 5 53 12 118 15 64 4 171 14 237 22 66 9 149 20 185 24 234 29 681 144 733 188 16 14 17 57 17 632 l0 618 -22 5 c-19 6 -86 -19 -160 -59 -14 -8 -32 -14 -40 -14 -7 0 -24 -6 -38 -13 -33 -18 -162 -59 -285 -91 -55 -15 -116 -31 -135 -36 -42 -11 -154 -32 -310 -57 -168 -26 -774 -26 -935 0 -221 37 -444 84 -460 97 -5 4 -32 13 -60 18 -27 5 -72 18 -100 28 -78 28 -177 65 -194 74 -9 4 -70 32 -136 61 -158 71 -340 168 -434 233 -25 17 -53 36 -63 41 -189 114 -554 447 -733 670 -214 266 -382 544 -500 825 -15 36 -35 83 -45 105 -17 37 -69 198 -105 320 -38 132 -67 267 -69 320 l-1 30 2399 3 c1753 1 2403 5 2413 13 11 9 13 116 13 590 0 562 -1 579 -19 589 -14 7 -780 10 -2405 10 -1703 0 -2387 3 -2392 11 -14 23 113 481 172 614 12 28 28 66 35 84 33 82 181 371 221 431 24 36 55 85 70 110 82 140 282 383 460 558 263 259 540 458 868 623 187 93 225 109 460 188 151 51 385 111 431 111 14 0 48 7 75 15 107 31 524 58 710 45 249 -17 368 -30 419 -44 28 -8 75 -17 106 -20 31 -3 75 -13 99 -21 23 -8 53 -15 66 -15 37 0 435 -134 514 -174 67 -33 110 -38 110 -12 0 6 0 283 0 615 0 513 -2 607 -15 621 -14 16 -37 25 -135 53 -30 9 -85 25 -123 36 -37 12 -75 21 -84 21 -9 0 -39 6 -67 14 -159 45 -480 92 -747 111 -263 18 -370 17 -649 -5z"/>
 <path d="M7812 8668 c-18 -18 -17 -1817 1 -1842 12 -16 50 -17 551 -17 382 0 542 3 550 11 12 12 22 707 11 766 -5 30 -93 151 -225 310 -82 100 -432 450 -528 529 -40 33 -78 65 -85 70 -7 6 -40 32 -75 59 -35 26 -83 66 -108 87 -47 40 -71 48 -92 27z"/>
 <path d="M7825 6375 l-25 -24 2 -2608 3 -2608 27 -3 c17 -2 37 6 60 26 18 16 62 51 98 78 36 27 78 61 94 74 299 252 566 528 764 787 34 45 67 94 72 108 11 28 15 4112 4 4151 -11 42 -31 44 -565 44 l-510 0 -24 -25z"/>
 </g>

</svg>