<!DOCTYPE svg PUBLIC "-//W3C//DTD SVG 20010904//EN" "http://www.w3.org/TR/2001/REC-SVG-20010904/DTD/svg10.dtd">
<svg version="1.0" xmlns="http://www.w3.org/2000/svg" width="408px" height="565px" viewBox="0 0 4080 5650" preserveAspectRatio="xMidYMid meet">
 <g id="layer101" fill="none" stroke-width="5" stroke="black">
  <path d="M1278.57 372.03C1317.18 366.96 1364.35 368.88 1402.86 373.88C1416.24 375.62 1435.83 376.44 1441.59 391.43C1446.1 403.22 1438.29 417.97 1433.69 428.57C1424.25 450.25 1411.61 470.31 1401.08 491.43C1396.79 500.02 1390.24 511.41 1392.05 521.43C1394.11 532.84 1406.54 543.42 1415.71 549.37C1424.69 555.19 1434.36 559.71 1444.29 563.64C1457.44 568.86 1471.73 572.84 1485.71 575.09C1530.36 582.27 1593.27 548.89 1624.27 518.52C1638.63 504.43 1647.63 486.01 1661.67 471.56C1687.73 444.72 1721.53 431.28 1758.57 432.91C1779.04 433.82 1797.21 445.89 1815.71 453.42C1848.81 466.89 1894.6 474.01 1922.86 496.27C1938.37 508.5 1942.09 533.37 1935.59 551.43C1928.46 571.2 1908.16 586.76 1892.86 600.22C1862.1 627.3 1831.31 655.32 1797.14 678.1C1778.63 690.44 1757.26 702.41 1734.29 701.37C1698.83 699.78 1675.33 665.98 1642.86 656.01C1592.83 640.64 1549.16 683 1515.71 714.16C1503.7 725.36 1490.76 736.16 1481.57 750C1463.73 776.93 1482.14 800.22 1508.57 810.27C1540.71 822.48 1575 820.42 1608.57 822.73C1623.9 823.78 1646.47 823.08 1658.3 834.59C1672.07 848 1670.83 872.85 1667.13 890C1657.1 936.31 1607.54 971.23 1575.71 1002.86C1559.63 1018.84 1542.17 1034.02 1524.29 1047.97C1515.87 1054.53 1506.49 1062.73 1495.71 1064.94C1474.56 1069.28 1448.37 1052.27 1430 1044.09C1389.85 1026.21 1343.73 1018.18 1305.71 996.31C1287.8 986.01 1270.78 972.04 1264.9 951.43C1251.38 904.06 1306.12 866.72 1275.57 820C1269.74 811.08 1262.34 803.65 1254.29 796.76C1245.17 788.95 1235.18 781.35 1224.29 776.17C1150.06 740.89 1079.84 803.44 1038.41 860C1025.37 877.8 1018.92 899.92 1002.73 915.47C965.04 951.64 896.07 940.52 850 931.14C831.96 927.47 813.23 922.06 798.57 910.47C755.49 876.4 806.47 819.42 831.02 791.43C837.11 784.49 843.48 777.95 850 771.43C858.48 762.95 866.71 754.06 875.71 746.12C896.81 727.51 917.86 705.23 945.71 697.02C983.39 685.9 1024.24 695.94 1061.43 680.78C1087.9 669.99 1112.83 644.07 1132.86 624.28C1145.07 612.22 1157.71 600.35 1168.68 587.14C1172.98 581.97 1179.2 575.73 1179.43 568.57C1180.22 544.37 1152.67 521.49 1146.41 498.57C1136.85 463.53 1166.78 438.38 1185.1 412.86C1191.67 403.71 1197.15 383.33 1207.21 378.53C1228.34 368.43 1256.1 374.99 1278.57 372.03M1980 1945.71C1977.99 1950.13 1973.13 1954.9 1973.5 1960C1974.03 1967.19 1982.41 1973.91 1987.14 1978.56C2000.74 1991.87 2025.5 2010.17 2044.14 1994.91C2058.26 1983.36 2062.29 1942.39 2041.43 1936.01C2029.53 1932.39 2013.24 1933.17 2001.43 1936.81C1993.24 1939.34 1986.09 1945.77 1977.14 1944.5C1954.41 1941.26 1935.77 1918.97 1915.71 1908.96C1907.06 1904.63 1897.53 1904.27 1888.81 1900.64C1862.44 1889.7 1835.31 1879.56 1808.57 1868.86C1797.44 1864.4 1762.36 1856.73 1759.03 1844.23C1756.39 1834.29 1759.73 1822.87 1759.99 1812.86C1760.64 1785.61 1761.57 1756.87 1772.69 1731.43C1779.5 1715.81 1791.5 1701.79 1800.29 1687.14C1812.24 1667.2 1841.59 1629 1832.49 1604.29C1824.11 1581.59 1786.97 1577.53 1767.14 1570.93C1714.76 1553.46 1651.33 1509.59 1668.41 1445.71C1673.07 1428.25 1684.09 1413.71 1697.14 1401.56C1747.11 1355.06 1814.53 1367.17 1868.57 1399.22C1892.63 1413.48 1926.31 1441.2 1955.71 1441.16C1969.69 1441.14 1984.67 1428.79 1995.71 1421.43C2026.7 1400.77 2057.76 1377.63 2084.29 1351.42C2096.27 1339.58 2111.51 1328.57 2109.91 1310C2108.94 1298.74 2096.17 1296.58 2087.14 1293.89C2063.14 1286.73 2038.36 1282.65 2014.29 1275.71C1979.64 1265.73 1947.11 1251.97 1914.29 1237.34C1905.49 1233.42 1886.94 1218.89 1877.27 1221.17C1871.9 1222.43 1868.5 1230.1 1865.71 1234.29C1858.23 1245.5 1850.46 1256.65 1841.99 1267.14C1810.5 1306.09 1773.83 1330.09 1722.86 1317.29C1684.14 1307.57 1634.8 1277.09 1631.56 1232.86C1629.46 1204.22 1641.81 1176.47 1646.3 1148.57C1650.03 1125.37 1645.3 1090.48 1664.41 1073.18C1673 1065.41 1687.63 1063.44 1698.57 1060.93C1726.34 1054.57 1754.64 1050.45 1782.86 1046.74C1842.99 1038.83 1903.53 1033.11 1964.29 1035.77C2017.24 1038.09 2069.94 1044.15 2122.86 1047.09C2157.7 1049.03 2194.39 1052.22 2228.57 1059.52C2241.79 1062.33 2257.57 1064.42 2265.2 1077.16C2275.2 1093.89 2267.64 1116.92 2259.3 1132.86C2249 1152.56 2234.36 1170.93 2217.14 1185.05C2199.67 1199.38 2181.11 1208.97 2166.67 1227.14C2156.53 1239.89 2145.63 1255.18 2142.17 1271.43C2140.83 1277.7 2140.01 1287.65 2147.23 1290.57C2155.5 1293.91 2165.17 1289.45 2172.86 1286.7C2194.11 1279.11 2211.54 1264.85 2227.09 1248.57C2238.53 1236.59 2243.46 1221.34 2253.5 1208.57C2275.94 1180.05 2305.54 1155.25 2335.71 1135.24C2352.54 1124.08 2372.16 1113.39 2392.86 1112.88C2448.96 1111.5 2493.64 1144.21 2544.29 1163.31C2563.06 1170.39 2582.66 1173.47 2601.43 1180.61C2633.39 1192.76 2663.27 1209.6 2694.29 1223.84C2732.29 1241.29 2771.23 1257.67 2807.14 1279.21C2860.5 1311.23 2905.37 1356.15 2958.57 1388.13C3002.16 1414.33 3037.76 1452.16 3074.29 1487.09C3116.77 1527.71 3158.56 1569.33 3196.54 1614.29C3227.03 1650.37 3254.36 1689.86 3283.46 1727.14C3334.94 1793.11 3393.64 1861.46 3418.17 1942.86C3431.37 1986.66 3451.34 2027.66 3468.29 2070C3473.17 2082.21 3486.67 2105.11 3478.57 2117.14L3480 2118.57L3481.43 2120L3482.86 2120L3484.29 2118.57L3484.29 2117.14L3484.29 2115.71M1032.86 3477.14L1037.14 3478.57L1037.14 3480L1035.71 3481.43L1030 3475.71C1036.32 3468.47 1031.65 3461.37 1030.43 3452.86C1027.99 3435.87 1028.57 3418.56 1028.57 3401.43C1028.57 3377.97 1029.92 3354.79 1031.56 3331.43C1032.72 3314.8 1036.96 3302.43 1032.25 3285.71C1028.5 3272.46 1023.46 3258.16 1014.96 3247.14C1010.66 3241.57 1000.06 3236.27 997.92 3229.74C996.45 3225.23 999.71 3218.99 999.94 3214.29C1000.57 3201.47 998.35 3187.17 989.53 3177.27C976.85 3163.04 956.16 3161.67 938.57 3164.29C921.5 3166.84 912.26 3176.21 920 3192.86L920 3194.29L918.57 3194.29C911.05 3192.5 903.66 3188.64 895.71 3190.43C878.7 3194.26 870.96 3219.96 866.19 3234.29C853.86 3271.29 848.57 3312.54 848.57 3351.43C848.57 3363.89 850.12 3395.97 839.2 3404.61C836.03 3407.11 829.59 3406.17 825.71 3406.99C796.17 3413.14 777.52 3394.89 751.43 3385.86C735.48 3380.34 721.04 3385.01 705.71 3390L704.29 3388.57C717.34 3312.69 716.5 3235.87 717.14 3158.57L718.57 3157.14C738.45 3170.5 748.63 3162.29 765.71 3148.57C792.04 3127.43 806.2 3105.23 792.86 3072.86C802.36 3068.77 813.45 3068.19 820.55 3059.73C828.86 3049.84 830.15 3035.04 832.57 3022.86C839.48 2988.06 843.7 2947.11 832.11 2912.86C824.41 2890.1 805.33 2889.79 785.71 2882C758.73 2871.3 734.76 2860.53 719.93 2834.29C713.74 2823.33 714.08 2811.67 710.74 2800C702.65 2771.73 693.59 2744.01 691.56 2714.29C688.9 2675.46 694.43 2635.16 685.71 2597.14C706.66 2598.56 729.29 2570.21 742.73 2555.71C748.02 2550 754.61 2542.41 755.35 2534.29C756.14 2525.6 747.94 2518.73 744.44 2511.43C731.82 2485.14 703.6 2465.66 696.79 2435.71C685.63 2386.69 695.45 2326.6 700.24 2277.14C702.25 2256.36 713.29 2236.46 706.83 2215.71C700.12 2194.19 679.09 2176.4 664.53 2160C643.76 2136.61 630.33 2104.26 639.18 2072.86C649.77 2035.3 682.99 2008.3 712.86 1985.9C725.41 1976.49 754.53 1959.59 757.21 1942.86C758.12 1937.17 753.03 1934.04 748.57 1931.9C736.56 1926.13 723.94 1924.84 712.86 1916.73C688.74 1899.07 679.69 1867.07 686.43 1838.57C692.41 1813.31 711.01 1798.71 725.49 1778.57C741.89 1755.76 749.56 1728.34 766.4 1705.71C779.67 1687.89 801 1677.3 812.67 1658.57C826.2 1636.86 816.38 1607.93 829.23 1585.71C842.68 1562.5 865.25 1543.6 882.25 1522.86C930.17 1464.4 981.1 1410.72 1035.71 1358.52C1067.05 1328.56 1103.37 1290.3 1145.71 1276.78C1183.86 1264.6 1219.06 1290.98 1257.14 1286.89C1292.92 1283.06 1330.93 1242.61 1368.57 1257.35C1388.81 1265.28 1391.21 1291.76 1382.4 1308.57C1363.57 1344.48 1330.49 1374.26 1298.57 1398.39C1266.23 1422.84 1225.4 1446.03 1184.29 1449.76C1172.04 1450.87 1159.3 1447.11 1147.14 1445.96C1120.5 1443.41 1091.54 1445.31 1068.57 1460.13C1047.48 1473.73 1041.25 1495.53 1031.63 1517.14C1023.53 1535.33 1013.72 1552.73 1003.88 1570C990.3 1593.84 974.17 1616.14 960.61 1640C956.22 1647.73 948.46 1661.46 956.17 1669.44C965.92 1679.53 988.43 1679.33 1001.43 1680.06C1038.11 1682.09 1076.21 1686.59 1112.86 1683.1C1123.81 1682.06 1147.84 1687.16 1155.92 1677.84C1162.63 1670.11 1162.37 1651.17 1162.91 1641.43C1164.2 1618.17 1165.32 1593.8 1172.49 1571.43C1195.56 1499.54 1292.93 1477.64 1358.57 1497.01C1396.51 1508.21 1427.25 1559.26 1446.29 1591.43C1455.21 1606.53 1462.73 1621.17 1456.66 1638.57C1446.06 1668.9 1395.28 1710.04 1414.15 1744.29C1428.8 1770.86 1467.44 1782.51 1494.29 1791.91C1531.49 1804.96 1569.13 1816.51 1604.29 1834.66C1619.97 1842.76 1633.53 1853.83 1648.57 1862.86C1642.14 1873.24 1650.6 1893.47 1646.19 1907.14C1633.49 1946.47 1610.04 1983.74 1586.13 2017.14C1575.77 2031.61 1563.94 2049.11 1548.57 2058.63C1534.9 2067.1 1516.59 2064.84 1501.43 2062.67C1466.76 2057.69 1433.77 2045.4 1398.57 2042.99C1362.04 2040.49 1324.43 2044.27 1294.29 2066.8C1275.26 2081.01 1266.77 2105.04 1256.77 2125.71C1243.75 2152.64 1222.95 2189.13 1224.58 2220C1225.59 2238.97 1237.55 2257.76 1248.17 2272.86C1268.43 2301.66 1301.41 2319.56 1335.71 2325.6C1358.54 2329.61 1386.66 2328.46 1407.14 2340.51C1423.32 2350.04 1423.27 2375.54 1434.29 2390C1439.96 2385.37 1447.96 2379.61 1447.96 2371.43C1447.96 2357.69 1431.86 2350.29 1421.43 2357.14M2197.14 1275.71C2203.23 1277.83 2210 1276.39 2215.71 1279.8C2231.1 1288.95 2242.26 1303.95 2258.57 1313.05C2294.53 1333.11 2354.59 1341.09 2370.14 1385.71C2382.9 1422.33 2336.5 1440.01 2331.86 1471.43C2320.5 1548.33 2419.6 1602.5 2481.43 1619.39C2504.49 1625.69 2530.96 1622.33 2554.29 1618.96C2565.67 1617.31 2577.34 1613.84 2584.59 1604.23C2609.16 1571.6 2607.6 1506.46 2661.43 1504.34C2693.76 1503.07 2714 1525.77 2737.14 1543.99C2763.61 1564.81 2792.54 1582.49 2821.43 1599.71C2842.5 1612.29 2872.74 1633.07 2895.66 1612.56C2905.26 1603.94 2909 1589.31 2911.73 1577.14C2914.77 1563.53 2920.63 1546.67 2916.71 1532.86C2911.8 1515.5 2896.04 1503.37 2882.86 1492.27C2865.69 1477.8 2849.06 1463.07 2836.46 1444.29C2824.27 1426.11 2813.9 1394.64 2837.14 1379.99C2851.9 1370.7 2873.31 1372.18 2890 1372.91C2909.09 1373.75 2926.99 1381.22 2945.71 1382.86M822.86 1615.71C839.65 1639.23 856.95 1660.91 871.41 1685.64C874.7 1691.27 880.08 1693.17 881.68 1700C885.35 1715.69 883.05 1740.09 875.12 1754.27C868.64 1765.86 857.35 1775.3 850.29 1787.14C829.52 1821.97 814.37 1859.7 793.13 1894.29C783.11 1910.6 767.47 1920.56 758.57 1937.14M3010 2107.14L2970 2122.86C2971.39 2129.46 2969.03 2138.33 2972.1 2144.14C2984.04 2166.76 3004.51 2135.91 3007.94 2124.29C3009.09 2120.41 3009 2115.46 3010.84 2111.87C3013.74 2106.21 3020.66 2105.61 3023.2 2098.57C3030.06 2079.51 3030.61 2057.13 3031.49 2037.14C3032.69 2009.87 3034.81 1981.24 3028.73 1954.29C3022.3 1925.79 3004.2 1904.66 2977.14 1893.19C2935.56 1875.57 2869.4 1871.64 2855.37 1817.14C2850.5 1798.23 2859.24 1774.93 2865.24 1757.14C2869.9 1743.29 2876.24 1729.7 2883.71 1717.14C2892.87 1701.76 2904.31 1683.81 2921.43 1676.47C2940.29 1668.39 2963.96 1681.66 2980 1690.83C3015.9 1711.37 3050.53 1743.33 3092.86 1749.57C3121.61 1753.81 3135.71 1737.57 3160 1726.97C3180.91 1717.84 3206.31 1719.49 3225.71 1731.53C3264.53 1755.61 3275.39 1801.77 3294.64 1840C3317.46 1885.3 3349.73 1929.11 3381.43 1968.57C3398.26 1989.53 3420.14 2020.63 3447.14 2028.57M2051.43 1937.14C2078.83 1936.49 2080.21 1889.54 2089.01 1870C2107 1830.09 2139.2 1809.11 2182.86 1807.2C2214.43 1805.81 2248.56 1806.87 2278.57 1817.77C2333.54 1837.71 2389.44 1902.54 2392.56 1962.86C2393.83 1987.33 2380.17 2013.9 2377.36 2038.57C2375.71 2052.89 2380.6 2070.39 2374.86 2084.04C2370.93 2093.37 2355.84 2103.51 2345.71 2099.13C2311.66 2084.34 2340.77 2025.57 2375.71 2045.71M1758.57 1847.14C1751.04 1859.36 1740.5 1859.33 1727.14 1862C1702.21 1866.99 1673.69 1876.31 1650 1862.86M1641.43 1860L1642.86 1864.29L1647.14 1864.29M1940 1924.29C1921.69 1943.77 1863.66 1926.46 1852.86 1904.29L1884.29 1901.43M3477.14 2117.14C3462.6 2165 3494.03 2223.74 3467.81 2270C3463.59 2277.46 3455.39 2289.33 3447.14 2292.57C3442.64 2294.34 3437.53 2291.73 3432.86 2291.97C3424.8 2292.37 3417.21 2295.21 3410 2298.63C3378.46 2313.57 3347.83 2355.39 3350.13 2391.43C3355.49 2475.46 3465.9 2519.94 3459.87 2608.57C3456.43 2659.11 3444.63 2718.86 3418.56 2762.86C3409.81 2777.6 3390 2805.24 3370 2796.21C3338.33 2781.93 3324.67 2749.9 3306.64 2722.86C3283.39 2687.99 3236.69 2652.8 3241.67 2605.71C3243.54 2588.06 3255.86 2577.26 3266.49 2564.29C3277.64 2550.66 3287.13 2535.23 3293.06 2518.57C3312.94 2462.59 3282.53 2425.11 3245.84 2385.71C3228.34 2366.91 3210.74 2347.24 3188.57 2333.73C3125.66 2295.41 3077.03 2363.1 3044.77 2410C3034.07 2425.56 3020.7 2450.21 3001.43 2456C2990.54 2459.27 2977.67 2453.23 2967.14 2450.53C2926.74 2440.14 2900.2 2414.41 2864.29 2395.56C2855.37 2390.87 2845.03 2390.24 2835.71 2386.5C2816.41 2378.73 2797.49 2368.84 2780 2357.59C2762.99 2346.61 2742.51 2320.77 2721.43 2318.87C2704.03 2317.3 2705.36 2343.69 2690 2348.33C2666.93 2355.29 2640.89 2345.46 2635.04 2320C2631.43 2304.24 2635.41 2280.73 2648.66 2270.23C2657.19 2263.46 2671.16 2260.26 2678.16 2252.13C2713.99 2210.57 2733.73 2157.7 2759.67 2110C2767.89 2094.89 2783.33 2055.01 2802.86 2054.37C2817.86 2053.89 2837.84 2071.41 2850 2079.53C2887.77 2104.7 2920.83 2135.23 2968.57 2124.29M2817.14 2062.86C2811.57 2074.24 2792.96 2084.5 2781.43 2077.14M2377.14 2088.57C2377.74 2117.37 2404.36 2136.53 2425.71 2151.84C2471.53 2184.7 2519.24 2215.21 2567.14 2244.89C2583.2 2254.84 2607.9 2276 2627.14 2277.51C2632.36 2277.93 2637.63 2274.81 2642.86 2274.29M3482.86 2120C3492.99 2134.81 3500.21 2152.8 3509.01 2168.57C3527.13 2201.07 3546.06 2233.1 3561.23 2267.14C3568.57 2283.61 3580.93 2301 3584.96 2318.57C3587.61 2330.14 3585.71 2343.87 3585.71 2355.71C3585.71 2381.4 3585.1 2407.17 3585.73 2432.86C3587.81 2517.54 3586.51 2602.41 3588.59 2687.14C3590.11 2749.6 3592.97 2813.3 3588.7 2875.71C3587 2900.53 3587.51 2924.59 3579.71 2948.57C3575.59 2961.3 3567.09 2973.41 3554.29 2978.6C3541.54 2983.76 3525.63 2982.23 3517.67 2995.73C3511.54 3006.14 3511.36 3019.81 3509.13 3031.43C3506.43 3045.47 3501.57 3059.5 3496.53 3072.86C3477.46 3123.46 3450.59 3170.39 3432.41 3221.43C3415.2 3269.79 3407.84 3320.66 3385.34 3367.14C3340.91 3458.97 3265.53 3533.04 3194.29 3604.29C3168.53 3630.04 3143.33 3656.41 3115.71 3680.19C3100.09 3693.64 3082.83 3708.71 3062.86 3715.2C3034.79 3724.31 3009.57 3702.83 2992.97 3682.86C2966.74 3651.31 2944.5 3616.44 2921.03 3582.86C2912.97 3571.31 2906.51 3556 2896.87 3545.96C2885.21 3533.81 2869.76 3522.73 2854.29 3516.13C2847.97 3513.43 2840.46 3513.5 2834.53 3510.14C2814.26 3498.66 2799.76 3479.33 2780 3467.24C2772.2 3462.47 2761.4 3463.21 2754.5 3457.64C2747.64 3452.1 2745.3 3438.94 2740.43 3431.43C2727.07 3410.81 2701.73 3397.13 2677.14 3404.34C2656.77 3410.33 2648.76 3430.94 2635.47 3445.71C2614.93 3468.53 2589.23 3489.16 2562.86 3504.86C2535.91 3520.89 2509.6 3519.77 2481.43 3529.11C2473.64 3531.69 2458.44 3532.3 2453.93 3540.3C2449.39 3548.37 2466.13 3555.97 2471.43 3558.61C2493.09 3569.44 2519.06 3573.33 2542.86 3568.27C2578.01 3560.8 2606.06 3539.2 2626.51 3510C2637.7 3494.03 2643.49 3474.39 2660 3462.56C2677.7 3449.86 2718.91 3459.13 2725.99 3435.71C2727.67 3430.14 2725.96 3424.24 2725.71 3418.57M2974.29 2125.71L2972.86 2127.14M695.71 2435.71L687.14 2428.57C664.09 2451.69 645.65 2478.63 618.57 2497.54C591.05 2516.77 530.93 2535.21 519.32 2487.14C513.27 2462.07 519.81 2433.4 524.57 2408.57C532.64 2366.44 541.43 2324.11 553.27 2282.86C559.29 2261.89 565.98 2233.23 584.31 2219.37C596.6 2210.07 613.33 2214.7 625.71 2221.27C648.79 2233.5 673.06 2259.47 701.43 2254.29M2680 2255.71C2707.14 2258.74 2704.29 2306.04 2704.29 2325.71M744.29 2507.14C774.02 2512.43 804.06 2515.27 834.29 2518.97C851.71 2521.11 872.93 2520.11 885.23 2505.66C901.33 2486.71 898.57 2454.57 898.57 2431.43C898.57 2374.9 892.17 2313.4 945.71 2277.89C957.55 2270.03 970.29 2263.83 984.29 2261.14C1001.18 2257.91 1020.41 2259.46 1037.14 2262.86C1057.9 2267.1 1078.49 2274.63 1095.71 2287.14C1092.47 2290.76 1084.08 2293.51 1083.63 2298.66C1082.49 2311.64 1110 2329.57 1121.4 2330.13C1133.65 2330.73 1127.48 2316.44 1123.4 2311.43C1121.05 2308.54 1118.51 2305.91 1115.69 2303.49C1109.38 2298.03 1102.5 2293.6 1097.14 2287.14M1094.29 2292.86L1098.57 2291.43M1130 2321.43C1155.9 2350.49 1151.29 2407.39 1139.51 2441.43C1134.45 2456.06 1126.32 2469.36 1122.04 2484.29C1118.02 2498.3 1120.13 2510.44 1118.14 2524.29C1116.23 2537.6 1097.86 2554.03 1104.54 2567.11C1108.25 2574.4 1117.2 2577.97 1124.29 2581.01C1142.65 2588.94 1162.52 2591.94 1181.43 2598.1C1229.69 2613.83 1274.78 2646.84 1327.14 2650.14C1345.95 2651.33 1361.09 2641.23 1377.14 2632.53C1385.46 2628.01 1397.61 2622.3 1407.12 2627.19C1436.19 2642.09 1426.68 2677.59 1424.29 2701.43C1446.74 2698.59 1464.49 2705.43 1485.71 2711.83C1517.43 2721.39 1548.93 2731.83 1580 2743.31C1598.69 2750.21 1621.27 2758 1635.1 2772.99C1654.09 2793.56 1649.23 2823.41 1643.69 2848.57C1631.79 2902.51 1592.54 2947.13 1619.03 3002.86C1644.41 3056.27 1684.96 3091.23 1741.43 3107.74C1755.74 3111.94 1771.97 3118.34 1787.14 3116.9C1810.43 3114.69 1833.96 3101.04 1852.86 3088.07C1880.16 3069.33 1889.51 3036.1 1910.84 3011.44C1930.23 2989.04 1984.96 2983.46 1984.29 2945.71L1985.71 2944.29L1990 2948.57L2005.84 2932.73L2021.43 2942.47L2055.71 2969.7L2080 2978.29L2142.86 3023.67L2181.1 3043.16L2190 3068.57C2179.73 3078.37 2177.99 3095.34 2174.44 3108.57C2170.89 3121.91 2164.51 3134.9 2158.2 3147.14C2133.97 3194.1 2089.99 3232.46 2070.66 3281.43C2063.1 3300.6 2077.81 3334.09 2102.86 3330.27C2114.63 3328.47 2121.6 3312.51 2125.43 3302.86C2136 3276.16 2140.01 3243.21 2157.9 3220C2168.7 3205.99 2180.79 3193.43 2190.69 3178.57C2200.36 3164.07 2209.54 3145.19 2225.71 3136.91C2277.74 3110.27 2340.76 3162.67 2378.57 3191.93C2390.96 3201.51 2404.7 3211.23 2415.03 3223.1C2426.44 3236.23 2432.79 3254.6 2444.29 3268.57C2430.04 3278.63 2412.8 3282.91 2400.24 3295.84C2388.99 3307.43 2379.2 3322.39 2372.66 3337.14C2369.91 3343.33 2369.33 3352.74 2365.69 3358.11C2360.83 3365.29 2349.33 3366.93 2343.64 3375.71C2325.79 3403.26 2338.54 3442.13 2355.36 3467.14C2365.71 3482.54 2379.8 3494.86 2395.71 3504.27C2411.8 3513.77 2418.99 3512.81 2417.14 3494.29L2452.86 3516.03L2484.29 3527.14M2658.57 2350L2645.14 2355.34L2640.4 2370L2628.91 2398.57L2585.16 2485.71L2571.43 2534.29L2567.14 2530C2563.3 2544.01 2558.97 2562.97 2542.86 2568.7C2530.99 2572.93 2501.29 2553 2502.17 2540C2504.11 2511.36 2557.2 2501.77 2567.14 2528.57M1434.29 2390C1439.07 2410.93 1443.34 2433.07 1437.09 2454.29C1433.34 2466.91 1424.27 2476.94 1421.12 2490C1410.22 2535.17 1398.93 2580.39 1388.57 2625.71M2194.29 2628.57C2190.59 2623.79 2187.49 2615.3 2181.41 2613.11C2174.59 2610.64 2169.83 2620.81 2167.83 2625.71C2162.97 2637.59 2154.96 2681.24 2178.57 2680.04C2193.96 2679.27 2193.01 2660.77 2194.04 2650C2197.64 2612.24 2202.6 2576.89 2217.43 2541.43C2223.94 2525.86 2237.26 2512.4 2248.33 2500C2262.43 2484.21 2278.44 2465.46 2298.57 2457.27C2371.01 2427.84 2458.5 2480.07 2501.43 2535.71M1422.86 2497.14C1438.89 2496.86 1428.34 2548.47 1419.75 2534.2C1417.79 2530.94 1416.33 2527.5 1414.29 2524.29M1105.71 2550C1068.51 2549.97 1092.86 2498.93 1117.14 2502.86M2571.43 2535.71L2568.57 2538.57M702.86 3390C692.75 3395.51 682.81 3398.49 671.43 3400.36C663.15 3401.7 654.05 3402.19 645.71 3401C576.92 3391.17 572.66 3299.94 564.67 3245.71C537.12 3058.69 510.52 2867.74 511.43 2678.57C511.56 2650.66 513.73 2618.4 529.35 2594.29C565.17 2538.99 643.16 2564.43 685.71 2597.14M1338.57 2651.43C1335.52 2657.99 1328.8 2662.67 1327.47 2670C1324.19 2688.06 1339.72 2705.33 1351.45 2717.13C1355.34 2721.03 1360.15 2727.43 1365.9 2728.37C1388.48 2732.01 1409.4 2716.27 1424.29 2701.43M2192.86 2675.71C2193.2 2692.03 2203.3 2701.91 2214.29 2712.86C2238.97 2737.43 2267.99 2751.81 2301.43 2760.19C2320.79 2765.01 2348.7 2768.66 2356.36 2790C2363.17 2808.96 2359.04 2829.87 2353.44 2848.57C2339.03 2896.77 2301.49 2929.99 2279.66 2974.29C2273.21 2987.34 2264.17 3003.84 2263.13 3018.57C2261.7 3038.94 2299.07 3055.56 2312.86 3066.57C2364.01 3107.44 2417.61 3151.94 2460.6 3201.43C2468.9 3210.97 2485.17 3222.76 2487.9 3235.71C2491.99 3255.06 2458.96 3268.26 2444.29 3268.57M1180 3215.71C1177.86 3223.21 1173.56 3230.5 1174.78 3238.57C1176.95 3253.01 1198.44 3269.77 1212.55 3259.01C1224.44 3249.94 1221.43 3223.84 1214.1 3212.91C1202.43 3195.56 1191.94 3212.46 1178.57 3214.27C1167.56 3215.77 1155.59 3210.76 1145.71 3206.53C1070.62 3174.39 1029.7 3095.66 1067.53 3020C1088.97 2977.13 1130.27 2940.73 1180 2942.91C1202.25 2943.89 1225.1 2947.21 1247.14 2950.39C1255.19 2951.54 1267.99 2956.69 1275.71 2955.03C1282.78 2953.51 1288.84 2945.87 1292.35 2940C1309 2912.17 1306.72 2883.39 1311.42 2852.86C1315.48 2826.46 1324.08 2801.61 1334.5 2777.14C1340.4 2763.3 1345.72 2736.83 1360 2730M711.43 2797.14C748.11 2752.49 812.6 2813.47 830.27 2848.57C837.92 2863.76 848.55 2890.87 822.86 2891.43M1264.29 2951.43C1264.29 2924.71 1274.84 2899.23 1286.79 2875.71C1291.11 2867.23 1297.43 2852.71 1308.57 2854.29M3301.43 3021.43C3293.7 3023.71 3285.16 3023.2 3277.14 3024.49C3259.67 3027.29 3258.69 3052.56 3274.29 3059.49C3291.76 3067.24 3315.37 3036.23 3302.86 3021.43C3312.07 3015.49 3320.04 3010.63 3326.51 3001.43C3352.11 2965.03 3372.4 2876.74 3434.29 2895.39C3441.43 2897.54 3448.13 2901.17 3454.29 2905.36C3464.89 2912.56 3474.03 2922.09 3482.73 2931.43C3500.84 2950.89 3517 2966.07 3538.57 2981.43M3410.06 2902.93C3421.84 2897.17 3420.94 2915.01 3411.43 2919.29C3398.83 2924.93 3401.84 2906.93 3410.06 2902.93M1930 2994.29C1924.77 2991.03 1917.89 2989.47 1914.3 2984.13C1901.99 2965.8 1909.79 2921.94 1928.57 2910.69C1954.07 2895.41 1985.14 2916.83 1985.71 2944.29M1990 2948.57L1987.14 2951.43M2902.86 3550C2909.24 3541.71 2905.94 3529.43 2910.53 3520C2920.73 3499.1 2937.67 3481.34 2953.1 3464.29C2974.03 3441.16 2998.6 3419.2 3024.29 3401.47C3040.36 3390.37 3063.24 3381.61 3073.6 3364.29C3083.69 3347.39 3081.47 3319.99 3077.91 3301.43C3072.81 3274.89 3051.17 3260.2 3035.56 3240C3024.29 3225.43 3023.56 3211.16 3015.71 3195.71C3012.07 3188.5 3004.59 3183.9 3001.07 3177.04C2998.17 3171.39 3007.14 3164.47 3009.9 3160C3018.27 3146.43 3036.5 3109.23 3015.71 3101.43C3021.6 3086.14 3036.16 3071.93 3047.14 3060L3051.43 3064.29C3059.04 3045.73 3071.81 3039.59 3087.91 3029.57C3147.03 2992.87 3204.19 3024.29 3267.14 3024.29M3090 3030C3104.6 3043.76 3085.86 3062.43 3074.29 3071.7C3069.99 3075.14 3062.03 3082.71 3055.93 3079.81C3050.39 3077.19 3051.43 3069.3 3051.43 3064.29M2267.14 3032.86C2257.54 3036.77 2245.96 3033.07 2235.71 3034.74C2215.6 3038.04 2202.17 3052.04 2190 3067.14M3048.57 3058.57L3052.86 3057.14M2184.29 3067.14L2184.29 3070M722.86 3110L715.71 3145.71C704 3133.66 713.39 3118.41 722.65 3108.33C742.93 3086.26 761.72 3072.86 792.86 3072.86M3015.71 3101.43C2998.77 3119.16 2980.09 3151.37 2998.57 3174.29M715.71 3147.14L718.57 3155.71M921.43 3195.71C942.87 3210.63 968.27 3229.43 995.71 3230M1207.14 3262.86C1198.12 3296.61 1201.03 3331.23 1196.74 3365.71C1193.33 3393.11 1182.24 3416.66 1190 3444.29L1190 3445.71C1166.97 3441.46 1149.46 3463.89 1127.14 3467.91C1097.27 3473.29 1065.91 3463.33 1035.71 3465.71M2104.29 3331.43C2141.57 3358.06 2171.8 3381.53 2179.37 3430C2184.27 3461.31 2169.6 3484.03 2154.89 3510C2146.39 3525.03 2139.77 3541.96 2129.29 3555.71C2109.31 3581.9 2074.51 3602.17 2041.43 3605.47C2003.14 3609.3 1971.6 3571.66 1941.43 3554.29C1936.7 3566.17 1931.33 3574.56 1920 3581.3C1908.23 3588.29 1900.13 3587.79 1900 3572.86L1898.57 3572.86C1885.36 3583 1874.93 3597.41 1864.1 3610C1841.77 3635.94 1820.06 3662.43 1797.97 3688.57C1788.57 3699.7 1765.33 3718.44 1762.57 3732.86C1760.39 3744.29 1778.23 3765.24 1784.29 3774.29C1813.63 3818.11 1853.64 3846.96 1907.14 3849.7C1952.97 3852.06 1967.3 3793.2 1998.57 3770.91C2015.89 3758.57 2044.06 3761.43 2064.29 3761.43L2115.71 3761.43C2122.39 3761.43 2132.07 3759.67 2138.31 3762.29C2145.73 3765.4 2150.83 3777.79 2154.89 3784.29C2167.9 3805.06 2187.29 3828.2 2186.07 3854.29C2185.13 3874.44 2172.26 3890.6 2158.57 3904.29C2133.44 3929.41 2099.61 3948.17 2080.13 3978.57C2070.93 3992.91 2068.06 4008.1 2078 4022.86C2087.04 4036.3 2102.16 4044.59 2101.29 4062.86C2100.51 4078.6 2090.57 4093.27 2081.83 4105.71C2061.96 4133.97 2037.01 4160.9 2011.43 4184.04C1975.36 4216.69 1935.61 4244.99 1887.14 4254.76C1857.43 4260.76 1825.84 4247.1 1797.14 4256.03C1778.71 4261.77 1764.23 4277.53 1751.67 4291.43C1723.33 4322.8 1691.66 4359 1678.61 4400C1667.79 4434.01 1671.57 4471.01 1657.33 4504.29C1643.63 4536.26 1614.86 4560.83 1592.97 4587.14C1567.07 4618.3 1546.93 4654.07 1515.71 4680C1547.23 4703.19 1572.63 4766.9 1622.86 4754.96C1643.13 4750.13 1662.93 4729.86 1677.14 4715.71C1709.69 4683.33 1738.56 4647.64 1770.06 4614.29C1851.27 4528.27 1931.79 4441.23 2024.29 4366.86C2054.61 4342.49 2084.29 4315.9 2115.71 4293.07C2148.13 4269.53 2177.49 4256.1 2198.57 4220C2188.44 4215.17 2190.54 4206.9 2188.57 4197.14C2185.84 4183.7 2180.54 4171.1 2175.11 4158.57C2169.67 4146.04 2163.96 4133.63 2161.86 4120C2151.53 4053.27 2215.36 4028.26 2251.06 3984.29C2258.59 3975.01 2261.8 3963.39 2269.13 3954.31C2274.36 3947.81 2282.3 3945.39 2287.91 3939.53C2309.31 3917.24 2335.44 3886.03 2365.71 3875.86C2394.73 3866.11 2420.89 3889.94 2440 3908.59C2447.83 3916.23 2462.99 3927.91 2452.77 3939.33C2446.46 3946.4 2428.01 3952.76 2418.6 3950.93C2407.07 3948.7 2396.79 3943.33 2384.29 3941.84C2352.93 3938.09 2321.41 3941.43 2290 3941.43M2365.71 3360C2384.97 3376.06 2378.9 3404.64 2383.5 3427.14C2388.66 3452.37 2401.47 3472.01 2415.71 3492.86M1080 4057.14C1074.2 4050.67 1067.47 4046.37 1058.58 4050.01C1049.54 4053.71 1040.49 4067.01 1048.79 4075.41C1057.63 4084.34 1069.76 4080.06 1075.59 4070C1077.58 4066.56 1077.73 4059.77 1081.88 4058.13C1089.58 4055.1 1099.87 4058.91 1108.57 4055.61C1138.59 4044.27 1167.15 4016.37 1182.41 3988.57C1205.9 3945.8 1203.33 3900.01 1171.02 3862.86C1157.44 3847.24 1140.76 3836.59 1125.71 3822.86C1142.6 3811.96 1141.36 3799.64 1135.21 3781.43C1131.98 3771.87 1125.92 3759.33 1114.29 3764.29L1112.86 3764.29C1113.02 3744.8 1119.49 3724.67 1123.68 3705.71C1134.26 3657.8 1150 3609.46 1150 3560L1151.43 3558.57L1152.86 3558.57C1156.83 3564.16 1160.07 3575.09 1166.26 3578.4C1172.9 3581.97 1188.7 3575.73 1195.71 3574.11C1217.42 3569.13 1240.33 3560.17 1262.86 3565.57C1294.72 3573.2 1323.95 3604.1 1358.57 3599.73C1376.4 3597.49 1384.32 3574.9 1376.51 3560C1371.62 3550.67 1362.05 3545.2 1354.29 3538.57L1355.71 3537.14C1363.42 3537.2 1377.17 3542.33 1383.98 3538.51C1395.16 3532.24 1403.26 3505.53 1408.93 3494.29C1422.69 3466.96 1440.61 3438.84 1464.29 3419.03C1489.47 3397.97 1530.06 3381.81 1562.83 3395.54C1570.56 3398.77 1572.87 3408.19 1580.37 3411.63C1601.11 3421.13 1618.26 3420.24 1619.87 3448.57C1621.63 3479.41 1614.63 3513.03 1602.84 3541.43C1589.23 3574.23 1571.06 3603.13 1575.71 3640C1569.89 3637.8 1563.71 3632.43 1557.14 3633.93C1529.83 3640.16 1531.31 3677.41 1548.63 3692.19C1557.86 3700.06 1574.66 3708 1587.14 3705.14C1603.89 3701.33 1602.1 3678.71 1595.86 3667.14C1590.77 3657.7 1581.74 3650.91 1577.14 3641.43M837.14 3407.14C833.54 3417.51 821.47 3424.23 812.86 3430.41C795.33 3442.99 777.58 3455.76 761.43 3470.07C754.55 3476.16 744.58 3487.93 734.29 3486.44C725.67 3485.2 717.42 3476.36 710 3472.09C692.98 3462.3 666.04 3457.53 648.58 3468.76C629.29 3481.17 633.33 3510.39 631.02 3530C623.12 3596.96 637.18 3677.34 695.71 3718.57C698.2 3712.7 697.49 3706.77 701.83 3701.44C713.08 3687.63 727.87 3684.9 728.39 3664.29C729.46 3621.7 711.24 3579.9 711.43 3537.14C711.51 3518.99 713.16 3498.27 725.71 3484.29M1577.14 3411.43C1560.53 3426.67 1591.76 3455.44 1601.61 3468.57C1605.53 3473.79 1609.1 3478.87 1614.29 3482.86M1191.43 3447.14C1201.91 3469.57 1221.2 3497.56 1242.86 3510.17C1272.7 3527.57 1319.09 3530.6 1352.86 3537.14M1032.86 3467.14L1028.57 3474.29M1037.14 3481.43C1059.09 3500.4 1084.68 3497.93 1110 3508.23C1128.63 3515.8 1145.39 3537.76 1150 3557.14M2422.86 3497.14L2418.57 3501.43M2832.86 3510C2828.14 3512.77 2821.87 3514.21 2818.59 3518.87C2805.56 3537.33 2835.4 3557.17 2827.14 3572.86L2828.57 3574.29L2831.43 3575.71L2831.43 3570M1901.43 3571.43C1907.59 3558.47 1931.81 3529.53 1941.43 3552.86M2561.43 3920C2553.06 3917.39 2544.7 3915.36 2537.44 3921.99C2533.71 3925.41 2527.87 3936.21 2534.74 3939.7C2541.13 3942.93 2554.16 3934.53 2557.96 3929.86C2563.14 3923.44 2562.97 3914.11 2567.77 3907.14C2580.1 3889.29 2595.14 3879.29 2601.21 3857.14C2611.36 3820.14 2611.01 3781.07 2627.84 3745.71C2639.86 3720.47 2659.9 3694.36 2682.86 3678.27C2690.37 3673 2699.81 3672.79 2707.13 3667.64C2724.54 3655.37 2739.67 3638.69 2757.14 3625.93C2772.99 3614.37 2788.96 3602.47 2802.86 3588.57C2810.89 3580.53 2814.59 3570.67 2827.14 3572.86M2832.86 3572.86C2847.29 3589.17 2866.04 3600.47 2881.43 3615.73C2901.49 3635.63 2918.91 3659.37 2938.63 3680C2953.03 3695.06 2975.2 3711.77 2977.01 3734.29C2979.09 3760.1 2959.8 3781.66 2942.86 3798.57C2900.61 3840.74 2844.29 3869.66 2792.86 3898.97C2760.03 3917.69 2731.07 3942.23 2698.57 3960.81C2672.36 3975.81 2644.44 3987.43 2618.57 4003.14C2607.19 4010.07 2598.69 4020.91 2587.14 4027.27C2576.06 4033.39 2563.94 4034.44 2552.86 4041.5C2529.91 4056.11 2510.67 4075.21 2487.14 4089.14C2468.93 4099.91 2449.03 4106.41 2430 4115.4C2405.47 4126.99 2382.07 4141 2358.57 4154.5C2328.13 4171.99 2298.27 4194.5 2264.29 4204.69C2239.3 4212.17 2219.89 4197.76 2198.57 4218.57M1601.43 3687.14C1627.7 3715.93 1653 3740.4 1670.46 3775.71C1675 3784.9 1681.46 3789.23 1682.86 3800C1697.56 3798.89 1704.93 3782.2 1709.71 3770C1711.36 3765.8 1714.36 3759.29 1711.39 3755.01C1705.79 3746.99 1688.47 3752.26 1683.91 3758.73C1679.24 3765.36 1680 3775.17 1680 3782.86M698.57 3720C716.92 3767.64 660.63 3813.47 647.77 3857.14C637.54 3891.9 663.62 3935.94 677.14 3967.14L672.86 3970L671.43 3962.86M2072.86 3723.53C2082.2 3721.76 2095.97 3721.57 2104.13 3727.16C2120.23 3738.16 2098.24 3747.63 2088.57 3749.34C2079.53 3750.94 2066.24 3751.29 2058.79 3744.99C2047.33 3735.3 2063.9 3725.21 2072.86 3723.53M1112.86 3764.29C1100.71 3785.26 1096.63 3815.94 1125.71 3822.86M678.57 3968.57C681.58 3993.07 656.08 4017.66 642.03 4035.71C606.67 4081.17 568.88 4144.83 613.48 4197.14C652.2 4242.54 713.13 4246.09 767.14 4255.86C810.81 4263.76 853.89 4274.06 898.57 4278.33C915.53 4279.94 935.2 4275.91 951.43 4279.86C980.66 4286.96 1005.64 4310.54 1031.43 4325.11C1063.06 4342.99 1098.13 4353.21 1130 4370.44C1153.42 4383.1 1173.54 4402.11 1197.14 4413.76C1219.7 4424.87 1243.82 4416.63 1267.14 4412.74C1276 4411.27 1289.9 4406.83 1298.3 4411.69C1306.13 4416.2 1306.42 4427.83 1307.36 4435.71C1309.82 4456.26 1313.96 4475.59 1318.57 4495.71C1328.46 4491.33 1324.29 4476.39 1324.29 4467.14C1324.29 4438.71 1322.74 4409.61 1326.76 4381.43C1332.72 4339.56 1369.98 4307.51 1367.02 4264.29C1366.18 4252.04 1362.52 4238.4 1354.96 4228.57C1346.83 4218 1335.38 4211.59 1330.63 4198.57C1324.54 4181.87 1325.71 4161.79 1325.71 4144.29C1325.71 4110.87 1324.31 4076.63 1334.32 4044.29C1338.25 4031.6 1344 4019.13 1352.18 4008.57C1387.77 3962.67 1458.39 3973.83 1508.57 3977.27C1533 3978.94 1559.79 3980.21 1580 3963.61C1612.39 3937.01 1638.14 3889.89 1656.79 3852.86C1664.14 3838.26 1666.94 3809.13 1681.43 3801.43M2532.86 3940C2519.09 3947.94 2491.66 3954.83 2475.71 3952.66C2467.43 3951.51 2460.01 3946.83 2451.43 3945.71M2412.86 3944.29L2435.71 3947.14M672.86 3970L674.29 3981.43M675.71 3997.14C675.71 4045.11 668.24 4092.06 656.61 4138.57C651.32 4159.73 636.01 4194.29 641.43 4215.71M1042.86 4074.29C1039.02 4095.83 1019.5 4114.5 1010.44 4134.29C997.49 4162.57 998.22 4203.33 977.62 4226.9C962.53 4244.16 937.21 4247.64 915.71 4250.23C884.92 4253.9 853.87 4254.29 822.86 4254.29C807.21 4254.29 787.89 4251.27 772.86 4255.71M1448.57 4630C1456.36 4656.97 1482.91 4667.83 1504.29 4681.43C1499.83 4691.81 1509.3 4703.57 1513.93 4712.86C1523.87 4732.73 1532.27 4749.11 1520.17 4770C1512.07 4784 1499.13 4796.94 1482.86 4800.67C1468.11 4804.06 1444.61 4798.91 1436.17 4815.74C1429.57 4828.9 1437.81 4844.67 1441.79 4857.14C1446.4 4871.59 1446.79 4886.11 1440.03 4900C1426.52 4927.73 1396.81 4942.66 1377.61 4965.71C1356.6 4990.94 1357.36 5024.96 1339.49 5051.43C1323.66 5074.86 1294.41 5083.07 1278.27 5105.71C1257.24 5135.23 1281.36 5193.4 1228.57 5199.74C1167.03 5207.13 1121.87 5156.6 1074.29 5128.59C979.93 5073.04 877.33 5025.47 775.71 4984.86C749.59 4974.41 722.34 4968.79 695.71 4960C666.3 4950.29 638.43 4935.53 608.57 4927.36C585.18 4920.96 561.08 4920.67 537.14 4917.33C515.51 4914.3 494.19 4909.19 472.86 4904.59C467.03 4903.33 453.71 4902.87 450.86 4896.74C447.5 4889.51 450 4876.46 450 4868.57C450 4848.1 449.22 4827.5 451.19 4807.14C452.09 4797.79 452 4788.94 458.88 4781.57C471.1 4768.5 499 4770.49 506.12 4752.86C510.38 4742.3 505 4727.66 502.69 4717.14C499.58 4702.99 498.06 4685.83 500.47 4671.43C505.04 4644.01 531.98 4626.67 542.21 4601.43C557.49 4563.71 553.35 4522.54 579.06 4488.57C586.93 4478.16 597.24 4467.9 610 4463.96C618.54 4461.33 635.37 4463.87 638.11 4452.83C641.2 4440.4 631.05 4425.11 626.32 4414.29C613.45 4384.79 605.01 4347.23 634.31 4323.6C654.14 4307.6 676.06 4309.1 700 4311.33C748.27 4315.81 796.41 4330.21 842.86 4343.46C940.35 4371.26 1029.61 4411.6 1120 4456.79C1160.14 4476.86 1201.02 4495.41 1240 4517.76C1294.4 4548.94 1345.43 4585.71 1400 4616.54C1410.16 4622.27 1422.45 4628.93 1434.29 4629.87C1451.07 4631.19 1451.1 4616.83 1442.8 4605.71C1439.76 4601.66 1436.37 4597.9 1432.84 4594.29C1413.53 4574.49 1392.18 4557.04 1368.57 4542.59C1358.98 4536.71 1342.23 4534.37 1334.77 4526.81C1328.03 4519.99 1323.84 4505.99 1320 4497.14M811.43 4495.71L811.43 4497.14C794.86 4505.99 764.88 4500.61 747.14 4496.84C739.17 4495.14 731.12 4493.36 727.14 4485.71C749.86 4476.13 791.42 4481.59 811.43 4495.71M1325.71 4494.29L1325.71 4501.43M937.14 4554.29C944.71 4552.04 984.56 4549.29 978.86 4565.5C974.28 4578.51 941.23 4561.5 937.14 4554.29M1505.71 4681.43L1515.71 4680M558.57 4982.04C596.03 4976.94 643.58 4998.34 678.57 5010C780.38 5043.94 876.5 5086.5 962.86 5151.29C996.75 5176.7 1028.66 5203.79 1036.26 5247.14C1037.96 5256.79 1037.55 5287.71 1025.63 5290.97C1005.74 5296.41 977.8 5291.43 957.14 5291.43L807.14 5291.43C784.33 5291.43 746.3 5295.17 725.79 5283.86C715.39 5278.11 704.64 5257.9 696.54 5248.57C679.34 5228.79 658.7 5212.5 640 5194.27C597.52 5152.83 553.75 5109.19 529.02 5054.29C514.3 5021.61 517.86 4987.57 558.57 4982.04"/>
</g>

</svg>