<!DOCTYPE svg PUBLIC "-//W3C//DTD SVG 20010904//EN" "http://www.w3.org/TR/2001/REC-SVG-20010904/DTD/svg10.dtd">
<svg version="1.0" xmlns="http://www.w3.org/2000/svg" width="1000px" height="1000px" viewBox="0 0 10000 10000" preserveAspectRatio="xMidYMid meet">
<g id="layer101" fill="#313131" stroke="none">
 <path d="M4725 9434 c-494 -30 -971 -110 -1345 -226 -340 -105 -553 -189 -845 -333 -507 -252 -886 -517 -1261 -885 -689 -675 -1093 -1472 -1206 -2380 -19 -153 -16 -711 4 -852 23 -159 41 -172 213 -157 133 11 134 12 169 48 l28 29 -16 122 c-9 68 -15 124 -14 125 2 1 39 14 83 29 176 61 303 164 373 304 50 101 66 191 59 330 l-5 104 27 -6 c14 -4 74 -12 132 -18 91 -10 118 -9 190 5 129 25 248 89 354 189 89 84 190 223 220 302 l16 42 157 12 c309 23 577 104 814 244 l76 46 49 -35 c71 -51 198 -109 281 -129 56 -13 98 -16 185 -11 120 6 194 25 299 78 32 16 60 29 62 29 15 0 245 -351 351 -535 61 -106 235 -446 235 -459 0 -2 13 -33 29 -68 101 -221 230 -595 301 -875 l24 -93 -26 -27 c-39 -41 -51 -79 -38 -119 21 -63 27 -64 306 -64 l251 0 26 25 c44 45 40 110 -11 158 l-28 27 32 123 c159 611 426 1208 765 1707 54 80 109 158 123 175 l24 29 88 -41 c112 -53 195 -73 310 -73 152 0 316 57 435 150 20 17 40 30 43 30 3 0 31 -16 63 -37 84 -53 244 -127 363 -166 142 -47 294 -76 475 -90 l150 -11 34 -72 c95 -204 293 -385 486 -443 118 -36 206 -37 390 -5 l30 6 -3 -124 c-6 -207 36 -326 158 -449 73 -73 162 -128 274 -166 41 -14 73 -30 71 -37 -2 -6 -9 -62 -16 -123 -12 -107 -11 -114 7 -134 31 -35 81 -50 181 -54 98 -4 145 6 171 38 19 23 41 225 48 452 51 1537 -889 2981 -2451 3767 -318 159 -734 314 -1084 403 -268 68 -647 132 -921 155 -128 11 -657 21 -765 14z m759 -380 c671 -63 1239 -222 1821 -510 1028 -508 1786 -1346 2099 -2322 61 -188 101 -365 130 -562 18 -122 43 -497 34 -506 -11 -11 -98 56 -138 107 -69 87 -85 143 -84 299 1 109 5 149 23 210 36 121 36 117 9 125 -12 4 -40 23 -60 43 -36 34 -38 35 -57 18 -13 -12 -27 -15 -45 -10 -15 3 -32 1 -41 -6 -8 -6 -19 -9 -25 -5 -6 4 -42 -15 -80 -40 -83 -57 -129 -68 -218 -49 -190 40 -357 184 -462 399 -63 130 -91 240 -97 385 -8 190 27 345 125 542 2 4 -25 21 -59 39 -59 29 -63 30 -76 13 -7 -10 -13 -22 -13 -26 0 -5 -11 -6 -25 -2 -18 4 -27 1 -31 -10 -3 -9 -12 -16 -20 -16 -31 0 -121 -229 -144 -369 -14 -85 -17 -237 -5 -330 l7 -63 -63 7 c-323 35 -619 154 -889 359 -98 74 -263 238 -355 352 -113 140 -285 415 -285 456 0 8 34 43 75 77 73 61 165 167 165 192 0 7 7 21 16 30 16 17 14 21 -32 63 -27 25 -51 45 -54 46 -3 0 -37 -31 -75 -68 -228 -222 -438 -260 -659 -118 -123 80 -287 262 -390 434 -21 34 -42 62 -47 62 -4 0 -33 -12 -64 -27 -53 -26 -67 -44 -44 -58 7 -5 5 -13 -5 -24 -25 -27 -14 -69 42 -159 171 -275 388 -470 587 -528 61 -17 210 -24 252 -10 20 6 28 -3 82 -111 32 -65 86 -160 120 -211 34 -51 61 -95 61 -99 0 -3 -53 -69 -119 -147 -368 -438 -635 -839 -846 -1271 -80 -163 -94 -195 -172 -385 -88 -216 -220 -630 -267 -843 -7 -28 -7 -28 -79 -25 l-72 3 -33 125 c-244 918 -595 1591 -1231 2357 l-151 182 49 73 c59 88 153 257 176 316 17 42 18 42 54 35 246 -47 513 100 743 410 122 165 162 260 119 286 -10 6 -10 13 -2 29 9 18 6 23 -32 45 -79 47 -87 45 -127 -25 -58 -102 -174 -250 -256 -327 -132 -123 -270 -191 -390 -191 -131 0 -251 60 -394 196 l-80 76 -42 -37 c-24 -21 -47 -41 -51 -45 -25 -22 119 -199 225 -276 l49 -36 -54 -102 c-258 -485 -665 -850 -1117 -1000 -107 -36 -257 -69 -366 -81 l-61 -7 8 49 c13 80 10 255 -6 349 -28 159 -112 371 -142 360 -10 -4 -22 2 -31 15 -8 12 -22 19 -32 16 -12 -3 -22 3 -29 19 -6 13 -16 24 -23 24 -13 0 -118 -57 -118 -64 0 -2 16 -38 35 -80 19 -42 47 -123 62 -179 36 -138 38 -335 4 -472 -70 -286 -270 -525 -493 -590 -113 -32 -169 -22 -271 52 -36 27 -51 32 -61 24 -10 -8 -16 -7 -26 4 -14 17 -41 20 -56 5 -7 -7 -16 -4 -29 10 -24 26 -39 25 -59 -5 -9 -14 -34 -34 -55 -44 l-38 -20 23 -69 c69 -206 48 -435 -53 -557 -26 -31 -115 -105 -127 -105 -11 0 -6 196 9 353 80 827 447 1581 1074 2207 351 349 726 615 1196 845 647 317 1288 478 2075 519 126 7 527 -5 684 -20z m-1920 -2279 c69 -82 126 -153 126 -156 0 -8 -98 -51 -170 -75 -86 -28 -234 -24 -327 9 -40 14 -82 32 -93 40 -18 13 -16 16 50 70 38 32 115 106 172 167 56 60 106 106 110 102 3 -4 63 -74 132 -157z m3156 33 c70 -73 146 -146 169 -163 22 -16 41 -33 41 -36 0 -7 -95 -50 -155 -70 -52 -17 -206 -17 -270 0 -59 16 -185 71 -185 81 0 7 260 320 267 320 2 0 62 -60 133 -132z"/>
 <path d="M4650 4093 c-23 -9 -60 -45 -76 -75 -22 -43 -17 -73 20 -112 l33 -36 371 0 371 0 36 31 c40 36 46 77 19 135 -30 63 -35 64 -416 63 -189 0 -350 -3 -358 -6z"/>
 <path d="M4626 3779 c-50 -39 -59 -72 -67 -240 -13 -292 -96 -513 -285 -759 -117 -154 -181 -281 -230 -460 -26 -95 -29 -120 -29 -260 0 -140 3 -164 28 -249 53 -178 136 -319 262 -445 255 -255 608 -352 950 -261 54 14 104 30 110 34 5 4 30 15 54 25 122 47 331 229 416 361 71 112 96 172 142 345 3 8 7 76 10 151 5 116 2 152 -17 244 -43 214 -96 332 -235 525 -125 173 -207 333 -249 482 -25 87 -46 243 -46 338 0 93 -22 160 -58 179 -14 7 -140 11 -375 11 -344 0 -355 -1 -381 -21z m270 -311 c4 -46 7 -153 6 -238 -1 -188 -1 -190 98 -190 38 0 73 5 82 13 14 10 17 44 22 222 3 116 8 225 12 243 6 31 9 32 53 32 l47 0 12 -97 c44 -330 178 -642 395 -917 115 -146 158 -325 123 -506 -34 -171 -90 -278 -213 -403 -125 -128 -295 -203 -481 -213 -244 -14 -470 86 -629 278 -54 65 -125 211 -147 300 -21 89 -21 266 0 339 26 86 60 148 141 254 211 275 313 522 364 878 l12 87 48 0 47 0 8 -82z"/>
 <path d="M3524 2116 c-33 -15 -94 -85 -94 -109 0 -8 -7 -20 -15 -27 -25 -21 -20 -96 9 -125 32 -32 70 -37 244 -33 133 3 152 5 172 23 25 22 90 155 90 183 0 35 -38 81 -77 91 -56 16 -291 13 -329 -3z"/>
 <path d="M6155 2116 c-77 -35 -87 -92 -37 -201 44 -92 59 -97 263 -93 142 3 160 5 186 24 37 28 43 91 14 149 -11 22 -24 52 -30 67 -20 54 -50 63 -216 66 -110 1 -158 -1 -180 -12z"/>
 <path d="M4125 1271 c-16 -10 -74 -63 -127 -117 -96 -98 -138 -164 -138 -218 0 -12 -5 -27 -11 -33 -6 -6 -11 -28 -11 -49 0 -51 45 -94 99 -94 34 0 47 11 168 133 l131 132 13 65 c26 138 26 137 -7 170 -36 35 -73 39 -117 11z"/>
 <path d="M5771 1258 c-31 -32 -32 -35 -26 -93 4 -33 11 -68 16 -77 5 -9 9 -29 9 -44 0 -22 26 -54 128 -156 122 -122 131 -128 169 -128 62 0 118 67 98 117 -4 10 -16 52 -26 93 l-18 75 -124 123 c-111 110 -127 122 -159 122 -27 0 -43 -8 -67 -32z"/>
 <path d="M4975 941 c-62 -26 -75 -87 -75 -342 0 -193 4 -218 38 -256 29 -34 100 -32 133 3 24 25 24 27 27 277 3 270 2 281 -48 310 -31 19 -45 20 -75 8z"/>
 </g>

</svg>