<!DOCTYPE svg PUBLIC "-//W3C//DTD SVG 20010904//EN" "http://www.w3.org/TR/2001/REC-SVG-20010904/DTD/svg10.dtd">
<svg version="1.0" xmlns="http://www.w3.org/2000/svg" width="1000px" height="1000px" viewBox="0 0 10000 10000" preserveAspectRatio="xMidYMid meet">
<g id="layer101" fill="#313131" stroke="none">
 <path d="M374 9936 c-51 -34 -114 -115 -114 -147 0 -10 -4 -21 -10 -24 -14 -9 -14 -9501 0 -9510 6 -3 10 -14 10 -24 0 -33 63 -113 116 -147 l53 -34 3401 0 3400 0 53 35 c28 19 68 58 87 86 l35 52 0 4787 0 4787 -35 52 c-19 28 -59 67 -87 86 l-53 35 -3402 -1 -3403 0 -51 -33z m6516 -4926 l0 -4445 -3060 0 -3060 0 0 4443 c0 2443 0 4444 0 4447 0 3 1377 4 3060 3 l3060 -3 0 -4445z"/>
 <path d="M3737 9096 c-55 -20 -100 -59 -137 -116 -30 -47 -33 -59 -33 -126 0 -64 3 -79 29 -121 85 -137 255 -178 381 -91 86 59 136 173 113 259 -18 67 -66 134 -121 170 -43 27 -62 33 -122 36 -46 2 -86 -2 -110 -11z"/>
 <path d="M3485 8448 c-54 -19 -122 -72 -152 -118 -24 -38 -28 -57 -31 -125 -3 -77 -2 -82 32 -135 24 -39 51 -65 92 -90 l58 -35 346 0 346 0 54 33 c81 49 122 116 128 207 3 62 1 76 -25 125 -34 64 -105 123 -169 139 -56 14 -638 13 -679 -1z"/>
 <path d="M3392 7715 c-69 -16 -129 -59 -164 -116 -27 -42 -59 -157 -117 -409 -46 -199 -120 -336 -286 -525 -207 -237 -360 -528 -390 -745 -23 -160 -26 -213 -15 -316 46 -442 270 -816 635 -1061 216 -145 509 -233 775 -233 225 0 470 63 673 174 361 196 626 555 714 966 14 65 18 128 18 265 0 158 -3 190 -24 265 -71 258 -187 466 -386 695 -182 209 -217 280 -300 609 -73 290 -69 278 -109 334 -38 55 -93 87 -170 101 -88 16 -786 13 -854 -4z m658 -660 c21 -82 49 -181 64 -218 56 -145 160 -310 301 -475 247 -290 330 -486 304 -722 -40 -368 -275 -656 -631 -772 -87 -28 -104 -30 -253 -31 -154 -1 -164 0 -262 32 -179 56 -302 137 -424 278 -67 75 -152 223 -169 293 -5 19 -16 60 -25 90 -10 36 -16 97 -16 180 -1 104 3 136 21 190 53 158 128 281 278 455 52 61 123 153 157 205 67 101 145 248 145 272 0 8 4 18 8 24 9 10 43 119 60 194 20 86 35 145 39 153 3 4 86 6 185 5 l181 -3 37 -150z"/>
 <path d="M1769 5675 c-64 -23 -114 -63 -147 -118 -76 -126 -38 -267 94 -347 53 -32 64 -35 135 -34 69 0 83 4 131 33 34 20 67 52 89 83 32 48 34 55 34 137 0 79 -3 90 -30 133 -66 102 -201 152 -306 113z"/>
 <path d="M5827 5675 c-215 -82 -245 -347 -52 -464 51 -31 64 -35 134 -35 73 -1 82 2 136 35 83 51 128 127 129 212 1 104 -55 192 -153 239 -56 27 -142 33 -194 13z"/>
 <path d="M2227 4446 c-115 -43 -189 -165 -171 -281 15 -99 107 -191 212 -214 136 -29 276 62 311 201 23 95 -28 210 -120 269 -43 27 -62 33 -122 36 -46 2 -86 -2 -110 -11z"/>
 <path d="M5256 4450 c-80 -25 -157 -111 -176 -194 -14 -65 -3 -123 36 -183 107 -165 333 -170 443 -9 84 121 50 273 -79 356 -44 28 -62 34 -123 36 -40 2 -85 -1 -101 -6z"/>
 <path d="M3757 4016 c-58 -16 -112 -57 -153 -118 -56 -82 -54 -175 5 -267 127 -197 420 -144 481 88 31 119 -70 270 -201 300 -55 13 -73 13 -132 -3z"/>
 <path d="M1518 2981 c-64 -32 -92 -58 -126 -113 l-32 -54 0 -732 c0 -609 2 -738 14 -766 22 -53 82 -113 141 -141 l54 -25 2258 1 c1702 0 2266 3 2290 12 56 21 120 74 150 124 l28 48 0 745 0 745 -37 54 c-38 55 -69 81 -127 106 -29 13 -337 15 -2305 15 -2182 -1 -2272 -2 -2308 -19z m4264 -498 c2 -5 2 -189 0 -410 l-2 -403 -1955 0 -1955 0 0 403 c0 222 3 407 7 410 9 10 3901 9 3905 0z"/>
 <path d="M8810 9081 c-52 -11 -92 -35 -131 -78 -21 -24 -154 -278 -354 -678 l-320 -640 0 -3050 0 -3050 27 -46 c32 -54 87 -106 134 -125 27 -11 158 -14 706 -14 l674 0 56 35 c56 35 118 113 118 148 0 9 5 19 10 22 14 9 14 6051 0 6060 -5 3 -10 14 -10 23 0 9 -143 301 -317 650 -331 663 -350 694 -428 726 -46 19 -120 27 -165 17z m153 -1016 c48 -96 87 -177 87 -180 0 -3 -83 -5 -185 -5 l-185 0 90 180 c50 99 94 180 98 180 4 0 47 -79 95 -175z m247 -715 c0 -5 0 -1045 0 -2310 0 -1265 0 -2304 0 -2310 0 -6 -122 -10 -345 -10 l-345 0 0 2320 0 2320 345 0 c223 0 345 -4 345 -10z m2 -5295 l0 -140 -346 -3 -346 -2 0 145 0 145 346 -2 346 -3 0 -140z"/>
 </g>

</svg>