<!DOCTYPE svg PUBLIC "-//W3C//DTD SVG 20010904//EN" "http://www.w3.org/TR/2001/REC-SVG-20010904/DTD/svg10.dtd">
<svg version="1.0" xmlns="http://www.w3.org/2000/svg" width="923px" height="1200px" viewBox="0 0 9230 12000" preserveAspectRatio="xMidYMid meet">
<g id="layer101" fill="#dcffd1" stroke="none">
 <path d="M766 11209 c-61 -48 -56 208 -56 -3159 l0 -3080 3849 0 3848 0 34 23 c18 12 39 34 46 47 10 20 12 229 10 982 l-2 958 -33 32 -32 33 -2768 5 -2767 5 -33 23 c-66 47 -62 -15 -62 1024 0 917 1 944 20 975 10 18 31 40 47 50 26 17 149 18 2789 23 l2763 5 28 21 c15 11 34 32 40 45 10 19 12 234 10 982 l-2 959 -37 34 -38 34 -3814 0 -3813 0 -27 -21z"/>
 <path d="M710 1878 c0 -967 1 -994 20 -1025 10 -18 31 -40 47 -50 26 -17 183 -18 3817 -21 3761 -2 3790 -2 3830 18 82 39 76 -39 76 1025 0 945 0 948 -21 982 -11 18 -34 40 -49 48 -25 13 -504 15 -3875 15 l-3845 0 0 -992z"/>
 </g>

</svg>
