<!DOCTYPE svg PUBLIC "-//W3C//DTD SVG 20010904//EN" "http://www.w3.org/TR/2001/REC-SVG-20010904/DTD/svg10.dtd">
<svg version="1.0" xmlns="http://www.w3.org/2000/svg" width="1152px" height="1200px" viewBox="0 0 11520 12000" preserveAspectRatio="xMidYMid meet">
<g id="layer101" fill="#dcffd1" stroke="none">
 <path d="M3250 9855 l0 -285 60 0 60 0 0 269 c0 148 -3 276 -6 285 -5 12 -20 16 -60 16 l-54 0 0 -285z"/>
 <path d="M3560 9855 l0 -285 55 0 55 0 0 285 0 285 -55 0 -55 0 0 -285z"/>
 <path d="M3960 9910 l0 -230 -90 0 -90 0 0 -55 0 -55 235 0 235 0 0 55 0 55 -90 0 -90 0 0 230 0 230 -55 0 -55 0 0 -230z"/>
 <path d="M4710 9856 l0 -286 180 0 c195 0 222 6 253 54 26 39 37 104 27 159 -9 43 -7 52 13 78 31 43 32 164 1 205 -49 67 -56 69 -275 72 l-199 3 0 -285z m379 133 c13 -24 13 -29 -2 -53 -17 -26 -19 -26 -142 -26 l-125 0 0 55 0 56 127 -3 c126 -3 127 -3 142 -29z m-59 -202 c31 -15 39 -66 15 -91 -13 -13 -38 -16 -121 -16 l-104 0 0 60 0 60 93 0 c54 0 102 -6 117 -13z"/>
 <path d="M5492 10119 c-127 -40 -189 -139 -180 -289 5 -92 36 -154 100 -201 115 -82 275 -75 378 18 58 52 83 111 84 197 1 143 -63 236 -189 275 -82 26 -112 26 -193 0z m189 -119 c56 -29 79 -71 79 -146 0 -76 -26 -119 -90 -152 -75 -39 -173 -16 -224 51 -30 41 -30 153 0 194 55 74 151 95 235 53z"/>
 <path d="M5990 9855 l0 -285 54 0 53 0 72 158 c39 86 75 163 80 170 5 8 35 -46 86 -158 l78 -170 53 0 54 0 0 285 0 285 -55 0 -55 0 -1 -157 -1 -158 -77 160 -78 159 -49 -104 c-27 -58 -61 -130 -76 -160 l-26 -55 -1 158 -1 157 -55 0 -55 0 0 -285z"/>
 <path d="M6670 9855 l0 -285 183 0 c163 0 185 2 214 20 57 34 86 127 65 204 -10 33 -8 42 10 67 15 19 23 49 26 88 6 83 -22 142 -82 170 -38 19 -61 21 -229 21 l-187 0 0 -285z m374 149 c21 -20 20 -53 -1 -76 -14 -16 -33 -18 -140 -18 l-123 0 0 55 0 55 124 0 c100 0 128 -3 140 -16z m-38 -229 c18 -19 23 -31 19 -48 -12 -40 -33 -47 -142 -47 l-103 0 0 60 0 60 100 0 c94 0 103 -2 126 -25z"/>
 <path d="M7240 10126 c0 -15 244 -534 258 -548 6 -6 236 462 269 549 4 10 -10 13 -51 13 -56 0 -57 0 -73 -37 -8 -21 -20 -41 -27 -45 -6 -4 -61 -8 -123 -8 l-112 0 -20 45 c-20 45 -20 45 -70 45 -36 0 -51 -4 -51 -14z m303 -246 c-20 -44 -39 -80 -43 -80 -6 0 -70 138 -70 153 0 4 33 7 74 7 l75 0 -36 -80z"/>
 <path d="M7930 10028 l0 -113 -90 -168 c-50 -92 -90 -170 -90 -172 0 -3 25 -5 55 -5 l55 0 63 125 62 125 63 -125 62 -125 55 0 55 0 -26 53 c-15 28 -55 105 -90 169 l-64 117 0 116 0 115 -55 0 -55 0 0 -112z"/>
 <path d="M2835 9031 c-332 -53 -605 -315 -664 -635 -14 -76 -14 -226 0 -302 53 -289 281 -532 576 -616 111 -31 305 -31 416 0 325 92 543 367 581 735 l6 57 -628 0 -629 0 9 57 c19 122 114 255 225 315 139 76 317 76 456 1 57 -32 137 -116 164 -173 l18 -39 183 -1 c139 0 182 3 182 13 -1 27 -70 178 -113 244 -139 216 -354 334 -630 347 -56 3 -125 1 -152 -3z m504 -1051 c-39 -74 -127 -158 -206 -197 -54 -26 -66 -28 -178 -28 -113 0 -124 2 -185 31 -81 38 -149 101 -195 178 -19 33 -35 63 -35 68 0 4 187 8 416 8 l415 0 -32 -60z"/>
 <path d="M5435 9030 c-119 -17 -260 -75 -356 -146 -65 -47 -168 -160 -208 -227 -77 -130 -111 -256 -111 -412 0 -228 70 -395 235 -560 103 -103 212 -167 350 -206 109 -31 303 -31 416 -1 212 57 388 199 489 394 l41 78 -189 0 -188 0 -47 -45 c-57 -54 -106 -80 -189 -100 -127 -30 -257 -12 -360 48 -61 36 -141 123 -177 195 -148 292 78 650 411 652 124 0 247 -47 323 -126 l43 -44 186 0 186 0 -31 63 c-98 195 -263 342 -449 401 -128 41 -258 53 -375 36z"/>
 <path d="M7150 9034 c-147 -23 -246 -58 -350 -125 -160 -103 -277 -264 -332 -456 -32 -112 -32 -305 0 -417 28 -97 86 -211 147 -288 96 -122 275 -237 430 -275 95 -23 296 -23 385 0 86 23 231 95 302 152 158 125 270 346 294 578 l7 67 -628 0 -628 0 6 51 c15 124 128 275 248 332 223 105 477 31 591 -170 l30 -53 183 0 184 0 -18 53 c-67 193 -193 354 -351 447 -132 77 -360 125 -500 104z m500 -1001 c0 -5 -14 -31 -30 -60 -42 -73 -122 -148 -199 -186 -63 -31 -70 -32 -186 -32 -109 0 -125 2 -177 27 -88 41 -197 153 -228 232 l-10 26 415 0 c228 0 415 -3 415 -7z"/>
 <path d="M8240 7960 l0 -1020 170 0 170 0 0 1020 0 1020 -170 0 -170 0 0 -1020z"/>
 <path d="M8880 7960 l0 -1020 175 0 175 0 0 1020 0 1020 -175 0 -175 0 0 -1020z"/>
 <path d="M4010 8215 l0 -165 265 0 265 0 -2 163 -3 162 -262 3 -263 2 0 -165z"/>
 <path d="M4146 6348 c-14 -20 -16 -163 -16 -1335 l0 -1313 1655 0 1655 0 15 24 c14 20 15 75 13 426 l-3 402 -24 19 c-23 18 -56 19 -1198 19 -790 0 -1181 3 -1194 10 -18 10 -19 26 -19 430 0 367 2 421 16 434 14 14 136 16 1195 16 l1180 0 25 25 25 25 -3 403 c-2 325 -6 407 -17 420 -12 16 -140 17 -1652 17 l-1638 0 -15 -22z"/>
 <path d="M4130 2377 c0 -366 2 -426 16 -445 l15 -22 1639 0 1640 0 15 24 c14 20 15 75 13 426 l-3 402 -24 19 c-23 19 -64 19 -1667 19 l-1644 0 0 -423z"/>
 </g>

</svg>
