<!DOCTYPE svg PUBLIC "-//W3C//DTD SVG 20010904//EN" "http://www.w3.org/TR/2001/REC-SVG-20010904/DTD/svg10.dtd">
<svg version="1.0" xmlns="http://www.w3.org/2000/svg" width="1046px" height="543px" viewBox="0 0 11460 5430" preserveAspectRatio="xMidYMid meet">
<g id="layer101" fill="#edab87" stroke="#dcffd1" stroke-width="30px" transform="translate(400, 0)">
<path d="M7550 2950 c0 -5 -22 -10 -50 -10 -27 0 -50 -4 -50 -10 0 -5 -18 -10 -40 -10 -22 0 -40 -4 -40 -10 0 -5 -13 -10 -30 -10 -16 0 -30 -4 -30 -10 0 -5 -13 -10 -30 -10 -16 0 -30 -4 -30 -10 0 -5 -9 -10 -20 -10 -11 0 -20 -4 -20 -10 0 -5 -7 -10 -15 -10 -8 0 -15 -4 -15 -10 0 -5 -8 -10 -18 -10 -10 0 -24 -9 -32 -20 -8 -11 -18 -20 -23 -20 -10 0 -37 -26 -37 -35 0 -7 -10 -20 -60 -74 -19 -21 -42 -49 -50 -61 -8 -12 -20 -28 -26 -34 -7 -7 -27 -41 -44 -77 -18 -35 -36 -66 -39 -69 -4 -3 -13 -25 -20 -50 -7 -25 -17 -56 -21 -70 -34 -108 -53 -294 -46 -434 10 -197 60 -451 91 -469 8 -4 15 -16 15 -26 0 -26 47 -115 75 -141 14 -13 25 -29 25 -35 0 -6 14 -24 30 -40 17 -16 30 -35 30 -42 0 -7 5 -13 10 -13 6 0 10 -6 10 -13 0 -16 51 -67 67 -67 6 0 16 -7 23 -15 7 -9 34 -25 59 -36 25 -12 69 -31 96 -43 125 -57 191 -70 362 -74 158 -4 296 12 327 37 6 5 45 19 86 31 41 12 84 30 96 41 11 10 25 19 31 19 5 0 18 9 28 20 10 11 23 20 30 20 15 0 85 73 85 88 0 7 13 27 30 45 16 18 30 37 30 43 0 6 8 18 18 28 11 9 27 43 37 76 10 33 21 60 24 60 15 0 46 107 56 195 3 28 8 62 11 78 l6 27 -181 0 c-109 0 -182 4 -186 10 -3 6 -52 10 -111 10 l-104 0 6 -38 c7 -45 -17 -143 -54 -216 -27 -56 -44 -76 -64 -76 -8 0 -20 -9 -28 -20 -8 -11 -22 -20 -32 -20 -10 0 -18 -4 -18 -10 0 -6 -38 -10 -93 -10 l-93 0 -54 58 c-61 63 -80 92 -80 121 0 11 -4 22 -9 25 -4 3 -11 22 -15 43 -3 21 -10 63 -16 93 -19 103 -28 277 -19 403 16 260 71 389 184 442 22 11 68 21 103 23 56 4 70 1 130 -29 75 -38 81 -43 101 -81 8 -16 18 -28 23 -28 4 0 8 -11 8 -25 0 -14 4 -33 10 -43 5 -9 14 -43 20 -74 l11 -58 43 0 c47 0 509 30 512 33 11 12 -52 267 -67 267 -4 0 -10 13 -14 30 -4 16 -11 33 -16 36 -6 3 -15 16 -20 27 -20 45 -36 66 -123 160 -49 53 -95 97 -101 97 -7 0 -18 7 -25 15 -16 19 -68 45 -91 45 -10 0 -34 9 -54 20 -20 11 -49 20 -65 20 -16 0 -32 5 -35 10 -3 6 -30 10 -60 10 -30 0 -57 5 -60 10 -4 6 -60 10 -136 10 -79 0 -129 -4 -129 -10z"/>
<path d="M6207 2863 c-14 -43 -33 -109 -42 -148 -8 -38 -23 -96 -33 -128 l-17 -57 -279 2 c-236 3 -280 5 -287 18 -31 59 -59 134 -70 185 -7 33 -16 64 -21 70 -4 5 -8 21 -8 35 0 14 -6 38 -12 53 l-13 27 -272 0 c-163 0 -273 -4 -273 -9 0 -5 5 -22 11 -38 11 -31 32 -104 55 -198 8 -33 19 -68 25 -77 5 -10 9 -27 9 -37 0 -11 5 -23 10 -26 6 -3 10 -21 10 -40 0 -19 5 -37 10 -40 6 -3 10 -17 10 -30 0 -13 4 -26 9 -30 5 -3 16 -36 25 -73 9 -38 22 -82 31 -98 8 -16 15 -39 15 -51 0 -12 5 -25 10 -28 6 -3 10 -17 10 -30 0 -13 5 -27 10 -30 6 -3 10 -19 10 -36 0 -16 4 -37 9 -47 5 -9 14 -37 21 -62 7 -25 16 -53 21 -62 5 -10 9 -27 9 -38 0 -11 4 -20 9 -20 5 0 12 -15 16 -32 3 -18 10 -42 14 -53 14 -34 51 -161 51 -174 0 -6 9 -31 20 -53 11 -23 20 -49 20 -58 0 -9 4 -20 8 -25 5 -6 15 -37 22 -70 7 -33 16 -64 20 -70 3 -5 12 -35 19 -65 7 -30 16 -64 21 -75 4 -11 14 -47 21 -80 7 -33 16 -64 20 -70 4 -5 13 -29 20 -52 l12 -43 326 0 326 0 12 28 c6 15 14 41 18 57 3 17 12 44 19 60 17 38 67 195 96 300 12 44 26 88 31 97 5 10 9 25 9 33 0 8 4 23 9 33 5 9 15 44 22 77 7 33 25 98 41 144 15 47 28 93 28 103 0 10 6 21 14 24 8 3 19 26 26 52 7 26 17 51 21 57 5 5 9 17 9 27 0 10 4 26 9 36 5 9 19 55 31 102 12 47 25 89 31 94 5 6 9 25 9 42 0 18 5 36 10 39 6 3 10 17 10 31 0 13 4 32 9 42 12 22 41 125 41 143 0 8 6 26 14 41 8 14 19 43 26 65 7 21 16 43 20 48 4 6 12 39 19 74 6 36 15 69 21 75 5 5 10 20 10 32 0 13 5 26 10 29 6 3 10 13 10 21 0 12 -40 14 -259 14 -163 0 -262 4 -266 10 -13 21 -23 7 -48 -67z m-247 -570 c7 -7 7 -251 0 -263 -6 -10 -253 -16 -269 -6 -18 11 -14 246 3 265 12 13 35 15 138 13 68 -2 125 -6 128 -9z m-36 -390 c3 -16 8 -59 11 -98 3 -38 10 -99 15 -135 13 -90 32 -252 32 -270 0 -8 4 -35 9 -59 18 -82 20 -81 -169 -81 l-167 0 7 87 c3 49 11 129 17 178 6 50 18 160 25 245 8 85 15 156 15 158 1 1 46 2 100 2 l99 0 6 -27z"/>
<path d="M9080 2156 c0 -420 -3 -771 -6 -780 -5 -14 -34 -16 -220 -16 l-214 0 0 -235 0 -235 718 0 717 0 0 235 0 235 -207 0 c-125 0 -209 4 -213 10 -3 5 -6 356 -5 780 l0 770 -285 0 -285 0 0 -764z"/>
</g>
<g id="layer102" fill="#96d1d3" stroke="#dcffd1" stroke-width="30px" transform="translate(400, 0)">
<path d="M1221 4200 c-139 -29 -235 -155 -235 -310 0 -129 62 -233 169 -286 104 -50 259 -32 341 41 l39 35 -30 25 c-16 13 -43 32 -61 41 -30 16 -32 16 -61 -6 -40 -29 -108 -37 -154 -17 -87 36 -125 157 -79 251 45 94 163 124 238 61 l28 -23 54 34 c30 19 56 38 58 43 5 15 -51 62 -103 86 -58 27 -142 37 -204 25z"/>
<path d="M6901 4200 c-139 -29 -235 -155 -235 -310 0 -129 62 -233 169 -286 104 -50 259 -32 341 41 l39 35 -30 25 c-16 13 -43 32 -61 41 -30 16 -32 16 -61 -6 -40 -29 -108 -37 -154 -17 -87 36 -125 157 -79 251 45 94 163 124 238 61 l28 -23 54 34 c30 19 56 38 58 43 5 15 -51 62 -103 86 -58 27 -142 37 -204 25z"/>
<path d="M9247 4200 c-69 -12 -133 -53 -158 -101 -11 -23 -19 -42 -17 -44 2 -1 31 -11 64 -23 l62 -20 21 29 c49 66 191 53 191 -17 0 -31 -33 -52 -118 -74 -135 -34 -192 -89 -192 -184 0 -118 82 -189 220 -189 99 0 171 38 207 107 18 34 14 38 -64 56 -51 11 -56 11 -69 -9 -22 -31 -79 -43 -120 -26 -28 11 -34 20 -34 43 0 40 22 56 110 82 138 40 185 76 204 153 8 34 -9 102 -35 139 -42 58 -170 95 -272 78z"/>
<path d="M64 4078 c24 -68 74 -206 110 -307 36 -102 66 -186 66 -188 0 -2 39 -3 88 -3 l87 0 108 303 c59 166 108 305 107 310 0 4 -33 7 -73 7 l-74 0 -18 -60 -18 -61 -121 3 -120 3 -16 55 -16 55 -77 3 -76 3 43 -123z m342 -125 c-27 -94 -70 -230 -76 -236 -6 -7 -80 216 -80 242 0 7 27 11 81 11 72 0 80 -2 75 -17z"/>
<path d="M1640 3889 l0 -311 158 4 c131 3 165 8 203 25 128 57 154 230 50 330 l-29 28 64 115 63 115 -66 3 c-36 2 -71 1 -77 -1 -6 -3 -35 -50 -64 -106 l-53 -101 -50 0 -49 0 0 105 0 105 -75 0 -75 0 0 -311z m307 -41 c31 -29 30 -72 -2 -103 -21 -22 -33 -25 -90 -25 l-65 0 0 75 0 75 67 0 c55 0 71 -4 90 -22z"/>
<path d="M2240 3890 l0 -310 185 0 185 0 0 70 0 70 -110 0 -110 0 0 50 0 50 100 0 100 0 0 65 0 65 -100 0 -100 0 0 55 0 55 115 0 115 0 0 70 0 70 -190 0 -190 0 0 -310z"/>
<path d="M2754 4078 c24 -68 74 -206 110 -307 36 -102 66 -186 66 -188 0 -2 39 -3 88 -3 l87 0 108 303 c59 166 108 305 107 310 0 4 -33 7 -73 7 l-74 0 -18 -60 -18 -61 -121 3 -120 3 -16 55 -16 55 -77 3 -76 3 43 -123z m342 -125 c-27 -94 -70 -230 -76 -236 -6 -7 -80 216 -80 242 0 7 27 11 81 11 72 0 80 -2 75 -17z"/>
<path d="M3500 3960 l0 -240 -70 0 -70 0 0 -70 0 -70 215 0 215 0 0 70 0 70 -70 0 -70 0 0 240 0 240 -75 0 -75 0 0 -240z"/>
<path d="M3910 3890 l0 -310 75 0 75 0 0 310 0 310 -75 0 -75 0 0 -310z"/>
<path d="M4276 3899 c-58 -165 -106 -305 -106 -310 0 -5 33 -9 73 -9 l73 0 74 240 c41 132 77 240 80 240 4 0 40 -108 80 -240 l74 -240 73 0 c40 0 73 3 73 7 0 4 -48 143 -107 310 l-108 303 -86 0 -86 0 -107 -301z"/>
<path d="M4880 3890 l0 -310 185 0 185 0 0 70 0 70 -110 0 -110 0 0 50 0 50 100 0 100 0 0 65 0 65 -100 0 -100 0 0 55 0 55 115 0 115 0 0 70 0 70 -190 0 -190 0 0 -310z"/>
<path d="M5770 3960 l0 -240 -70 0 -70 0 0 -70 0 -70 215 0 215 0 0 70 0 70 -70 0 -70 0 0 240 0 240 -75 0 -75 0 0 -240z"/>
<path d="M6180 3890 l0 -310 185 0 185 0 0 70 0 70 -110 0 -110 0 0 50 0 50 100 0 100 0 0 65 0 65 -100 0 -100 0 0 55 0 55 115 0 115 0 0 70 0 70 -190 0 -190 0 0 -310z"/>
<path d="M7320 3890 l0 -310 75 0 75 0 0 120 0 120 115 0 115 0 0 -120 0 -120 75 0 75 0 0 310 0 310 -75 0 -75 0 0 -120 0 -120 -115 0 -115 0 0 120 0 120 -75 0 -75 0 0 -310z"/>
<path d="M7990 3889 l0 -311 158 4 c131 3 165 8 203 25 128 57 154 230 50 330 l-29 28 64 115 63 115 -66 3 c-36 2 -71 1 -77 -1 -6 -3 -35 -50 -64 -106 l-53 -101 -50 0 -49 0 0 105 0 105 -75 0 -75 0 0 -311z m307 -41 c31 -29 30 -72 -2 -103 -21 -22 -33 -25 -90 -25 l-65 0 0 75 0 75 67 0 c55 0 71 -4 90 -22z"/>
<path d="M8590 3890 l0 -310 185 0 185 0 0 70 0 70 -110 0 -110 0 0 50 0 50 100 0 100 0 0 65 0 65 -100 0 -100 0 0 55 0 55 115 0 115 0 0 70 0 70 -190 0 -190 0 0 -310z"/>
<path d="M9780 3960 l0 -240 -70 0 -70 0 0 -70 0 -70 215 0 215 0 0 70 0 70 -70 0 -70 0 0 240 0 240 -75 0 -75 0 0 -240z"/>
<path d="M7406 3214 c-9 -8 -16 -22 -16 -29 0 -7 7 -21 16 -29 14 -14 148 -16 1323 -16 1003 0 1310 3 1319 12 15 15 15 51 0 66 -9 9 -316 12 -1319 12 -1175 0 -1309 -2 -1323 -16z"/>
</g>


</svg>
