<!DOCTYPE svg PUBLIC "-//W3C//DTD SVG 20010904//EN" "http://www.w3.org/TR/2001/REC-SVG-20010904/DTD/svg10.dtd">
<svg version="1.0" xmlns="http://www.w3.org/2000/svg" width="840px" height="859px" viewBox="0 0 8400 8590" preserveAspectRatio="xMidYMid meet">
<g id="layer101" fill="#000000" stroke="none">
 <path d="M4095 8546 c-125 -30 -59 32 -1632 -1540 -1202 -1200 -1488 -1491 -1512 -1537 -104 -194 -72 -411 83 -564 153 -151 382 -179 573 -70 32 18 404 383 1086 1064 l1037 1036 0 -3220 c0 -2160 4 -3241 10 -3285 25 -157 125 -291 267 -357 68 -32 90 -37 171 -41 116 -5 198 14 280 68 104 67 177 167 208 285 11 41 14 619 14 3305 l0 3255 1053 -1051 c910 -909 1060 -1054 1108 -1077 247 -116 530 -14 643 233 66 146 51 316 -40 455 -18 28 -691 707 -1496 1511 -1122 1120 -1475 1466 -1514 1487 -103 54 -229 70 -339 43z"/>
 </g>

</svg>