<!DOCTYPE svg PUBLIC "-//W3C//DTD SVG 20010904//EN" "http://www.w3.org/TR/2001/REC-SVG-20010904/DTD/svg10.dtd">
<svg version="1.0" xmlns="http://www.w3.org/2000/svg" width="220px" height="229px" viewBox="0 0 2200 2290" preserveAspectRatio="xMidYMid meet">
<g id="layer101" fill="#000000" stroke="none">
 <path d="M620 1880 c0 -33 4 -60 10 -60 6 0 10 27 10 60 0 33 -4 60 -10 60 -6 0 -10 -27 -10 -60z"/>
 <path d="M680 1880 c0 -33 4 -60 10 -60 6 0 10 27 10 60 0 33 -4 60 -10 60 -6 0 -10 -27 -10 -60z"/>
 <path d="M757 1933 c-4 -3 -7 -24 -7 -45 0 -28 -4 -38 -16 -38 -35 0 -4 -25 34 -28 33 -2 42 0 42 12 0 9 -7 16 -15 16 -11 0 -15 12 -15 45 0 42 -7 54 -23 38z"/>
 <path d="M900 1880 l0 -60 34 0 c38 0 51 12 59 55 8 46 -7 65 -53 65 l-40 0 0 -60z m70 20 c0 -5 -11 -10 -25 -10 -14 0 -25 5 -25 10 0 6 11 10 25 10 14 0 25 -4 25 -10z m-5 -40 c4 -6 -5 -10 -19 -10 -14 0 -26 5 -26 10 0 6 9 10 19 10 11 0 23 -4 26 -10z"/>
 <path d="M1050 1933 c-21 -7 -40 -33 -40 -54 0 -40 69 -66 98 -37 20 20 14 65 -10 82 -24 17 -25 17 -48 9z m45 -53 c0 -18 -6 -26 -23 -28 -24 -4 -38 18 -28 44 3 9 15 14 28 12 17 -2 23 -10 23 -28z"/>
 <path d="M1146 1933 c-10 -10 -7 -101 4 -108 5 -3 18 10 27 30 l17 36 16 -33 c21 -46 35 -37 35 22 0 52 -16 69 -26 28 l-5 -23 -7 25 c-7 24 -8 24 -22 6 -13 -17 -15 -17 -15 -4 0 19 -14 31 -24 21z"/>
 <path d="M1274 1926 c-3 -7 -4 -33 -2 -57 3 -47 17 -56 62 -45 18 4 25 15 30 47 4 26 2 46 -5 55 -15 18 -78 18 -85 0z m71 -26 c-3 -5 -15 -10 -26 -10 -10 0 -19 5 -19 10 0 6 12 10 26 10 14 0 23 -4 19 -10z m-5 -40 c0 -5 -9 -10 -20 -10 -11 0 -20 5 -20 10 0 6 9 10 20 10 11 0 20 -4 20 -10z"/>
 <path d="M1380 1935 c0 -3 12 -29 26 -58 l27 -52 25 52 c14 29 22 56 18 60 -5 5 -11 2 -13 -4 -6 -15 -49 -17 -58 -3 -6 10 -25 14 -25 5z m60 -45 c0 -5 -2 -10 -4 -10 -3 0 -8 5 -11 10 -3 6 -1 10 4 10 6 0 11 -4 11 -10z"/>
 <path d="M1516 1928 c-4 -18 -22 -69 -31 -90 -11 -28 13 -21 28 8 l13 25 12 -25 c6 -14 16 -26 22 -26 13 0 12 10 -5 40 -8 14 -14 35 -15 47 0 25 -18 41 -24 21z"/>
 <path d="M500 1708 c-62 -33 -85 -68 -85 -133 0 -90 60 -150 150 -150 77 0 130 45 149 128 l6 27 -120 0 c-66 0 -120 4 -120 9 0 23 15 43 41 56 40 21 63 19 97 -10 30 -25 92 -35 92 -14 0 24 -45 72 -84 90 -53 24 -73 24 -126 -3z m117 -203 c-34 -30 -76 -32 -105 -5 -12 12 -22 23 -22 25 0 3 35 5 78 5 l77 -1 -28 -24z"/>
 <path d="M1015 1719 c-17 -4 -46 -24 -64 -43 -29 -29 -35 -45 -39 -90 -4 -44 0 -62 18 -91 41 -66 126 -92 196 -59 30 14 74 61 74 78 0 12 -66 5 -84 -9 -30 -23 -81 -19 -112 9 -79 67 19 190 104 130 13 -9 37 -14 59 -12 l37 3 -33 37 c-19 22 -48 42 -69 48 -42 11 -46 11 -87 -1z"/>
 <path d="M1336 1720 c-88 -27 -132 -137 -87 -220 21 -40 89 -80 135 -80 68 0 146 70 146 131 l0 29 -115 0 c-127 0 -139 7 -90 55 32 32 75 32 113 0 28 -23 92 -36 92 -17 0 19 -42 73 -67 86 -39 20 -92 27 -127 16z m101 -215 c-32 -29 -72 -32 -105 -9 -38 26 -25 34 56 34 l77 -1 -28 -24z"/>
 <path d="M1570 1515 l0 -195 35 0 35 0 0 195 0 195 -35 0 -35 0 0 -195z"/>
 <path d="M1697 1518 l2 -193 30 -3 31 -3 0 195 0 196 -32 0 -33 0 2 -192z"/>
 <path d="M762 1568 c3 -32 4 -33 53 -33 49 0 50 1 53 33 l3 32 -56 0 -56 0 3 -32z"/>
 <path d="M790 960 l0 -260 318 2 317 3 0 85 0 85 -233 3 -233 2 3 81 3 80 230 2 230 2 0 85 0 85 -317 3 -318 2 0 -260z"/>
 <path d="M790 450 l0 -90 318 2 317 3 0 85 0 85 -317 3 -318 2 0 -90z"/>
 </g>

</svg>