<!DOCTYPE svg PUBLIC "-//W3C//DTD SVG 20010904//EN" "http://www.w3.org/TR/2001/REC-SVG-20010904/DTD/svg10.dtd">
<svg version="1.0" xmlns="http://www.w3.org/2000/svg" width="225px" height="225px" viewBox="0 0 2250 2250" preserveAspectRatio="xMidYMid meet">
<g id="layer101" fill="#000000" stroke="none">
 <path d="M960 2204 c-14 -3 -67 -16 -119 -30 -369 -96 -663 -389 -767 -765 -35 -128 -44 -352 -20 -483 78 -413 380 -738 792 -853 91 -26 113 -28 279 -28 166 0 188 2 280 28 121 33 277 108 366 176 150 114 279 277 350 441 59 138 80 235 86 400 4 123 2 161 -17 249 -42 207 -129 376 -269 523 -106 112 -190 175 -316 238 -158 78 -257 101 -455 105 -91 2 -176 1 -190 -1z m354 -150 c351 -67 641 -344 731 -699 47 -183 31 -416 -40 -586 -138 -331 -438 -554 -790 -588 -513 -50 -972 321 -1034 834 -10 86 -3 242 15 315 97 404 425 696 829 740 85 9 184 4 289 -16z"/>
 <path d="M1065 1810 c-25 -12 -152 -132 -332 -312 -306 -309 -323 -330 -308 -401 9 -44 612 -651 664 -668 45 -15 98 1 136 41 l30 31 5 172 5 172 245 2 c161 2 253 7 267 14 45 24 53 63 53 264 0 201 -8 240 -53 264 -14 7 -106 12 -267 14 l-245 2 -5 172 c-5 166 -6 172 -30 199 -26 28 -77 54 -107 54 -10 0 -36 -9 -58 -20z m65 -335 l0 -205 280 0 280 0 0 -145 0 -145 -280 0 -280 0 0 -205 c0 -113 -3 -205 -7 -205 -5 0 -133 125 -285 277 l-278 278 277 277 c153 153 281 278 285 278 5 0 8 -92 8 -205z"/>
 </g>

</svg>