<!DOCTYPE svg PUBLIC "-//W3C//DTD SVG 20010904//EN" "http://www.w3.org/TR/2001/REC-SVG-20010904/DTD/svg10.dtd">
<svg version="1.0" xmlns="http://www.w3.org/2000/svg" width="840px" height="859px" viewBox="0 0 8400 8590" preserveAspectRatio="xMidYMid meet">
<g id="layer101" fill="#000000" stroke="none">
 <path d="M4100 8553 c-58 -10 -175 -77 -227 -129 -64 -64 -118 -171 -133 -264 -6 -44 -10 -1125 -10 -3285 l0 -3220 -1042 1041 c-788 785 -1055 1047 -1093 1066 -89 46 -158 61 -262 56 -85 -5 -102 -9 -178 -47 -242 -120 -332 -397 -209 -644 21 -42 303 -329 1507 -1534 1321 -1322 1488 -1486 1542 -1512 142 -69 293 -67 438 5 42 21 327 301 1516 1487 826 825 1477 1484 1495 1512 116 180 107 390 -26 562 -103 135 -303 202 -477 162 -125 -28 -85 8 -1208 -1113 l-1053 -1051 0 3255 c0 2686 -3 3264 -14 3305 -42 159 -164 289 -317 336 -58 18 -181 24 -249 12z"/>
 </g>

</svg>