<!DOCTYPE svg PUBLIC "-//W3C//DTD SVG 20010904//EN" "http://www.w3.org/TR/2001/REC-SVG-20010904/DTD/svg10.dtd">
<svg version="1.0" xmlns="http://www.w3.org/2000/svg" width="336px" height="336px" viewBox="0 0 3360 3360" preserveAspectRatio="xMidYMid meet">
 <g id="layer101" fill="none" stroke-width="5" stroke="black">
  <path d="M1468.57 374.29C1453.7 373.36 1437.54 368.75 1422.86 365.55C1417.56 364.39 1408.3 362.34 1403.86 366.58C1396.93 373.19 1400 389.93 1400 398.57L1398.57 400L1397.14 400L1360 369.03L1330 357.14C1336.75 352.29 1344.81 352.33 1352.86 350.88C1370.46 347.71 1389.26 343.99 1407.14 343.65C1414.48 343.51 1424.06 348.79 1431.23 345.43C1436.33 343.04 1437.26 336.63 1442.89 334.31C1478.84 319.51 1523.07 314.38 1561.43 309.78C1644.11 299.85 1732.31 295.84 1812.86 321.47C1851.23 333.68 1881.76 359.31 1918.57 374.48C1935.64 381.52 1952.9 379.35 1970 384.25C2010.59 395.88 2048.24 419.75 2080 447.14L2075.71 451.43L2077.14 452.86L2081.43 452.86L2082.86 451.43L2080 448.57M1410 342.86L1435.71 335.71M1128.57 495.71C1131.27 505.64 1124.76 512.69 1118.68 520C1106.47 534.69 1092.35 548.42 1077.14 560L1072.86 555.71C1095.17 523.91 1126.36 493.26 1154.53 466.54C1168.48 453.31 1187.62 444.39 1197.14 428.57L1201.43 431.43L1202.86 430L1204.29 422.86L1212.86 421.43C1206.58 410.35 1226.52 401.87 1234.29 396.32C1253.57 382.54 1273.39 373.14 1294.29 362.53C1304.25 357.47 1318.04 351.53 1328.57 357.14M1294.29 362.86C1299.24 373.32 1287.83 368.54 1285.3 376.04C1283.97 379.96 1288.38 385.53 1284.79 388.73C1280.18 392.84 1266.3 389.99 1260 392.21C1243.41 398.05 1227.45 410.04 1214.29 421.43M1462.86 375.71C1449.23 383.58 1430.31 380.51 1419.13 393.12C1408.57 405.05 1415.4 423.99 1403.98 435.41C1397.34 442.05 1388.36 441.74 1380 444.29L1378.57 445.71C1396.42 455.86 1417.43 440.96 1434.29 435.36C1466.29 424.72 1498.46 425.04 1531.43 424.29M1725.71 386.38C1758.69 380.21 1798.47 390.72 1830 399.8C1841.91 403.23 1870.53 416.26 1845.71 426.45C1826.33 434.42 1810.83 418.99 1792.86 415.24C1785.16 413.64 1777.16 418.02 1770 414.14C1760.09 408.77 1753.73 399.25 1742.86 394.95C1738.43 393.2 1729.24 389.48 1725.3 393.92C1721.97 397.66 1728.21 406.82 1719.91 406.18C1695.69 404.3 1711.01 389.14 1725.71 386.38M1725.71 388.57L1725.71 390M1972.86 388.57C1957.9 407.93 1998.64 429.17 2014.29 435.71C2018.51 421.85 2021.14 420.86 2034.29 415.71M1951.43 478.57L1954.29 481.43L1952.86 482.86L1951.43 484.29L1950 482.86C1948.21 464.18 1918.9 452.58 1902.86 451.43C1904.8 441.9 1915.67 440.97 1917.86 432.8C1918.73 429.56 1916.51 427.16 1914.19 425.26C1909.51 421.45 1903.91 418.73 1906.59 411.49C1908.34 406.73 1919.57 397.9 1924.24 403.74C1927.64 408 1921.09 415.12 1925.23 418.48C1928.3 420.97 1934.91 418.52 1938.57 418.73C1944.77 419.08 1950.41 421.87 1955.71 424.9C1979.46 438.48 1998.14 458.79 2018.57 476.54C2023.73 481.01 2046.04 497.28 2041.5 505.26C2039.03 509.62 2030.04 509.08 2025.71 509.59C2013.67 511.01 1999.9 509.46 1988.57 505.05C1982.01 502.49 1977.16 496.06 1970 497.14L1968.57 498.57L1970 500L1971.43 500L1972.86 498.57L1972.86 494.29L1971.43 492.86L1967.14 498.57M1207.14 415.71C1204.86 418.17 1198.06 426.8 1205.71 424.29M1194.29 428.57L1201.43 424.29M1512.86 427.14C1501.6 435.82 1480.07 446.06 1465.71 445.71L1464.29 447.14L1471.43 455.71L1470 457.14L1467.14 457.14L1465.71 457.14L1471.43 448.57M1198.57 430L1194.29 434.29M1192.86 437.14L1191.43 431.43M1227.14 432.04C1233.67 431.15 1257.78 429.08 1257.5 440.01C1257.21 451.24 1227.89 462.78 1218.57 463.76C1207.49 464.92 1201.19 450.49 1205.97 441.49C1210.09 433.72 1219.42 433.09 1227.14 432.04M1184.29 437.14L1188.57 440L1188.57 441.43L1188.57 432.86M1181.43 442.86L1184.29 437.14M2064.29 440C2062.87 449.17 2067.09 451.22 2075.71 451.43M1901.43 452.86C1894.29 454.19 1887.83 450.56 1884.29 444.29L1904.29 442.86M1448.57 468.57L1458.57 471.43C1453.07 472.94 1426.81 466.07 1432.37 457.33C1437.31 449.56 1455.86 448.88 1464.29 447.14M1471.43 450L1475.71 454.29L1471.43 455.71M2082.86 451.43C2093.21 459.87 2102.17 470.34 2112.87 478.27C2118.1 482.14 2126.01 484.11 2130.16 489.23C2134.57 494.71 2134.31 502.79 2139.01 508.16C2155.67 527.15 2175.31 541.49 2185.71 565.71L2182.86 568.57C2177.09 566.49 2171.19 567.87 2165.71 565.96C2157.87 563.22 2150.36 555.21 2144.29 549.76C2136.51 542.78 2122.4 523.96 2111.66 522.72C2105.14 521.97 2116.34 543.21 2111.97 547.98C2104.5 556.14 2090.61 536.37 2085.66 532.52C2072.73 522.45 2053.47 516.96 2037.14 517.17C2031.2 517.25 2020.73 517.89 2020.47 525.78C2020.16 535.42 2029.19 546.75 2034.33 554.29C2046.4 571.96 2060.19 588.59 2073.04 605.71C2080.36 615.47 2088.73 624.36 2088.57 637.14L2090 638.57L2094.29 634.29C2099.29 641.4 2102.11 647.94 2097.14 655.71L2098.57 657.14L2100 658.57L2102.86 654.29M1475.71 454.29C1480.91 453.38 1491.11 454.86 1482.64 460.93C1475.97 465.7 1467.37 467.98 1460 471.43M1901.43 454.29L1912.86 454.29M1464.29 458.57L1461.43 461.43L1464.29 458.57M1925.71 460C1924.06 470.05 1931.59 471.35 1940 471.43M1461.43 461.43L1454.29 465.71M2046.17 470.04C2053.64 464.98 2079.17 478.44 2072.19 484.62C2067.99 488.33 2053.09 488.06 2048.87 484.76C2044.94 481.68 2040.7 473.75 2046.17 470.04M1450 471.43C1432.47 483.36 1409.64 485.87 1390 492.37C1369.08 499.31 1348.45 508.47 1327.14 514.29L1325.71 510L1332.86 510M1397.14 490L1392.86 475.71L1424.29 478.57M1955.71 480L1970 492.86M2074.29 484.29L2084.29 500L2085.71 500L2087.14 498.57L2085.71 495.71L2084.29 494.29L2080 497.14L2080 495.71L2082.86 490L2077.14 487.14M1332.86 507.14C1350.9 493.87 1363.29 477.04 1387.14 492.86M1951.43 485.71L1964.29 497.14M2072.86 485.71L2075.71 488.57M2125.71 487.14L2131.43 494.29M1972.86 501.43L1977.14 501.43M1334.29 505.71L1338.57 510M1325.71 515.71L1321.43 511.43L1322.86 510L1324.29 510L1325.71 510M1330 510L1330 511.43M1258.57 542.86C1249.19 540.91 1241.38 547.32 1234.29 552.88C1218.22 565.47 1203.98 581.33 1191.15 597.14C1185.71 603.85 1177.68 610.86 1178.57 620L1180 621.43C1205.04 595.26 1229.43 560.63 1261.67 542.65C1268.06 539.09 1277.2 540.07 1284.29 537.12C1296.64 531.97 1308.15 523.46 1320 517.14L1317.14 512.86L1318.57 511.43L1320 511.43L1321.43 511.43M1317.14 518.57L1312.86 514.29L1317.14 512.86M1267.14 540C1273.32 520.94 1294.83 516.71 1312.86 514.29M1251.43 542.86L1255.71 547.14M1074.29 557.14L1071.43 565.71C1016.94 591.81 1002.61 661.46 989.47 714.29C975.53 770.3 965.03 827.37 955.6 884.29C948.8 925.33 940.71 968.22 944.37 1009.99C944.93 1016.44 949.91 1020.12 952.5 1025.74C957.02 1035.49 960.72 1047.9 962.17 1058.56C963.01 1064.79 957.79 1067.28 957.62 1072.93C957.17 1087.58 964.73 1113 969.37 1127.08C978.1 1153.57 1015.37 1158.8 1027.14 1182.86L1024.29 1185.71L994.29 1174.29M1075.71 558.57L1070 564.29M1064.29 565.71L1068.57 562.86M2187.14 568.57L2212.86 610L2210 612.86C2204.3 612.76 2204.61 616.95 2207.16 621.43C2212.1 630.12 2219.91 636.73 2224.59 645.71C2228.73 653.66 2229.06 662.76 2234.29 670L2240 665.71C2254.01 687.83 2259.37 717.85 2266.31 742.86C2269.03 752.58 2275.46 765.78 2275.49 775.71C2275.51 784.12 2268.46 798.37 2264.29 805.71L2262.86 805.71L2220.3 725.72L2188.57 704.29C2203.56 694.08 2195.91 683.91 2187.07 670C2172.69 647.41 2153.4 626.95 2135.47 607.14C2130.46 601.6 2115.84 581.86 2107.6 582.91C2101.83 583.65 2106.29 593.14 2107.6 595.71C2113.3 606.85 2120.84 617.22 2128.4 627.14C2135.5 636.44 2142.99 645.42 2150.6 654.29C2161.93 667.47 2173.43 680.57 2185.71 692.86L2181.43 697.14C2173.94 691.45 2167.49 684.22 2158.57 680.68C2150.79 677.6 2143.56 680.51 2135.71 679.02C2122.64 676.56 2112.34 667.31 2102.86 658.57M2212.86 611.43C2225.07 627.32 2235.46 646.07 2240 665.71M1178.57 617.14L1178.57 620M1180 622.86L1172.86 620L1174.29 618.57L1175.71 618.57L1177.14 618.57M1174.29 622.86L1162.86 641.43L1161.43 641.43L1170 625.71M1175.71 624.29L1172.86 627.14M2091.43 630L2094.29 632.86M2090 638.57L2097.14 655.71M1160 642.86L1124.29 712.86C1116.97 702 1130.89 678.46 1141.43 672.86M1135.71 677.14L1140 681.43M1134.29 680L1138.57 684.29M2130 700C2136.33 692.41 2142.91 694.35 2150 700L2131.43 708.57L2128.57 701.43L2122.86 710L2124.29 711.43L2130 710M2184.29 694.29L2191.43 701.43M2182.86 695.71L2190 702.86M2151.43 700C2154.47 707.8 2150.8 715.36 2144.1 720.4C2140.23 723.3 2132.86 724.94 2134.81 731.44C2136.61 737.42 2158.21 756.47 2164.59 749.08C2166.93 746.36 2164.39 742.49 2163.01 740C2158.11 731.1 2158.3 716.73 2151.43 710M2147.14 707.14L2151.43 710M1118.57 711.43L1122.86 717.14C1116.06 724.77 1113.41 739.11 1104.15 744.02C1098.17 747.2 1087.07 739.74 1082.92 745.15C1079.2 750 1084.64 760.37 1085.26 765.71C1086.82 779.03 1076.53 792.98 1064.29 797.14C1065.57 787.31 1071.13 778.62 1072.44 768.57C1074.04 756.31 1070.39 718.63 1051.69 738.63C1049.28 741.21 1047.3 744.14 1045.47 747.14C1037.73 759.85 1032.72 773.88 1030.61 788.57C1029.11 799.06 1029.91 810.19 1024.92 819.94C1019.06 831.4 998.39 850.76 1010 864.29L1027.14 845.71L1028.57 845.71L1030 847.14C1025.66 858.45 1021.88 872.5 1012.59 880.94C1008.46 884.69 1001.65 883.79 998.16 887.18C994.44 890.8 1002.24 899.43 1003.78 902.86C1008.97 914.36 1003.23 923.22 1005.15 934.26C1005.9 938.57 1009.85 941.8 1013.97 939.05C1021.71 933.89 1020.16 919.45 1022.34 911.43C1026.44 896.42 1036.96 885.38 1042.99 871.43C1046.35 863.65 1044.56 857 1050.44 850C1055.02 844.53 1062.14 836.25 1070 836.23C1074.73 836.22 1078.16 839.8 1081.42 842.76C1100.96 860.42 1070.11 867.44 1058.84 880.02C1056.85 882.24 1046.2 898.1 1055.93 897.11C1062.94 896.4 1068.59 888.83 1075.71 887.14C1075.71 905.93 1085.21 923.48 1084.87 941.43C1084.69 950.99 1073.89 957.92 1074.92 967.14C1076.08 977.4 1088.89 982.6 1086.56 994.29C1084.92 1002.49 1077.19 1008.51 1073.32 1015.71C1064.54 1032.07 1052.53 1072.23 1064.29 1088.57C1071.63 1066.88 1073.76 1044.17 1083.08 1022.86C1087.86 1011.91 1100.77 1003.29 1102.33 991.43C1104.11 977.86 1090.5 969.58 1078.57 972.86M1117.14 714.29L1117.14 720M1124.29 714.29L1122.86 715.71M2275.71 780C2278.27 784.61 2279.26 789.12 2280.29 794.29L2282.57 805.71C2288.16 834.14 2251.21 806.71 2241.69 824.36C2237.21 832.64 2241.56 848.42 2243.46 857.14C2249.87 886.4 2258.87 917.61 2282.86 937.14L2284.29 935.71C2284.74 925.42 2275.07 899.72 2294.29 902.86C2300.91 878.73 2286.24 844.75 2284.29 820M2225.71 850L2214.29 854.29C2220.94 862.95 2231.27 868.78 2236.39 878.57C2251.74 907.96 2247.67 950.7 2249.87 982.86C2250.71 995.12 2250.54 1009.53 2247.24 1021.43C2246.06 1025.7 2243.04 1032.77 2237.33 1029.88C2229.91 1026.12 2233.87 1014.9 2233.23 1008.57C2232.56 1001.9 2228.4 991.76 2225.33 985.71C2221.7 978.55 2216.19 972.41 2214.76 964.29C2213.46 956.92 2216.97 948.25 2213.44 941.48C2206.03 927.24 2191.73 916.74 2187.87 900C2184.84 886.82 2190.76 879.3 2191.03 867.3C2191.14 862.12 2184.56 860.5 2183.31 855.64C2181.89 850.01 2184.83 844.25 2183.94 838.57C2183.13 833.32 2179.24 829.05 2177.14 824.29C2193.64 819.75 2218.87 835.32 2225.71 850M1082.86 847.14L1085.71 861.43M1080 860L1080 862.86M2192.86 861.43C2197.61 864.84 2194.23 869.06 2194.37 874.29C2194.71 886.13 2198.4 895.79 2190 905.71M1004.29 862.86L1010 864.29M1078.57 884.29L1075.71 887.14M2195.71 902.86L2194.29 911.43M2295.71 904.29C2305 944.89 2301.43 988.55 2301.43 1030C2301.43 1049.38 2299.51 1071.35 2305.86 1090C2313.11 1111.27 2329.29 1108.81 2347.14 1113.4C2361.19 1117.01 2376.01 1125.23 2384.59 1137.14C2395.91 1152.9 2396.77 1172.92 2398.99 1191.43C2405.54 1246.36 2391.26 1306.57 2379.4 1360C2361.99 1438.39 2328.83 1510.01 2303.6 1585.71C2295.17 1610.97 2294.8 1638.17 2286.63 1662.86C2283.43 1672.53 2275.73 1678.3 2271.29 1687.14C2263.89 1701.89 2260.57 1718.39 2256.61 1734.29C2248.74 1765.89 2242.79 1799.2 2238.19 1831.43C2235.83 1847.89 2231.49 1861.64 2239.84 1877.14C2262.16 1918.61 2305.8 1940.61 2347.14 1958.36C2409.63 1985.17 2473.47 2009.11 2537.14 2032.93C2732.9 2106.14 2922.63 2194.04 3114.29 2276.74C3173.34 2302.23 3231.21 2330.64 3287.14 2362.46C3308.46 2374.57 3341.54 2390.41 3356.29 2410.43C3361.51 2417.54 3358.57 2432.97 3358.57 2441.43L3358.57 2521.43L3358.57 2827.14L3358.57 3220L3358.57 3321.43C3358.57 3329.79 3362.4 3351.01 3357.1 3357.71C3353.49 3362.29 3340.9 3360 3335.71 3360L3275.71 3360L3027.14 3360L2288.57 3360L2062.86 3360L1994.29 3360C1982.83 3360 1969.6 3361.83 1958.57 3358.57L1977.74 3257.14L1998.81 3120L2006.71 3098.81L2004.3 3082.86L2023.44 3012.86L2025.56 2990L2047.7 2890L2125.11 2432.86L2167.73 2191.43L2176.73 2124.29L2182.86 2095.71L2187.14 2107.14M1074.29 964.29C1072.28 959.18 1073.32 957.32 1078.57 955.71M2231.43 994.29L2232.86 1002.86M944.29 1018.57C944.3 1035.33 949.27 1053.13 958.57 1067.14M1967.14 1062.86C1981.76 1059.38 1992.54 1047.94 2007.14 1044.18C2025.06 1039.57 2050.23 1049.55 2067.14 1055.24C2077.56 1058.74 2090.46 1062.69 2099.91 1067.99C2103.61 1070.07 2106.33 1074.11 2102.37 1077.49C2097.5 1081.65 2087.53 1083.1 2081.43 1084.67C2060.23 1090.13 2037.39 1089.61 2015.71 1091.67C1940.97 1098.79 1866.69 1096.19 1792.86 1111.43L1791.43 1110C1799.29 1092.13 1821.07 1085.72 1838.57 1080.61C1861.99 1073.76 1888.57 1066.08 1912.86 1064.41C1932.14 1063.09 1947.21 1068.88 1965.71 1064.29C1968.04 1071.15 1975.36 1068.92 1981.43 1067.95C1999.19 1065.09 2007.04 1055.64 2020 1044.29M1908.57 1067.14C1916.29 1075.01 1934.16 1072.47 1942.86 1067.14M1958.57 1067.14L1964.29 1070M2092.86 1067.14L2095.71 1077.14M1884.29 1070L1894.29 1070M1894.29 1070L1908.57 1071.43M1184.29 1120C1170.1 1125.44 1168.17 1109.97 1177.22 1101.9C1209.09 1073.48 1266.32 1085.66 1304.29 1088.44C1319.18 1089.54 1337.2 1088.65 1351.43 1092.86L1352.86 1094.29L1351.43 1095.71C1338.8 1099.45 1323.14 1097.14 1310 1097.14C1281.88 1097.14 1253.73 1096.52 1225.71 1098.44C1214.06 1099.24 1189.34 1097.28 1183.18 1110.13C1179.62 1117.55 1186.96 1120.82 1192.86 1121.64C1206.43 1123.53 1220.7 1122.62 1234.29 1121.02C1287.41 1114.75 1341.36 1118.08 1394.29 1111.84C1413.01 1109.63 1432 1118.41 1447.14 1104.29C1421.14 1090.19 1381.45 1099.59 1352.86 1094.29M1058.57 1085.71L1060 1095.71L1061.43 1097.14L1064.29 1088.57M1811.43 1094.29L1838.57 1101.43M1061.43 1097.14C1058.39 1121.19 1051.74 1138.66 1041.43 1160C1051.69 1163.28 1070.91 1177.97 1053.89 1188.53C1046.52 1193.11 1033.8 1188.02 1027.14 1184.29M1447.14 1102.86L1457.14 1100C1454.79 1105.28 1451.64 1106.98 1447.14 1102.86M1458.57 1101.43L1491.43 1110M2040 1105.71L2042.86 1118.57L2040 1121.43L1997.14 1105.71L1998.57 1104.29C2025.17 1096.42 2059.09 1101.19 2078.57 1120L2074.29 1124.29C2078.86 1129.76 2079.86 1132.55 2075.71 1138.57L2077.14 1140L2080 1141.43L2081.43 1141.43L2082.86 1140L2080 1135.71M1987.14 1104.29L1995.71 1104.29M1792.86 1105.71L1797.14 1110M2068.57 1107.14C2087.76 1109.11 2102.41 1127.86 2112.34 1142.86C2116.19 1148.64 2121.63 1156.99 2118.91 1164.26C2111.21 1184.94 2087.44 1149.59 2082.86 1142.86M1440 1111.43C1452.83 1118.27 1473.37 1113.99 1487.14 1111.43M1865.71 1112.86L1847.14 1126.07L1795.71 1147.14C1794.29 1132 1811.91 1134.12 1821.43 1130.37C1828.11 1127.73 1829.29 1120.8 1834.49 1116.65C1842.33 1110.4 1856.56 1110.15 1865.71 1112.86M2248.63 1112.7C2261.73 1109.52 2264.13 1137.74 2251.41 1140.24C2238.13 1142.85 2236.5 1115.65 2248.63 1112.7M2042.86 1118.57L2072.86 1124.29M2080 1120C2091.74 1131.75 2098.43 1135.34 2084.29 1145.71M1435.71 1122.86C1457.37 1116.51 1489.04 1133.23 1508.57 1141.64C1513.33 1143.69 1530.39 1149.54 1528.07 1156.84C1525.47 1165.09 1507.2 1160.92 1501.43 1159.7C1480 1155.17 1445.71 1144.24 1435.71 1122.86M2052.86 1124.29L2074.29 1137.14M1060 1127.14C1060.04 1140.87 1061.97 1155.44 1069.66 1167.14C1074.42 1174.38 1082.02 1179.39 1085.71 1187.14L1058.57 1190M1821.43 1131.43L1825.71 1135.71M971.43 1132.86C970.26 1139.14 970.72 1147.18 967.23 1152.71C955.92 1170.62 922.31 1156.37 905.71 1166.04C884.32 1178.51 876.71 1213.09 873.47 1235.71C864.68 1297.06 894.56 1356.97 921.08 1410C952.64 1473.13 983.11 1536.87 1011.63 1601.43C1024.09 1629.64 1035.13 1658.34 1041.43 1688.57C1043.52 1698.56 1046.68 1713.14 1058.57 1714.29L1060 1715.71L1055.71 1720C1079.81 1743.13 1082.16 1777.07 1088.87 1808.57C1094.36 1834.34 1103.1 1859.33 1111.43 1884.29C1116.21 1898.61 1131.79 1926.27 1118.36 1939.34C1095.63 1961.46 1056.49 1971.17 1027.14 1980.96C976.39 1997.87 926.47 2017.04 877.14 2037.74C758.08 2087.71 642.37 2145.17 524.29 2197.34C421.93 2242.56 318.3 2279.87 220 2333.84C169.52 2361.57 120.47 2391.84 70 2419.56C55.79 2427.37 41.65 2435.26 27.14 2442.5C21.46 2445.34 12.3 2448.01 8.55 2453.41C3.61 2460.54 6.24 2471.9 5.47 2480C2.82 2507.87 9.33 2541.84 1.43 2568.57M1308.57 1135.71C1292.11 1149.68 1248.36 1152.68 1230 1141.43C1237.05 1133.2 1248.21 1133.13 1258.57 1132.88C1278.85 1132.38 1298.69 1135.65 1318.57 1135.71M1230 1141.43L1225.71 1137.14L1231.43 1135.71M1254.29 1148.57C1247.75 1153.41 1236.87 1157.3 1228.58 1155.09C1218.6 1152.43 1219.22 1142.88 1225.71 1137.14M2082.86 1140L2087.14 1140M1131.47 1156.99C1144.92 1153.64 1139.66 1183.55 1128.57 1186.07C1114.76 1189.21 1121.22 1159.53 1131.47 1156.99M1237.14 1180C1225.37 1183.69 1204.09 1190.28 1192.86 1184.29C1197.37 1175.64 1192.45 1171.26 1185.71 1165.71C1198.91 1158.67 1230.49 1166.41 1237.14 1180M1870 1170C1870.83 1161.98 1876.83 1162.52 1882.86 1165.71L1882.86 1167.14C1875.33 1172.81 1868.06 1172.5 1861.43 1165.71L1860 1165.71L1858.57 1167.14L1861.43 1172.86C1855.29 1175.86 1821.93 1195.79 1838.79 1203.79C1851.99 1210.05 1870.66 1191.22 1882.86 1188.71C1896.9 1185.83 1911.91 1185.56 1925.71 1181.83C1942.86 1177.2 1959.14 1167.73 1977.14 1165.96C1996.19 1164.08 2016.83 1173.5 2032.86 1182.86L2028.57 1187.14L2030 1188.57L2035.71 1188.57L2037.14 1187.14L2035.71 1185.71L2034.29 1182.86M2151.46 1163.55C2166.39 1160.14 2188.66 1163.38 2202.86 1168.71C2217.87 1174.34 2208.66 1185.86 2197.14 1188.91C2182.89 1192.68 2184.59 1181.07 2175.5 1175.75C2167.49 1171.06 2158.4 1179.17 2150.09 1174.73C2143.47 1171.19 2144.29 1165.18 2151.46 1163.55M1862.86 1167.14L1867.14 1164.29M1855.71 1172.86L1858.57 1167.14M1014.29 1168.57L998.57 1174.29M1185.71 1168.57L1191.43 1184.29M1854.29 1175.71C1852.14 1172.27 1851.03 1171.15 1854.29 1168.57M1222.86 1171.43L1224.29 1181.43M2024.29 1225.71L2022.86 1231.43L2021.43 1231.43L2020 1230L2022.86 1225.71L2021.43 1224.29C2005.6 1224.03 1999.54 1200.79 1981.43 1203.24C1969.54 1204.85 1970.87 1219.5 1964.91 1227.08C1959.29 1234.23 1948.17 1237.83 1940 1241.43L1938.57 1235.71C1924.19 1235.73 1911.66 1241.09 1898.59 1231.71C1891.74 1226.8 1884.9 1205.48 1877.07 1205.3C1861.41 1204.95 1853.6 1231.31 1835.71 1231.43L1834.29 1232.86C1836.53 1243.48 1806.27 1256.72 1797.14 1252.54C1785.2 1247.08 1781.04 1228.82 1774.29 1218.57C1795.3 1197.88 1822.07 1182.56 1848.57 1170M1875.71 1174.29L1864.29 1187.14L1874.29 1191.43M1290 1205.71L1284.29 1207.14L1285.71 1211.43L1287.14 1211.43C1312.01 1196.61 1340.91 1194.37 1368.57 1188.3C1402.74 1180.81 1436.71 1167.47 1471.43 1182.86L1468.57 1187.14L1470 1188.57L1471.43 1188.57L1472.86 1187.14L1472.86 1185.71L1474.29 1184.29L1472.86 1182.86M1451.43 1177.14L1440 1182.86C1447.37 1197.86 1475.34 1205.4 1490 1211.64C1497.47 1214.83 1502.81 1217.7 1510 1212.86L1510 1204.29L1508.57 1202.86L1504.29 1202.86L1502.86 1204.29L1504.29 1205.71L1505.71 1204.29L1507.14 1202.86L1501.43 1202.86M1458.57 1178.57L1457.14 1182.86L1462.86 1180M1940 1178.57C1944.37 1185.31 1955.63 1182.86 1962.86 1182.86C1985.11 1182.86 2006.51 1186.2 2028.57 1187.14M1931.43 1180L1938.57 1182.86M1467.14 1181.43L1467.14 1187.14M1774.29 1217.14C1770.21 1212.71 1766.41 1206.36 1761.01 1203.48C1755.04 1200.29 1742.47 1202.24 1741.31 1192.84C1740.57 1186.84 1748.21 1183.53 1752.86 1182.41C1763.63 1179.79 1776.71 1182.68 1780 1194.29L1811.43 1187.14M1452.86 1182.86L1457.14 1182.86M1475.71 1184.29L1500 1204.29M1462.86 1185.71L1465.71 1185.71M1634.29 1186.38C1641.91 1185.34 1655.8 1188.6 1645.39 1197.95C1640.63 1202.22 1632.84 1202.3 1627.14 1204.99C1617.19 1209.7 1605.7 1225.74 1594.49 1225.89C1589.93 1225.95 1585.69 1216.73 1581.4 1214.35C1570.57 1208.33 1559.34 1213.02 1548.6 1208.72C1544.11 1206.93 1540.39 1202.25 1544.77 1198.15C1550.21 1193.04 1560.23 1193.19 1567.14 1192.25C1589.31 1189.23 1611.94 1189.42 1634.29 1186.38M1375.71 1187.14C1386.73 1193.02 1403.28 1190.68 1415.71 1193.46C1437.79 1198.4 1460.3 1207.8 1480 1218.77C1491.27 1225.05 1505.79 1231.91 1508.57 1245.71C1517.89 1243.5 1528.84 1233.46 1527.74 1222.86C1527.1 1216.62 1516.7 1204.48 1510 1207.14M1632.86 1187.14C1636.53 1194.64 1627.51 1196.34 1621.43 1198.29C1607.21 1202.86 1588.06 1203.27 1575.71 1211.43M1640 1188.57L1638.57 1191.43M2038.57 1188.57C2054.39 1196.06 2066.44 1207.98 2078.2 1220.61C2082.14 1224.85 2089.61 1233.24 2085.66 1239.55C2082.87 1243.98 2073.2 1243.98 2068.57 1243.75C2052.64 1242.96 2038.94 1238.87 2024.29 1232.86M1472.86 1190L1477.14 1190M1807.14 1190L1807.14 1191.43M907.2 1194.35C915.1 1190.46 922.66 1199.19 925.39 1205.71C929.4 1215.3 924.81 1224.82 915.71 1229.35C894.42 1239.94 890.03 1202.81 907.2 1194.35M1780 1194.29L1764.29 1201.43M1497.14 1198.57L1501.43 1198.57M1051.43 1224.29C1045.54 1217.81 1039.86 1210.37 1047.14 1202.86L1048.57 1202.86L1050 1204.29L1045.71 1208.57C1057.07 1216.36 1050.54 1222.75 1057.57 1231.19C1069.77 1245.84 1099.73 1261.73 1118.57 1264.95C1132.73 1267.37 1126.98 1244.42 1140 1248.29C1154.95 1252.73 1159.08 1275.56 1175.71 1277.14L1177.14 1278.57L1172.86 1282.86C1180.37 1288.91 1188.07 1295.7 1197.14 1299.32C1206.1 1302.88 1214.13 1302.44 1221.24 1310.06C1227.37 1316.64 1232.23 1333.43 1244.28 1330C1267.11 1323.52 1239.97 1300.99 1249.19 1288.59C1262.4 1270.85 1284.23 1268.93 1301.43 1258.36C1312.6 1251.5 1319.5 1238.8 1331.43 1232.86L1334.29 1237.14L1327.14 1240M1128.57 1255.71C1119.11 1255.3 1085.41 1247.13 1089.51 1232.98C1091.47 1226.23 1100.29 1221.15 1105.72 1217.51C1120.83 1207.38 1160.01 1197.47 1177.14 1205.71C1171.24 1221.5 1187.1 1226 1199.34 1218.12C1204.75 1214.64 1206.67 1206.08 1214.29 1206.25C1222.82 1206.44 1229.67 1215.49 1238.57 1216.71C1253.9 1218.81 1269.72 1210.51 1284.29 1207.14M1050 1204.29C1055.34 1204.75 1076.59 1209.8 1073.79 1218.2C1071.93 1223.81 1065.4 1224.28 1064.29 1231.43L1088.57 1231.43M1502.86 1207.14L1504.29 1208.57M1507.14 1207.14L1510 1207.14M1281.43 1210C1280.04 1216.54 1270.09 1218.4 1264.29 1220.46C1255.85 1223.45 1246.25 1227.23 1237.14 1226.87C1225.44 1226.4 1215 1220.04 1202.86 1220M1097.14 1222.86C1092.52 1212.8 1102.27 1210.19 1110 1214.29M1271.43 1211.43L1275.71 1215.71M1277.14 1211.43L1277.14 1212.86M1267.14 1212.86L1271.43 1217.14M1511.43 1212.86L1514.29 1217.14L1511.43 1220L1507.14 1218.57M1772.86 1215.71L1777.14 1212.86M1781.43 1215.71C1798.59 1222.86 1814.83 1236.42 1834.29 1232.86M2074.29 1220C2068.79 1239.14 2039.36 1230.26 2025.71 1227.14M1334.29 1238.57C1354.11 1257.37 1393.42 1255.11 1417.14 1244.02C1426.09 1239.83 1432.19 1225.61 1442.86 1226.34C1463.26 1227.73 1488.21 1257.8 1508.57 1245.71M2017.14 1225.71L2018.57 1230M985.87 1232.96C997.82 1227.07 1014.45 1259.7 1005.2 1265.62C991.31 1274.51 968.85 1241.34 985.87 1232.96M1065.71 1232.86L1062.86 1235.71M1455.71 1232.86C1455.61 1237.66 1453.14 1245.17 1455.77 1249.44C1461.84 1259.28 1486.29 1254.43 1494.29 1250M1840 1234.29L1838.57 1237.14M1940 1234.29L1948.57 1237.14M1922.86 1238.57L1937.14 1241.43M1178.57 1278.57C1192.14 1287.84 1213.01 1294.15 1228.57 1286.35C1237.08 1282.08 1243.22 1273.86 1251.43 1268.86C1268.7 1258.35 1292.47 1246.07 1312.86 1244.29M1171.43 1278.57L1171.43 1281.43M1134.29 1292.86C1145.64 1303.58 1148.09 1326.56 1150.59 1341.43C1151.35 1345.97 1154.72 1355.41 1149.54 1358.4C1140.54 1363.61 1111.37 1351.24 1111.89 1339.99C1112.22 1332.82 1118.64 1327.19 1122.19 1321.43C1127.71 1312.46 1130.07 1302.38 1134.29 1292.86M2262.29 1318.82C2270.6 1314.24 2282.86 1340.24 2285.27 1345.71C2286.37 1348.22 2289.01 1353.33 2286.14 1355.61C2276.83 1363.03 2263.47 1335.99 2261.56 1330C2260.64 1327.14 2258.73 1320.78 2262.29 1318.82M964.29 1395.71L962.86 1395.71C957.75 1380.64 959.38 1362.6 962.05 1347.14C962.73 1343.19 964.22 1333.15 969.82 1333.15C975.28 1333.15 975.51 1345.03 975.25 1348.57C974.15 1363.37 972.14 1382.95 964.29 1395.71M1634.29 1486.37C1645.51 1484.36 1660.64 1484.3 1671.43 1488.14C1675.53 1489.6 1691.19 1497.43 1679.91 1500.81C1667.53 1504.53 1651.6 1502.37 1638.57 1504.64C1632.04 1505.79 1623.79 1509.66 1617.17 1508.1C1597.39 1503.44 1627.46 1487.61 1634.29 1486.37M1138.57 1592.86C1133 1603.3 1124.24 1609.39 1120.5 1621.43C1117.67 1630.54 1118.47 1642.57 1111.11 1649.6C1100.25 1659.97 1082.42 1648.7 1080.54 1635.71C1078.63 1622.43 1093.09 1616.84 1096.99 1605.71C1102.34 1590.41 1098.19 1570.33 1098.59 1554.29C1098.73 1548.9 1099.47 1536.63 1107.18 1536.63C1115.56 1536.63 1117.69 1549.64 1118.85 1555.71C1122.18 1573.07 1119.06 1586.01 1138.57 1592.86M1488.57 1564.29C1509.66 1546.37 1521.9 1561.94 1544.29 1562.86L1545.71 1564.29L1541.43 1568.57C1543.43 1571.11 1547.69 1575.37 1544.7 1578.77C1541.1 1582.86 1531.96 1581.43 1527.14 1581.43C1511.1 1581.43 1496.3 1581.27 1490 1564.29C1480.63 1569.2 1477.2 1587.9 1488.63 1592.84C1507.81 1601.13 1532.11 1586.31 1551.4 1593.91C1562.49 1598.29 1555.6 1613.29 1563.47 1616.77C1573.09 1621.04 1581.44 1598.84 1592.41 1609.2C1603.16 1619.33 1575.03 1625.09 1582.86 1640C1605.53 1630.46 1622.3 1666 1621.43 1684.29L1622.86 1685.71C1626.44 1682.96 1628.37 1679.76 1622.86 1678.57M1782.86 1602.86C1787.56 1586.97 1809.51 1594.07 1821.4 1588.79C1831.51 1584.29 1827.79 1575.31 1820 1570.76C1815.81 1568.31 1811.27 1566.86 1807.14 1564.29L1808.57 1562.86C1824.29 1558.21 1863.26 1561.64 1841.37 1584.27C1831.51 1594.44 1817.03 1602.84 1802.86 1605.03C1797.63 1605.84 1790.79 1602.06 1786.09 1604.46C1781.04 1607.04 1779.73 1615.4 1777.14 1620C1772.07 1614.06 1767.64 1605.26 1758.57 1606.09C1742.54 1607.53 1725.57 1625.24 1711.43 1632.49C1700.1 1638.3 1684.84 1639.79 1674.61 1646.01C1670.49 1648.53 1670.89 1654.83 1666.7 1656.8C1663.09 1658.51 1658.23 1655.81 1654.29 1656.54C1643.83 1658.46 1633.7 1668.34 1628.57 1677.14M1540 1564.29L1540 1567.14M1547.14 1564.29C1576.34 1583.54 1623.49 1615.69 1660 1604.29L1661.43 1605.71L1662.86 1607.14L1661.43 1608.57L1654.29 1607.14M1662.86 1607.14C1714.77 1604.91 1753.94 1564.29 1807.14 1564.29M1621.43 1601.43L1600.86 1615.74L1602.86 1642.86M1284.29 1685.71C1277.22 1661.6 1303.06 1632.5 1318.57 1617.14C1323.15 1612.61 1339.09 1596.29 1345.67 1606.17C1351.33 1614.67 1340.49 1630.87 1335.24 1637.14C1326.54 1647.54 1317.14 1643.21 1307.27 1650.16C1295.48 1658.46 1289.44 1677.09 1284.29 1690M1628.57 1604.29L1621.43 1607.14M1782.86 1610C1784.36 1612.36 1785.74 1614.56 1786.77 1617.17C1794.19 1636.2 1773.97 1625.91 1764.29 1627.36C1757.13 1628.43 1752.81 1635.24 1745.71 1636.53C1738.97 1637.74 1732.59 1633.44 1725.71 1634.61C1712.44 1636.89 1709.43 1652.1 1694.29 1642.86M1155.93 1632.96C1161.27 1630.1 1168.52 1634.51 1172.86 1637.46C1184.41 1645.31 1207.19 1666.96 1187.12 1678.76C1172.23 1687.5 1154.08 1662.41 1151.9 1650C1150.97 1644.7 1150.31 1635.96 1155.93 1632.96M2013.01 1638.61C2028.73 1630.1 2036.96 1672.79 2022.59 1679.66C2016.74 1682.46 2011.63 1675.91 2009.17 1671.43C2004.56 1663 2002.86 1644.11 2013.01 1638.61M1608.57 1638.57C1623.39 1645.74 1632.79 1648.84 1621.43 1667.14M1680 1645.71C1677.81 1657.44 1672.13 1681.04 1680.73 1691.1C1685.81 1697.04 1708.27 1692.86 1708.27 1701.53C1708.27 1713.56 1677.67 1715.96 1670 1712.84C1653.93 1706.3 1647.43 1681.26 1640 1667.14M1891.43 1692.86L1901.43 1698.57L1902.86 1700L1901.43 1701.43L1900 1702.86L1897.14 1698.57M1901.43 1701.43L1927.14 1714.29C1917.49 1720.29 1906.1 1721.9 1895.71 1726.27C1885.69 1730.5 1876.71 1737.29 1867.14 1742.53C1858 1747.53 1846.13 1753.21 1841.43 1762.86C1880.94 1777.66 1933.49 1763.19 1974.29 1761.43C1973.89 1770.81 1971.66 1795.7 1961.29 1799.66C1955.33 1801.93 1943.97 1793.84 1945.36 1787.27C1946.04 1783.97 1951.76 1780.27 1948.93 1776.76C1945.47 1772.47 1934.81 1774.23 1930 1774.29C1907.2 1774.56 1885.21 1786.29 1865.71 1796.94C1854.84 1802.89 1838.41 1813.17 1825.71 1810C1831.69 1797.49 1849.31 1792.44 1860 1784.29C1837.97 1769.27 1805.33 1772.86 1780 1772.86C1771.81 1772.86 1752.2 1776.04 1746.79 1767.99C1740.47 1758.59 1772.26 1754.47 1777.14 1753.7C1793.51 1751.13 1809.93 1752.26 1825.71 1746.51C1832.26 1744.14 1838.96 1741.37 1844.2 1736.67C1847.33 1733.87 1849.4 1728.26 1853.29 1726.6C1859.19 1724.07 1879.31 1728.1 1885.71 1730M1900 1702.86L1902.86 1705.71M1901.43 1707.14L1910 1721.43M1928.57 1714.29L1950 1724.29L1951.43 1724.29L1952.86 1722.86L1954.29 1720L1948.57 1718.57M1054.29 1715.71L1054.29 1718.57M1061.43 1715.71L1060 1724.29M1904.29 1718.57L1904.29 1721.43M1954.29 1720C1961.86 1722.57 1968.87 1727.61 1964.29 1735.71L1971.43 1742.86L1972.86 1742.86L1968.57 1738.57M1065.71 1722.86L1067.14 1725.71M1362.86 1771.43C1364.04 1774.94 1363.73 1774.99 1360 1775.71L1358.57 1774.29L1358.56 1745.71L1367.16 1736L1384.29 1733.94L1415.71 1725.71C1415.6 1731.13 1412.58 1741.07 1421.45 1740.47C1432.16 1739.76 1430.89 1724.01 1440.13 1723.74C1448.9 1723.5 1463.17 1734.1 1472.86 1736.2C1499.44 1741.96 1526.43 1741.64 1552.86 1749.19C1569.03 1753.8 1585.83 1767.53 1601.43 1770M1951.43 1724.29L1968.57 1734.29M1970 1734.29L1971.43 1735.71M1431.43 1740C1453.77 1740 1478.17 1744.76 1498.57 1754.1C1521.66 1764.67 1497.61 1772.63 1484.29 1771.43L1481.43 1774.29C1495.61 1804.86 1437.59 1796.23 1441.43 1777.14L1440 1775.71L1435.71 1775.71L1437.14 1781.43M1974.29 1744.29L1975.71 1760M1354.29 1762.86L1358.57 1774.29M1360 1767.14L1355.71 1771.43M1484.29 1770L1491.43 1770M1482.86 1772.86L1482.86 1768.57M1594.29 1768.57C1582.81 1774.7 1565.4 1771.44 1552.86 1770.24C1539.24 1768.94 1525.1 1770 1511.43 1770M1392.86 1770L1395.71 1770L1397.14 1771.43L1398.57 1772.86L1397.14 1774.29L1395.71 1775.71L1392.86 1775.71L1391.43 1774.29L1390 1772.86L1392.86 1770M1400 1772.86L1432.86 1775.71M1441.43 1777.14C1457.51 1779.31 1466.39 1784.13 1480 1772.86M1367.14 1775.71L1390 1774.29M1861.43 1784.29L1868.57 1782.86M1117.14 1848.57L1111.43 1851.43L1111.43 1850L1111.43 1848.57L1112.86 1847.14C1137 1858.4 1154.45 1891.44 1171.08 1911.43C1203.34 1950.21 1240.51 1986.11 1278.57 2019.17C1292.4 2031.19 1304.91 2044.51 1320 2055.09C1323.19 2057.33 1333.33 2065.24 1337.05 2060.5C1340.69 2055.87 1333.82 2044.33 1331.74 2040C1323.26 2022.36 1307.77 2005.29 1304.29 1985.71L1305.71 1984.29L1308.57 1985.71L1310 1987.14L1308.57 1988.57L1307.14 1990L1305.71 1991.43M1112.86 1852.86C1113.82 1874.87 1126.96 1894.6 1131.92 1915.71C1134.26 1925.64 1134.74 1936.14 1122.86 1938.57M2234.29 1867.14C2227.66 1877.83 2224.97 1891.19 2220.29 1902.86C2206.13 1938.13 2195.36 1973.34 2191.67 2011.43C2190.26 2026.04 2188.96 2041.06 2188.59 2055.71C2188.34 2065.71 2190.39 2075.8 2184.29 2084.29L2175.71 2027.14C2163.5 2042.01 2158.21 2062.87 2149.64 2080C2131.9 2115.47 2111.96 2150.4 2087.14 2181.43C2077.23 2193.83 2067.37 2207.93 2054.29 2217.14L2050 2212.86C2070.6 2181.61 2086.39 2143.3 2095.89 2107.14C2100.63 2089.04 2100.91 2070.59 2107.47 2052.86C2118.26 2023.7 2141.56 1998.84 2148.57 1968.57L2147.14 1967.14C2135.6 1970.83 2126.94 1980.2 2118.57 1988.57C2107.29 1999.86 2095.43 2010.97 2086.46 2024.29C2076.26 2039.43 2072.07 2053.64 2058.57 2067.14C2049.93 2075.79 2035 2093.59 2021.51 2093.93C2011.33 2094.2 2019.47 2080.69 2022.19 2077.14C2032.67 2063.51 2048.09 2053.94 2056.4 2038.57C2060.8 2030.46 2059.76 2021.26 2048.57 2021.9C2022.91 2023.37 1999.11 2040.29 1980 2056.07C1943.59 2086.14 1915.07 2122.43 1874.29 2147.41C1856.51 2158.3 1836.37 2167.67 1815.71 2171.31C1804.93 2173.2 1793.39 2171 1782.86 2173.41C1771.14 2176.11 1766.06 2188.89 1752.86 2188.43C1745.64 2188.19 1738.43 2183.5 1731.43 2181.64C1716.89 2177.81 1700.74 2175.96 1685.71 2177.39C1653.09 2180.49 1601.86 2203.11 1572.86 2178.57L1571.43 2178.57L1570 2182.86L1568.57 2182.86L1567.14 2182.86C1556.86 2166.2 1538.3 2176.47 1522.86 2175.24C1495.29 2173.07 1470.71 2153.81 1448.57 2139.04C1438.66 2132.43 1423.99 2119.8 1411.43 2122.86C1419.74 2140.31 1438.43 2154.71 1452.86 2167.14C1470.64 2182.46 1489.89 2197.63 1511.43 2207.34C1574.61 2235.8 1645.8 2227.14 1712.86 2227.14C1756.3 2227.14 1805.36 2229.61 1845.71 2210.99C1883.94 2193.34 1919.1 2162.33 1948.57 2132.86C1956.09 2125.34 1963.97 2117.87 1969.31 2108.57C1970.67 2106.2 1973.7 2101 1970.5 2098.76C1966.54 2095.99 1958.94 2101.77 1955.71 2103.73C1941.77 2112.21 1929.64 2123.27 1917.14 2133.66C1883.4 2161.73 1846.9 2181.73 1802.86 2185.81C1791.26 2186.9 1776.37 2191.4 1765.71 2185.71M1134.29 1937.14L1150 1951.43C1152.78 1948.13 1155.61 1942.91 1160.15 1941.94C1168.04 1940.27 1175.99 1948.21 1181.43 1952.74C1197.64 1966.21 1211.95 1982.34 1225.36 1998.57C1234.65 2009.81 1239.96 2023.09 1249.02 2034.29C1260.53 2048.53 1275.12 2059.5 1284.22 2075.71C1289.61 2085.31 1288.76 2096.01 1293.32 2105.71C1298.85 2117.47 1309.5 2125.46 1315.36 2137.14C1322.7 2151.77 1324.84 2167.9 1331.25 2182.86C1337.71 2197.96 1347.71 2210.19 1355.71 2224.29L1354.29 2225.71C1347.15 2223.44 1342.84 2218.67 1335.71 2222.86C1357.63 2244.76 1380.94 2265.2 1402.86 2287.14C1410.67 2294.97 1418.19 2309.77 1427.33 2315.31C1437.79 2321.64 1455.24 2320.51 1467.14 2322.86C1496.8 2328.7 1525.87 2337.01 1555.71 2342.01C1627.56 2354.07 1699.51 2349.77 1771.43 2340.4C1824.43 2333.5 1878.57 2324.56 1927.14 2301.06C1962.47 2283.97 1989.36 2258.67 2020 2234.9C2030.36 2226.86 2043.74 2224.27 2052.86 2215.71M1311.43 1987.14C1346.36 2022.07 1382.42 2056.46 1418.57 2090.13C1442.36 2112.29 1465.24 2135.74 1492.86 2153.29C1508.89 2163.47 1528.2 2160.71 1544.29 2170M2177.14 2021.43L2177.14 2025.71M1411.43 2137.14L1422.86 2158.57C1401.09 2155.61 1377.77 2121.43 1364.29 2105.71C1361.19 2102.1 1345.54 2085.8 1355.93 2082.44C1361.06 2080.79 1366.55 2085.61 1370 2088.71C1380.58 2098.24 1390 2108.89 1398.86 2120C1403.53 2125.86 1407.53 2135.1 1415.71 2131.43M2184.29 2084.29L2182.86 2094.29M1285.71 2602.86C1285.18 2590.44 1287.72 2583.04 1289.31 2571.43C1292.29 2549.63 1289.95 2523.44 1288.44 2501.43C1284.87 2449.31 1271.98 2396.76 1261.13 2345.71C1249.99 2293.36 1239.45 2240.86 1227.97 2188.57C1221.74 2160.26 1211.67 2129.06 1211.43 2100L1212.86 2098.57C1228.97 2111.94 1241.33 2133.64 1251.43 2151.43L1254.29 2148.57L1255.71 2147.14L1254.29 2145.71L1252.86 2150M2127.14 2104.29L2128.57 2105.71L2124.29 2110L2127.14 2104.29M2128.57 2105.71L2134.29 2105.71M2124.29 2111.43L2127.14 2117.14M1250 2141.43L1254.29 2144.29M1254.29 2145.71L1254.29 2148.57M1255.71 2147.14L1307.14 2194.89L1331.43 2211.43L1332.86 2212.86L1331.43 2214.29L1330 2215.71L1327.14 2212.86M1251.43 2152.86C1262.15 2167.5 1272.52 2182.61 1285.31 2195.6C1291.25 2201.63 1301.52 2200.81 1300 2211.43L1301.43 2212.86L1302.86 2211.43L1304.29 2210L1304.29 2207.14M1567.14 2177.14L1570 2177.14M1575.71 2181.43L1571.43 2184.29M1745.71 2187.14C1724.9 2198.26 1687.46 2191.43 1664.29 2191.43C1654.86 2191.43 1644.2 2193.1 1635.71 2188.57M1292.86 2200L1301.43 2208.57M1304.29 2210L1341.43 2250L1344.29 2250L1345.71 2248.57L1344.29 2247.14M1302.86 2211.43L1320 2228.57M1438.16 2214.47C1441.77 2211.69 1448.7 2217.3 1451.43 2219.27C1459.59 2225.19 1466.67 2232.53 1475.71 2237.17C1481.49 2240.13 1488.93 2240.31 1494.2 2243.91C1497.76 2246.34 1503.16 2254.9 1497.71 2258.39C1493.51 2261.06 1486.29 2255.46 1482.86 2253.43C1470.56 2246.11 1458.19 2238.49 1447.14 2229.34C1444.79 2227.39 1433.3 2218.23 1438.16 2214.47M1331.43 2214.29L1340 2218.57M2051.43 2214.29L2042.86 2222.86M1330 2215.71L1332.86 2218.57M1331.43 2220L1334.29 2221.43M2047.14 2224.29C2032.93 2251.67 1997.63 2274.4 1974.29 2293.93C1927.04 2333.44 1873.96 2361.89 1821.43 2393.43C1789.06 2412.86 1757.87 2436.89 1722.86 2451.41C1695.6 2462.73 1666.97 2456.24 1640 2465.41C1628.5 2469.33 1624.84 2484.96 1610.09 2480.97C1600.01 2478.26 1611.1 2464.61 1606.81 2457.14C1600.27 2445.77 1585.03 2437.17 1574.29 2430.11C1508.16 2386.66 1440.67 2345.97 1382.94 2291.03C1376.29 2284.7 1374.77 2276.86 1369.61 2270C1363.32 2261.64 1354.53 2254.53 1347.14 2247.14M1318.57 2230L1325.71 2234.29M1622.86 2230C1616.67 2236.91 1605.21 2248.21 1595.71 2249.47C1589.17 2250.33 1578.04 2243.61 1572.36 2248.61C1565.41 2254.7 1581.66 2263.77 1585.71 2265.41C1596.5 2269.8 1612.07 2273.23 1622.86 2267.01C1635.73 2259.6 1638.87 2241.26 1624.29 2234.29M1340 2242.86L1347.14 2244.29M1730 2244.89C1758 2241.17 1790.7 2242.79 1818.57 2246.76C1830.06 2248.4 1844.41 2249.93 1854.01 2257.1C1863.93 2264.51 1858.97 2275.59 1851.37 2282.43C1838.23 2294.27 1816.37 2303.67 1798.57 2304.13C1790.77 2304.33 1776.96 2296.39 1782.51 2287.2C1786.16 2281.19 1793.61 2280.29 1797.69 2275.13C1800.03 2272.14 1799.2 2268.69 1795.5 2267.6C1787.31 2265.2 1774.09 2268.64 1765.71 2269.81C1737.57 2273.73 1704.1 2287.27 1675.71 2284.01C1663.1 2282.57 1651.76 2262.41 1665.87 2254.54C1673.54 2250.27 1684.47 2256.23 1692.86 2255.59C1705.33 2254.61 1716.91 2246.63 1730 2244.89M1345.71 2248.57L1375.71 2275.71M1935.71 2255.71C1932.37 2270.59 1907.54 2282.83 1894.29 2287.91C1888.74 2290.04 1879.87 2293.39 1875.14 2287.96C1869.4 2281.31 1876.86 2270.93 1882.91 2267.59C1896.74 2259.96 1919.99 2256.04 1935.71 2255.71M1377.14 2275.71L1378.57 2280M1842.86 2305.71C1832.09 2306.06 1820.33 2312.3 1810 2315.71C1789.23 2322.57 1768.77 2329.1 1747.14 2332.74C1677.29 2344.51 1606.71 2340.51 1537.14 2328.93C1511.67 2324.67 1486.01 2320 1461.43 2311.9C1457.66 2310.66 1437.3 2304.56 1442.5 2297.99C1447.17 2292.07 1460.1 2297.84 1465.71 2299.04C1487.19 2303.63 1509.7 2301.97 1531.43 2304.04C1591.96 2309.8 1654.87 2305.71 1715.71 2305.71C1735.81 2305.71 1770.77 2312.36 1788.57 2302.86M1815.71 2301.43L1832.86 2307.14M1274.29 2422.86L1271.43 2450L1274.04 2508.57L1280.4 2568.57L1290.98 2585.71L1295.8 2668.57L1300 2705.71L1295.71 2705.71L1295.71 2715.71M1761.43 2482.86L1725.71 2474.29C1732.03 2467.66 1748.77 2464.03 1756.83 2469.8C1766.9 2477.01 1763.31 2484.99 1778.57 2484.29M1768.57 2485.71C1752.63 2495.84 1733.56 2506.86 1714.29 2508.3C1705.64 2508.96 1697.24 2504.47 1688.6 2506.04C1678.1 2507.96 1670.4 2522.53 1659.11 2509.44C1653.3 2502.71 1663.06 2494.84 1668.57 2492.27C1684.94 2484.67 1706.1 2476.1 1724.29 2475.71M1761.43 2482.86L1761.43 2488.57M1512.86 2568.57L1508.57 2572.86L1508.57 2574.29L1510 2574.29L1517.14 2570L1512.86 2565.71L1530 2555.71L1531.43 2554.29L1527.14 2550C1538.7 2538.44 1556.66 2515.77 1574.29 2513.86C1579.87 2513.26 1584.76 2518.21 1590 2519.64C1601.89 2522.86 1625.24 2524.51 1635.47 2516.14C1642.71 2510.21 1633.09 2505.99 1628.57 2502.86L1660 2494.29M1580 2512.86C1593.53 2503.66 1612.73 2504.11 1628.57 2502.86M1680 2514.29C1701.36 2530.57 1743.71 2517.59 1768.57 2515.59C1778.61 2514.79 1790.83 2510.49 1799.81 2516.89C1817.03 2529.14 1831.24 2547.59 1845.77 2562.86C1851.61 2569 1861.63 2577.03 1863.51 2585.71C1865.06 2592.86 1863.37 2607.03 1858.01 2612.26C1851.19 2618.91 1830.69 2619.91 1842.86 2632.86C1835.24 2639.04 1837.86 2645.46 1836.51 2654.29C1833.5 2674.01 1832.24 2692.96 1831.37 2712.86C1827.94 2791.21 1834.44 2871.09 1847.26 2948.57C1850.91 2970.69 1856.86 2991.26 1862.33 3012.86C1864.91 3023.09 1868.8 3031.2 1861.43 3040L1860 3038.57C1853.76 3020.21 1837.06 2994.09 1842.86 2974.29L1847.14 2975.71L1848.57 2977.14L1850 2977.14L1851.43 2977.14M1794.29 2514.29C1790.61 2522.6 1782.56 2531.43 1786.57 2541.34C1792.81 2556.74 1804.13 2532.67 1804.29 2525.71M1627.14 2544.29C1623.06 2549.11 1618.41 2552.26 1612.86 2555.27C1609.1 2557.31 1605.24 2559.17 1601.43 2561.07C1584.77 2569.4 1579.6 2559.13 1594.31 2547.94C1603.16 2541.21 1617.3 2539.03 1627.14 2544.29M1661.4 2545.5C1671.44 2543.63 1666.71 2559.34 1665.71 2564.29C1662.57 2579.69 1659.36 2617.54 1640 2620.91C1623.96 2623.7 1623.54 2605.2 1624.41 2594.29C1625.84 2576.69 1642.63 2549 1661.4 2545.5M1714.07 2545.61C1719.84 2545.51 1716.84 2552.71 1715.79 2555.71C1712.09 2566.14 1708.74 2576.64 1705.24 2587.14C1694.94 2618.04 1671.5 2676.26 1628.57 2669.7C1624.5 2669.07 1612.91 2664 1616.09 2658.03C1618.09 2654.24 1627.96 2657.5 1631.43 2657.17C1640.77 2656.3 1648.71 2650.36 1655.1 2643.87C1666.69 2632.1 1674.63 2616.14 1677.93 2600C1680.09 2589.46 1679.11 2578.17 1684.59 2568.57C1689.71 2559.56 1702.63 2545.8 1714.07 2545.61M1531.43 2554.29C1543.4 2551.97 1553.87 2550.29 1565.71 2554.29C1555.17 2573.5 1533.77 2562.69 1518.57 2570M1525.71 2552.86L1525.71 2554.29M1512.86 2568.57L1515.71 2568.57M1508.57 2574.29C1497.09 2584.77 1475.5 2611.77 1475.33 2628.33C1475.29 2632.61 1479.99 2637.67 1481.84 2641.43C1485.24 2648.29 1489.2 2655.56 1497.14 2657.74C1505.56 2660.07 1517.21 2655.59 1525.71 2654.29M1867.14 2587.14C1877 2599.17 1879.66 2618.44 1862.86 2626.47C1856.04 2629.73 1849.66 2626.96 1842.86 2631.43M1737.14 2605.71C1745.06 2632.47 1729.77 2671.97 1713.33 2692.86C1707.11 2700.76 1694.5 2714.9 1682.91 2709.29C1670.13 2703.09 1679.57 2687.3 1683.93 2678.57C1694.93 2656.59 1714.13 2616.44 1737.14 2605.71M1835.71 2630L1835.71 2634.29M1472.86 2632.86C1470.26 2644.16 1471.2 2662.4 1482.86 2668.31C1492.81 2673.37 1517.19 2669.76 1518.57 2657.14M1768.57 2645.71C1760.44 2671.71 1737.8 2692.2 1729.67 2718.57C1720.96 2746.87 1731.53 2781.91 1737.14 2810C1739.77 2823.13 1741.41 2837.53 1746.37 2850C1748.2 2854.57 1751.23 2861.04 1757.16 2860.49C1764.07 2859.83 1768.39 2851.21 1770.97 2845.71C1778.23 2830.21 1778.17 2812.4 1780.07 2795.71C1780.71 2790.01 1781.77 2773.16 1790.06 2773.16C1796.71 2773.16 1801.39 2784.2 1807.14 2787.14C1811.81 2776.07 1812.57 2755.46 1803.73 2746.04C1797.3 2739.2 1788.53 2739.21 1783.46 2730C1772.57 2710.2 1769.03 2678.04 1768.57 2655.71M1522.86 2655.71L1521.43 2660M1517.14 2665.71C1563.29 2696.47 1595.47 2751.67 1626.19 2797.14C1634.13 2808.91 1655.71 2829.96 1656.44 2844.29C1656.86 2852.33 1649.83 2862.67 1646.86 2870C1638.46 2890.77 1628.84 2911.33 1622.46 2932.86C1595.41 3024.09 1559.83 3112.67 1533.69 3204.29C1523.8 3238.9 1515.69 3273.99 1505.71 3308.57C1502.97 3318.11 1492.23 3338.96 1495.29 3348.41C1497.83 3356.31 1510.6 3356.21 1517.14 3357.77C1540.1 3363.23 1566.41 3360 1590 3360L1844.29 3360C1864.5 3360 1884.44 3357.5 1904.29 3357.14C1910.29 3357.03 1924.7 3357.61 1928.53 3352.13C1932.07 3347.04 1928.11 3335.67 1927.33 3330C1924.53 3309.93 1920.81 3289.87 1916.86 3270C1906.91 3219.94 1897.46 3169.79 1886.21 3120C1880.34 3094.03 1868 3063.59 1868.57 3037.14M1295.71 2674.29C1291.14 2682.86 1291.14 2697.14 1295.71 2705.71M1300 2705.71C1310.31 2724.93 1304.3 2747.86 1301.63 2767.14C1299.59 2781.93 1302.19 2799.71 1304.94 2814.29C1306.43 2822.13 1312 2827.16 1313.83 2834.34C1317.9 2850.24 1316.14 2869.34 1317.27 2885.71C1319.14 2912.86 1321.91 2940.04 1324.53 2967.14C1332.23 3046.76 1341.72 3126.17 1350.24 3205.71C1354.23 3242.94 1359.63 3280.1 1365.11 3317.14C1366.2 3324.47 1373.69 3349.49 1366.68 3354.24C1360.31 3358.57 1343.35 3357.14 1335.71 3357.14C1312.08 3357.16 1289.33 3360 1265.71 3360L1001.43 3360L1.43 3360M1305.71 2760C1314.77 2776.97 1314.28 2808.01 1314.29 2827.14M1767.06 2874.54C1775.43 2873.14 1775.41 2897.44 1775.66 2902.86C1776.76 2927.59 1778.6 2952.43 1775.79 2977.14C1774.94 2984.59 1773.26 2999.34 1764.23 3001.49C1751.11 3004.61 1737.59 2978.9 1732.29 2970C1714.47 2940.03 1721.36 2914.67 1745.71 2891.37C1751.03 2886.3 1759.46 2875.8 1767.06 2874.54M1695.14 2970.26C1702.04 2966.41 1717.09 2985.7 1720.83 2990C1738.81 3010.71 1757.44 3031.03 1772.23 3054.29C1777.56 3062.64 1786.76 3076.24 1775.56 3083.79C1731.14 3113.69 1710.96 3040.56 1701.47 3010C1699.59 3003.96 1687.99 2974.24 1695.14 2970.26M2022.86 3020C2029.79 3039.96 2016.3 3074.91 2010 3094.29M1861.43 3041.43L1865.71 3045.71M2002.86 3094.29L2001.43 3101.43M1708.63 3112.5C1721.71 3107.33 1732.61 3121 1741.43 3127.81C1752.6 3136.46 1768.3 3139.24 1778.41 3148.87C1789.14 3159.09 1783.49 3171.79 1771.43 3177.29C1746.33 3188.71 1720.61 3176.83 1709.7 3152.86C1705.5 3143.6 1694.87 3117.93 1708.63 3112.5M1714.29 3360L1714.59 3339.01L1704.29 3332.84L1685.71 3317.14L1668.57 3334.29C1660.54 3329.3 1651.07 3327.76 1642.86 3323.03C1637.49 3319.94 1632.91 3315.87 1628.63 3311.43C1626.06 3308.74 1623.64 3305.96 1621.57 3302.86C1618.53 3298.26 1612.66 3288.7 1619.03 3284.31C1636.73 3272.14 1675.86 3290.84 1688.5 3265.59C1693.24 3256.11 1678.7 3252.91 1672.86 3250.16C1659.6 3243.89 1639.94 3228.51 1645.21 3211.43C1650.24 3195.16 1672.26 3190.03 1687.14 3192.04C1714.49 3195.71 1741.61 3208.87 1764.29 3224.33C1772.6 3230 1783.43 3236.27 1787.9 3245.71C1792.33 3255.06 1784.04 3263.9 1777.14 3269.24C1759.89 3282.6 1740.3 3281.71 1720 3284.71C1713.31 3285.7 1699.06 3290.83 1706.36 3299.69C1713.27 3308.06 1730.06 3308.3 1740 3308.56C1767.1 3309.21 1794.53 3309.84 1821.43 3313.46C1829.76 3314.59 1857.53 3315.27 1856.2 3328.53C1854.97 3340.8 1836.27 3331.86 1830 3330.23C1810.23 3325.04 1800.94 3336.89 1785.71 3346.8C1779.9 3350.59 1770.83 3352.4 1770 3360M1684.29 3324.29C1688.89 3339.66 1681.39 3345.86 1678.57 3360M1670 3332.86L1685.71 3334.29M1668.57 3335.71L1658.57 3340L1657.14 3341.43L1658.57 3342.86L1660 3344.29L1662.86 3341.43M1575.71 3360C1563.4 3349.17 1559.33 3336.64 1581.43 3338.81C1607.93 3341.43 1629 3352.91 1655.71 3341.43M1661.43 3345.71L1662.86 3360M1677.14 3360L1672.86 3354.29L1680 3352.86M1672.86 3360L1668.57 3355.71L1672.86 3354.29M1661.43 3358.57L1668.57 3355.71M1761.43 3360L1768.57 3355.71M0 3360L1.43 3360"/>
</g>

</svg>