<!DOCTYPE svg PUBLIC "-//W3C//DTD SVG 20010904//EN" "http://www.w3.org/TR/2001/REC-SVG-20010904/DTD/svg10.dtd">
<svg version="1.0" xmlns="http://www.w3.org/2000/svg" width="374px" height="374px" viewBox="0 0 3740 3740" preserveAspectRatio="xMidYMid meet">
 <g id="layer101" fill="none" stroke-width="5" stroke="black">
  <path d="M1722.86 232.86C1724.6 263.56 1687 284.93 1669.84 307.14C1661.69 317.69 1661.19 328.52 1655.53 340C1641.79 367.81 1629.87 392.47 1621.64 422.86C1609.8 466.67 1605.81 510.75 1602.73 555.71C1601.66 571.27 1596.41 590.32 1598.79 605.71C1600.1 614.31 1607.09 612.38 1612.54 616.58C1616.81 619.86 1618.69 626.33 1619.53 631.43C1622.9 651.59 1618.19 684.28 1594.29 689.44C1566.91 695.35 1572.86 641.77 1572.86 625.71C1572.86 554.87 1574.89 485.34 1597.61 417.14C1616.64 360.07 1641.93 303.03 1681.84 257.14C1776.96 147.79 1924.17 84.26 2068.57 94.16C2121.11 97.76 2182.03 109.87 2227.14 138.57L2225.71 140C2221.3 141.31 2199.67 139.5 2201.93 147.28C2204.74 157.06 2224.81 166.54 2232.86 171.9C2260.7 190.48 2287.9 210.01 2314.29 230.61C2332.33 244.69 2357.01 261.62 2367.07 282.86C2371.74 292.72 2369.13 304.53 2373.51 314.29C2380.79 330.45 2392.77 344.19 2400.13 360.06C2403.57 367.52 2402.03 375.22 2404.29 382.86C2420.71 378.55 2424 365.6 2404.29 367.14M2037.14 104.29L2048.57 102.86L2050 104.29L2048.57 105.71L2034.29 106.38L2014.29 113.39L1968.57 115.71L1972.86 125.71L1944.29 123.03L1911.43 127.16L1875.71 150.51L1820 172.81L1792.86 197.01L1722.86 251.43M2050 104.29C2054.69 104.88 2059.7 105.16 2064.29 106.27C2077.9 109.58 2077.07 122.03 2070.1 131.41C2060.13 144.82 2046.31 148.14 2031.43 152.86C2038.06 165.83 2058.71 172.75 2071.43 178.37C2090.57 186.83 2110.01 196.33 2131.43 196.33C2168.79 196.33 2200.94 179.56 2238.57 191.74C2295.97 210.31 2324.59 273.1 2368.57 308.57M2010 111.43L2020 111.43M1945.71 121.43L1968.57 115.71M2228.57 141.43C2246.99 145.26 2261.96 157.01 2277.14 167.3C2298.71 181.92 2316.41 195.14 2334.53 214.29C2341.93 222.11 2364.49 233.43 2358.57 245.71L2360 247.14L2362.86 248.57L2364.29 247.14L2362.86 242.86M1738.57 418.57L1737.14 418.57C1735.51 413.78 1735.16 407.31 1731 403.91C1724.63 398.71 1716.97 400.3 1715.87 390C1713.07 364.02 1731.76 334.17 1744.3 312.86C1789.24 236.5 1860.8 191.92 1950 212.36C1978.59 218.91 2012.43 229.93 2034.03 250.63C2058.6 274.19 2065.76 335.74 2050.63 365.71C2039.03 388.72 2012.67 368.11 1999.3 383.26C1994.31 388.91 1998.26 398.57 1992.4 403.2C1984.76 409.26 1975.59 402.06 1967.7 411.49C1962.96 417.17 1961.03 431.29 1954.1 434.24C1947.3 437.12 1938.51 425.42 1934.29 421.56C1921.04 409.46 1902.83 403.89 1885.71 399.83C1865.97 395.16 1834.36 388.47 1815.71 399.1C1806.06 404.6 1795.33 427.23 1784.34 427.5C1774.3 427.74 1770.81 404.21 1768.6 397.14C1767.69 394.21 1766.7 387.44 1762.54 387.44C1752.71 387.44 1743.5 411.67 1738.57 418.57M2338.57 221.43L2340 227.14L2344.29 222.86M2340 227.14C2342.84 235.49 2349.43 240.44 2357.14 244.29M1741.43 235.71L1742.86 230M1724.29 234.29L1737.14 231.43M1722.86 244.29L1727.14 248.57M2365.71 245.71C2396.87 276.78 2424.14 312.03 2443.43 351.42C2449.03 362.86 2467.17 376.39 2458.57 390C2445 379.61 2429.74 383.9 2430.19 402.86C2430.67 424 2440.71 450.07 2452.86 467.14L2454.29 467.14C2458.77 458.78 2456.87 430.55 2472.86 439.82C2475.83 441.55 2478.56 443.82 2481.43 445.71L2482.86 445.71L2484.29 444.29L2482.86 440L2481.43 438.57L2477.14 442.86L2478.57 438.57M2385.71 270C2383.59 276.02 2384.63 279.16 2391.43 278.57M2400 310L2400 352.86M2404.29 324.29C2414.43 338.49 2430.41 381 2454.29 367.14M2404.29 382.86L2402.86 398.57L2404.29 398.57L2402.86 390M2464.29 388.57C2468.19 398.62 2477.74 412.86 2471.43 422.86L2472.86 424.29L2474.29 425.71L2475.71 425.71L2477.14 421.43M2458.57 390C2458.77 398.27 2463.54 418.58 2474.29 415.71M2405.71 397.14C2420.4 398.29 2410.63 415.8 2413.31 425.63C2414.86 431.3 2421.61 432.93 2425.11 437.23C2434.67 448.94 2430.76 461.43 2420 470C2421.83 475.87 2418.66 483.21 2424.5 487.35C2440.9 498.94 2461.76 471.38 2468.73 501.43C2482.59 561.17 2477.14 626.26 2477.14 687.14C2477.14 700.93 2476.41 714.95 2479.04 728.57C2480 733.54 2483.34 741.8 2489.87 740.16C2497.27 738.29 2498.4 727.58 2498.56 721.43C2499.06 701.32 2497.73 681.32 2501.43 661.43M2477.14 427.14L2481.43 438.57M2482.86 445.71C2490.56 458.23 2492 475.72 2494.86 490C2502.69 529.16 2504.3 568.92 2507.01 608.57C2508.19 625.74 2506.29 648.03 2512.9 664.2C2516.16 672.17 2528.91 670.31 2535.71 668.28C2551.3 663.61 2574.53 640.97 2590.63 659.13C2604.09 674.31 2600 709.87 2600 728.57C2600 796.91 2584.94 871.83 2560.81 935.71C2553.26 955.77 2542.14 972.72 2525.71 986.71C2509.94 1000.15 2491.51 1007.43 2481.4 1027.14C2470.11 1049.14 2469.26 1078.81 2464.29 1102.86C2455.99 1142.88 2444.34 1183.15 2430.07 1221.43C2421.06 1245.61 2411.46 1269.54 2400.37 1292.86C2396.36 1301.29 2387.24 1314.79 2390.57 1324.29C2395.57 1338.61 2405.7 1352.46 2413.06 1365.71C2426.91 1390.71 2440.49 1416.06 2460.13 1437.14C2495.16 1474.76 2543.47 1499.94 2587.14 1526C2712.11 1600.57 2841.5 1661.49 2978.57 1710.44C3038.26 1731.76 3100.34 1749.81 3157.14 1778.21C3196.37 1797.83 3233.56 1824.84 3252.41 1865.71C3273.34 1911.09 3279.89 1964.34 3290.6 2012.86C3310.33 2102.13 3328.36 2191.79 3346.29 2281.43C3409.04 2595.17 3460.46 2913.27 3494.53 3231.43C3506.46 3342.93 3511.06 3454.09 3518.7 3565.71C3521.33 3604.1 3520 3642.91 3520 3681.43C3520 3697.53 3524.13 3720.09 3519.54 3735.5C3517.1 3743.71 3494.01 3740 3487.14 3740L3387.14 3740L3054.29 3740C3025.61 3740 2993.63 3743.91 2965.71 3737.39C2954.49 3734.76 2942.69 3733.51 2934.61 3724.23C2926.43 3714.8 2930.33 3699.6 2932.57 3688.57C2938.04 3661.64 2947.46 3634.94 2947.14 3607.14C2946.86 3582.89 2936.79 3560.39 2931.26 3537.14C2921.8 3497.27 2913.73 3456.41 2908.8 3415.71C2906.01 3392.79 2902.73 3369.93 2898.93 3347.14C2896.87 3334.83 2895.61 3320.54 2888.57 3310L2887.14 3311.43C2879.21 3343.59 2884.29 3380.09 2884.29 3412.86C2884.29 3484.83 2887.14 3556.54 2887.14 3628.57C2887.14 3656.07 2887.74 3684.17 2883.87 3711.43C2882.94 3718.06 2882.23 3734.39 2876.41 3738.53C2869.51 3743.44 2851.11 3740 2842.86 3740L2755.71 3740L2421.43 3740L1261.43 3740L1062.86 3740C1021.01 3740 978.52 3741.97 937.14 3737.33C913.59 3734.69 889.38 3738.21 865.71 3735.96C859.51 3735.37 848.66 3738.01 843.37 3734.24C837.03 3729.74 845.41 3709.07 846.96 3702.86C855.04 3670.54 862.29 3638.97 865.47 3605.71C872 3537.36 868.48 3468.54 871.48 3400C874.44 3332.63 882.06 3266.61 892.97 3200C899.29 3161.41 903.39 3121.39 894.76 3082.86C893.26 3076.16 887.26 3048.87 878.48 3048.87C869 3048.87 860.5 3075.7 857.34 3082.86C840.56 3120.8 822.62 3158.54 811.23 3198.57C792.15 3265.59 792.64 3335.3 795.66 3404.29C798.28 3464.27 798.86 3524.29 801.48 3584.29C803.19 3623.26 805.7 3664.04 800.61 3702.86C799.45 3711.67 802.76 3730.57 797.1 3737.71C792.62 3743.36 772.39 3740 765.71 3740L674.29 3740L300 3740L194.29 3740C187.27 3740 162.92 3743.83 160.45 3735.5C157.34 3725.03 161.14 3712.07 161.41 3701.43C162.3 3665.76 168.21 3629.53 173.68 3594.29C190.05 3488.73 211.2 3384.56 232.85 3280C261.23 3142.94 293.34 3006.63 323.68 2870C352.38 2740.79 381.41 2611.09 419.6 2484.29C459.2 2352.81 512.4 2225.53 560.82 2097.14C598.08 1998.37 641.81 1903.86 668.74 1801.43C677.93 1766.44 687.12 1731.47 698.57 1697.14C705.33 1676.89 713.23 1654.53 730 1640.3C745.95 1626.77 775.94 1630.73 795.71 1628.34C844.95 1622.44 894.24 1613.67 942.86 1604C1020.23 1588.63 1098.66 1574.6 1174.29 1551.83C1238.33 1532.54 1300.81 1506.81 1362.86 1482C1411.94 1462.37 1468.67 1444.53 1512.86 1415.21C1529.36 1404.26 1543.21 1389.64 1557.14 1375.71C1586.8 1346.06 1615.54 1315.77 1643.27 1284.29C1651.8 1274.59 1668.49 1262.87 1673.54 1251.19C1677.76 1241.42 1672.86 1219.7 1672.86 1208.57L1677.14 1207.14C1680.56 1218.59 1684.41 1237.03 1677.14 1247.14M2432.86 461.43C2433.27 470.41 2432.84 475.23 2422.86 474.29M2311.43 635.71C2333.67 651.59 2281.29 651.73 2272.86 656.31C2266.7 659.66 2257.17 673.51 2249.06 670.42C2241.14 667.4 2261.24 650.49 2264.41 648.31C2276.77 639.83 2293.6 642.57 2307.14 637.3C2317.23 633.38 2325.76 623.62 2334.29 617.14C2339.5 628.35 2360.2 627.93 2363.21 614.26C2365.7 602.99 2348.84 605.98 2348.06 598.36C2347.49 592.74 2350.84 585.71 2351.5 580C2354.11 557.08 2358.86 529.37 2372.17 510.02C2376.07 504.35 2382.29 502.13 2386.41 496.95C2391.43 490.65 2389.21 482.13 2395.99 476.64C2402.69 471.21 2411.93 471.5 2420 470M2347.14 601.43L2334.29 617.14M2254.29 780C2245.1 775.1 2229.09 776.83 2222.64 785.98C2219.11 791.01 2219.13 799.62 2211.43 800.6C2199.43 802.13 2210.7 781.16 2194.29 788.44C2185.87 792.17 2177.46 812.95 2168.73 810.41C2160.33 807.97 2162.63 793.42 2163.73 787.14C2167.61 765.02 2173.57 742.02 2188.03 724.29C2216.87 688.92 2273.19 679.89 2314.29 666.19C2327.04 661.94 2348.01 650.88 2361.43 652.31C2375.17 653.78 2392.84 682.98 2401.67 692.86C2416.06 708.97 2431.87 724.54 2443.51 742.86C2448.06 750.02 2453.07 760.29 2447.51 768.32C2438.96 780.67 2421.93 777.04 2413.47 787.3C2401.53 801.81 2398.47 822.2 2375.8 826.98C2366.47 828.94 2373 810.54 2372.59 805.71C2371.29 790.16 2358.06 770.45 2341.43 768.86C2335.54 768.3 2323.87 772.03 2325.47 779.96C2327 787.56 2340.57 789.54 2338.81 798.55C2337.11 807.22 2322.7 809.01 2315.71 810C2296.37 812.74 2273.33 813.69 2254.29 808.71C2233.47 803.27 2241.47 788.58 2254.29 780M1880 663.46C1895.64 661.38 1912.99 664.82 1928.57 666.74C1957.8 670.33 1987.1 674.42 2015.71 681.61C2030.94 685.43 2050.94 690.55 2060.21 704.29C2074 724.73 2070.21 764 2066.96 787.14C2065.76 795.71 2064.53 807.03 2059 814.08C2055.36 818.71 2049.04 819.24 2044.29 822.3C2035.2 828.16 2027.49 836.52 2020.06 844.29C2000.07 865.19 1979.87 887.78 1948.57 888.55C1915.43 889.36 1885.76 871.86 1858.57 854.89C1851.24 850.31 1833.16 841.47 1832.61 831.51C1832.11 822.35 1853.31 825.67 1858.57 826.59C1883.99 831.04 1908.79 831.74 1934.29 827.47C1943.69 825.9 1956.03 816.12 1952.69 805.72C1947.26 788.89 1919.21 810.92 1905.71 811.02C1899.54 811.07 1889.86 810.85 1884.29 808.12C1879.01 805.52 1876.04 799.18 1869.94 798.42C1856.56 796.75 1844.36 802.01 1831.43 803.86C1814.21 806.32 1795.51 803.33 1780 795.54C1761.96 786.48 1733.54 752.16 1758.73 733.9C1777.03 720.63 1798.89 712.23 1817.14 697.71C1836.67 682.18 1854.67 666.83 1880 663.46M2501.43 662.86C2510.34 673.89 2512.47 694.15 2527.14 699.81C2537.01 703.62 2542.04 693.22 2547.69 687.46C2552.36 682.68 2559.26 681.37 2564.2 676.84C2567.64 673.69 2569.37 668.2 2573.29 665.76C2579.03 662.17 2586.57 666.71 2592.86 664.29M1795.71 1364.29L1797.14 1370L1798.57 1371.43L1802.86 1367.14L1802.86 1365.71C1791.8 1359.43 1763.57 1329.73 1783 1318.6C1793.51 1312.59 1805.31 1322.3 1814.23 1317.28C1820.44 1313.79 1824.54 1306.47 1830 1301.89C1843.27 1290.79 1865.26 1281.93 1882.86 1284.92C1891.31 1286.36 1895.27 1293.35 1902.86 1296.06C1907.69 1297.79 1913.6 1294.64 1917.37 1299.05C1925.66 1308.74 1920.67 1324.53 1923.46 1335.71C1926.1 1346.31 1937.31 1354.77 1945.71 1360.82C1962.24 1372.71 1980.77 1383.92 2001.43 1386.24C2036.21 1390.15 2071.44 1372.34 2104.29 1364.14C2108.5 1363.08 2115.31 1360.54 2119.54 1362.35C2124.04 1364.26 2122.51 1370.96 2128.66 1370.46C2147.66 1368.92 2172.04 1342.46 2178.17 1325.71C2182.9 1312.82 2169.43 1302.86 2160 1296.46C2132.54 1277.81 2107.59 1277.08 2077.14 1268.92C2067.27 1266.27 2046.64 1256.27 2051.13 1242.88C2054.19 1233.73 2066.07 1232.12 2074.29 1231.56C2097.77 1229.94 2120.81 1225.51 2142.86 1216.85C2149.14 1214.39 2168.5 1209.42 2167.26 1200.15C2166.6 1195.23 2159.61 1193.71 2155.71 1192.71C2142.59 1189.34 2129.09 1188.31 2115.71 1186.54C2058.93 1178.99 2005.43 1184.58 1955.71 1213.64C1947.54 1218.42 1940.74 1218 1940.06 1207.14C1937.73 1169.92 1962.39 1156.21 1995.71 1150.84C2029.37 1145.42 2063.34 1144.89 2097.14 1141.67C2112.26 1140.23 2128.41 1141.12 2142.86 1135.71C2138.2 1126.52 2118.54 1123.4 2110 1116.47C2089.57 1099.9 2080.47 1074.57 2058.57 1059.2C2051.03 1053.91 2024.14 1047.24 2025.23 1035.7C2026.84 1018.8 2050.3 1022.98 2060 1027.51C2100.53 1046.43 2155.76 1058.5 2180.53 1007.14C2195.51 976.06 2178.37 945.41 2168.57 915.71C2153.47 869.97 2143.6 820.52 2136.96 772.86C2134.03 751.86 2122.11 711.23 2140.14 694.61C2150.2 685.34 2167.36 687.12 2180 685.09C2202.83 681.42 2223.47 669.67 2245.71 665.71M2534.29 670C2533.06 682.35 2531.26 686.8 2545.71 685.71M1505.71 677.14C1493.5 691.4 1471.24 692.56 1460 678.57C1497.39 668.99 1534.9 677.14 1572.86 677.14M1677.14 1207.14C1676.99 1193.78 1672.09 1179.26 1670.19 1165.71C1665.34 1131.24 1665.29 1079.21 1638.44 1053.11C1612.03 1027.43 1573.16 1021.31 1547.56 992.84C1508.3 949.18 1482.33 889.83 1460.86 835.71C1447.21 801.31 1431.67 757.59 1436.13 720C1438.2 702.46 1440.73 684.73 1460 678.57M1465.71 680L1464.29 681.43M1877.14 740L1858.57 737.14L1857.14 735.71L1861.43 731.43C1854 727.09 1833.5 718.92 1838.89 707.2C1844.67 694.64 1867.97 690.23 1880 687.33C1918.7 678.01 1981.51 674.9 2011.1 707.39C2023.61 721.14 1994.33 745.31 1981.43 747.75C1968.57 750.19 1951.29 739.27 1938.57 736.67C1934.44 735.82 1920.23 733.54 1921.31 741.45C1922.14 747.4 1930.84 749.84 1935.71 750.76C1953.59 754.14 1969.03 754.08 1984.29 765.71C1971.07 776.62 1942.94 761.3 1932.51 777.3C1930.09 781.03 1930.96 785.86 1935.8 786.77C1950.11 789.46 1963.49 782.4 1972.67 800C1981.46 816.83 1952.24 834.32 1938.57 827.14M1862.86 731.43L1865.71 734.29M1892.86 794.29C1894.04 797.8 1893.73 797.85 1890 798.57L1888.57 797.14L1892.86 792.86C1889.59 789.84 1886.14 787.03 1882.86 784.04C1880.94 782.3 1879 780.52 1877.3 778.57C1860.79 759.54 1893.34 762.03 1904.29 758.57L1904.29 757.14L1904.29 755.71C1882.17 749.18 1858.1 761.2 1837.14 767.14C1835.36 755.24 1845.31 735.76 1857.14 735.71M1985.71 768.57L1981.43 771.43M2254.29 780L2268.57 785.71L2270 785.71L2271.43 784.29L2272.86 781.43L2268.57 780M2272.86 781.43C2283.53 784.35 2297.74 789.6 2302.86 800C2288.77 804.13 2278.99 795.39 2270 785.71M1900 807.14C1907.83 796.26 1926.11 784.77 1925.71 805.71M1871.43 797.14L1878.57 794.29L1875.71 800M1880 795.71L1888.57 797.14M1895.71 797.14L1902.86 802.86M2407.23 862.25C2429.57 855.27 2438.99 896.28 2421.37 900.04C2409.21 902.63 2391.7 867.1 2407.23 862.25M2401.43 881.43C2397.27 893.39 2392.5 902.53 2382.86 911.18C2374.53 918.65 2363 923.87 2357.8 934.29C2351.26 947.36 2358.71 963.56 2358.54 977.14C2358.24 999.87 2331.8 1038.05 2307.14 1039.27C2294.66 1039.88 2284.61 1026.04 2278.21 1017.14C2261.73 994.23 2255.97 967.36 2252.26 940C2251.1 931.57 2248.67 916.19 2253.91 908.84C2260.36 899.82 2275.66 898.2 2285.71 896.76C2311.04 893.13 2338.03 894.98 2362.86 889.7C2376.29 886.85 2387.2 875.71 2400 874.29M2109.96 922.94C2117.59 921.84 2118.39 935.09 2119.16 940C2121.23 953.22 2120.54 979.61 2102.86 982.16C2073.39 986.41 2091.99 945 2098.67 934.29C2101.16 930.29 2104.76 923.69 2109.96 922.94M1801.43 1368.57C1808.14 1395.31 1832.03 1410.31 1844.09 1434.29C1850.71 1447.44 1854.6 1468.27 1856.93 1482.86C1857.77 1488.1 1856.09 1495.03 1857.84 1499.86C1859.66 1504.81 1866.17 1507.3 1870 1510.47C1878.44 1517.46 1884.37 1529.07 1894.29 1534.03C1901.46 1537.61 1907.84 1535.14 1914.14 1541.51C1922.2 1549.69 1921.51 1559.11 1926.17 1568.57C1929.99 1576.34 1938.43 1581.74 1945.71 1585.9C1954.7 1591.03 1965.41 1595.24 1975.71 1596.71C1980.71 1597.43 1987.86 1594.81 1992.39 1596.7C1997.54 1598.86 1992.27 1606.71 1997.41 1609.96C2010.21 1618.06 2041.21 1600.57 2052.86 1595.01C2067.67 1587.96 2091.91 1574.03 2087.6 1554.29C2083.11 1533.84 2058.03 1521.13 2041.43 1511.64C2034.47 1507.67 2025.46 1504.3 2021.43 1497.14C2039.01 1491.94 2078.1 1499.67 2088.31 1479.94C2095.5 1466.03 2076.24 1462.46 2071.96 1452.83C2069.97 1448.39 2068.19 1438.96 2073.47 1435.9C2077.57 1433.53 2083.83 1436 2088.57 1434C2103.01 1427.92 2114.66 1417.42 2130 1412.49C2158.77 1403.27 2189.44 1402.71 2217.14 1389.54C2232.13 1382.42 2245.03 1370.93 2256.73 1359.39C2273.84 1342.54 2288.26 1321.9 2298.13 1300C2304.19 1286.55 2305.49 1267.99 2317.41 1257.94C2329.8 1247.49 2351.89 1250.9 2365.71 1256.38C2376.8 1260.77 2385.13 1272.58 2394.33 1258.56C2407.91 1237.89 2409.47 1210.51 2414.9 1187.14C2418.07 1173.5 2426.94 1162.59 2429.99 1148.57C2437.03 1116.07 2437.47 1082.32 2450.71 1051.43C2459.86 1030.09 2459.46 989.39 2494.29 995.74C2498.56 996.52 2501.99 997.85 2505.71 1000M2197.14 1104.29L2195.71 1104.29C2193.53 1096.7 2197.39 1084.72 2187.11 1082.07C2176.04 1079.21 2173.24 1089.69 2165.53 1094.03C2159.69 1097.32 2151.4 1095.23 2145.71 1092.59C2142.2 1090.95 2137.71 1088.34 2136.79 1084.23C2134.31 1073.32 2156.57 1075.14 2162.86 1070.8C2178.59 1059.9 2191.33 1044.96 2210 1038.72C2233.54 1030.85 2236 1048.79 2226.27 1065.71C2223.2 1071.04 2220.06 1076.4 2216.51 1081.43C2210.74 1089.63 2204.2 1097.17 2197.14 1104.29M2211.43 1147.75C2229.27 1145.41 2255.43 1143.96 2271.43 1153.38C2295.14 1167.34 2267.61 1185.81 2251.43 1188.14C2230.04 1191.22 2204.63 1187.12 2185.71 1176.7C2179.33 1173.17 2165.43 1163.52 2172.31 1154.72C2179 1146.16 2201.6 1149.04 2211.43 1147.75M1671.43 1195.71L1671.43 1207.14M1674.29 1255.71C1674.29 1321.31 1677.07 1387.3 1679.94 1452.86C1681.11 1479.53 1679.46 1522.93 1694.29 1545.71L1688.57 1550L1690 1540M1677.14 1278.57C1680.14 1273.41 1686.13 1255.3 1694.71 1264.75C1701.06 1271.74 1700.79 1285.49 1701.67 1294.29C1703.13 1308.85 1706.07 1323.34 1710.99 1337.14C1729.2 1388.32 1761.97 1431.1 1795.71 1472.86C1807.4 1487.33 1823 1512.07 1840 1520L1842.86 1517.14L1841.43 1512.86L1840 1511.43L1834.29 1517.14M1775.71 1327.14C1765.37 1320.89 1756.19 1283.82 1777.14 1297.1C1780.3 1299.1 1782.97 1301.67 1785.71 1304.18C1789.21 1307.39 1792.14 1310.06 1794.29 1314.29M1800 1370L1802.86 1372.86M1804.29 1371.43L1824.89 1391.43L1857.14 1434.29L1855.71 1435.71L1847.14 1434.29M2011.43 1495.71L2021.43 1497.14M1821.43 1501.43L1855.71 1500M1842.86 1502.86L1841.43 1510M1840 1520C1867.73 1547.73 1898.96 1569 1931.43 1590L1930 1591.43L1928.57 1592.86L1922.86 1588.57M1694.29 1548.57L1690 1558.57L1688.57 1550M1695.71 1555.71C1713.09 1617.51 1725.9 1682.41 1736.51 1745.71C1739.04 1760.79 1731.61 1802.34 1748.63 1809.83C1753.93 1812.16 1759.96 1807.76 1764.29 1805.1C1776.11 1797.84 1787.3 1789.5 1798.57 1781.43L1802.86 1785.71L1782.86 1801.43M1690 1558.57C1692.61 1591.4 1701.94 1624.49 1706.76 1657.14C1713.13 1700.36 1715.46 1743.99 1721.81 1787.14C1723.43 1798.07 1724.83 1810.3 1730.51 1820C1733.74 1825.49 1744.04 1830.41 1743.67 1837.2C1743.27 1844.69 1734.51 1851.41 1730.43 1857.14C1724.44 1865.53 1721.93 1875.51 1721.49 1885.71C1719.94 1920.73 1727.47 1956.69 1731.19 1991.43C1736.21 2038.27 1740.26 2085.79 1741.41 2132.86C1742.17 2163.91 1742.39 2194.79 1745.47 2225.71C1747 2241.03 1748 2257.04 1757.14 2270L1775.71 2248.57L1777.14 2248.57L1778.57 2250C1767.26 2293.73 1762.17 2343.5 1761.43 2388.57C1761.21 2401.11 1755.06 2422.67 1761.69 2434.11C1768.11 2445.23 1784.49 2431.01 1794.07 2435.14C1801.97 2438.56 1795.1 2449.74 1800 2455.71C1836.3 2419.43 1881.94 2386.66 1911.43 2344.29C1900.24 2339.81 1884.83 2358.5 1877.14 2365.77C1856 2385.73 1836.07 2399.06 1811.43 2413.26C1804.14 2417.46 1793.43 2427.06 1784.34 2425.2C1769.59 2422.17 1771.43 2385.47 1771.43 2374.29C1771.43 2334.47 1777.49 2295.06 1790 2257.14C1793.76 2245.77 1809.14 2221.73 1802.86 2211.43C1801 2213.09 1799.21 2214.94 1797.09 2216.27C1776.34 2229.13 1788.04 2186 1805.26 2193.74C1809.19 2195.5 1809.83 2203.71 1812.86 2207.14L1811.43 2210L1810 2211.43L1808.57 2212.86L1808.57 2214.29M1932.86 1590C1934.71 1593.71 1933.54 1593.36 1930 1595.71L1931.43 1597.14L1932.86 1598.57L1937.14 1592.86M1934.29 1591.43L1934.29 1595.71M1940 1594.29L1938.57 1601.43C1950.19 1612.1 1977.69 1623.21 1984.26 1637.39C1989.03 1647.69 1960.77 1654.17 1972.3 1666.36C1978.87 1673.3 1997.73 1664.97 2007.14 1670C2000.49 1684.74 2035.6 1716.99 2051.21 1710.54C2060.04 1706.9 2049.54 1696.57 2046.31 1692.87C2035.21 1680.21 2024.36 1671.5 2007.14 1670M1944.29 1597.14C1957.91 1606.13 1972.99 1614.43 1988.57 1619.49C1996.06 1621.91 2004.14 1621.36 2011.43 1624.59C2021.04 1628.87 2023.8 1639.69 2035.71 1638.14C2073.77 1633.19 2113.76 1588.11 2152.86 1609.03C2194.77 1631.46 2204.67 1705.69 2210.81 1748.57C2211.53 1753.51 2210.47 1759.66 2212.9 1764.16C2215.99 1769.89 2235.29 1779.46 2225.26 1787.49C2209.03 1800.47 2196.77 1763.1 2191.43 1755.71L2192.86 1754.29L2194.29 1754.29L2195.71 1754.29L2197.14 1755.71L2197.14 1757.14L2197.14 1758.57M1934.29 1598.57L1937.14 1601.43M2075.71 1625.71C2086.83 1629.71 2099.7 1646.51 2085.31 1657.5C2078.46 1662.74 2052.93 1654.29 2048.21 1647.67C2045.67 1644.09 2050.71 1641.5 2050 1638.57M2058.57 1634.29L2054.29 1638.57M2047.14 1635.71L2050 1638.57M2051.43 1635.71L2051.43 1640M1984.29 1647.14C2035.26 1647.17 2087.93 1676.57 2127.14 1707.16C2145.83 1721.74 2166.5 1753.51 2191.43 1755.71M2021.43 1711.43L2018.57 1711.43L2018.57 1712.86L2018.57 1714.29L2020 1712.86L2022.86 1710L2015.71 1707.14C2018.8 1719.01 2032.73 1728.93 2024.29 1741.43C2014.61 1720.76 2003.87 1705.26 1982.86 1694.64C1972.96 1689.64 1962.96 1685 1952.86 1680.44C1949.71 1679.01 1943.24 1677.51 1941.93 1673.86C1939.61 1667.43 1964.89 1655.49 1970 1654.29M2034.29 1677.14L2040 1678.57L2035.71 1682.86M2040 1678.57C2051.17 1681.79 2067.33 1689.09 2072.81 1700C2077.47 1709.26 2071.2 1726.97 2060 1728.11C2048.09 1729.31 2033.09 1716.77 2024.29 1710M1800 1782.86C1811.76 1778.53 1817.61 1769.47 1827.14 1761.54C1842.61 1748.69 1858.76 1736.64 1874.21 1723.79C1881.16 1718 1889.83 1704.57 1899.79 1704.04C1908.61 1703.57 1901.83 1726.83 1901.56 1731.43C1900.06 1757.97 1917.73 1776.44 1925.71 1800C1927.73 1805.97 1933.9 1820.91 1927.51 1826.09C1921.87 1830.66 1906.69 1813.94 1898.57 1814.54C1886.89 1815.39 1878.71 1824.73 1865.71 1824.23C1838.29 1823.16 1803.19 1805.9 1777.14 1820.76C1754.06 1833.94 1765.34 1861.84 1753.77 1881.37C1737.51 1908.8 1748.01 1935.53 1752.47 1965.71C1758.53 2006.87 1758.96 2048.51 1759.99 2090C1760.47 2110.36 1756.79 2139.51 1768.57 2157.14C1784.16 2138.17 1790.91 2110.11 1798.57 2087.14C1811.23 2049.16 1824.56 2011.47 1839.43 1974.29C1845.64 1958.74 1852.41 1943.31 1860.33 1928.57C1863.01 1923.57 1866.77 1915.03 1872.8 1913.36C1879.44 1911.49 1880 1923.13 1879.93 1927.14C1879.64 1942.23 1874.64 1957.56 1869.14 1971.43C1860.03 1994.39 1848.86 2016.11 1842.04 2040C1831.57 2076.67 1826.27 2114.57 1815.71 2151.43C1809.04 2174.7 1829.6 2185.33 1812.86 2205.71M2011.43 1704.29L2014.29 1705.71M1881.43 1721.43C1890.79 1729.19 1892.89 1741.63 1895.93 1752.86C1898.43 1762.1 1910.67 1785.24 1905.66 1793.96C1901.07 1801.91 1883.61 1801.41 1875.71 1801.43L1791.43 1801.43M2030 1740L2025.71 1750L2031.43 1750C2037.23 1772.7 2034.74 1799.46 2035.77 1822.86C2037.83 1869.97 2039.81 1917.44 2046.11 1964.29C2048.9 1984.9 2061.53 2002.89 2067.54 2022.86C2076.56 2052.81 2079.77 2083.93 2086.97 2114.29C2089.79 2126.09 2101.93 2144.46 2100.87 2155.71C2098.69 2179.21 2072.06 2201.9 2059.11 2220C2054.53 2226.41 2052.94 2235.36 2048.57 2241.43M2024.29 1741.43L2025.71 1745.71M2031.43 1745.71L2031.43 1750M2027.14 1751.43L2031.43 1760M1808.57 1780C1807.49 1774.86 1809.26 1773.69 1814.29 1772.86M1802.86 1778.57L1805.71 1777.14M1804.29 1781.43L1801.43 1784.29M1792.86 1785.71L1797.14 1790M2077.14 2235.71C2071.39 2232.96 2068.63 2234.03 2064.29 2238.57L2065.71 2240L2067.14 2241.43L2080 2234.29L2075.71 2230C2099.26 2214.43 2141.66 2195.53 2141.1 2161.37C2140.84 2145.54 2126.51 2135.56 2122.71 2120C2116.2 2093.3 2116.64 2065.4 2110.5 2038.57C2106.2 2019.83 2095.09 2003.93 2090.97 1985.71C2086.49 1965.89 2090.91 1942.07 2096.33 1922.86C2106.41 1887.06 2123.89 1850.74 2148.81 1822.86C2158.77 1811.73 2173.94 1798.17 2190 1798.76C2205.66 1799.33 2223.86 1815.64 2228.5 1830C2237.56 1858.04 2231.83 1894.19 2227.97 1922.86C2223.3 1957.5 2214.36 1993.76 2212.86 2028.57L2211.43 2030L2207.14 2025.71L2205.71 2027.14L2210 2038.57L2211.43 2037.14L2211.43 2034.29L2211.43 2032.86L2211.43 2031.43L2211.43 2030M2138.57 2147.14C2141.56 2139.8 2139.37 2132 2138.5 2124.29C2136.34 2105.09 2132.24 2086.16 2128.93 2067.14C2125.57 2047.89 2119.49 2028.16 2118.63 2008.57C2117.59 1984.57 2124.7 1957.94 2128.69 1934.29C2133.99 1902.89 2140.57 1869.11 2164.41 1845.96C2172.86 1837.76 2191.74 1819.8 2201.3 1835.74C2211.44 1852.66 2209.79 1880.97 2210 1900C2210.5 1942.06 2207.26 1983.83 2207.14 2025.71M1988.57 1892.21C2013.91 1889.14 1992.24 1937.6 1980 1939.74C1972.43 1941.09 1970.74 1927.87 1970.24 1922.86C1968.74 1907.89 1971.89 1894.24 1988.57 1892.21M1978.57 1894.29C1984.89 1904.16 1973.01 1924.29 1987.14 1928.57M1984.29 1895.71L1982.86 1897.14M1987.14 1931.43L1984.29 1928.57L1991.43 1924.29M1984.29 1931.43L1985.71 1932.86M2048.57 1984.29C2048.71 2035.09 2069.01 2087.06 2076.76 2137.14C2078.17 2146.31 2080.04 2156.43 2079.81 2165.71C2079.57 2175.56 2075.27 2184.2 2081.43 2192.86M2009.91 2002.4C2019.64 2001.61 2012.49 2013.83 2009.7 2017.14C2000.94 2027.54 1981.11 2047.31 1965.8 2045.86C1955.73 2044.89 1965.79 2031.94 1968.84 2028.7C1977.9 2019.06 1996.01 2003.53 2009.91 2002.4M2204.29 2037.14L2204.29 2045.71L2208.57 2045.71C2207.8 2056.4 2203.21 2067.83 2201.14 2078.57C2195.34 2108.64 2189.07 2138.59 2182.86 2168.57C2167.9 2240.86 2155.79 2316.67 2133.79 2387.14C2124.94 2415.5 2110.99 2440.34 2090 2461.43C2082.9 2468.57 2069.59 2479.09 2074.29 2490L2101.43 2467.81L2113.4 2464.47L2112.8 2481.43L2101.73 2532.86L2064.81 2685.71L2047.14 2745.71L2045.71 2747.14L2041.43 2742.86C2001.54 2782.74 1956.51 2818.51 1911.43 2852.33C1892.23 2866.73 1861.3 2880.93 1847.14 2900L1847.14 2901.43C1850.87 2900.7 1851.19 2900.66 1850 2897.14M2210 2038.57L2210 2044.29M2202.86 2047.14L2205.71 2055.71M1928.57 2077.14C1931.14 2087.7 1922.3 2097.41 1916.66 2105.71C1901.06 2128.61 1879.56 2158.84 1854.29 2171.43C1852.46 2161.64 1861.47 2152.07 1866.67 2144.29C1881.11 2122.61 1903.5 2086.86 1928.57 2077.14M2142.86 2168.57C2146.01 2185.59 2150.19 2214.94 2143.01 2231.29C2140.74 2236.44 2134.47 2235.56 2131.69 2240.21C2128.43 2245.66 2131.2 2259.97 2121.39 2259.67C2101.09 2259.09 2115.83 2219.06 2090 2229.83C2087 2231.07 2084.23 2232.66 2081.43 2234.29M2075.71 2190L2075.71 2194.29M1807.14 2207.14L1811.43 2210M1807.14 2207.14L1802.86 2211.43M1805.71 2208.57L1808.57 2211.43M1928.57 2334.29L1950 2320C1944.4 2309.17 1962.69 2298.29 1970 2291.67C1995.34 2268.79 2024.71 2237.61 2055.71 2222.86M2050 2225.71L2054.29 2230M2072.86 2234.29L2075.71 2230M2070 2235.71L2070 2237.14M2072.86 2235.71L2074.29 2237.14M2064.29 2241.43L2060 2245.71L2058.57 2244.29L2064.29 2238.57M2051.43 2242.86L2045.71 2248.57L2048.57 2241.43M2052.86 2245.71L2057.14 2244.29M2045.71 2248.57L2014.29 2274.14L1951.43 2320M1942.86 2321.43L1945.71 2318.57M1945.71 2318.57L1948.57 2318.57M1917.14 2335.71L1912.86 2342.86M1907.14 2341.43L1912.86 2338.57M2108.57 2438.57L2105.71 2435.71L2111.43 2432.86M2107.14 2437.14L2104.29 2440M2074.29 2490C2060.84 2502.27 2043.51 2502.76 2030 2512.71C2027.84 2514.31 2016.77 2525.34 2015.13 2518.27C2013.47 2511.09 2028.47 2500.06 2032.86 2495.71C2047.36 2481.39 2063.74 2468.86 2080 2456.61C2087.73 2450.79 2095.03 2443.13 2104.29 2440M1794.29 2454.29L1794.29 2458.57L1800 2455.71M1792.86 2460C1787.31 2467.9 1779.14 2474.07 1778.07 2484.29C1775.96 2504.43 1782.8 2531.06 1785.31 2551.43C1789.9 2588.8 1788 2635.01 1802.86 2670C1859.31 2645.67 1906.97 2595.14 1954.29 2557.14C1966.27 2547.51 1994.5 2517.09 2010 2527.14L2011.43 2525.71L2012.86 2524.29L2014.29 2522.86L2015.71 2521.43M2091.43 2475.71L2095.71 2480L2087.14 2482.86M2090 2478.57L2092.86 2481.43M2095.71 2480L2111.43 2481.43M1777.14 2490C1767.66 2504.37 1771.61 2526.59 1772.73 2542.86C1774.99 2575.74 1776.47 2608.59 1779.76 2641.43C1781.07 2654.51 1780.54 2669.19 1785.71 2681.43C1793.19 2679.3 1800.43 2678.19 1802.86 2670M2014.29 2520L2003.91 2535.11L1934.29 2597.39L1841.43 2678.57C1834.79 2658.37 1818.11 2672.76 1802.86 2674.29M2010 2527.14L2007.14 2530M1811.43 2668.57L1811.43 2670M1808.57 2670L1808.57 2671.43M1840 2678.57C1827.09 2692.6 1811.94 2706.91 1806.34 2725.71C1800.27 2746.07 1805.96 2769.76 1810 2790C1817.99 2829.93 1825.9 2866.83 1841.43 2904.29L1842.86 2904.29L1847.14 2901.43M1840 2905.71C1819.7 2905.39 1816.76 2867.91 1813.36 2852.86C1804.74 2814.79 1788.11 2763.3 1796.46 2724.29C1799.97 2707.83 1816.5 2683.4 1834.29 2681.43M2041.43 2742.86L2047.14 2738.57M2045.71 2748.57L2032.86 2794.29L2031.43 2795.71L2030 2794.29C2023.96 2781.93 2015.2 2795.19 2008.57 2801.01C1991.33 2816.21 1973.66 2830.79 1955.71 2845.14C1927.44 2867.76 1900.17 2891.54 1872.86 2915.31C1855.57 2930.36 1839.37 2940.5 1834.71 2964.29C1831.9 2978.69 1841.51 2998.59 1844.29 3012.86L1845.71 3014.29L1850 3010L1851.43 3011.43C1852.26 3021.77 1857.83 3032.27 1851.43 3041.43L1854.29 3031.43M2031.43 2795.71C2025.9 2838.5 2012.21 2881.2 2001.26 2922.86C1986.61 2978.57 1974.04 3034.4 1948.57 3085.71L1952.86 3088.57L1954.29 3080M1851.43 2894.29L1854.29 2900M1855.71 2898.57C1859.77 2897.71 1865.83 2893.49 1870 2894.53C1874.57 2895.67 1871.47 2900.49 1870 2902.86C1864.96 2910.93 1855.96 2917.41 1858.57 2926.43C1859.01 2927.93 1853.41 2924.79 1855.71 2925.71M1841.43 2898.57L1847.14 2898.57M1852.86 2930L1855.71 2925.71M1838.57 2958.57C1846.1 2972.14 1848.77 2994.54 1850 3010M1845.71 3014.29L1845.71 3020L1847.14 3021.43L1848.57 3020L1851.43 3017.14M1847.14 3021.43L1847.14 3027.14L1848.57 3028.57L1850 3027.14L1852.86 3024.29M1848.57 3028.57L1848.57 3032.86M1857.14 3040L1852.86 3052.86L1854.29 3054.29L1858.57 3052.86L1858.57 3047.14M1851.43 3041.43L1852.86 3047.14M1854.29 3054.29L1860 3061.43L1860 3054.29M1855.71 3061.43C1861.34 3082.37 1866.57 3110.5 1876.51 3129.99C1880.23 3137.27 1892.59 3139.7 1894.7 3146.04C1896.67 3151.94 1890.57 3160.49 1888.4 3165.71C1884.33 3175.47 1882.7 3186.91 1885.71 3197.14C1893.73 3192.73 1890.71 3183.57 1892.39 3175.71C1895.74 3159.96 1918.94 3125.53 1937.14 3138.57L1938.57 3138.57L1952.86 3088.57M1861.43 3062.86L1860 3068.57M1948.57 3085.71C1930.67 3105.14 1910.59 3125.3 1885.71 3135.71M1937.14 3138.57C1937.14 3166.23 1927.14 3194.36 1917.41 3220C1912.16 3233.86 1903.21 3247.77 1902.86 3262.86M1885.71 3197.14C1887.89 3212.06 1895.69 3240.53 1904.29 3252.86M1891.43 3197.14L1890 3205.71M1901.43 3244.29L1905.71 3244.29"/>
</g>

</svg>