<!DOCTYPE svg PUBLIC "-//W3C//DTD SVG 20010904//EN" "http://www.w3.org/TR/2001/REC-SVG-20010904/DTD/svg10.dtd">
<svg version="1.0" xmlns="http://www.w3.org/2000/svg" width="298px" height="298px" viewBox="0 0 2980 2980" preserveAspectRatio="xMidYMid meet">
 <g id="layer101" fill="none" stroke-width="5" stroke="black">
  <path d="M1242.86 1157.14C1235.84 1194.93 1282.55 1203.68 1310 1215.71L1311.43 1217.14L1310 1218.57C1305.86 1219.97 1282.04 1221.73 1285.97 1229.45C1288.51 1234.46 1298.19 1234.22 1302.86 1234.28C1319.32 1234.48 1335.43 1233.22 1351.43 1229.1C1361.55 1226.5 1368.28 1216.82 1377.17 1214.76C1387.73 1212.32 1399.92 1218.6 1411.43 1216.48C1428.09 1213.41 1442.53 1203.33 1458.57 1198.21C1474.89 1193 1493.14 1192.89 1510 1190.11C1523.2 1187.95 1537.67 1186.76 1549.94 1181.08C1553.53 1179.41 1560.56 1172.19 1564.7 1175.78C1567.76 1178.42 1563.73 1185.52 1562.86 1188.57L1564.29 1190C1583.61 1179.18 1592.3 1195.66 1610 1198.97C1619.77 1200.8 1629.84 1195.52 1638.57 1191.83C1641.83 1190.46 1648.46 1186.67 1651.97 1188.87C1663.61 1196.2 1635.3 1214.84 1631.43 1217.68C1611.44 1232.37 1593.63 1249.62 1574.29 1265.07C1566.39 1271.38 1553.21 1276.38 1546.77 1283.66C1541.2 1289.94 1547.21 1299.51 1552.89 1303.23C1563.26 1310.02 1579.11 1305.66 1590 1302.44C1636.83 1288.59 1644.2 1250.45 1661.26 1211.43C1665.93 1200.73 1674.91 1193.08 1677.6 1181.43C1681 1166.7 1675.67 1146.21 1683.11 1132.94C1687.74 1124.68 1696.81 1128.6 1704.29 1126.69C1711.33 1124.9 1717.66 1119.48 1722.44 1114.23C1740.6 1094.32 1741.71 1074.56 1751.06 1051.46C1753.07 1046.49 1758.84 1042.62 1763.69 1046.58C1768.14 1050.22 1768.61 1057.59 1769.39 1062.86C1771.56 1077.49 1772.79 1092.36 1772.86 1107.14C1773.09 1154.79 1778.81 1207.75 1765.29 1254.29C1762.8 1262.84 1756.76 1269.03 1753.36 1277.14C1750.24 1284.58 1750.44 1292.95 1746.27 1300C1730.93 1325.9 1701.17 1350.12 1675.71 1365.62C1669.37 1369.48 1661.81 1370.63 1655.71 1374.77C1639.94 1385.47 1633.21 1405 1617.14 1415.56C1605.21 1423.4 1589 1423.18 1575.71 1428.3C1532.77 1444.87 1496.51 1458.37 1450 1461.56C1418.43 1463.71 1385.06 1463.79 1354.29 1455.1C1345.32 1452.57 1328.41 1448.3 1324.54 1438.6C1320.59 1428.7 1342.57 1437.54 1345.71 1438.57L1348.57 1435.71C1343.29 1429.1 1327.26 1414.53 1317.6 1417.05C1313.58 1418.09 1314.8 1424.07 1313.83 1427.08C1310.91 1436.21 1303.24 1436.86 1310.44 1447.14C1326.2 1469.67 1352 1487.61 1374.29 1503.26C1384.89 1510.7 1401.32 1518.06 1407.14 1530C1382.53 1537.27 1368.01 1520.2 1350 1507.39C1336.63 1497.87 1321.01 1490.66 1307.14 1481.14C1302.23 1477.76 1296.03 1475.2 1290 1474.96C1286.4 1474.83 1281.11 1477.23 1278.01 1474.6C1272.04 1469.54 1283.3 1457.16 1275.26 1453.79C1268.97 1451.14 1260.98 1460.46 1255.32 1456.01C1249.34 1451.31 1245.93 1440.24 1239.94 1434.41C1220.13 1415.1 1198.23 1398.23 1178.57 1378.57C1164.85 1364.85 1153.48 1347.65 1137.14 1336.84C1106.99 1316.9 1137.88 1388.32 1110 1364.02C1089.23 1345.92 1069.55 1324.2 1061.11 1297.14C1058.11 1287.55 1053.27 1274.09 1052.09 1264.41C1050.85 1254.16 1053.9 1248.49 1047.14 1238.57L1042.86 1241.43L1041.43 1240C1040.8 1231.19 1034.93 1222.75 1032.17 1214.29C1027.75 1200.72 1026.97 1186.38 1022.54 1172.86C1019.45 1163.43 1013.75 1155.57 1011.28 1145.71C1001.4 1106.37 988.71 1067.01 981.15 1027.14C974.54 992.3 973.46 956.6 961.3 922.86C953.58 901.44 937.43 882.72 928.36 861.43C897.64 789.32 869.8 707.22 864.41 628.57C861.09 579.97 874.04 535.41 884.78 488.57C901.62 415.19 917.47 337.68 960.07 274.16C965.36 266.26 973.24 260.74 979.22 253.46C1008.82 217.42 1039.38 184.06 1072.86 151.41C1114.5 110.79 1164.35 61.61 1218.57 38.39C1251.85 24.14 1290.61 27.61 1325.71 21.06C1341.35 18.14 1353.31 6.92 1368.57 4.71C1417.34 -2.33 1464.54 6.31 1511.43 18.04C1530.49 22.8 1554.69 26.75 1571.43 37.14C1564.57 43.71 1549.34 61.11 1538.57 58.64C1532.19 57.17 1527.79 44.65 1521.6 45.6C1518.34 46.11 1516.96 50.24 1516.01 52.86C1512.99 61.32 1511.14 70.52 1504.14 76.82C1499.1 81.34 1492.76 81.6 1490.61 74.26C1489.53 70.54 1489.69 66.61 1488.57 62.86C1481.29 66.52 1476.81 73.13 1468.57 75.47C1453.43 79.76 1439.33 77.17 1424.29 84.67C1420.28 86.67 1406 92.44 1407.03 98.25C1407.76 102.38 1416.96 101.87 1420 103.07C1426.12 105.48 1428.86 110.01 1431.43 115.71C1438 112.3 1441.83 94.58 1448.41 94.58C1457.5 94.58 1454.81 117.73 1465.74 116.24C1471.17 115.5 1476 108.05 1480 104.76C1487.49 98.58 1498.56 92.93 1508.54 93.07C1520.31 93.24 1511.19 117.77 1529.97 110.37C1547.84 103.33 1522.7 79.52 1535.93 73.72C1551.5 66.89 1570.17 83.97 1585.71 75.71L1575.04 55.71L1571.43 37.14M1452.86 7.14C1441.29 16 1425.43 16.57 1412.88 24.11C1403.09 30.01 1401.68 40.73 1390 46.23C1380.1 50.88 1359.18 53.71 1355.48 65.74C1351.08 80.02 1370.51 93.63 1365.71 110C1358.09 105.79 1361.18 95.4 1351.41 93.35C1326.21 88.06 1279.05 108.99 1267.03 131.45C1262.99 138.99 1266.38 147.6 1263.99 155.71C1257.57 177.47 1239.58 206.87 1220 218.94C1213.76 222.79 1200.91 220.78 1200.91 211.42C1200.91 200.88 1220.07 202.63 1218.68 193.05C1217.81 187.05 1206.98 188.45 1202.86 188.63C1188.65 189.25 1169.73 194.27 1158.6 203.41C1148.01 212.11 1155.66 220.98 1167.14 217.14M1577.14 37.14C1627.17 63.79 1684.03 77.55 1734.29 104.73C1795.04 137.59 1844.87 180.79 1892.87 230C1941.04 279.37 1985.89 336.18 2007.1 402.86C2034.57 489.2 2026.44 578.42 2035.96 667.14C2043.94 741.7 2068 813.95 2055.47 889.99C2053.27 903.29 2037.73 904.55 2032.83 915.74C2025.86 931.68 2038.03 951.02 2026.21 965.52C2015.37 978.82 2001.41 959.67 2001.43 948.57L2000 947.14L1998.57 948.57L1997.14 950L1998.57 954.29M1225.71 62.17C1232.95 61.76 1238.44 67.43 1232.4 73.72C1227.15 79.19 1217.25 81.04 1210 81.37C1179.77 82.74 1211.52 62.98 1225.71 62.17M1564.29 138.57L1562.86 140C1553.09 131.46 1549.97 112.23 1546.54 100C1545.34 95.72 1542.19 87.31 1547.6 84.48C1553.53 81.38 1558.73 90.04 1560.69 94.29C1567.34 108.75 1564.94 123.4 1564.29 138.57M1581.43 121.43C1578.2 99.17 1613.99 93.05 1630 92.86C1634.6 92.81 1649.87 91.76 1648.69 99.92C1647.87 105.54 1639.94 105.81 1635.71 105.47C1612.2 103.56 1600.59 107.65 1581.43 121.43M1581.43 114.29L1585.71 118.57M1124.29 132.86L1128.57 134.29L1128.57 135.71L1127.14 137.14C1114.51 129.74 1097.69 152.57 1088.57 160L1092.86 164.29L1077.14 172.86M1127.14 138.57L1094.29 164.29M1087.14 162.86L1087.14 165.71M1740 182.2C1760.57 177.36 1760.19 200.6 1774.31 204.97C1782.89 207.62 1788.69 193.48 1796.7 196.32C1801.09 197.87 1802.66 205.76 1807.17 208.44C1816.13 213.76 1837.74 207.83 1841.93 220.15C1847.49 236.46 1809.16 247.02 1798.57 249.39C1785.57 252.3 1767.11 252.12 1763.43 235.71C1761.79 228.44 1767.16 220.83 1762.21 214.44C1754.99 205.07 1740.4 205.73 1733.71 195.65C1729.51 189.31 1733.27 183.78 1740 182.2M1787.14 213.66C1801.34 210.19 1805.43 230.67 1791.43 233.81C1775.29 237.42 1769.93 217.86 1787.14 213.66M1160 221.43C1139.69 242.02 1103.24 252.39 1078.57 267.75C1062.58 277.71 1046.89 295.74 1030.03 303.07C1021.49 306.78 1011.94 288.15 1000.46 298C992.45 304.88 1006.14 316.52 1000 325.71L1001.43 327.14L1005.71 324.29M1182.86 287.14C1182.86 272.32 1182.22 257.34 1190.67 244.34C1193.45 240.07 1200.66 232.85 1206.28 237.19C1210.82 240.69 1206.78 248.89 1205.1 252.86C1199.31 266.55 1192.14 279.84 1182.86 291.43M1402.86 277.14C1395.14 264.47 1380.48 255.15 1365.79 265.33C1359.93 269.38 1358.43 276.42 1351.41 279.2C1346.24 281.23 1328.19 279.12 1326.21 284.68C1324.63 289.12 1334.51 295.62 1337.14 298.57C1356.2 288.53 1387.22 277.84 1408.57 276.1C1418.81 275.27 1429.51 277.43 1440 276.13C1449.6 274.95 1457.91 269.99 1467.14 267.81C1484.3 263.76 1502.57 262.55 1520 259.65C1540.03 256.31 1568.67 244.63 1588.57 251.58C1603.51 256.8 1608.3 276.32 1618.57 287.14L1620 285.71C1621.63 277.65 1644 262.48 1645.66 276.04C1647.24 288.92 1627.5 294.53 1635.71 310C1640.51 305.31 1641.8 290.38 1651.37 292.7C1655.94 293.81 1658.01 298.76 1659.03 302.86C1660.7 309.7 1659.94 316.44 1663.46 322.86C1670.17 335.14 1686.43 342.06 1695.71 328.57M1408.57 274.29C1411.9 270.99 1433.73 247.75 1437.66 256.23C1440.04 261.41 1434.83 270.23 1434.29 275.71M982.86 254.29C999.45 263.44 972.58 285.93 958.57 278.57M1474.29 614.29L1474.29 618.57L1472.86 618.57L1471.43 617.14L1471.43 615.71C1502.2 587.65 1552.27 572.87 1592.86 568.81C1623.44 565.75 1668.81 566.95 1692.39 543.62C1701.44 534.65 1697.39 525.42 1687.14 519.88C1679.21 515.59 1672.24 518.16 1664.29 516.01C1654.11 513.27 1639.47 498.85 1636.8 488.6C1635.09 482.04 1642.61 480.07 1645.73 475.56C1650.07 469.26 1650.94 460.22 1649.31 452.86C1647.5 444.77 1641.29 445.79 1635.99 441.05C1629.71 435.45 1626.03 426.18 1622.87 418.57C1613.56 396.11 1615.76 371.88 1607.89 350.01C1605.3 342.83 1598.46 339.95 1593.94 334.22C1586.11 324.29 1583.11 311.73 1572.84 303.61C1561.33 294.53 1547.76 298.11 1535.71 291.43C1539.14 284.62 1538.41 262.86 1548.6 263.63C1561.39 264.6 1578.51 284.34 1587.14 292.86C1606.51 312 1622.74 331.99 1633.69 357.14C1643.47 379.66 1648.43 407.47 1663.61 427.14C1669.19 434.37 1676.49 440.77 1685.71 442.39C1691.07 443.33 1697.7 441.53 1702.59 444.33C1713.49 450.55 1719.54 473.22 1724 484.29C1731.4 502.63 1738.6 520.89 1747.5 538.57C1749.93 543.41 1758 552.62 1757.11 558.12C1756.06 564.61 1731.1 557.09 1725.71 558.57L1735.71 577.14L1734.29 578.57C1708.46 568.68 1672.64 564.68 1645.71 572.86L1644.29 574.29L1645.71 575.71C1684.36 587.93 1727.17 584.51 1759.94 612.75C1765.19 617.26 1791.51 642.8 1780.96 649.95C1770.59 656.99 1755.1 640.92 1748.33 635.25C1736.46 625.31 1718.09 619.92 1702.86 618.57C1698.76 618.21 1692.8 616.37 1689.09 618.85C1685.77 621.06 1685.16 628.04 1682.86 631.43C1686.1 634.12 1693.99 638.03 1693.99 642.86C1693.99 654.41 1659.91 660.55 1651.43 662.68C1623.26 669.75 1592.6 671.72 1565.71 682.87C1546.64 690.78 1532.56 705.51 1514.29 713.84C1509.49 716.03 1503.94 718.35 1498.57 718.29C1494.19 718.24 1488.79 714.83 1484.63 717.24C1479.41 720.28 1482.79 729.72 1483.81 734.29C1486.63 746.87 1494.31 772.25 1508.57 776.2C1520.46 779.5 1527.84 763.44 1540 765.71L1560 749.46L1580 731.43L1575.71 725.71C1582.8 723.81 1606.1 712.72 1611.97 718.13C1621.19 726.63 1598.06 723.6 1594.29 721.43M1458.57 271.43C1480.23 282.98 1508.67 268.24 1530 285.71L1525.71 290L1527.14 291.43L1531.43 292.86L1532.86 291.43L1534.29 290L1531.43 285.71M1408.57 278.57L1411.43 278.57M1525.71 290C1494.69 282.82 1463.19 283.04 1431.43 285.59C1424.97 286.11 1403.14 285.66 1400.49 293.17C1397.19 302.54 1422.39 296 1425.71 295.71L1427.14 297.14C1415.1 312.22 1386.18 321.73 1367.14 317.4C1357.75 315.26 1351.57 307.63 1341.43 307.33C1337.46 307.21 1313.7 310.2 1316.21 316.7C1317.76 320.72 1326.41 322.61 1330 324.29L1330 325.71L1330 327.14C1315.68 331.99 1300.52 329.11 1285.71 330.13C1267.42 331.38 1248.27 335.92 1231.43 343.07C1220.42 347.75 1202.9 357.31 1191.43 351.43C1211.7 334.19 1236.6 326.23 1260 314.76C1265.93 311.85 1282.83 310.21 1279.11 300.06C1274.76 288.22 1262.82 300.44 1256.73 295.54C1251.59 291.41 1262.86 284.76 1265.72 283.73C1283.9 277.21 1286 291.29 1298.58 299.21C1308.71 305.59 1325.87 303.17 1335.71 297.14M1301.43 302.86L1281.43 308.57M1232.86 324.29C1232.92 306.18 1249.07 305.22 1262.86 312.86M980 494.29L975.71 507.14C984.7 505.64 983.53 476.11 978.32 469.16C972.64 461.6 959.35 478.94 951.64 477.04C945.51 475.53 948.25 467.98 950.31 464.29C956.82 452.58 970.06 446.41 975.71 434.29C960.66 431.15 940.22 444.37 925.71 448.57C924.75 438.32 936.68 429.91 941.6 421.43C947.82 410.73 947.29 397.39 953.45 387.3C957.11 381.32 964.83 380.72 968.12 374.26C970.83 368.93 969.02 362.16 973.48 357.6C979.86 351.06 994.06 361.98 997.89 353.83C1003.18 342.55 983.09 335.84 984.34 326.17C985.04 320.71 996.83 325.25 1000 325.71M1220 331.43L1218.57 328.57L1224.29 327.14M975.71 507.14C964.8 522.61 954.09 550.78 959.03 569.99C961.26 578.69 968.75 574.34 972.81 579.45C977.95 585.91 969.43 601.69 965.71 607.14L964.29 607.14C953.16 590.21 942.98 610.55 934.29 620L932.86 620C928.17 610.26 930.16 598.76 936.84 590.24C941.29 584.57 949.46 579.63 949.48 571.51C949.51 561.98 937 570.19 934.74 562.64C931.39 551.44 941.26 539.7 938.11 528.79C935.65 520.26 925.77 532.1 922.29 525.24C919.48 519.68 930.92 488.69 914.35 501.76C912.94 502.87 911.68 504.34 910.56 505.74C908.87 507.87 907.45 510.24 906.65 512.86C900.7 532.14 927.92 551.12 917.14 571.43C903.34 563.17 893.38 578.89 886.97 590C884.77 593.8 880.29 600.6 882.35 605.2C884.65 610.33 892.85 603.4 894.55 609.05C896.44 615.34 887.27 628.08 885.24 634.29C880.09 650.08 879.48 665.12 882.06 681.43C884.93 699.65 891.21 719.5 900.04 735.71C903.8 742.62 912.61 748.85 915.01 755.84C917.43 762.88 913.06 774.66 914.29 782.86C916.42 797.03 924.2 811.17 929.79 824.29C935.5 837.71 941.07 852.3 951.49 862.83C961.17 872.62 975.52 869.54 975.71 885.71C996.27 879.94 998.58 854.84 996.9 837.14C991.75 783.03 987.14 730.16 987.14 675.71C987.14 647 991.46 620.74 996.66 592.86C1002.29 562.63 1006.26 528.91 1021.83 501.49C1031.58 484.31 1054.46 475.79 1064.16 458.57C1067.32 452.97 1062.54 447.33 1065.56 442.03C1070.92 432.66 1082.22 426.93 1087.31 417.14C1090.35 411.31 1087.88 402.79 1092.49 397.66C1096.51 393.18 1103.39 397.6 1108.27 393.64C1113.29 389.58 1116.36 383.45 1121.43 379.23C1145.7 359.07 1186.93 333.31 1218.57 328.57M1697.14 332.86C1692.53 347.45 1694.5 362.65 1698.57 377.14L1700 378.57C1705.03 372.63 1706.91 359.85 1717.14 362.42C1743.66 369.09 1729.1 395.23 1737.66 410C1744.13 421.2 1756.33 427.58 1765.71 435.96C1777.8 446.76 1787.89 460.23 1795.9 474.29C1810.41 499.75 1820.77 526.04 1838.4 550C1853.8 570.91 1878.44 591.26 1889.96 614.29C1894.66 623.67 1893.34 638.25 1894.69 648.57C1898.31 676.39 1900.19 706.65 1910.86 732.86C1917.39 748.87 1937.81 765.61 1955.51 753.07C1961.17 749.05 1962.26 740.11 1965.54 734.29C1971.34 723.98 1979.7 715.17 1988.57 707.41C1996.39 700.57 2006.91 701.32 2014.13 695.26C2019.66 690.62 2020.81 683.13 2024.29 677.14C2029.44 681.58 2031.26 693.56 2038.57 691.43M1090 415.71C1095.81 413.51 1101.03 408.69 1107.14 407.47C1110.58 406.78 1114.8 408.75 1117.72 406.2C1120.91 403.42 1121.17 398.33 1124.5 395.24C1141.15 379.77 1168.93 356.59 1191.43 351.43M1185.71 352.86L1191.43 354.29M1190 357.14C1186.11 376.01 1155.93 379.5 1141.43 387.14M1705.71 375.71L1701.43 382.86L1702.86 384.29L1704.29 385.71L1705.71 385.71L1707.14 381.43M1700 380L1701.43 381.43M1144.29 381.43L1144.29 382.86M1110 405.71L1120 398.57M1072.86 418.57C1066.11 425.7 1065.23 434.14 1059.63 441.43C1046.58 458.4 1024.77 470.9 1024.29 494.29M1062.86 435.71L1040 458.57C1023.95 438.58 1047.48 428.1 1065.71 425.71M1027.14 435.71L1032.86 438.57M1032.86 455.71L1034.29 461.43L1038.57 457.14M1040 458.57L1037.14 460M1034.29 461.43L1034.29 464.29M1010 521.43C1010.14 503.99 1008.6 468.65 1031.43 468.57M1032.86 495.71C1045.42 495.49 1026.94 529.91 1025.22 537.14C1017.07 571.55 1011.6 608.95 1010.06 644.29C1009.51 656.8 1016.51 680.34 1010 690L1011.43 691.43L1012.86 692.86L1015.71 688.57M1600 580C1587.73 581.81 1575.31 586.39 1565.71 594.29C1572.94 601.36 1597.71 623.07 1603.46 602.84C1605.44 595.85 1597.87 583.68 1603.56 578.36C1612.04 570.42 1633.64 574.29 1644.29 574.29M1682.86 631.43C1675.24 631.43 1665.9 632.89 1658.57 630.63C1646.07 626.78 1636.94 616.5 1622.86 618.89C1614.09 620.38 1607.49 628.09 1600 632.38C1584.9 641.03 1564.76 647.56 1547.14 646.61C1540.19 646.23 1531.24 644.67 1526.1 639.6C1522.69 636.23 1521.6 629.9 1516.84 628.03C1513.67 626.79 1500.4 632.98 1501.31 626.97C1504.49 606.34 1538.21 607.35 1551.43 603.65C1557.47 601.96 1560.59 597.24 1565.71 594.29M1561.43 601.43C1561 620.17 1537.49 618.24 1524.29 618.57M1542.86 607.14L1531.43 615.71M1477.14 617.14L1487.14 614.29L1488.57 615.71C1477.9 632.33 1460.67 621.06 1445.71 624.29C1447.96 628.72 1455.41 633.37 1455.41 638.44C1455.41 643.85 1446.84 646.66 1442.86 648.28C1433.01 652.26 1414.58 656.17 1412.18 668.57C1409.73 681.22 1423.45 698.45 1427.57 710C1435.33 731.73 1438.3 755.7 1439.87 778.57C1440.84 792.61 1439.59 812.19 1448.14 824.22C1461.6 843.15 1485.7 817.02 1492.39 804.29C1494.86 799.59 1494.93 790.86 1501.51 790.62C1532.37 789.51 1560.23 809.24 1589.87 811.65C1594.29 812.01 1598.2 808.6 1602.86 808.73C1638.14 809.7 1675.73 813.19 1708.57 796.76C1723.83 789.12 1731.81 773.66 1747.14 766.1C1757.37 761.07 1768.94 763.71 1778.57 758.57C1770.41 747.96 1745.59 737.9 1741.93 725.53C1740.24 719.85 1750.6 716.48 1754.29 714.64C1767.11 708.22 1780.97 699.93 1795.71 704.29L1772.86 730C1783.1 733.03 1793.37 731.27 1802.86 737.5C1828.53 754.34 1845.37 790.28 1849.59 820C1852.49 840.36 1850.4 860.12 1856.79 880C1861.91 896.01 1871.09 909.28 1878.2 924.29C1880.86 929.9 1883.3 937.13 1878.11 942.14C1873.64 946.49 1857.74 953.38 1852.49 947.82C1848.36 943.46 1850.09 935.27 1847.01 930.02C1839.27 916.77 1815.34 908.85 1801.49 916.36C1790.06 922.57 1793.31 934.7 1788.31 944.26C1785.29 950.06 1778.41 951.56 1775.26 957.23C1768.34 969.67 1768.4 990.59 1770.63 1004.29C1771.51 1009.77 1773.04 1015.02 1778.63 1017.29C1785.2 1019.97 1793.26 1018.27 1800 1017.33C1816.41 1015.05 1842.04 1014.92 1853.73 1001.28C1862.2 991.37 1856.49 976.87 1864.89 967.45C1869.5 962.28 1881.64 958.2 1884.73 967.3C1886.8 973.42 1883.21 980.63 1885.21 987.14C1887.73 995.31 1894.13 1001.56 1896.44 1010C1907.69 1051.05 1908.1 1107.57 1896.53 1148.57C1889.14 1174.75 1871.41 1195.19 1858.37 1218.57C1850.2 1233.22 1847.11 1249.51 1839.01 1264.29C1826.24 1287.55 1811.79 1310.2 1795.86 1331.43C1792.44 1335.99 1783.23 1351.48 1776.17 1349.34C1767.9 1346.84 1778.83 1321.14 1780.19 1315.71C1789.09 1280.14 1797.46 1244.25 1805.71 1208.57L1804.29 1207.14C1780.1 1215.36 1782.29 1242.95 1777.29 1262.86C1771.24 1286.92 1758.74 1308.64 1744.27 1328.57C1701.07 1388.07 1632.24 1447.46 1560 1467.5C1533.17 1474.96 1503.39 1475.71 1475.71 1475.71C1448.91 1475.71 1422.43 1477.41 1395.71 1478.63C1390.68 1478.86 1370.49 1478.77 1372.5 1487.2C1375.45 1499.54 1401.04 1505.81 1411.43 1508.77C1451.49 1520.17 1499.83 1531.79 1541.43 1525.09C1558.34 1522.37 1594.39 1516.67 1585.71 1494.29C1606.47 1489.79 1609.63 1504.89 1607.33 1521.43C1604.1 1544.59 1598.54 1566.5 1575.71 1577.44C1529.77 1599.49 1459.34 1579.5 1412.86 1566.93C1399 1563.19 1382.86 1553.71 1368.6 1553.2C1352.65 1552.63 1372.02 1574.51 1362.4 1579.13C1354.97 1582.7 1344.03 1576.54 1335.71 1578.66C1323.79 1581.69 1322.33 1595.57 1312.67 1598.86C1303.13 1602.1 1289.13 1586.66 1280 1584.29L1278.57 1585.71L1280 1587.14L1281.43 1585.71L1282.86 1584.29L1277.14 1580L1275.71 1581.43L1275.71 1582.86L1275.71 1584.29L1277.14 1585.71M1497.14 632.86L1490 631.43L1498.57 631.43M1655.71 631.43C1643.27 638.33 1626.51 640.08 1612.86 644.32C1586.66 652.46 1560.46 662.09 1535.71 673.98C1527.71 677.82 1519.44 682.42 1513.1 688.68C1509.19 692.55 1503.77 700.37 1497.36 699.56C1485.6 698.06 1500.01 672.16 1496.86 666.17C1493.16 659.15 1481.69 667.45 1475.8 665.01C1460.39 658.62 1482.79 637.65 1490 634.29M1072.86 855.71C1065.71 856.14 1051.97 859.1 1046.04 854.65C1039.96 850.09 1041.43 840.93 1041.43 834.29C1041.43 815.57 1040.23 792.55 1050.12 775.72C1056.8 764.37 1072.92 760.13 1068.57 744.29L1051.43 758.57C1049.24 748.35 1055.72 739.18 1061.84 731.43C1076.18 713.25 1095.53 699.23 1115.71 688.13C1148.48 670.13 1185.06 660.15 1221.43 653.14C1236.21 650.29 1251.91 644.52 1267.14 647.63C1272.67 648.77 1276.27 653.05 1281.43 654.86C1287.95 657.15 1299.93 650.57 1304.79 654.38C1309.06 657.73 1302.81 664.78 1307.62 668.94C1318.64 678.48 1331.28 674.93 1338.71 691.43C1350.43 717.46 1345.22 765.68 1330.91 789.99C1326.61 797.29 1318.6 800.38 1313.79 807.16C1308.26 814.97 1308.17 824.98 1302.1 832.86C1284.91 855.18 1254.07 871.67 1228.57 882.45C1204.95 892.44 1179.78 896.97 1155.71 905.05C1148.15 907.59 1134.75 912.01 1131.12 901.37C1124.57 882.13 1162.88 880.46 1172.86 877.78C1178.1 876.37 1185.86 882.26 1185.71 874.29C1192.45 871.78 1198.96 873.16 1205.71 871.35C1224.07 866.43 1244.08 856.97 1257.44 843.67C1262.85 838.29 1279.84 816.25 1261.37 813.47C1247.24 811.33 1258.97 833.26 1247.12 836.27C1233.62 839.7 1215.78 833.09 1201.43 834.53C1182.35 836.44 1164.68 847.16 1145.71 845.71L1144.29 847.14L1147.14 851.43L1134.29 854.29L1132.86 852.86L1142.86 847.14M1234.29 667.14C1227.95 667.78 1220.64 668.01 1217.18 674.37C1212.03 683.83 1219.84 693.4 1230 690.61C1246.59 686.04 1231.39 673.55 1238.15 667.18C1241 664.51 1249.14 664.67 1252.86 664.41C1266.46 663.48 1285.05 663.47 1297.08 670.76C1319.6 684.4 1287.24 690.76 1291.77 701.43C1297.23 714.3 1315.83 713.89 1323.49 725.74C1334.94 743.45 1334.84 780.47 1315.71 793.12C1300.51 803.18 1281.16 803.91 1265.71 812.86M1095.71 722.86C1088.99 723.79 1083.13 725.69 1080.94 732.86C1078.86 739.67 1082.72 751.12 1091.43 749.95C1112.1 747.19 1092.91 729.74 1098.21 722.43C1103.47 715.18 1120.88 707.27 1128.57 701.43C1134.83 711.37 1143.08 703.85 1152.76 706.17C1157.2 707.23 1158.67 711.86 1162.99 713.25C1176.16 717.49 1199.2 713.95 1210 705.71C1191.81 693.98 1190.47 673.63 1215.71 671.43M1160 707.14L1195.71 678.57M1642.86 688.57C1646.54 701.55 1623.76 718.77 1613.16 708.35C1605.23 700.56 1601.17 684.06 1615.71 681.87C1629.53 679.79 1652.81 685.03 1665.71 690.1C1677.93 694.9 1681.9 705.23 1667.14 709.3C1661.49 710.86 1655.6 711.16 1650 712.86L1670 721.84L1722.86 740M1574.29 725.71C1565 730.11 1555.46 734.07 1545.71 737.34C1543.34 738.13 1537.81 740.49 1535.96 737.58C1532.54 732.23 1545.5 721.66 1548.57 718.57C1562.3 704.77 1583.64 680.74 1605.71 684.29M974.29 974.29C981.44 961.09 980.42 945.75 989.7 932.86C992.21 929.37 997.35 922.27 1002.4 922.91C1008.15 923.64 998.68 958.96 1012.41 949.05C1017.17 945.62 1016.68 937.91 1016.08 932.86C1014.44 918.99 1011.11 905.4 1010.13 891.43C1006.3 836.85 1009.26 781.56 1004.04 727.14C1002.98 716.09 996.21 706.59 994.89 696.96C993.47 686.61 1003.75 685.58 1010 690M1130 700C1139.03 682.65 1144.36 693 1156.14 697.92C1160.92 699.92 1165.22 698.6 1170 701.43M2034.29 694.29L2038.57 701.43M1167.14 697.14L1172.86 695.71M1155.71 700L1155.71 702.86M1475.71 721.43C1474.47 724.03 1473.53 726.09 1471.21 727.99C1449.54 745.76 1454.84 694.82 1471.23 703.93C1477.36 707.34 1475.23 715.89 1480 720M1152.86 705.71L1155.71 708.57M1154.29 710L1155.71 711.43M1628.57 710L1648.57 714.29M1614.29 714.29L1614.29 715.71M1158.57 728.57C1181.22 720.91 1217.73 723.33 1241.43 726.12C1245.18 726.56 1269.28 726.91 1266.65 733.88C1264.13 740.54 1244.69 742.69 1238.57 743.98C1210.2 749.99 1182.19 756.19 1155.71 768.57L1154.29 767.14L1152.86 765.71C1161.7 754.11 1177.33 731.36 1150 732.86L1148.57 728.57L1158.57 730M1581.43 725.71L1581.43 728.57M1252.86 815.71L1230 818.57L1228.57 814.29C1231.86 812.82 1235.34 811.7 1238.57 810.12C1242.82 808.04 1254.56 799.07 1245.5 795.15C1234.41 790.37 1226.89 802.22 1218.57 788.57L1275.71 778.57L1275.71 777.14C1232.48 746.36 1176.47 770.63 1140 800.66C1124.25 813.63 1111.46 829.83 1092.86 839.13C1086.22 842.45 1077.46 846.15 1070.02 843.23C1061.97 840.06 1056.16 825.24 1061.68 817.66C1066.91 810.49 1082.04 829.19 1090 827.8C1105.55 825.1 1119.16 796.39 1122.86 782.86C1109.16 785.61 1102.16 798.32 1094.29 808.57L1092.86 808.57L1091.43 807.14C1088.85 774.42 1100.94 759.77 1128.57 742.86L1125.71 738.57L1127.14 737.14L1132.86 741.43L1135.71 740L1137.14 738.57L1132.86 734.29L1148.57 728.57M1138.57 738.57L1148.57 734.29M1580 734.29C1581.71 742.74 1588.14 748.33 1597.09 748.36C1602.51 748.37 1607.47 744.64 1612.86 743.71C1625.86 741.45 1639.7 740.63 1652.86 740.06C1669.33 739.33 1693.84 745.01 1708.57 737.14M1105.71 740C1112.25 735.69 1117.2 735.16 1124.29 738.57M1564.29 748.57C1580.73 766.43 1614.41 762.06 1634.29 774.29L1628.57 777.14C1632.24 785.37 1640.77 783.15 1648.57 782.8C1666 782.01 1686.4 783.16 1701.43 772.98C1705.93 769.93 1717.96 761.33 1716.07 754.74C1712.6 742.65 1691.1 766.42 1687.17 766.27C1679.46 765.97 1671.74 754.11 1662.86 752.17C1644.49 748.15 1618.94 757.16 1602.86 748.57M1560 751.43L1565.71 751.43M1562.86 754.29C1566.33 771.49 1554.44 764.29 1541.43 764.29M1468.63 762.7C1481.73 759.52 1484.13 787.74 1471.41 790.24C1458.13 792.85 1456.5 765.65 1468.63 762.7M1540 765.71C1543 776.07 1554.8 777.56 1564.29 778.64C1585.46 781.05 1606.01 778.59 1627.14 778.57M1124.29 781.43L1152.86 767.14M1668.57 808.57C1675.77 814.07 1682.94 812.23 1691.43 810.48C1707.97 807.07 1730.6 804.01 1744.13 793.16C1754.99 784.46 1755.74 764.76 1775.71 773.79C1777.69 774.68 1779.73 775.87 1781.21 777.47C1795.7 793.13 1763.96 787.62 1768.7 798.6C1775.7 814.84 1797.6 821.62 1804.96 838.57C1810.1 850.44 1803.53 861.72 1799.56 872.86C1796.36 881.86 1794.63 891.88 1789.44 900C1777.66 918.48 1758.9 930.54 1744.91 947.14C1738.5 954.76 1734.49 961.51 1733.04 971.43C1732.49 975.31 1732.6 983.44 1728.13 985.18C1721.99 987.58 1711.59 976.37 1707.14 973.04C1691.61 961.41 1675.19 950.88 1658.57 940.86C1651.3 936.47 1645.2 930.75 1637.14 935.71L1658.57 958.57C1641.73 960.5 1625.63 935.54 1614.29 925.71M1521.43 777.14C1554.17 786.43 1582.11 786.41 1615.71 785.71L1617.14 784.29L1612.86 780M1511.43 780L1528.57 791.43M1117.14 784.29L1121.43 788.57M1618.57 785.71L1630 784.29M1098.57 864.29L1100 868.57L1101.43 868.57L1102.86 867.14L1098.57 862.86C1109.55 851.91 1121.26 841.63 1132.86 831.36C1138.29 826.54 1142.65 821.44 1150 824.29C1159.81 802.93 1196.33 789.53 1218.57 788.57M1997.14 951.43C1975.19 920.58 1965.27 872.78 1973.16 835.71C1976.83 818.42 1989.09 795.77 2010 797.46C2033.67 799.38 2035.39 841.28 2057.14 851.43M1585.71 810L1592.86 807.14M1677.14 807.14L1681.43 811.43M1168.57 841.43L1165.71 835.71L1198.57 822.21L1228.57 814.29M1594.29 814.29C1621.44 817.79 1644.21 817.73 1671.43 814.29M1167.14 832.86C1169.5 812.74 1178.89 817.92 1194.29 820M1222.86 817.14L1228.57 820M1145.71 821.43L1151.43 818.57M1150 824.29C1152.23 831.36 1157.72 831.88 1164.29 830M1164.29 832.86L1164.29 834.29M1165.71 842.86L1164.29 837.14M1160 842.86L1161.43 838.57M1157.14 844.29L1158.57 840M1152.86 844.29L1155.71 841.43M1252.86 848.57C1265.75 852.39 1276.75 837.33 1290 844.29M2024.29 845.37C2030.91 843.12 2035.87 848.48 2037.81 854.29C2041.19 864.42 2044.41 894.4 2031.37 899.12C2022.17 902.44 2004.36 890.17 2002.06 881.42C1998.94 869.6 2013.39 849.07 2024.29 845.37M1150 848.57L1148.57 851.43M1142.86 850L1142.86 851.43M1140 851.43L1140 852.86M1104.29 867.14L1132.86 852.86M1137.14 852.86L1124.08 870.01L1115.71 890C1103.73 884.24 1095.49 891.92 1085.71 898.57C1083.8 891.58 1090.22 881.98 1086.97 876.17C1084.12 871.07 1075.95 873.3 1071.43 873.88C1056.9 875.77 1040.78 876.19 1027.14 881.43M1067.14 858.57L1044.29 875.71M1502.86 862.27C1522.44 857.16 1519.7 883.24 1504.29 887.62C1486.54 892.65 1487.69 866.23 1502.86 862.27M1040 877.14L1042.86 872.86M1200 872.86L1192.86 877.14L1192.86 874.29M1178.57 877.14L1185.71 874.29M1171.43 878.57L1180 878.57M1187.14 878.57L1191.43 878.57M1152.86 882.86C1151.09 894.67 1152.68 895.43 1162.86 901.43M1158.57 882.86L1155.71 885.71M1335.71 988.57L1330 990C1331.72 996.82 1329.82 1001.59 1325.71 1007.14C1314.98 994.08 1338.67 987.66 1350 986.38C1359.66 985.29 1368.21 991.28 1377.14 993.55C1393.7 997.75 1415.48 995.24 1430 985.76C1440.4 978.96 1440.64 967.27 1446.16 957.14C1455.36 940.26 1471.44 920.4 1490 913.53C1513.37 904.88 1513.56 947.16 1535.71 940.49C1558.69 933.57 1540.01 886.24 1565.71 893.89C1568.69 894.77 1571.46 895.89 1574.29 897.14L1571.43 901.43L1572.86 902.86L1574.29 902.86L1575.71 902.86L1577.14 898.57L1578.57 898.57L1580 898.57L1581.43 900L1578.57 904.29L1580 905.71L1585.71 904.29L1587.14 902.86L1582.86 902.86M1575.71 897.14L1577.14 898.57M1582.86 900L1584.29 901.43M2055.71 900C2052.83 936.65 2053.43 981.4 2039.04 1015.71C2029.84 1037.66 2003.87 1054.8 1998.57 1077.14L1997.14 1078.57C1990.41 1075.87 1977.91 1080.14 1974.84 1087.19C1962.17 1116.22 1960.09 1148.49 1945.34 1177.14C1942.31 1183.04 1937.59 1188.23 1934.97 1194.29C1932.54 1199.91 1934.01 1204.91 1929.79 1210C1915.44 1227.21 1894.46 1239.05 1882.83 1258.57C1869.8 1280.44 1862.64 1308.3 1851.07 1331.43C1827.84 1377.9 1800.83 1421.62 1776.16 1467.14C1771.5 1475.73 1756.03 1513.79 1780 1495.16C1804.33 1476.24 1814.8 1442.66 1830.29 1417.14C1834.47 1410.26 1844.47 1391.76 1854.06 1392.28C1856.91 1392.44 1857.54 1394.87 1856.69 1397.23C1854.23 1403.99 1848.37 1408.28 1846.69 1415.71C1845.17 1422.38 1848.93 1429.34 1847.04 1435.63C1844.89 1442.81 1834.7 1443.66 1831.64 1451.43C1828.7 1458.9 1829.47 1467.89 1827.5 1475.71C1822.13 1497.07 1811.1 1520.84 1794.29 1535.53C1772.21 1554.79 1764.11 1506.14 1740.16 1525.01C1730.6 1532.54 1734.91 1546.86 1724.26 1555.11C1715.61 1561.81 1703.4 1561.39 1694.3 1568.06C1684.27 1575.41 1676.14 1585 1665.71 1592.23C1633.47 1614.6 1591.64 1633.73 1552.86 1640.77C1517.86 1647.11 1479.34 1642.31 1444.29 1638.81C1421.3 1636.51 1398.37 1633.77 1375.71 1629.14C1366.79 1627.31 1354.81 1625.61 1350 1617.14L1361.43 1617.14L1362.86 1615.71C1358.96 1599.06 1331.83 1600 1318.57 1600M1587.14 910L1590 904.29L1591.43 904.29L1592.86 905.71L1588.57 910L1597.14 918.57C1588.79 923.03 1573.87 923.22 1565.8 917.53C1556.39 910.9 1562.11 902.47 1571.43 901.43M1588.57 902.86L1590 904.29M1577.14 904.29L1578.57 904.29M1594.29 905.71L1634.29 927.14L1630 931.43L1631.43 932.86L1632.86 932.86L1634.29 934.29L1635.71 935.71M1584.29 907.14L1585.71 908.57M2000 947.14C2000 939.02 1997.89 911.23 2012.86 914.24C2019.49 915.58 2021.64 923.39 2028.57 922.86M2025.71 925.71L2028.57 931.43M1635.71 927.14L1641.43 931.43M1621.43 928.57L1625.71 930L1621.43 934.29M1627.14 930L1628.57 931.43M1590.86 933.11C1596.81 929.82 1603.13 945.61 1607.2 948.38C1619.27 956.58 1635.1 955.74 1645.39 967.28C1652.36 975.1 1652.7 988.1 1658.71 997.14C1661.77 1001.73 1681.76 1018.38 1674.83 1024.25C1671 1027.49 1662.93 1025.13 1658.57 1024.4C1644.81 1022.08 1633.24 1015.99 1627.01 1002.86C1623.6 995.65 1622.8 986.5 1617.64 980.21C1611.5 972.72 1602.49 970.39 1596.71 961.43C1593.74 956.82 1582.8 937.56 1590.86 933.11M1344.29 990C1353.04 994.86 1363.63 996.21 1372.86 1000.44C1385.75 1006.35 1403.6 1022.89 1418.57 1020.53C1432.64 1018.32 1446.79 1001.14 1454.14 990C1464.16 974.79 1463.93 944.37 1484.3 936.78C1497.47 931.87 1506.57 953.95 1520 954.62C1532.66 955.24 1554.49 933.42 1565.27 942.29C1570.91 946.94 1570.86 959.02 1571.81 965.71C1576.76 1000.41 1558.24 1026.24 1527.14 1041.43C1513.64 1048.02 1498.51 1044.99 1484.29 1044.34C1457.51 1043.13 1428.21 1039.2 1402.86 1030.19C1392.63 1026.56 1384.34 1019.63 1374.29 1015.81C1360.87 1010.71 1339.66 1015.46 1330 1004.29M2030 938.57L2004.29 961.43M2004.29 955.71L2007.14 955.71M1288.57 1207.14C1238.42 1224.6 1160.46 1178.8 1162.91 1122.86C1164.22 1093.13 1180.59 1076.58 1197.28 1054.29C1206.86 1041.49 1213.17 1027.85 1224.18 1015.71C1237.98 1000.5 1251.9 984.71 1268.57 972.51C1273.09 969.21 1283.26 961.2 1289.14 965.76C1292.76 968.57 1290.75 974.97 1289.77 978.57C1286.43 990.96 1278.93 1002.28 1271.9 1012.86C1251.44 1043.69 1224.95 1068.56 1209.8 1102.86C1205.32 1113 1197.59 1130.07 1200.46 1141.4C1203.76 1154.41 1221.36 1137.64 1227.14 1134.31C1248.82 1121.81 1264.73 1124.1 1277.14 1145.71M1676.64 968.67C1683.76 963.08 1702.21 979.07 1707.14 983.29C1727.03 1000.31 1740.71 1023.46 1732.8 1050C1730.84 1056.53 1727.43 1065.34 1721.3 1069.05C1716.2 1072.14 1713.14 1067.68 1713.07 1062.85C1712.76 1040.43 1714.66 1019.41 1699.24 1000.02C1695.06 994.76 1689.29 992.54 1684.43 988.18C1681.3 985.36 1671.33 972.84 1676.64 968.67M1007.3 983.09C1020.1 977.75 1032.03 1010.23 1017.12 1017.04C1002.14 1023.88 993.33 988.91 1007.3 983.09M2008.57 986.93C2017.63 984.48 2022.8 995.92 2024.14 1002.86C2026.89 1017.03 2023.37 1035.33 2007.14 1039.24C1980.74 1045.6 1990.23 991.9 2008.57 986.93M1328.57 990L1330 990M1181.43 1135.71C1181.43 1096.42 1205.3 1060.42 1226.67 1028.57C1234.29 1017.22 1243.66 1000.3 1257.14 995.71C1257.26 1014.3 1240.64 1034.99 1230.99 1050C1212.34 1079.01 1195.21 1109.88 1181.43 1141.43M1327.14 1007.14L1331.43 1010M1335.71 1012.86C1339.33 1020.21 1332.05 1032.17 1337.66 1037.84C1342.12 1042.34 1350.03 1041.21 1355.71 1042.75C1366.37 1045.65 1388.51 1061.93 1384.59 1075.5C1381.86 1084.92 1363.92 1075.81 1358.57 1073.83C1344.29 1068.55 1318.15 1063.52 1307.6 1052.3C1295.66 1039.59 1325.62 1022.46 1335.71 1021.43M1341.43 1017.14C1353.57 1025.79 1367.33 1031.6 1378.57 1041.68C1386.27 1048.59 1389.28 1058.17 1396.27 1065.16C1406.78 1075.65 1430.21 1077.98 1444.29 1077.02C1458.4 1076.05 1463.24 1065.8 1475.71 1063.52C1502.53 1058.62 1529.09 1061.63 1555.71 1053.66C1562.53 1051.62 1587.5 1035.57 1592.81 1042.3C1599.67 1050.99 1585.56 1064.99 1578.57 1067.88C1555.31 1077.52 1528.11 1069.7 1504.29 1080.45C1484.14 1089.53 1483 1112.12 1462.86 1118.53C1436.66 1126.87 1411.48 1118.97 1385.71 1123.52C1361.88 1127.73 1335.65 1148.73 1313.11 1129.24C1302.88 1120.4 1298.65 1105.86 1297.39 1092.86C1296.85 1087.31 1298.59 1073.47 1293.43 1069.76C1289.04 1066.6 1283.83 1074.46 1281.54 1077.15C1272.91 1087.33 1265.35 1098.82 1254.29 1085.71L1252.86 1085.71C1248.8 1099.97 1261.61 1103.13 1269.73 1111.58C1277.65 1119.82 1280.34 1132.05 1277.14 1142.86M1640 1044.29L1652.86 1047.14L1654.29 1048.57L1650 1052.86C1656.59 1058.92 1678.6 1082.11 1688.3 1078.23C1695.74 1075.25 1692.87 1067.32 1688.49 1063.33C1679.66 1055.29 1665.7 1051.21 1654.29 1048.57M1647.14 1048.57L1648.57 1052.86M1862.86 1105.71C1854.84 1122.92 1832.67 1136.62 1815.71 1143.87C1808.93 1146.78 1797.87 1151.44 1792.31 1143.96C1787.93 1138.06 1792.69 1127.49 1794.77 1121.43C1800.73 1104.21 1808.67 1087.22 1817.76 1071.43C1820.86 1066.03 1825.24 1056.86 1831.46 1054.54C1840.6 1051.13 1837.71 1066.24 1844.5 1066.78C1853.47 1067.49 1861.14 1051.96 1870.97 1058.61C1875.99 1062.01 1872.07 1067.8 1868.49 1070.43C1862.37 1074.9 1823.77 1091.62 1844.61 1104.25C1849.74 1107.36 1857.16 1104.27 1862.86 1105.71M1992.86 1075.71L1998.57 1072.86M1484.29 1124.29C1496.2 1122.3 1497.96 1107.6 1508.57 1103.73C1519.06 1099.92 1530.69 1101.8 1541.43 1098.52C1551.44 1095.46 1558.77 1087.86 1568.57 1084.6C1594.21 1076.09 1624.9 1075.52 1651.43 1078.98C1666.13 1080.91 1666.21 1086.03 1673.19 1096.99C1676.03 1101.48 1681.64 1103.95 1680.79 1110.02C1678.26 1127.84 1649.2 1157.78 1631.46 1160.58C1625.03 1161.6 1624.19 1156.3 1627.77 1152.05C1635.39 1143.04 1660.39 1126.08 1637.16 1116.05C1631.49 1113.61 1615.74 1122.64 1608.57 1123.67C1596.64 1125.39 1579.6 1122.29 1568.64 1126.77C1560.43 1130.14 1554.94 1142.31 1548.51 1148.32C1536.66 1159.41 1519.03 1164.65 1508.57 1175.71L1511.43 1178.57L1555.71 1174.29M1997.14 1078.57C1988.83 1109.01 1986.17 1140.49 1979.07 1171.43C1973.01 1197.82 1961.8 1225.58 1961.46 1252.86C1961.04 1285.91 1981.57 1319.3 1991.9 1350C2001.51 1378.56 2007.06 1409.5 2024.9 1434.29C2043.06 1459.53 2069.71 1479.3 2095.71 1495.79C2152.59 1531.86 2218.81 1556.3 2285.71 1565.31C2310.33 1568.63 2334.27 1563.14 2358.57 1566.13C2377.8 1568.49 2394.27 1578.11 2412.86 1582.51C2436.2 1588.04 2460.5 1588.24 2484.29 1589.87C2520.6 1592.36 2557.89 1590 2594.29 1590C2610.9 1590 2631.2 1588.14 2647.14 1592.86L2648.57 1594.29L2597.14 1610M1111.53 1107.27C1116.74 1104.81 1118.88 1110.12 1119.56 1114.29C1120.69 1121.15 1122.58 1144.43 1115 1148.32C1109.93 1150.92 1106.21 1141.84 1104.73 1138.57C1100.54 1129.3 1100.48 1112.48 1111.53 1107.27M1491.43 1125.71L1562.86 1127.14M1538.57 1128.57C1525.96 1139.04 1511.79 1149.64 1530 1162.86M1330 1198.57L1345.71 1180L1341.43 1175.71L1332.86 1178.57C1334.34 1168.96 1346.96 1155.75 1357.14 1154.88C1362.8 1154.39 1368.57 1157.6 1374.23 1156.56C1381.86 1155.16 1387.18 1148.67 1395.71 1147.56C1424.76 1143.77 1449.39 1148.15 1477.14 1137.34C1488.29 1133 1506.79 1131.8 1509.49 1147.14C1512.23 1162.77 1492.9 1168.38 1481.43 1171.63C1451.81 1180.02 1420.82 1182.54 1391.43 1191.92C1380.3 1195.47 1372.98 1203.34 1362.84 1207.29C1352.74 1211.23 1335.2 1208.57 1330 1198.57L1308.57 1214.29M1358.57 1151.43L1375.71 1137.14M1364.29 1145.71L1360 1141.43L1367.14 1140M1242.86 1158.57C1246.09 1162.94 1248.29 1174.31 1254.44 1174.95C1266.54 1176.22 1283.18 1156.1 1294.29 1151.25C1306.28 1146.02 1316.17 1149.31 1328.57 1148.44C1339.3 1147.7 1349.59 1143.81 1360 1141.43M1535.71 1162.86C1553.5 1162.08 1570.46 1155.63 1588.57 1157.39C1592.41 1157.76 1607.99 1159.35 1603.21 1166.57C1596.8 1176.27 1576.39 1170.78 1567.14 1175.71M1325.71 1197.14C1324.07 1194.1 1319.03 1191.36 1318.4 1188.14C1316.99 1180.91 1327.39 1174.72 1332.86 1172.86M1342.86 1175.71L1345.71 1178.57M1325.71 1175.71L1331.43 1180M1564.29 1182.86L1568.57 1187.14M1065.71 1240C1057.33 1231.79 1059.57 1212.45 1060.06 1201.43C1060.2 1198.21 1060.23 1189.24 1064.58 1188.46C1069.99 1187.5 1072.06 1197.91 1072.84 1201.43C1075.75 1214.69 1072.96 1228.56 1065.71 1240M1301.43 1211.43L1307.14 1208.57M1312.86 1218.57L1317.14 1218.57M1042.86 1235.71L1047.14 1237.14M1494.29 1245.71C1510.26 1226.06 1527.93 1243.41 1545.71 1245.44C1551.79 1246.14 1566.3 1240.58 1569.06 1248.78C1572.23 1258.22 1558.99 1260.29 1552.86 1259.59C1534.11 1257.45 1511.11 1254.55 1494.29 1245.71M1042.86 1241.43L1050 1261.43M1055.71 1261.43L1054.29 1267.14M1514.29 1317.75C1518.56 1317.19 1546.9 1318.62 1543.79 1326.7C1540.4 1335.54 1512.41 1338.59 1504.29 1339.59C1499.04 1340.24 1479.16 1344.59 1475.97 1339.2C1473.71 1335.38 1480.53 1331.5 1482.86 1329.8C1492.69 1322.66 1502.33 1319.32 1514.29 1317.75M1088.57 1345.71L1088.57 1351.43L1090 1352.86L1091.43 1351.43L1094.29 1348.57M1090 1354.29C1111.11 1391.37 1112.37 1443.5 1078.57 1474.04C1056.93 1493.57 1029.03 1502.54 1004.35 1516.86C995.4 1522.04 991.64 1532.66 982.84 1538.07C955.53 1554.83 915.51 1564.97 884.29 1571.43L882.86 1572.86L887.14 1577.14L885.71 1578.57C871.37 1581.86 851.7 1586.07 841.43 1597.14L842.86 1598.57C863.49 1598.14 891.78 1589.09 908.57 1577.14L908.57 1575.71L887.14 1577.14M1874.29 1478.57L1872.86 1478.57C1870.56 1469.39 1875.83 1458.91 1878.37 1450C1884.86 1427.24 1892.33 1404.71 1901.44 1382.86C1904.33 1375.95 1911.91 1357.69 1921.41 1358.62C1934.27 1359.89 1934.36 1385.63 1932.73 1394.29C1926.36 1427.93 1897.47 1455.39 1874.29 1478.57M1570 1408.57C1570.16 1401.86 1571.47 1395.17 1578.6 1392.5C1582.57 1391 1590.87 1392.42 1587.5 1398.33C1583.01 1406.19 1571.41 1407.7 1564.29 1411.89C1535.34 1428.91 1499.76 1437.86 1467.14 1445.11C1459.61 1446.79 1433.99 1456.2 1428.16 1449.14C1420.13 1439.4 1448.53 1428.94 1454.29 1427.36C1473.09 1422.21 1492.6 1422.74 1511.43 1417.89C1527.61 1413.72 1546.4 1404.07 1562.86 1412.86M1301.43 1784.29L1301.43 1790L1300 1790L1298.57 1790L1297.14 1788.57L1300 1784.29C1220.13 1737.67 1149.32 1677.1 1107.5 1592.86C1095.67 1569.03 1087.06 1541.19 1090.61 1514.29C1091.26 1509.29 1091.01 1490.3 1098.81 1490.3C1104.95 1490.3 1107.15 1501.31 1108.35 1505.71C1113.24 1523.54 1114.96 1541.91 1118.57 1560C1127.62 1605.26 1146.51 1639.53 1176.54 1674.29C1187.05 1686.46 1202.43 1705.04 1218.54 1709.73C1229.97 1713.06 1224.09 1696.23 1221.7 1691.43C1213.68 1675.34 1200.59 1665.67 1188.84 1652.8C1186.4 1650.13 1179.36 1642.27 1183.78 1638.63C1192.43 1631.5 1216.96 1655.64 1224.29 1659.54C1227.19 1661.09 1237.16 1666.69 1238.83 1660.96C1240.24 1656.13 1234.81 1650.91 1231.37 1648.53C1217.31 1638.73 1206.06 1630.23 1196.21 1615.71C1193.38 1611.56 1185.33 1602 1190.87 1597.13C1205.88 1583.9 1215.6 1605.56 1225.8 1608.46C1232.99 1610.51 1241.12 1602.89 1247.79 1608.37C1252.18 1612 1263.12 1632.11 1271.85 1625.53C1278.98 1620.13 1257.26 1600.01 1252.86 1597.97C1246.7 1595.1 1238.6 1599.2 1233.31 1594.86C1225.9 1588.77 1221.78 1571.29 1216.19 1562.86C1203.68 1544 1190.77 1521.61 1176.23 1504.5C1173.25 1500.99 1166.64 1501.21 1164.51 1497.71C1162.21 1493.93 1166.59 1488.91 1164.83 1484.71C1163.2 1480.81 1157.78 1479.01 1155.21 1475.63C1150.09 1468.87 1139.83 1438.03 1151.73 1433.23C1156.32 1431.37 1159.26 1436.86 1161.09 1440.03C1167.12 1450.39 1174.87 1459.5 1182.67 1468.57C1214.36 1505.4 1245 1542.66 1275.71 1580M1212.86 1490C1209.57 1483.16 1210.59 1475.24 1206.94 1468.57C1203.97 1463.13 1198.86 1460.59 1194.74 1456.3C1192.5 1453.96 1191.04 1450.66 1192.92 1447.6C1197.69 1439.84 1209.81 1448.17 1214.28 1451.9C1230.34 1465.3 1230.53 1478.76 1212.86 1490M994.29 1525.71L990 1521.43L998.57 1520M362.86 1648.57C327.79 1665.11 297.93 1684.64 271.84 1714.29C255.78 1732.53 242.88 1762.39 222.86 1775.71C238.65 1796.96 262.8 1809.26 279.46 1831.43C300.17 1858.97 309.73 1891.87 330.53 1920C338.73 1931.09 346.62 1943.37 357.15 1952.43C360.63 1955.43 366.21 1960.63 371.24 1958.37C380.87 1954.06 377.25 1933.76 376.1 1925.71C372.51 1900.5 366.56 1873.13 397.14 1863.96C439.07 1851.39 486.82 1856.19 530 1850.19C546.39 1847.91 567.1 1847.39 581.43 1838.57L580 1837.14C569.98 1834.97 560.07 1841.31 550 1839.49C541.64 1837.97 539.19 1829.09 531.42 1826.47C515.84 1821.24 497.59 1822.86 481.43 1822.86C457.11 1822.86 432.49 1824.11 408.57 1828.86C395.97 1831.36 368.18 1842.91 356.11 1837.69C350.39 1835.21 349.71 1823.86 348.39 1818.57C342.19 1793.73 349.17 1776.71 372.86 1765.4C391.27 1756.61 412.83 1754.61 432.86 1752.61C476.1 1748.29 519.38 1748.79 562.86 1748.57C579.25 1748.49 596.77 1746.94 612.86 1743.64C616.44 1742.91 628.72 1740.73 626.65 1734.79C624.54 1728.74 610.95 1727.4 605.71 1726.21C584.65 1721.41 562.95 1718.6 541.43 1717.01C492.84 1713.46 444.61 1713.13 397.14 1726.31C379.98 1731.09 364.46 1738.14 348.57 1746.07C343.18 1748.76 332.44 1756.01 326.17 1754.39C320.14 1752.81 324.98 1741.44 323.4 1737.23C321.32 1731.67 312.84 1728.24 308.57 1724.29C301.51 1734.21 302.83 1745.89 296.94 1755.56C293.31 1761.53 285.53 1762.19 282.25 1768.63C278.5 1776 280.82 1788.27 269.98 1790.23C261.54 1791.74 255.89 1783.04 255.76 1775.71C255.52 1761.66 263.86 1746.27 270.45 1734.29C280.53 1715.94 294.3 1712.07 310 1700.14C328.75 1685.91 345.16 1666.74 368.57 1660L370 1658.57L362.86 1648.57C397.7 1633.57 438.79 1627.56 475.71 1619.4C539.22 1605.37 603.84 1591.46 668.57 1584.53C704.26 1580.7 740.05 1581.29 775.71 1576.73C828.52 1570 880.53 1557.16 931.43 1541.83C951.19 1535.87 970.16 1526.86 990 1521.43M1242.86 1542.86C1243.36 1549.29 1245.63 1550.63 1251.43 1552.86M2137.6 1554.33C2146.47 1548.31 2163.64 1558.03 2171.43 1562.27C2198.19 1576.81 2227.06 1587.43 2254.29 1601.07C2259.14 1603.51 2288.24 1617.09 2279.46 1624.6C2271.9 1631.06 2260.73 1615.46 2252.86 1614.57C2246.54 1613.87 2240.5 1617.59 2234.29 1615.44C2222.81 1611.49 2216.29 1598.37 2204.29 1593.5C2188.06 1586.93 2170.46 1585.4 2154.29 1578.56C2148.46 1576.09 2125.84 1562.3 2137.6 1554.33M370 1658.57C378.02 1656.67 385.04 1652.01 392.86 1650.63C425.97 1644.81 462.15 1647.94 495.71 1647.13C547.08 1645.86 598.75 1645.36 650 1650.24C714.39 1656.37 777.95 1669.9 842.86 1670C886.63 1670.07 930.52 1670.23 974.29 1670C982.71 1669.96 1014.69 1670.77 1018.13 1661.1C1022.09 1650.01 995.1 1640.36 988.57 1635.71L988.57 1634.29C997.07 1627.2 1007.28 1606.73 989.98 1602.06C982.52 1600.04 971.87 1602.94 964.29 1603.89C948.11 1605.87 931.9 1607.6 915.71 1609.6C856.15 1616.93 787.99 1629.01 730 1607.14C735.03 1597.77 758.76 1599.17 768.57 1597.74C807.16 1592.16 844.51 1578.03 882.86 1572.86M1278.57 1588.57C1285.82 1597.09 1294.91 1606.24 1305.71 1598.57M2648.57 1594.29C2678.69 1594.2 2726.37 1588.21 2752.86 1605.71C2725.8 1636.04 2682.7 1651.99 2652.86 1680.13C2631.16 1700.6 2621.51 1733.71 2592.86 1748.57C2589.79 1732.69 2609.24 1707.74 2616.93 1694.29C2619.34 1690.06 2628.63 1678.71 2625.51 1673.71C2622.76 1669.29 2610.16 1671.43 2605.71 1671.43C2585.06 1671.44 2564.16 1676.27 2544.29 1681.64C2511.94 1690.39 2480.76 1705.13 2447.14 1708.33C2415.19 1711.37 2381.36 1702.99 2350 1697.73C2335.26 1695.26 2320.26 1693.31 2305.71 1689.81C2301.56 1688.81 2292.43 1687.89 2290.26 1683.59C2285.59 1674.36 2308.71 1674.24 2312.86 1674.29C2337.1 1674.57 2358.6 1689.34 2382.86 1691.3C2434.7 1695.49 2485.44 1680.2 2535.71 1669.17C2562.31 1663.34 2588.87 1661.69 2615.71 1658.34C2632.4 1656.27 2650.57 1650.19 2664.29 1640.3C2669.23 1636.74 2677.19 1630.06 2674.79 1623C2672.69 1616.81 2664.07 1615.4 2658.57 1614.13C2643.56 1610.64 2623.44 1614.31 2610 1607.14M2754.29 1605.71L2764.29 1602.86M717.14 1605.71L728.57 1605.71M2755.71 1605.71C2766.47 1615.37 2780.03 1621.73 2791.43 1630.73C2815.66 1649.89 2836.6 1674.03 2850.97 1701.43C2869.29 1736.34 2870.37 1781.63 2876.31 1820C2889.86 1907.31 2899.4 1995.07 2908.81 2082.86C2916.44 2154.07 2928.83 2224.71 2938.17 2295.71C2944.23 2341.83 2946.11 2388.31 2951.83 2434.29C2956.04 2468.14 2972.7 2497.93 2978.2 2531.43C2984.04 2567.07 2978.57 2608.13 2978.57 2644.29C2978.57 2694.17 2980.36 2744.43 2978.54 2794.29C2977.4 2825.91 2972.87 2858.06 2972.86 2890C2972.84 2909.97 2970.8 2930.14 2968.81 2950C2968.11 2956.97 2969.09 2967.04 2961.34 2970.37C2945.24 2977.31 2921.47 2973.59 2904.29 2974.34C2857.84 2976.37 2808.99 2972.14 2762.86 2977.33C2685.83 2985.97 2604.9 2980 2527.14 2980L2097.14 2980L1.43 2980M2461.43 1638.57C2465.37 1631.74 2474.27 1630.01 2481.43 1627.61C2499.23 1621.66 2526.93 1608.89 2545.71 1614.29C2541.84 1621 2532.74 1623.09 2525.71 1625.64C2506.79 1632.51 2478.63 1642.24 2458.57 1638.57M1365.71 1617.14L1368.57 1618.57M985.71 1634.29L988.57 1634.29M357.14 1651.43L362.86 1654.29M375.71 1655.71C378.37 1651.74 380.13 1652.3 384.29 1654.29M367.14 1652.86L375.71 1652.86M385.71 1657.14C396.65 1659.37 393.38 1665.86 395.71 1674.29L394.29 1675.71L392.86 1675.71L391.43 1670M395.71 1674.29C415.21 1673.89 434.82 1670.03 454.29 1668.7C508.95 1664.96 565.27 1663.53 620 1667.27C694.05 1672.34 766.1 1688.31 840 1695.47C886 1699.93 932.43 1702.21 978.57 1704.23C996.69 1705.03 1014.81 1705.19 1032.86 1706.9C1039.77 1707.56 1047.65 1705.81 1054.29 1708.19C1066.42 1712.51 1078.5 1724.94 1088.57 1732.86C1109.65 1749.43 1130.7 1765.9 1151.43 1782.86M381.43 1671.43L387.14 1672.86L388.57 1674.29L387.14 1675.71L381.43 1677.14L381.43 1671.43M370 1678.57C365.12 1674.11 356.76 1682.3 352.86 1685.71L354.29 1687.14L355.71 1688.57L375.71 1678.57L372.86 1674.29L374.29 1672.86L375.71 1672.86L377.14 1672.86L378.57 1672.86L380 1672.86M371.43 1674.29L372.86 1674.29M367.14 1678.57L367.14 1680M375.71 1678.57L380 1678.57M361.43 1680L364.29 1682.86M358.57 1682.86L358.57 1684.29M314.29 1727.14C316.3 1710.69 333.28 1702.54 345.35 1694C348.68 1691.64 349.3 1687.9 352.86 1685.71M342.86 1692.86L347.14 1688.57M352.86 1688.57L351.43 1691.43M1312.86 1818.57C1264.04 1806.31 1211.24 1787.09 1168.57 1759.93C1157.42 1752.83 1144.68 1744.23 1137.52 1732.86C1133.97 1727.23 1133.69 1718.99 1141.45 1716.66C1149.06 1714.37 1150.44 1724.27 1154.61 1728.13C1160.64 1733.69 1172.54 1735.86 1180 1739.66C1217.69 1758.81 1252.68 1787.66 1297.14 1788.57M308.57 1722.86L314.29 1720M2375.71 1785.71C2396.54 1779.56 2420.1 1792.73 2441.24 1786.69C2448.9 1784.5 2458.26 1771.09 2465.71 1766.34C2487.41 1752.51 2510.59 1740.43 2534.29 1730.4C2544.73 1725.99 2556.96 1720.4 2568.57 1721.84C2572.9 1722.39 2580.33 1723.97 2578.93 1729.97C2577.63 1735.53 2570.27 1738.71 2565.71 1741.06C2552.19 1748.01 2537.21 1751.4 2522.86 1756.19C2506.07 1761.79 2489.54 1768.71 2474.29 1777.79C2457.91 1787.53 2443.29 1800.26 2424.29 1804.79C2406.84 1808.93 2384 1803.33 2375.71 1785.71M1307.14 1818.57C1296.5 1824.24 1280.11 1820.4 1268.57 1818.46C1231.4 1812.2 1200.31 1791.2 1164.29 1782.86C1163.81 1787.71 1169.53 1795.19 1166.2 1799.16C1161.74 1804.47 1146.37 1804.2 1140 1804.29C1116.53 1804.56 1093.36 1804.29 1070 1804.29C970.13 1804.29 868.91 1794.64 770 1780.39C745.13 1776.8 716.37 1775.51 692.88 1766.13C688.37 1764.31 686.55 1759.83 682.43 1758C676.64 1755.41 656.66 1764.37 655.39 1755.64C653.87 1745.26 675.64 1745.71 681.43 1745.71C710.86 1745.71 739.34 1750.24 768.57 1752.96C815.2 1757.3 861.81 1762.19 908.57 1764.23C949.41 1766.01 990.72 1764.94 1031.43 1768.81C1057.61 1771.3 1083.89 1772.23 1110 1775.9C1121.32 1777.49 1136.16 1783.73 1147.14 1780M651.43 1758.57L655.71 1761.43M230 1774.29L228.57 1778.57M222.86 1777.14C219.55 1781.31 203.93 1797.86 207.39 1803.3C209.65 1806.86 221.74 1802.99 225.71 1803.86C234.48 1805.77 240.35 1812.96 245.22 1820C276.91 1865.83 290.99 1922.97 327.57 1965.71C340.67 1981.01 357.46 1988.19 372.86 2000.41C377.12 2003.79 386.59 2010.19 384.66 2016.81C382.81 2023.17 374.12 2020.77 370 2018.83C357.49 2012.9 345.26 2001.66 336.12 1991.43C322.5 1976.16 309.25 1960.67 296.96 1944.29C290.31 1935.41 284.39 1923.11 274.28 1917.77C251.63 1905.83 216.28 1911.03 191.43 1909.94C181.17 1909.5 169.73 1908.34 160 1904.93C155.87 1903.49 150.63 1899.69 146.71 1903.46C134.89 1914.86 129.74 1942.03 124.01 1957.14C103.56 2011.14 92.45 2069.19 81.14 2125.71C77.69 2142.97 72.84 2161 71.65 2178.57C71.28 2184.06 68.45 2191.87 72.29 2196.59C77.21 2202.61 85.12 2200.53 91.43 2198.53C107.35 2193.47 118.94 2180.83 135.71 2177.8C153.68 2174.57 171.97 2179.93 190 2178.44C197.68 2177.8 202.86 2172.76 210 2170.81C219.49 2168.21 233.14 2169.24 242.86 2170.41C269.64 2173.61 315.38 2186.09 339.79 2169.47C345.31 2165.71 344.49 2157.94 337.12 2157.5C330.49 2157.11 325.34 2162.31 320.01 2165.33C318.07 2166.43 315.75 2167.79 313.48 2166.77C307.72 2164.21 306.12 2149.7 298.57 2144.96C274.83 2130.04 241.57 2127.71 214.29 2125.84C184.9 2123.83 136.35 2122.99 111.43 2140.91C95.07 2152.69 94.06 2174.36 74.29 2182.86M1302.86 1787.14L1312.86 1792.86M205.71 1804.29C192.58 1817.47 173.38 1842.69 170 1861.43C196.74 1860.3 210.2 1853.77 232.86 1874.17C236.91 1877.83 250.01 1891.01 256.28 1886.96C263.14 1882.51 252.17 1868.16 249.39 1864.29C233.8 1842.57 210.73 1839.8 192.86 1822.86M565.71 1838.57L570 1842.86M574.29 1838.57L574.29 1840M695.71 1862.86C681.62 1870.26 651.18 1863.4 635.71 1860.56C632.28 1859.91 615.39 1857.6 617.64 1851.73C620.88 1843.24 649.93 1847.14 657.14 1847.14C666.43 1847.14 681.58 1845.97 689.55 1851.63C693.74 1854.6 693.43 1861.63 698.84 1863.24C704.51 1864.93 713.96 1860.54 720 1860.13C735.58 1859.06 751.53 1860 767.14 1860C782.94 1860 803.66 1860.03 818.49 1866.09C825.02 1868.76 823.99 1876.83 831.46 1878.24C846.92 1881.19 863.14 1873.67 878.49 1877.23C885.36 1878.83 883.91 1887.67 891.46 1888.11C898.84 1888.54 906.92 1885.33 914.29 1884.53C932.82 1882.51 951.42 1881.4 970 1880.13C1017.82 1876.86 1066.32 1878.57 1114.29 1878.57C1135.06 1878.57 1156.61 1879.34 1177.14 1882.74C1184.13 1883.9 1194.1 1884.44 1199.54 1889.5C1204.89 1894.47 1198.94 1901.54 1202.92 1906.14C1206.56 1910.36 1216.51 1903.5 1220 1901.67C1232.66 1895.03 1264.05 1893.01 1264.64 1915.53C1264.87 1924.1 1245.16 1921.43 1240 1921.43C1221.64 1921.43 1203.6 1919.13 1187.14 1910.29C1179.44 1906.16 1173.58 1899.36 1165.71 1895.71C1164.44 1901.81 1170.13 1912.86 1164.85 1917.59C1159.38 1922.47 1142.48 1917.5 1135.71 1917.2C1108.65 1916.01 1081.36 1912.9 1054.29 1912.86C1010.16 1912.79 965.34 1908.73 921.43 1904.53C886.49 1901.19 849.73 1900.46 815.71 1890.81C811.45 1889.61 805.4 1888.34 802.41 1884.79C799.93 1881.83 801.3 1877.5 796.91 1876.17C784.04 1872.24 767.38 1879.37 754.29 1879.94C737.89 1880.66 717.2 1872.24 702.86 1864.29M2404.29 1890C2411.94 1874.33 2441.07 1864.5 2455.71 1855.71C2459.54 1853.41 2469.97 1844.76 2474.31 1849.5C2481.1 1856.91 2472.36 1872.71 2466.71 1877.81C2453.51 1889.74 2421.06 1894.96 2404.29 1890M170 1861.43C160.8 1872 150.75 1885.51 150 1900M1411.43 1884.29C1394.87 1889.89 1361.94 1892.1 1345.79 1884.33C1338.34 1880.74 1331.28 1872.14 1324.29 1867.14C1344.17 1855.69 1400.68 1861.73 1411.43 1884.29M192.83 1866.86C200.59 1864.56 199.2 1872.86 196.84 1877.14C192.94 1884.2 184.53 1895.3 175.8 1896.31C168.78 1897.14 171.45 1889.21 173.38 1885.71C177.25 1878.69 184.79 1869.23 192.83 1866.86M1322.86 1867.14L1324.29 1867.14M441.43 1922.04C457.87 1919.69 481.34 1919 495.69 1928.53C510.21 1938.16 511.15 1955.83 492.86 1959.34C472.67 1963.23 451.83 1964.01 431.43 1965.96C421.3 1966.93 408.17 1969.61 398.59 1964.9C387.18 1959.27 389.42 1946.56 397.3 1938.84C408.6 1927.76 426.34 1924.2 441.43 1922.04M214.29 1944.29L215.71 1945.71L214.29 1947.14L185.71 1947.14L184.29 1945.71C192.58 1941.29 205.35 1941.64 214.29 1944.29M167.14 1947.14L184.29 1945.71M215.71 1945.71L231.43 1945.71M1528.57 1990L1537.14 1987.14L1537.14 1985.71L1537.14 1984.29L1525.71 1985.71L1528.57 1990L1527.14 1991.43C1490.73 1996.33 1454.19 2001.9 1418.57 2011.26C1375.89 2022.49 1335.91 2036.83 1291.43 2039.87C1248.73 2042.8 1204.18 2038.23 1162.86 2027.31C1153.69 2024.89 1144.05 2022.03 1135.72 2017.43C1131.74 2015.24 1127.15 2009.11 1122.61 2008.73C1115.91 2008.16 1105.64 2016.57 1098.57 2018.23C1082.71 2021.97 1066.18 2021.43 1050 2021.43C980.78 2021.43 912.26 2010.17 844.29 1998.69C800.6 1991.31 755.64 1986.3 711.43 1984.34C689.95 1983.4 656.05 1985.43 638.57 1971.43C647.92 1960.24 661.81 1956.51 675.71 1954.17C706.86 1948.93 749.38 1947.11 778.57 1961.31C786.56 1965.19 790.73 1972.84 797.14 1978.57C799.15 1974.9 800.01 1969.31 803.31 1966.57C810.94 1960.21 832.28 1968.69 841.43 1969.77C877.07 1974.06 912.98 1975.4 948.57 1979.59C1059.36 1992.67 1171.92 1990.13 1282.86 2003.27C1309.81 2006.46 1338.69 2012.17 1365.71 2012.84C1373.67 2013.03 1388.16 2014.59 1393.34 2006.81C1400.96 1995.4 1378.27 1995.71 1372.86 1998.57M1378.57 1992.86C1395.47 1978.97 1437.5 1959.66 1460 1964.84C1468.07 1966.71 1471.24 1975.01 1478.57 1977.99C1484.96 1980.59 1490.71 1975.01 1497.14 1976.4C1508.2 1978.79 1513.17 1985.71 1525.71 1985.71M1531.43 1985.71L1531.43 1987.14M107.14 2028.57C119.57 2012.46 134.27 1995.43 154.29 1988.71C182.25 1979.34 224.78 1990.41 252.86 1996C270 1999.41 296.29 2001 309.51 2013.61C321.57 2025.1 314.24 2045.1 321.43 2058.57M101.43 2041.43C116.06 2064.06 140.62 2050.4 162.86 2046.79C214.86 2038.36 265.57 2053.07 317.14 2057.14M444.29 2049.36C477.45 2042.07 480.83 2093.5 451.43 2100.2C440.4 2102.71 442.73 2089.96 436.52 2085.76C429.36 2080.91 418.35 2091.53 412.37 2083.67C409.64 2080.06 412.66 2076.39 415.8 2074.41C421.16 2071.06 430.71 2073.03 434.7 2067.84C440.13 2060.79 430.63 2052.36 444.29 2049.36M1057.14 2054.29L1058.57 2055.71L1057.14 2057.14C1047.35 2060.04 1032.65 2060.04 1022.86 2057.14L1021.43 2055.71C1030.65 2050.79 1047.2 2051.34 1057.14 2054.29M1001.43 2057.14L1021.43 2055.71M1058.57 2055.71L1077.14 2055.71M748.54 2072.57C756.4 2071.29 755.99 2080.87 753.96 2085.71C750.75 2093.4 742.61 2099.97 734.29 2101.11C712.25 2104.16 738.16 2074.27 748.54 2072.57M145.71 2077.77C152.51 2076.74 164.3 2080.19 154.2 2087.16C146.72 2092.3 134.63 2094.5 125.72 2095.27C118.48 2095.9 114.69 2091.11 121.52 2086.39C128.62 2081.47 137.28 2079.04 145.71 2077.77M751.43 2118.57C757.05 2108.31 774.04 2103.1 784.29 2098.26C822.66 2080.13 855.58 2079.54 897.14 2081.37C979.98 2085.03 1063.63 2095.44 1145.71 2107.53C1194.63 2114.74 1244.36 2128.89 1294.29 2122.26C1340.64 2116.09 1382.21 2099.61 1427.14 2088.04C1436.47 2085.64 1464.96 2074.96 1471.37 2086.04C1480.73 2102.2 1447.19 2115.9 1437.14 2120.19C1392.88 2139.04 1343.18 2149.91 1295.71 2156.76C1278.51 2159.23 1258.75 2162.66 1241.43 2159.53C1232.94 2158 1229.4 2150.17 1221.42 2147.84C1206.82 2143.59 1189.44 2144.57 1174.29 2143.1C1079.54 2133.93 984.7 2125.43 890 2115.96C875.25 2114.49 860.33 2113.2 845.71 2110.56C838.93 2109.31 831.18 2105.33 824.29 2105.99C818.37 2106.54 813.97 2111.4 808.57 2113.49C792.63 2119.61 767.71 2124.67 751.43 2118.57M1420 2175.71L1421.43 2177.14C1412.49 2182.3 1400.24 2183.53 1390 2184.16C1387.28 2184.33 1380.59 2184.97 1379.89 2181.13C1379.12 2176.9 1385.67 2175.09 1388.57 2174.34C1398.8 2171.74 1410.02 2172.56 1420 2175.71M70 2195.71L58.27 2245.71L42.86 2310C54.24 2307.89 66.29 2310.16 77.14 2305.57C86.07 2301.79 91.85 2293.73 100 2288.74C112.93 2280.81 130.06 2280.89 144.29 2284.9C153.2 2287.41 176.85 2296.9 176.85 2308.43C176.85 2316.44 153.24 2322.2 147.14 2324.29C123.37 2332.39 99.09 2336.01 74.29 2338.99C62.62 2340.37 49.58 2343.87 38.57 2338.57L37.14 2340C37.14 2381 36.97 2423.71 30.59 2464.29C28.8 2475.61 27.33 2485.01 23.15 2495.71C21.67 2499.51 19.42 2504.41 22.35 2508.11C32.37 2520.77 53.92 2490.56 58.87 2484.29C90.34 2444.41 131.86 2434.86 180 2431.56C198.25 2430.3 216.11 2431.51 234.29 2428.46C242.28 2427.11 251.41 2426.13 255.71 2418.57C240.62 2412.33 224.33 2422.41 208.65 2419.79C202.22 2418.71 199.68 2411.64 192.85 2410.03C166.69 2403.83 137.97 2405.19 111.43 2407.01C103.53 2407.56 89.87 2406.04 83.4 2411.56C74.56 2419.07 106.45 2422.96 98.51 2435.24C95.84 2439.37 79.72 2440.34 74.29 2443.86C57.91 2454.43 44.52 2468.64 31.43 2482.86M844.29 2203.59C852.21 2202.44 866.69 2206.84 865.03 2217.14C864.01 2223.47 858.42 2228.17 856.65 2234.29C855.38 2238.67 858.12 2245.44 854.8 2248.94C851.1 2252.83 840.76 2252.09 835.71 2252.61C818.79 2254.43 801.25 2259.71 784.29 2259.93C778.07 2260 766.82 2255.61 772.52 2247.63C777.99 2239.96 790.82 2241.54 798.57 2237.27C815.1 2228.17 824.31 2206.44 844.29 2203.59M948.57 2206.31C961.17 2204.69 975.82 2207.6 987.14 2213.24C995 2217.16 1003.81 2224.73 1012.85 2225.33C1020.19 2225.81 1022.61 2218.3 1028.63 2215.73C1038.22 2211.63 1051.05 2216.23 1060 2220.01C1071.19 2224.76 1081.99 2232.49 1088.61 2242.86C1092.03 2248.2 1095.17 2256.63 1087.06 2259.19C1064.92 2266.14 1036.04 2252.81 1014.29 2249.41C983.91 2244.67 953.29 2248.53 922.86 2248.57C912.1 2248.59 880.73 2252.99 873.93 2242.26C869.57 2235.39 884.15 2227.79 888.57 2225.14C907.78 2213.69 926.73 2209.16 948.57 2206.31M177.14 2214.29C172.54 2223.36 153.67 2224.71 144.29 2225.17C140.83 2225.34 133.4 2224.89 131.92 2220.87C130.18 2216.14 138.4 2213.96 141.43 2213.2C152.94 2210.33 165.83 2210.84 177.14 2214.29M1188.57 2265.71C1196.52 2263.43 1214.89 2271.27 1220.48 2264.86C1225.71 2258.86 1208.52 2247.59 1218.79 2243.84C1224.15 2241.9 1233.1 2244.93 1238.57 2245.83C1250.97 2247.89 1263.1 2249.31 1275.71 2248.44C1306.91 2246.3 1335.21 2232.17 1365.71 2227.03C1375.94 2225.3 1402.14 2220.7 1404.05 2235.71C1406.9 2258.01 1370.01 2267.61 1354.29 2272.86C1313.25 2286.54 1266.6 2297.36 1224.29 2283.8C1212.13 2279.9 1197.42 2275.26 1188.57 2265.71M171.43 2252.1C200.1 2246.87 232.55 2266.19 258.57 2275.23C262.68 2276.66 294.21 2283.74 282.62 2290.61C275.72 2294.7 264.81 2292.86 257.14 2292.86C232.01 2292.86 206.77 2288.37 184.29 2276.77C175.95 2272.47 148.27 2256.33 171.43 2252.1M1177.14 2262.86L1187.14 2265.71M2654.29 2305.71L2655.71 2307.14C2634.67 2332.5 2593.63 2350.39 2564.29 2364.29C2562.86 2354.17 2575.5 2347.97 2582.86 2342.9C2603.11 2328.9 2629.6 2309.97 2654.29 2305.71M2648.57 2307.14L2652.86 2311.43M2645.71 2308.57L2650 2312.86M41.43 2311.43L38.57 2337.14M811.43 2398.57C816.06 2388.64 825.72 2382.3 834.29 2375.9C857.92 2358.2 883.51 2346.66 912.86 2342.47C923.89 2340.9 950.45 2338.5 954.77 2352.86C957.73 2362.71 935.96 2362.57 930.54 2367.7C909.25 2387.84 880.82 2388.89 852.86 2395.21C839.71 2398.19 824.73 2402.5 811.43 2398.57M1117.14 2401.43C1090.93 2388.14 1059.14 2390.73 1030 2390.01C1018.1 2389.73 1002.84 2392.1 991.65 2387.1C989.28 2386.04 987.72 2384.26 988.82 2381.59C991.5 2375.1 998.67 2371.36 1001.24 2364.29C1003.27 2358.67 1000.32 2352.6 1002.35 2347.36C1003.38 2344.67 1005.8 2343.41 1008.6 2343.63C1022 2344.67 1019.38 2364.51 1030.01 2370.93C1051.57 2383.93 1077.65 2379.94 1101.43 2383.09C1112.62 2384.56 1123.17 2388.8 1117.14 2401.43M1095.71 2367.14C1085.44 2374.53 1066.21 2372.57 1054.29 2369.66C1050.46 2368.73 1041.72 2366.64 1041.72 2361.43C1041.72 2355.36 1051.77 2355.61 1055.71 2355.77C1068.56 2356.27 1084.81 2360.37 1095.71 2367.14M402.86 2388.57C388.09 2392.63 355.22 2377.9 348.57 2364.29C364.03 2360.04 395.89 2374.31 402.86 2388.57M1340 2367.14C1336.52 2374.01 1329.48 2378.14 1326.93 2385.71C1324.7 2392.34 1329.06 2401.24 1322.64 2405.93C1315.06 2411.46 1300.45 2411.39 1291.43 2411.43C1268.06 2411.54 1243.16 2413.76 1220 2410.6C1210.52 2409.31 1194.87 2409.47 1190.87 2398.54C1184.56 2381.36 1208.65 2376.31 1220 2374.4C1245.44 2370.11 1271.46 2368.77 1297.14 2367.01C1310.81 2366.07 1326.64 2363.2 1340 2367.14M2554.29 2435.71C2537.79 2454.2 2508.54 2470.57 2484.29 2475.71M2488.57 2474.29C2496.27 2458.14 2532.64 2439.74 2550 2437.14M1222.86 2457.14C1237.08 2453.61 1242.92 2453.61 1257.14 2457.14M1228.57 2457.14C1235.86 2461.03 1244.14 2461.03 1251.43 2457.14M2491.43 2470L2494.29 2472.86M2350 2487.14L2364.29 2485.71L2365.71 2487.14C2358.24 2492.86 2355.03 2487.86 2347.14 2489.51C2340.87 2490.84 2334.71 2496.53 2330.06 2500.63C2307.57 2520.44 2285.07 2553.46 2271.29 2580C2269.17 2584.07 2265.61 2589.59 2264.69 2594.04C2263.47 2599.93 2271.04 2613.23 2257.14 2608.57C2250.99 2617.21 2233.27 2647.64 2238.57 2655.71L2235.71 2661.43L2234.29 2662.86L2230 2658.57L2228.57 2660L2228.57 2661.43L2230 2662.86L2231.43 2664.29L2234.29 2664.29M2367.14 2487.14L2391.43 2524.29C2399.64 2508.93 2395.91 2487.4 2374.29 2492.86M411.43 2514.29C397.46 2521.74 375.51 2518.57 360 2518.57C320.84 2518.57 281.85 2518.7 242.86 2515.84C229.26 2514.84 217.16 2510.54 204.29 2506.19C200.94 2505.06 193.15 2503.36 193.15 2498.69C193.15 2493.8 202.02 2490.76 205.71 2489.7C218.98 2485.89 236.58 2488.31 250 2490.39C281.91 2495.31 313.39 2497.8 345.71 2495.59C361.4 2494.51 387.8 2487.01 402.62 2493.91C407.61 2496.24 405.35 2501.49 406.83 2505.71C408.57 2510.67 412.75 2513.41 417.14 2515.71M2368.57 2488.57L2364.29 2492.86L2371.43 2492.86M2362.86 2492.86L2364.29 2492.86M1095.71 2517.14C1099.69 2510.27 1112.07 2506.79 1119.79 2509.03C1124.19 2510.3 1123.8 2514.74 1126.57 2517.64C1130.56 2521.81 1137.55 2521.69 1142.86 2521.3C1155.49 2520.39 1161.23 2512.5 1171.48 2506.89C1179.75 2502.37 1190.7 2501.26 1200 2501.46C1206.03 2501.57 1218.22 2502.3 1219.28 2510.07C1220.82 2521.39 1206.6 2533.74 1197.14 2536.83C1168.36 2546.19 1128.74 2548.43 1098.57 2548.57C1090.34 2548.61 1080.95 2549.77 1072.86 2548.09C1069.83 2547.44 1063.83 2544.94 1066.79 2540.9C1078.06 2525.54 1107.13 2549.36 1117.65 2536.41C1126.28 2525.79 1101.39 2519.29 1095.71 2517.14M2391.43 2524.29L2384.29 2544.29C2397.86 2548.19 2421 2535.49 2432.86 2528.57L2428.57 2524.29L2432.86 2520C2442.94 2527.01 2447.23 2518.5 2455.73 2513.36C2464.8 2507.89 2475.14 2504.99 2485.71 2505.84C2513.94 2508.16 2511.67 2534.79 2519.86 2553.69C2525.39 2566.47 2537.04 2579.97 2537.14 2594.29L2538.57 2595.71L2540 2594.29L2541.43 2592.86L2540 2588.57M20 2507.14C1.49 2533.36 9.88 2565.69 1.43 2594.29M2405.71 2538.57C2395.79 2525.06 2419.96 2510.4 2431.43 2522.86M2444.29 2520L2442.86 2517.14L2448.57 2515.71M2441.43 2521.43L2442.86 2517.14M2434.29 2518.57C2438.13 2522.46 2437.93 2524.56 2434.29 2528.57M2438.57 2518.57L2440 2518.57M2431.43 2522.86L2435.71 2527.14M2672.86 2525.71C2668.71 2533.7 2659.4 2535.67 2651.43 2538.64C2632.37 2545.74 2612.63 2552.13 2592.86 2556.96C2588.3 2558.07 2568.94 2564.49 2566.09 2559.16C2562.21 2551.94 2584.1 2543.3 2588.57 2541.44C2611.14 2532.06 2648.53 2516.67 2672.86 2525.71M2412.86 2524.29L2418.57 2535.71M2430 2530L2428.57 2524.29M2427.14 2531.43L2425.71 2525.71M2424.29 2532.86L2422.86 2527.14M2421.43 2534.29L2420 2528.57M2412.86 2530L2414.29 2537.14M2415.71 2530L2417.14 2530M2390 2534.29L2400 2534.29M2408.57 2535.71L2408.57 2538.57M1.43 2602.86C13.06 2593.51 17.98 2578.54 30 2569.13C40.38 2561 53.76 2561.84 65.71 2557.57C90.37 2548.77 105.4 2537.1 132.86 2537.14C145.64 2537.16 158.71 2538.89 171.43 2540.24C174.7 2540.59 182.56 2541.19 182.56 2545.87C182.56 2555.87 154.67 2563.29 147.14 2565.51C110.22 2576.41 61.24 2572.01 30.02 2596.69C21.15 2603.7 15.59 2613.49 12.69 2624.29C10.41 2632.83 9.86 2644.04 1.43 2648.57M2392.86 2537.14L2394.29 2542.86M2397.14 2537.14L2401.43 2541.43M2517.14 2555.71C2512.94 2569 2518.11 2576.16 2531.43 2580M2267.14 2591.43L2268.57 2600M2542.86 2592.86C2547.46 2600.11 2550.1 2608.46 2549.96 2617.14C2549.83 2624.7 2544.54 2629.26 2550 2635.71L2551.43 2627.14M2538.57 2595.71C2538.97 2605.19 2540.21 2613.5 2537.46 2622.86C2535.17 2630.56 2529 2636.43 2532.86 2644.29L2521.43 2650M2262.86 2597.14L2257.14 2608.57M367.14 2641.43L365.71 2642.86L310 2630.2L282.86 2624.29C285.32 2630.11 297.96 2641.54 293.27 2647.96C286.92 2656.64 263.59 2652.34 254.29 2652.99C215.86 2655.61 177.14 2657.14 138.57 2657.14C129.35 2657.14 90.91 2659.86 90.91 2644.37C90.91 2637.76 102.32 2635.59 107.14 2634.66C125.07 2631.23 143.28 2631.86 161.43 2631.41C190.19 2630.7 214.06 2619.73 241.43 2613.8C265.48 2608.6 291.48 2608.57 315.71 2612.5C333.73 2615.43 361.4 2620.97 367.14 2641.43M2544.29 2634.29C2538.06 2676.64 2483.37 2695.8 2462.23 2730C2453.26 2744.51 2471.73 2757.53 2468.16 2774.29C2465.63 2786.17 2449.74 2803.24 2455.71 2814.29L2454.29 2815.71C2435.61 2820.5 2432.97 2850.26 2412.86 2853.29C2405 2854.47 2394.04 2848.19 2385.71 2847.39C2361.89 2845.09 2330.3 2843.16 2307.14 2850L2305.71 2851.43L2307.14 2852.86C2326.6 2858.61 2353.46 2847.03 2371.37 2858.37C2381.64 2864.87 2383.79 2880.51 2386 2891.43C2390.64 2914.31 2391.66 2949.57 2405.71 2968.57C2411 2958.66 2407.43 2947.81 2407.16 2937.14C2406.69 2917.7 2406.19 2897.61 2410.61 2878.57C2415.67 2856.8 2432.01 2852.91 2446.49 2870.01C2451 2875.37 2455.16 2881.2 2458.84 2887.14C2467.71 2901.47 2473.24 2921.17 2487.14 2931.43C2496.73 2913.19 2476.59 2883.34 2474.36 2864.29C2473.8 2859.47 2470.49 2841.5 2480.07 2842.74C2487.23 2843.67 2493.21 2855.56 2498.57 2860C2504.73 2854.61 2510.06 2859 2515.71 2863.51C2523.81 2869.99 2531.07 2877.89 2540 2883.26C2545.01 2886.27 2549.26 2884.26 2554.16 2886.11C2559.03 2887.97 2562.44 2894.74 2565.71 2898.57C2575.19 2889.3 2567.94 2869.43 2561.44 2860C2541.89 2831.6 2510.8 2829.83 2480 2826.9C2470.79 2826.03 2454.77 2827.73 2451.43 2817.14M2550 2635.71C2549.86 2642.56 2548.93 2649.6 2545.61 2655.71C2542.66 2661.16 2535.71 2667.3 2538.07 2674.2C2540.47 2681.24 2550.1 2680.83 2555.41 2677.7C2560.71 2674.59 2563.26 2668.37 2568.6 2664.96C2583.09 2655.69 2601.93 2650.46 2618.57 2646.64C2623.27 2645.57 2642.71 2640.1 2645.21 2646.27C2647.51 2651.91 2627.7 2653.69 2624.29 2654.8C2606.94 2660.44 2590.64 2668.86 2574.29 2676.77C2568.44 2679.6 2560.3 2685.11 2554.29 2681.43M2527.14 2642.86L2527.14 2645.71M2532.86 2644.29L2541.43 2644.29M2240 2647.14L2238.57 2654.29M2232.86 2652.86L2232.86 2657.14M2230 2657.14L2235.71 2657.14M2540 2657.14L2540 2660M2227.14 2662.86C2233.17 2676.34 2216.27 2698.26 2211.5 2711.43C2209.66 2716.54 2209.51 2723.86 2206.09 2728.14C2203.31 2731.6 2198.26 2732.79 2194.29 2734.29L2192.86 2734.29L2192.86 2732.86L2221.43 2674.29L2225.71 2675.71L2227.14 2677.14M2225.71 2665.71L2230 2671.43M2748.57 2678.57L2747.14 2680C2733.4 2684.06 2690.63 2680.57 2682.86 2667.14C2698.27 2662.9 2735 2670.24 2748.57 2678.57M2224.29 2668.57L2228.57 2674.29M2222.86 2671.43L2222.86 2672.86M2558.57 2677.14L2562.86 2681.43M2558.57 2680L2558.57 2681.43M1.43 2717.14C22.39 2701.71 47.57 2671.51 77.14 2688.57C71.27 2695.4 62.05 2697.61 54.29 2701.87C43.03 2708.06 32.5 2716.07 22.86 2724.51C16.66 2729.93 10.14 2737.66 1.43 2737.14M2554.29 2684.29C2546.23 2689.29 2536.7 2689.73 2528.57 2694.24C2513.24 2702.74 2498.73 2717.64 2488.11 2731.43C2481.87 2739.54 2473.17 2755.39 2484.44 2763.23C2491.23 2767.96 2501.27 2765.26 2508.57 2763.39C2523.29 2759.63 2537.34 2754.1 2552.86 2755.97C2557.24 2756.51 2576.41 2761.23 2573.79 2768.26C2571.91 2773.29 2546.97 2774.5 2541.43 2776.13C2513.29 2784.43 2480.61 2796.39 2457.14 2814.29M2511.43 2745.71L2508.57 2740L2508.57 2741.43L2510 2745.71L2508.57 2747.14L2507.14 2747.14L2505.71 2747.14L2504.29 2745.71C2516.67 2728.17 2537.17 2719.51 2557.14 2713.87C2603.43 2700.77 2647.59 2707.3 2692.86 2718.57M2687.14 2718.57C2670 2727.71 2640.66 2724.53 2621.43 2725.84C2583.6 2728.43 2549.54 2735.6 2512.86 2744.29M394.29 2750C381.6 2750.81 367.78 2740.8 357.14 2734.69C354.2 2733 344.46 2728.44 348.22 2723.7C351.33 2719.77 359.01 2722.34 362.86 2723.49C375.85 2727.36 390.96 2736 394.29 2750M191.43 2724.29C218.4 2716.31 260.12 2727.44 287.14 2733.16C292.36 2734.26 315.68 2737.61 314.4 2745.54C313.23 2752.77 290.3 2757.24 284.29 2758.56C259.74 2763.86 237.08 2755.31 215.71 2743.97C206.41 2739.03 196.1 2734.21 191.43 2724.29M2192.86 2734.29C2184.46 2746.1 2179.91 2759.73 2174.14 2772.86C2171.09 2779.8 2166.84 2782.89 2171.43 2790L2171.43 2780M2500 2748.57L2502.86 2747.14M114.29 2754.91C132.81 2752.01 153.57 2754.24 171.43 2759.6C176.32 2761.07 190.05 2764.96 186.89 2772.56C183.96 2779.61 169.36 2781.53 162.86 2782.86C138.36 2787.86 110.48 2796.71 85.71 2798.3C70.63 2799.26 71.6 2781.81 78.07 2772.91C86.1 2761.87 101.39 2756.93 114.29 2754.91M2165.71 2787.14C2158.41 2809.56 2156.6 2843.07 2138.51 2859.73C2113.56 2882.73 2063.37 2882.11 2031.43 2885.94C1993.09 2890.53 1952.6 2893.09 1915.71 2905.24C1902.3 2909.66 1892.91 2919.86 1880 2924.47C1866.46 2929.31 1849.63 2927.61 1837.14 2934.29C1847.07 2944.76 1864.64 2937.39 1875.31 2950.06C1881.06 2956.89 1881.74 2967.19 1872.8 2971.47C1863.07 2976.13 1851.7 2973.64 1842.86 2980M2171.43 2790L2165.71 2877.14L2167.14 2878.57C2196.94 2867.33 2229.03 2866.39 2254.29 2844.29L2255.71 2844.29L2257.14 2845.71L2257.14 2847.14L2257.14 2848.57L2252.86 2847.14M2572.86 2797.14C2587.09 2793.61 2592.91 2793.61 2607.14 2797.14M2578.57 2797.14C2585.86 2801.03 2594.14 2801.03 2601.43 2797.14M177.14 2812.86C200.78 2815.84 224.99 2815.56 248.57 2818.77C280.97 2823.2 314.62 2830.46 347.14 2836.31C372.41 2840.87 409.09 2854.59 434.29 2847.14L434.29 2845.71C422.62 2835.21 400.71 2832.61 385.71 2829.71C343.45 2821.57 298.7 2817.14 255.71 2817.14M2450 2812.86L2450 2815.71M915.71 2845.71C903.75 2852.1 894.76 2845.33 882.86 2844.37C862.04 2842.7 840.91 2842.86 820 2842.86C810.37 2842.86 798.65 2841.14 790 2845.71C797.13 2850.69 804.55 2849.51 812.86 2850.6C832.88 2853.24 860.12 2856.51 880 2852.17C887.79 2850.47 892.2 2842.84 900 2841.64C911.02 2839.93 923.13 2845.83 934.29 2846.9C953.8 2848.77 972.08 2847.74 991.43 2848.57C988.72 2859.79 972.93 2854.16 965.71 2850M992.86 2850L1017.14 2860C1016.9 2856.37 1012.41 2846.93 1015.3 2844.34C1018.01 2841.93 1022.89 2844.16 1025.71 2845.13C1036.22 2848.74 1053.74 2847.7 1062.62 2853.11C1068.19 2856.5 1064.3 2864.01 1071.51 2865.71C1082.17 2868.23 1093.36 2858.47 1104.13 2864.54C1111.66 2868.79 1108.34 2874.81 1104.29 2880L1105.71 2881.43L1119.87 2883.04L1138.57 2882.86L1135.71 2887.14L1137.14 2888.57L1142.86 2890L1145.71 2887.14L1138.57 2882.86M662.86 2887.14L662.86 2892.86L664.29 2894.29C666 2888.23 666.75 2880.76 673.12 2877.57C678.67 2874.79 684.55 2877.64 689.98 2873.66C697.67 2868.01 699.81 2856.73 707.46 2851.83C728.54 2838.31 766.48 2843.86 790 2845.71M800 2845.71L800 2847.14M434.29 2847.14L437.14 2847.14M974.29 2847.14L971.43 2852.86M2255.71 2851.43C2252.97 2859.51 2259.21 2859.46 2265.71 2857.89C2277.6 2855.01 2292.07 2848.34 2304.29 2851.43M672.86 2875.71C675.01 2862.29 691.54 2853.51 704.29 2852.86M2305.71 2854.29L2308.44 2941.43L2300 2980M991.43 2857.14L1000 2857.14M1017.14 2860C1022.46 2864.49 1025.95 2866.51 1031.43 2861.43L1020 2861.43M1031.43 2861.43L1064.29 2865.71M2240 2980C2240.09 2949.39 2239.81 2912.76 2252.47 2884.29C2255.9 2876.56 2272.89 2852.94 2282.94 2866.17C2290.2 2875.71 2282.7 2896.3 2281.67 2907.14C2279.37 2931.26 2280.59 2959.37 2294.29 2980M624.29 2980C621.65 2977.73 615.02 2974.59 614.26 2971C612.74 2963.84 621.14 2950.97 623.68 2944.29C632.79 2920.34 645.66 2873.94 674.29 2867.14M1030 2867.14C1048.81 2869.67 1084.95 2886.13 1101.43 2874.29L1078.57 2867.14M668.57 2868.57L672.86 2872.86M292.86 2877.14C307.08 2873.61 312.92 2873.61 327.14 2877.14M1168.57 2888.57L1152.86 2890L1152.86 2888.57C1160.26 2884.59 1159.24 2880.23 1161.43 2872.86L1172.86 2884.29L1165.71 2894.29L1167.14 2895.71L1200 2908.79L1222.86 2904.29L1224.29 2902.86C1208.61 2894.56 1186.53 2898.61 1174.29 2884.29M1101.43 2874.29L1105.71 2874.29M298.57 2877.14C305.86 2881.03 314.14 2881.03 321.43 2877.14M1111.43 2877.14L1111.43 2878.57M1117.14 2878.57L1124.29 2878.57M1098.57 2880L1104.29 2880M1131.43 2880L1130 2885.71L1131.43 2887.14L1132.86 2887.14L1134.29 2887.14L1135.71 2887.14M2105.71 2980C2108.17 2970.53 2114.5 2962.69 2116.8 2952.86C2120.49 2937.19 2118.73 2921.51 2120.24 2905.71C2120.63 2901.67 2121.13 2884.59 2127.14 2884.59C2133.03 2884.59 2132.8 2903.19 2132.86 2907.14C2133.14 2931.56 2128.64 2955.66 2128.57 2980M1124.29 2885.71L1130 2885.71M1160 2885.71L1162.86 2888.57M1145.71 2887.14L1152.86 2888.57M1170 2890L1175.71 2890M660 2891.43C645.29 2912.09 624.03 2950.07 622.86 2975.71M664.29 2894.29C661.69 2923.97 629.4 2950.59 638.57 2980M1162.86 2894.29L1165.71 2894.29M1218.57 2901.43L1218.57 2904.29M181.43 2968.57L188.57 2964.29L190 2964.29L190 2968.57C213.44 2965.13 236.75 2957.67 260 2952.86C318.28 2940.8 376.18 2928.44 432.86 2910L434.29 2908.57L430 2904.29L441.43 2904.29M204.29 2962.86C205.53 2956.99 211.9 2956.61 217.14 2955.13C230.44 2951.34 243.77 2947.6 257.14 2944.11C296.05 2933.96 335.01 2923.77 374.29 2915.13C392.43 2911.13 411.35 2904.87 430 2904.29M438.57 2904.29L434.29 2908.57M1225.71 2904.29L1247.14 2911.43L1251.43 2907.14L1244.29 2905.71M1251.43 2907.14C1275.39 2908.17 1305.64 2911.73 1328.57 2918.57L1330 2920C1308.59 2931.41 1271.03 2916.16 1248.57 2912.86M1317.14 2917.14L1317.14 2920M1330 2920C1340.12 2921.29 1351.62 2921.01 1361.43 2923.67C1367.94 2925.43 1373.24 2929.69 1380 2930.99C1403.81 2935.59 1428.76 2935.61 1452.86 2937.27C1465.06 2938.1 1486.94 2944.63 1494.29 2932.86L1437.14 2928.44L1368.57 2922.86M1.43 2962.86C12.58 2949.77 20.64 2935.26 35.71 2925.9C40.28 2923.07 53.02 2918.46 52.05 2928.6C50.08 2949.04 21.21 2962.86 12.86 2980M2052.86 2980C2064.33 2964.66 2058.1 2937.41 2077.14 2927.14L2075.71 2980M2000 2931.43C1998.61 2949.61 1972.8 2963.24 1965.71 2980M1494.29 2932.86L1546.73 2937.5L1574.29 2938.57C1566.24 2944.36 1556.61 2944.36 1548.57 2938.57M1574.29 2938.57L1601.43 2944.23L1642.86 2938.57L1754.29 2938.51L1835.71 2932.86M1517.14 2934.29C1520.26 2944.56 1535.07 2942.73 1542.86 2938.57M1588.57 2940C1596.1 2935.99 1605.33 2935.99 1612.86 2940M1517.14 2938.57L1492.86 2940M1630 2941.43C1640.83 2949.21 1656.03 2945.87 1668.57 2949.07C1723.41 2963.04 1783.53 2944.5 1838.57 2940M2000 2942.86L2005.71 2980M198.57 2964.29L202.86 2960M194.29 2965.71L192.86 2962.86L198.57 2961.43M191.43 2962.86L192.86 2962.86M185.71 2970L188.57 2970M2405.71 2970L2407.14 2972.86M0 2980L1.43 2980"/>
</g>

</svg>