<!DOCTYPE svg PUBLIC "-//W3C//DTD SVG 20010904//EN" "http://www.w3.org/TR/2001/REC-SVG-20010904/DTD/svg10.dtd">
<svg version="1.0" xmlns="http://www.w3.org/2000/svg" width="325px" height="325px" viewBox="0 0 3250 3250" preserveAspectRatio="xMidYMid meet">
 <g id="layer101" fill="none" stroke-width="5" stroke="black">
  <path d="M1595.71 1082.86C1592.51 1060.37 1579.69 1047.7 1566.27 1031.37C1560.69 1024.57 1560.46 1015.46 1554.96 1008.7C1538.24 988.15 1510.56 971.99 1488.57 957.63C1477.87 950.64 1452.36 929.37 1438.71 932.72C1431.29 934.55 1430.33 946.7 1430.06 952.86C1429.11 974.1 1422.97 1029.33 1388.57 1007.19C1363.82 991.25 1355.68 956.67 1340.82 932.86C1319.91 899.33 1289.63 870.83 1260 845.11C1248.5 835.12 1237.27 824.82 1225.71 814.89C1222.4 812.05 1216.74 805.19 1211.86 805.77C1208.65 806.14 1206.02 812.01 1204.29 814.29L1202.86 812.86C1202.86 749.01 1194.71 683.47 1203.26 620C1207.59 587.88 1222.38 558.7 1229.39 527.14C1243.03 465.77 1252.71 413.69 1290.61 361.43C1363.21 261.32 1487.74 175.09 1610 150.64C1652.57 142.13 1695.64 144.07 1738.57 147.02C1793.74 150.8 1849.71 157.88 1902.86 173.89C1920.53 179.21 1936.9 187.76 1954.29 193.79C1974.03 200.65 1994.74 201.49 2014.29 208.65C2057.76 224.59 2099 250.25 2137.14 276.21C2190.11 312.26 2244.26 352.61 2283 404.29C2310.51 440.96 2326.66 482.43 2340.49 525.71C2357.8 579.89 2370.91 635.99 2367.01 692.86C2364.66 727.37 2354.79 758.64 2346.09 791.43C2339.43 816.53 2336.43 843.08 2331.07 868.57C2329.54 875.85 2332.29 881.61 2328.57 888.57C2315.77 877.84 2315.94 867.88 2308.57 854.29L2307.14 854.29L2305.71 855.71C2305.71 875.51 2309.87 903.63 2300 921.43L2292.86 915.71L2291.43 915.71L2290 917.14C2290 923.55 2284.59 939.22 2289.16 943.75C2299.53 954.02 2325.84 901.26 2332.86 924.29L2322.86 920M1492.86 920L1494.29 925.71L1492.86 927.14L1490 925.71L1488.57 924.29C1490.97 912.57 1468.29 903.72 1460 898.08C1440.11 884.56 1428.43 868.96 1430.13 844.29C1432.84 804.83 1475.09 788.02 1505.71 771.74C1520.2 764.04 1537.27 754.78 1543.27 738.57C1549.57 721.55 1551.21 689.26 1542.23 672.91C1538.67 666.44 1531.54 662.73 1526.89 657.09C1517.96 646.26 1511.26 632.82 1505.71 620C1500.67 608.34 1484.9 581.46 1491.7 568.73C1495.89 560.91 1507 562.11 1514.29 559.94C1524.91 556.76 1534.5 549.76 1542.86 542.67C1555.21 532.18 1574.27 506.68 1592.77 508.84C1605.39 510.31 1588.3 526.34 1598.79 530.24C1613.04 535.54 1632.01 517.77 1645.71 515.71L1647.14 517.14C1645.64 527.19 1658.3 526.96 1665.71 527.96C1681.03 530.05 1699.51 527.69 1714.29 523.26C1720.09 521.51 1729.47 515.03 1735.16 519.46C1748.99 530.24 1735.16 564.91 1761.43 563.89C1782.7 563.06 1788.96 542.52 1805.71 535.04C1812.51 532.01 1824.44 528.9 1830.97 534.08C1846.33 546.29 1810.81 577 1823.71 589.11C1828.2 593.32 1834.04 587.31 1837.09 584.26C1845.59 575.75 1850.91 565.02 1858.43 555.78C1860.29 553.48 1864.14 548.52 1867.71 550.37C1872.04 552.6 1868.64 561.1 1867.61 564.29C1864.04 575.28 1852.89 588.37 1855.71 600C1874.04 592.91 1886.14 573.69 1902.86 563.52C1905.59 561.86 1918.8 553.55 1920.13 560.46C1921.94 569.8 1901.64 583.24 1898.57 592.86L1900 594.29C1924.71 587.17 1942.01 564.03 1964.29 551.87C1975.56 545.72 1990.34 549.96 1999.94 543.28C2006.19 538.93 2009.04 531.23 2014.41 525.96C2028.79 511.88 2052.39 498.5 2072.86 497.28C2086.6 496.46 2101.73 504.07 2115.71 505.47C2173.91 511.32 2234.81 514.72 2269.34 571.43C2290.36 605.95 2294.57 659.1 2300 698.57C2303.37 723.15 2307.87 748.04 2308.59 772.86C2308.87 782.73 2311.86 791.43 2305.71 800C2304.17 797.29 2303.16 794.12 2301.47 791.51C2290.67 774.84 2290 810.77 2290 815.71L2290 880C2290 889.98 2292.24 900.44 2285.71 908.57C2276.6 895.22 2262.46 876.51 2244.29 876.44C2230.41 876.39 2214.27 884.03 2200 885.64C2183.11 887.55 2163.7 885.2 2147.39 889C2119.23 895.55 2094.53 909.54 2070 924.29C2058.06 931.47 2030.04 937.55 2022.87 948.63C2018.36 955.59 2019.07 963.6 2018.33 971.43C2015.8 997.94 2020.23 1016.08 2027.14 1041.43L2028.57 1042.86L2031.43 1011.43L2044.29 1031.43L2045.71 1031.43C2051.5 1023.38 2049.34 1015.09 2050.24 1005.71C2052.29 984.35 2056.63 967.73 2077.14 958.57L2080 961.43L2082.86 970L2081.43 971.43L2077.14 972.86L2075.71 972.86L2071.43 961.43M1785.71 594.29L1807.01 617.23L1812.86 640C1828.01 624.85 1848.64 603.58 1872.83 607.36C1882.04 608.79 1886.2 617.92 1897.14 618.42C1910.01 619.01 1922.73 614.15 1935.71 615.98C1944.5 617.23 1943.43 631.93 1950.07 630.36C1964.49 626.94 1964.27 603.16 1971.9 593.46C1989.29 571.39 2014.73 558.26 2041.43 550.61C2107.43 531.69 2211.19 511.27 2256.63 578.57C2278.37 610.76 2281.64 658.34 2288.86 695.71C2293.04 717.46 2296.73 739.49 2299.81 761.43C2301.11 770.69 2304.57 780.96 2301.43 790M2142.86 887.14C2122.9 887.14 2080.59 880.27 2068.57 900C2052.74 892.14 2040.66 883.54 2021.43 885.98C2004.3 888.15 1982.99 913.57 1966.64 891.37C1960.93 883.59 1960.76 872.11 1959.9 862.86C1957.74 839.8 1955.47 813.64 1967.79 792.86C1975.47 779.89 1991.86 769.05 1995.86 754.29C1998.36 745.09 1984.33 725.89 1981.64 715.71C1968.84 667.08 1958.06 590.65 2025.71 581.84C2032.46 580.96 2042.67 580.49 2047.51 586.31C2051.96 591.67 2049.99 601.73 2060 600.52C2086.54 597.31 2102.76 554.71 2132.86 563.78C2144.69 567.35 2151.2 579.12 2161.43 585.21C2166.8 588.4 2181.36 589.36 2184.64 593.72C2189.93 600.74 2163.6 614.67 2162.37 622.84C2160.17 637.56 2197.14 626.03 2187.01 647.14C2181.09 659.5 2166.17 664.18 2157.61 674.31C2151.57 681.46 2150.7 692.13 2142.83 697.57C2137.1 701.53 2118.56 698.88 2116.9 705.93C2115.77 710.73 2120.9 716.34 2123.33 720C2131.2 731.8 2140.33 745.52 2152.86 752.85C2158.9 756.38 2165.61 755.3 2170.04 761.51C2178.59 773.48 2173.31 789.33 2180.73 800C2194.97 820.49 2223.44 837.33 2245.71 847.66C2251.66 850.41 2271.57 852.39 2268.93 862.64C2266.61 871.59 2241.06 856.73 2234.29 857.23C2226.24 857.83 2219.4 865.6 2211.43 868.07C2199.37 871.82 2179.17 867.16 2169.04 874.3C2165.43 876.85 2164.2 883.54 2161.43 887.14M1975.71 590C1968.61 579.37 1978.31 573.33 1988.57 572.86M1970 588.57L1970 591.43M1784.29 600C1784.29 631.27 1787.93 663.73 1800.01 692.86C1804.66 704.04 1819.09 721.39 1811.43 732.86C1808.74 730.16 1804.74 726.3 1802.29 731.67C1794.83 747.89 1802.2 769.81 1797.09 787.14C1793.06 800.75 1779.44 802.97 1774.69 814.31C1771.11 822.83 1777.37 827.03 1768.57 834.29L1768.57 835.71C1795.94 860.68 1842.13 875.85 1877.14 886.65C1884.14 888.8 1891.84 887.8 1898.57 890.53C1908.94 894.75 1918.11 902.94 1927.14 909.4C1948.56 924.71 1973.21 941.69 1989.24 962.86C1992.3 966.9 1995.24 972.02 1992.8 977.09C1991.23 980.33 1983.59 985.08 1986.79 989.16C1990.3 993.64 2003.53 988.57 2004.06 996.04C2004.54 1003.07 1996.57 1015.09 1995.16 1022.86C1991.26 1044.38 1989.59 1066.77 1988.63 1088.57C1987.66 1110.67 1987.49 1133.78 1990.23 1155.71C1991.51 1166.02 1998.24 1175.22 1997.07 1185.71C1994.34 1209.91 1998.17 1234.58 2007.76 1257.14C2012.06 1267.28 2018.37 1278.25 2030 1280.87C2055.57 1286.61 2083.17 1262.57 2105.71 1254.29L2107.14 1254.29L2107.14 1255.71L2105.71 1258.57L2101.43 1257.14M2364.29 662.86C2358.53 670.84 2357.74 681.85 2356.07 691.43C2352.7 710.85 2349.87 730.43 2347.56 750C2346.34 760.15 2343.76 771.33 2350 780M1817.14 731.43L1818.57 740M1811.43 734.29L1817.14 737.14M2344.29 777.14L2345.71 787.14M2304.29 787.14L2308.57 787.14M2305.71 800L2308.57 845.71C2311.24 840.61 2311.24 837.97 2308.57 832.86M1204.29 814.29C1201.65 835.14 1199.39 862.29 1204.29 882.86L1205.71 884.29C1215.79 872.26 1208.22 849.53 1212.86 834.29C1224.46 839.81 1230.3 853.93 1233.68 865.71C1241.37 892.57 1245.75 930.28 1231.43 955.71C1213.15 945.15 1211.48 900.44 1211.43 881.43M1915.71 881.43C1913.83 877.6 1915.09 869.78 1911.97 867.18C1907 863.04 1895.69 866.35 1894.37 857.09C1893.6 851.65 1900.06 848.28 1904.29 846.84C1918.03 842.18 1946.11 842.55 1935.83 864.29C1934.33 867.45 1932.29 870.27 1929.86 872.78C1925.76 876.98 1920.94 879.05 1915.71 881.43M2308.57 845.71L2330 867.14M2308.57 851.43L2308.57 854.29M1571.43 930C1570.81 913.5 1601.29 889.93 1617.14 890.12C1626.09 890.23 1632.33 898.83 1641.43 897.11C1659.83 893.64 1668.96 870.43 1687.14 866.89C1698 864.78 1714.59 871 1725.71 872.45C1750.41 875.67 1775.36 876.1 1800 879.61C1819.33 882.37 1841.2 884.57 1858.57 894.15C1863.51 896.88 1873.63 902.3 1874.4 908.59C1875.07 914.15 1868.06 918.26 1864.29 921.01C1854.47 928.13 1840.41 942.2 1827.14 939.84C1816.99 938.03 1808.83 928.92 1800 924.14C1788.33 917.83 1774.36 915.01 1761.43 912.58C1737.16 908.01 1711.57 911.05 1687.14 912.73C1647.87 915.43 1609.26 919.19 1571.43 930M1204.29 885.71C1204.51 966.84 1225.31 1056.11 1263.96 1127.14C1273.46 1144.62 1284.3 1161.83 1297.03 1177.14C1302.58 1183.82 1307.97 1191.99 1317.14 1192.86L1318.57 1194.29L1317.14 1195.71L1315.71 1197.14L1312.86 1194.29M2327.14 887.14C2318.07 893.97 2298.9 910.43 2317.14 920M2331.43 890L2332.86 917.14M2142.86 900.61C2164 897.58 2188.21 899.45 2208.57 905.75C2211.6 906.69 2236.63 915.43 2226.66 920.57C2220.56 923.71 2208.36 922.35 2201.43 923.09C2179.54 925.45 2160.53 928.09 2138.57 923.34C2132.41 922.01 2122.04 920.7 2118.09 915.16C2110.61 904.69 2137.53 901.37 2142.86 900.61M1444.29 910L1447.14 905.71L1448.57 905.71L1450 907.14L1445.71 911.43C1473.57 932.08 1503.71 951.2 1535.71 964.89C1547.09 969.75 1561.67 976.94 1574.29 973.14C1586.49 969.47 1582.51 960.73 1590.21 954.42C1604.37 942.83 1626.8 933.61 1644.29 928.63C1653.71 925.94 1664.34 928.94 1654.29 938.57C1667.23 949.52 1697.91 946.05 1714.29 945.71M2291.43 905.71L2290 914.29M1450 907.14L1488.57 924.29M2285.71 910L2290 914.29M1571.43 924.29L1575.71 928.57M2332.86 924.29L2367.96 965.71L2390 987.14L2391.43 988.57L2385.71 994.29L2385.71 995.71C2390.37 995.81 2391.53 994.66 2391.43 990M1625.71 955.71L1625.71 961.43L1624.29 962.86L1618.57 957.14L1654.29 938.57M1650 941.43L1657.14 944.29M1631.43 950L1628.57 944.29L1637.14 942.86M2280 945.71L2275.71 945.71L2274.29 944.29L2284.29 942.86M2231.43 1050C2228.83 1047.47 2230.27 1046.6 2232.86 1044.29L2234.29 1044.29L2235.71 1045.71L2231.43 1050L2232.86 1051.43C2262.59 1053.09 2242.47 1083.83 2228.57 1092.73C2203.8 1108.59 2169 1115.58 2140 1117.19C2130.51 1117.72 2120.91 1119.89 2111.43 1117.83C2082.7 1111.6 2067.33 1067.55 2070.41 1041.43C2071.86 1029.18 2071.93 1012.35 2087.14 1010C2087.87 1044.23 2138.16 1021.52 2158.39 1025.94C2165.4 1027.48 2189 1034.54 2194 1025.26C2197.27 1019.2 2191.6 1011.48 2190.43 1005.71C2186.8 987.74 2185.43 969.21 2162.86 966.15C2157.1 965.37 2151.47 967.03 2145.71 967.17C2141.27 967.28 2116.47 967.3 2115.6 962.59C2113.66 952.14 2142.86 951.15 2148.57 951.84C2189.39 956.77 2233.11 944.31 2274.29 944.29M1628.57 951.43L1627.14 945.71M1694.29 945.71C1678.86 956.85 1652.37 953.64 1634.29 960.63C1621.16 965.7 1617.77 977.25 1627.47 988.52C1631.57 993.28 1636.89 997.08 1641.43 1001.43L1622.19 1021.45L1604.29 1062.86C1599.39 1053.68 1601.67 1042.82 1602.61 1032.86C1604.57 1012.36 1607.5 993.1 1611.43 972.86L1620 975.71M2278.57 948.57L2227.14 965.71C2238.54 978.78 2259.26 979.81 2267.91 997.14C2273.71 1008.73 2265.93 1016.21 2255.71 1020.38C2237.3 1027.9 2215.31 1028.57 2195.71 1028.57M1622.86 950L1621.43 952.86M2078.57 958.57C2090.43 951.31 2106.54 952.86 2120 952.86M1295.71 955.35C1306.74 952.29 1326.5 972.24 1326.5 982.86C1326.5 993.63 1312.2 1003.59 1307.54 1012.86C1298.7 1030.42 1303.13 1050.9 1309.05 1068.57C1310.72 1073.58 1323.2 1098.63 1312.65 1100.11C1307.33 1100.86 1303.25 1093.84 1301.14 1090C1294.71 1078.31 1290.44 1064.61 1288.57 1051.43C1287.61 1044.67 1289.68 1030.03 1284.97 1025.02C1279.28 1018.97 1269.08 1023.38 1265.35 1014.22C1258.29 996.89 1278.48 960.13 1295.71 955.35M2161.43 954.29C2175.06 964.13 2210.94 968.7 2227.14 965.71M1767.14 955.71L1778.57 958.57L1758.57 964.29L1757.14 965.71C1769.06 973.61 1786.36 974.07 1800 978.17C1807.33 980.38 1811.74 983.13 1818.57 978.57C1810.16 971.66 1799.37 966.14 1788.57 964.29L1787.14 962.86L1792.86 957.14L1791.43 955.71L1781.43 960L1782.86 961.43L1784.29 962.86L1785.71 962.86L1787.14 962.86M1627.14 957.14L1631.43 961.43M1792.86 957.14C1806.5 957.26 1842.96 957.24 1851.54 968.73C1864.94 986.66 1851.2 1009.67 1875.71 1022.86L1854.29 1047.14M1907.14 958.57L1901.43 961.43L1901.43 960L1901.43 958.57L1902.86 957.14C1918.7 964.2 1941.53 986.57 1924.29 1001.43L1930 1018.57L1931.43 1020L1932.86 1020C1935.47 1017.14 1941.93 1005.92 1946.59 1007.64C1953.29 1010.1 1949.27 1026.55 1948.46 1031.43C1945.21 1050.69 1937.29 1083.46 1917.14 1091.43C1911.39 1070.46 1938.67 1052.62 1932.86 1031.43C1922.96 1036.05 1891.54 1079.83 1891.47 1044.29C1891.46 1040.4 1892.16 1036.66 1892.86 1032.86L1858.57 1047.14M1618.57 958.57L1621.43 968.57M1780 958.57L1781.43 960M2084.29 970L2114.29 960M1902.86 962.86C1903.36 965.63 1904.17 968.59 1903.83 971.43C1900.79 997.17 1874.21 967.44 1867.14 966.25C1861.96 965.38 1858.76 969.4 1855.71 972.86M2107.14 962.86L2112.86 965.71M1614.29 964.29L1621.43 972.86M1642.86 1001.43C1659.6 956.11 1717.29 965.8 1757.14 965.71M1612.86 967.14L1612.86 971.43M2101.43 967.14C2107.29 973.09 2114.03 974.96 2114.29 984.29L2115.71 984.29L2117.14 984.29L2117.14 978.57M2140 968.57L2121.43 981.43M2075.71 972.86C2072.31 976.12 2063.74 981.5 2064.34 986.95C2065.14 994.26 2071.87 986.59 2070 980M2221.43 998.57L2205.71 977.14C2218.87 975.03 2239.46 983.35 2249.97 991.13C2254.47 994.44 2261.64 1002.08 2256.27 1007.78C2247.33 1017.29 2233.07 1000.85 2224.49 1000.03C2219.84 999.59 2216.84 1007.51 2212.83 1009.55C2206.97 1012.51 2200.43 1010.78 2194.29 1010M1820 978.57L1822.86 982.86L1814.29 982.86M2378.57 980L2363.33 1000.02L2374.29 1035.71L2375.71 1037.14C2385.89 1028.26 2387.11 1009.91 2387.14 997.14M1890 1031.43C1894.27 1025.69 1905.14 1010.93 1906.03 1004.29C1906.63 999.79 1901.77 997.09 1901.31 992.86C1900.2 982.49 1917.56 981.57 1924.29 981.43M1822.86 984.29L1828.57 990M2114.29 984.29L2088.57 1008.57M2384.29 985.71L2387.14 992.86M1760 987.9C1771.4 985.08 1788.13 986.01 1798.57 991.42C1806.91 995.76 1811.73 1005.54 1800 1009.2C1787.73 1013.04 1771.1 1008.62 1760 1002.99C1751.77 998.81 1749.43 990.53 1760 987.9M2071.43 988.57L2092.86 1002.86M2212.86 990L2192.86 995.71M1644.29 1000C1676.13 1023.17 1719.49 1008.67 1754.23 1018.37C1764 1021.1 1777.49 1040.69 1785.71 1039.75C1790.97 1039.15 1800.43 1027.56 1794.83 1022.9C1789.3 1018.29 1769.07 1018.72 1761.43 1017.14M1908.57 1002.86L1924.29 1001.43M1857.14 1002.86C1852.67 1010.92 1852.09 1021.69 1844.01 1027.55C1835.29 1033.89 1810.11 1021.92 1798.57 1021.43M1648.57 1004.29L1638.57 1012.86C1643.17 1022.1 1657.93 1042.67 1668.57 1044.73C1682.64 1047.45 1695.37 1043.99 1710 1049.58C1714.49 1051.29 1722.26 1054.48 1722.97 1060.04C1724.8 1074.26 1695.4 1068.37 1688.57 1067.55C1671.01 1065.45 1639.71 1068.37 1626.11 1055.15C1620.47 1049.67 1620.73 1040.9 1617.14 1034.29M1634.29 1010L1638.57 1014.29M2191.43 1010L2177.14 1027.14M2161.43 1024.29C2167.29 1021.17 2171.29 1021.17 2177.14 1024.29M2051.43 1030C2051.16 1043.48 2050.36 1066.36 2064.29 1074.29L2070 1060M2162.86 1030C2149.39 1042.17 2161.5 1043.95 2174.29 1044.26C2193 1044.72 2211.64 1041.41 2230 1042.86M2044.29 1031.43L2050 1041.43M2375.71 1037.14C2370.79 1063.28 2358.56 1090.41 2342.11 1111.43C2328.11 1129.33 2311.31 1141.51 2304.9 1164.29C2293.97 1203.03 2300 1250.05 2300 1290C2300 1302.7 2302.77 1319.08 2299.54 1331.37C2297.03 1341.01 2283.99 1352.42 2278.57 1361.43C2264.97 1384.06 2255.27 1409.97 2240 1431.43L2235.71 1427.14L2234.29 1428.57C2234.91 1446.2 2221.34 1476.59 2208.57 1488.57L2207.14 1488.57L2211.43 1480M2034.29 1041.43C2028.74 1053.1 2043.31 1060.05 2034.29 1071.43C2031.09 1067.24 2020.14 1052.4 2013.73 1058.09C2010.5 1060.95 2012.26 1066.39 2012.61 1070C2013.7 1081 2015 1091.93 2016.79 1102.86C2019.86 1121.65 2022.37 1140.97 2022.84 1160C2023.49 1186.65 2021.2 1215.03 2036.34 1238.57C2039.61 1243.64 2045.77 1251.9 2052.8 1251C2060.57 1250.01 2059.83 1238.28 2065.87 1234.41C2080.44 1225.09 2116.04 1226.7 2114.33 1200C2113.3 1183.91 2096.91 1159.76 2084.29 1150.47C2078.06 1145.9 2071.64 1146.1 2065.84 1139.99C2046.39 1119.49 2040.76 1098.38 2034.29 1072.86M2072.86 1060C2077.84 1054 2084.61 1040.55 2094.13 1042.04C2099.21 1042.83 2099.84 1048.94 2103.29 1051.85C2108.03 1055.86 2116.86 1056.81 2122.86 1056.96C2136.67 1057.3 2144.63 1049.4 2155.71 1042.86M2224.29 1042.86L2222.86 1047.14L2227.14 1048.57M2028.57 1044.29L2030 1045.71M2212.86 1044.29L2222.86 1047.14M2035.71 1045.71L2035.71 1051.43M2237.14 1045.71L2240 1048.57M2048.57 1052.86C2048.57 1066.86 2046.43 1066.92 2035.71 1074.29M2250 1057.14C2254.33 1057.05 2262.5 1054.5 2265.8 1058.03C2269.66 1062.14 2268.57 1070.58 2268.57 1075.71C2268.57 1089.93 2268.36 1117.36 2254.23 1125.51C2242.44 1132.31 2220.44 1129.85 2207.14 1130.01C2201.17 1130.08 2190.49 1130.33 2186.79 1136.05C2180.56 1145.71 2212.63 1147.02 2217.14 1147.55C2251.43 1151.61 2282.47 1140.09 2315.71 1138.57M1604.29 1062.86L1594.29 1075.71M1604.29 1067.14C1613.71 1077.33 1613.73 1092.94 1625.84 1101.24C1640.04 1110.97 1661.99 1112.28 1678.57 1114.67C1721.17 1120.81 1765.6 1120.11 1807.14 1130M1607.14 1070C1595.79 1091.29 1619.36 1113.33 1637.14 1120.95C1671.33 1135.59 1715.26 1138.4 1751.43 1133.46C1761.94 1132.03 1774.87 1133.6 1784.29 1128.57M2042.86 1071.43C2046.16 1089.98 2061.39 1108.49 2074.29 1121.43L2075.71 1120L2071.43 1117.14M2062.86 1077.14L2074.29 1115.71M2265.71 1167.14L2265.71 1165.71C2268.97 1163.25 2271.59 1162.93 2275.71 1162.86C2280.66 1162.78 2288.13 1161.71 2292.1 1165.35C2300.13 1172.7 2285.73 1195.12 2276.19 1189.81C2271.53 1187.22 2275.34 1181.06 2274.8 1177.15C2274.09 1172.04 2269.74 1169.52 2265.71 1167.14M1685.71 1245.71C1682.63 1227.82 1654.77 1202.49 1667.87 1184.31C1684.91 1160.68 1728.17 1164.04 1750 1174.27C1754.39 1176.33 1773.6 1172.43 1772.79 1178.78C1772.01 1184.87 1764.59 1191.26 1760.83 1195.71C1748.79 1209.97 1734.91 1232.01 1718.57 1241.3C1705.74 1248.59 1698.23 1239.53 1688.57 1252.86L1690 1245.71M2104.29 1261.43C2093.19 1275.82 2082.66 1288.99 2067.14 1299C2058.83 1304.37 2047.5 1305.64 2040.09 1311.99C2034.06 1317.16 2037.2 1322.41 2034.23 1328.57C2031.11 1335.01 2023.47 1339.5 2017.14 1342.19C1994.44 1351.87 1971 1347.66 1948.57 1354.29C1956.23 1367.54 1986.41 1367.12 2000 1367.14C2040.19 1367.21 2082.07 1365.1 2121.43 1356.21C2138.04 1352.46 2155.79 1349.76 2164.09 1332.86C2181.53 1297.38 2151.59 1253.72 2139.4 1221.43C2135.36 1210.73 2124.1 1185.68 2131.69 1174.76C2138.21 1165.37 2160.71 1188.18 2165.71 1192.47C2187.66 1211.28 2206.8 1231.98 2232.86 1245.34C2246.84 1252.52 2271.04 1256.32 2277.3 1272.86C2285.21 1293.82 2255.84 1314.1 2249.26 1331.43C2245.69 1340.85 2257.17 1341.92 2254.77 1349.98C2251.93 1359.49 2240.34 1354.31 2236.99 1361.65C2232.04 1372.44 2236.26 1390.04 2237.01 1401.43C2237.59 1410 2235.71 1418.55 2235.71 1427.14M1318.57 1194.29L1347.14 1194.29M1828.64 1198.66C1833.97 1197.83 1835.5 1204.76 1836.26 1208.57C1839.21 1223.45 1842.1 1235.03 1854.29 1245.41C1881.01 1268.18 1919.19 1257.07 1950 1268.66C1957.73 1271.57 1965.66 1275.15 1971.21 1281.48C1973.1 1283.64 1976.74 1288.66 1972.37 1290.43C1965.49 1293.23 1948.27 1281.73 1940 1280.61C1903.77 1275.67 1873.8 1285.41 1844.41 1256.9C1833.89 1246.69 1821.47 1231 1820.31 1215.71C1819.91 1210.32 1821.97 1199.69 1828.64 1198.66M1335.71 1198.57L1311.43 1225.71L1337.14 1235.71C1326.68 1244.65 1312.06 1243.89 1301.56 1253.33C1282.35 1270.59 1277.88 1308.83 1272.36 1332.86C1270.15 1342.48 1265.37 1352.76 1271.43 1361.43L1335.71 1271.43L1331.43 1267.14L1325.71 1278.57M1314.29 1200L1328.57 1218.57L1318.57 1224.29M1310 1225.71C1303.99 1231.29 1294.49 1232.31 1289.26 1237.87C1285.85 1241.51 1285.83 1247.38 1282.53 1251.43C1230.85 1314.87 1223 1400.08 1210.82 1478.57C1204.41 1519.89 1195.63 1561.21 1191.67 1602.86C1190.46 1615.53 1195.05 1627.8 1194.04 1640C1192.78 1655.06 1186.03 1669.17 1185.71 1684.29L1187.14 1685.71C1204.07 1670.94 1208.92 1633.66 1215.71 1612.86C1237.96 1544.77 1251.95 1474.39 1272.03 1405.71C1277.84 1385.88 1284.82 1366 1293.29 1347.14C1297.01 1338.87 1303.81 1329.92 1298.57 1321.43M1305.71 1230L1312.86 1232.86M1337.14 1235.71C1367.31 1246.19 1342.24 1270.52 1351.44 1288.16C1370.1 1323.93 1385.68 1362.17 1403.93 1398.57C1412.04 1414.74 1420.84 1436.24 1434.29 1448.57L1435.71 1448.57C1435.24 1444.07 1434.4 1442.97 1430 1444.29M382.86 1821.43L384.29 1830C376.6 1826.14 383.21 1819.19 384.86 1812.86C389 1797.07 392.45 1781.21 397.62 1765.71C420.86 1696 469.18 1640.21 528.57 1597.74C596.61 1549.1 674.81 1514.96 751.43 1482.26C852.95 1438.94 955.39 1398.48 1055.71 1352.42C1108.69 1328.09 1157.86 1295.72 1210 1269.65C1232.3 1258.5 1260.58 1242.19 1285.71 1240M1332.86 1240L1342.86 1258.57L1351.43 1248.57M1344.29 1242.86L1340 1250M1692.86 1250L1695.71 1261.43L1688.57 1252.86M2110 1251.43L2107.14 1254.29M1335.71 1257.14L1342.86 1260M1334.29 1258.57L1335.71 1270M1337.14 1261.43L1338.57 1262.86M1332.86 1262.86L1337.14 1268.57M1331.43 1265.71L1331.43 1267.14M1330 1270L1332.86 1272.86M1348.57 1290C1348.3 1298.54 1342.67 1304.52 1341.68 1312.86C1339 1335.42 1339.46 1358.71 1340.02 1381.43C1341.29 1433.34 1352.27 1491.41 1374.46 1538.57C1383.87 1558.59 1398.39 1574 1409.32 1592.86C1412.46 1598.29 1411.87 1604.84 1415.15 1610C1421.85 1620.53 1435 1626.74 1444.29 1634.71C1454.79 1643.73 1462.44 1655.33 1471.43 1665.71L1472.86 1665.71L1474.29 1664.29L1470 1664.29M2195.71 1290C2213.96 1307.22 2208.53 1342.63 2195.71 1361.43L2194.29 1361.43C2189.61 1345.61 2187.94 1304.56 2195.71 1290M1317.14 1300L1304.29 1324.29M1347.14 1300C1353.69 1312.26 1351.88 1329.31 1354.57 1342.86C1361.37 1377.13 1368.02 1412.52 1379.08 1445.71C1393.65 1489.47 1411.26 1532.96 1431.79 1574.29C1445.61 1602.13 1465.69 1631.57 1474.29 1661.43M1305.71 1310L1310 1314.29M1304.29 1312.86L1307.14 1315.71M2300 1337.14C2301.44 1354.57 2316.96 1359.89 2331.43 1364.32C2362.7 1373.9 2395.61 1377.56 2427.14 1386.32C2532.01 1415.47 2620.29 1464.86 2671.07 1565.71C2699.61 1622.39 2716.61 1684.56 2732.69 1745.71C2753.27 1823.97 2770.26 1903.33 2785.16 1982.86C2795.63 2038.73 2806.86 2094.51 2819.17 2150C2823.97 2171.59 2832.11 2192.46 2835.33 2214.29C2847.2 2294.93 2844.57 2377.41 2850.13 2458.57C2858.07 2574.53 2876.46 2689.73 2884.41 2805.71C2888.8 2869.67 2890.16 2933.01 2888.59 2997.14C2887.5 3041.9 2887.5 3086.07 2877.74 3130C2872.16 3155.2 2862.73 3178.96 2853.14 3202.86C2848.29 3214.94 2843.2 3230.26 2833.99 3239.74C2816.94 3257.26 2787.71 3247.14 2765.71 3247.14C2729.31 3247.14 2692.03 3249.5 2655.71 3247.01C2631.46 3245.36 2606.79 3238.57 2582.86 3238.57C2586.3 3246.36 2593.06 3246.56 2600 3242.86M2300 1350C2300.59 1357.62 2304.09 1359.6 2311.43 1360M1265.71 1358.57C1266.84 1362.7 1267.5 1362.97 1271.43 1361.43M2078.57 1395.71C2093.51 1383.67 2108.3 1375.52 2127.14 1371.27C2132.1 1370.15 2143.7 1367.65 2147.56 1372.29C2151.73 1377.32 2143.29 1384.82 2139.94 1387.69C2129 1397.12 2114.41 1404.64 2100 1406.71C2084.01 1409.01 2084.51 1396.51 2072.77 1393.31C2062.01 1390.38 2049.4 1395.1 2038.57 1395.71L2038.57 1391.43L2014.29 1398.18L1955.73 1404.61L1935.71 1416.25L1917.14 1405.71L1921.43 1401.43C1917.77 1400.86 1912.79 1402.07 1917.14 1405.71M1778.57 1372.03C1797.93 1369.49 1817.8 1372.33 1837.14 1372.88C1843.83 1373.07 1854.34 1375.75 1848.09 1384.26C1834.36 1402.97 1824.44 1374.69 1811.99 1386.33C1799.53 1397.98 1817.9 1429.73 1799.97 1434.6C1794.17 1436.19 1786.47 1432.09 1781.43 1429.63C1765.96 1422.11 1751.56 1412.07 1738.57 1400.82C1734.39 1397.18 1724.03 1388.46 1726.31 1381.83C1727.93 1377.15 1735.93 1376.32 1740 1375.61C1752.86 1373.34 1765.73 1373.72 1778.57 1372.03M2151.43 1548.57C2117.93 1582.07 2088.76 1615.91 2061.43 1654.29C2046.73 1646.24 2032.83 1657.2 2018.57 1661.9C1997.06 1668.99 1972.57 1671.41 1950 1669.87C1938.9 1669.11 1923.73 1667.73 1914.37 1661.24C1910.09 1658.27 1909.16 1646.29 1905.26 1645.77C1896.1 1644.54 1889.23 1662.07 1878.9 1654.63C1866.89 1645.97 1889.3 1637.24 1889.79 1627.14C1890.61 1610.36 1855.76 1600.13 1874.69 1580.31C1883.6 1570.99 1901.21 1574.29 1912.86 1574.29C1937.01 1574.29 1973.77 1575.46 1995.53 1563.47C2000.21 1560.9 2002.87 1555.73 2007.17 1552.56C2014.9 1546.86 2023.86 1543.9 2031.43 1537.69C2047.23 1524.71 2060.13 1506.66 2071.83 1490C2074.54 1486.14 2092.97 1461.21 2086.23 1457.51C2082.87 1455.67 2078 1460.47 2075.71 1462.31C2066.94 1469.37 2058.76 1477.17 2050 1484.29C2046.81 1478.09 2042.36 1447.04 2050.21 1443.73C2062.49 1438.54 2101.77 1457.46 2092.86 1428.57C2108.31 1422.65 2120.59 1415.56 2132.86 1404.16C2139.59 1397.91 2149.86 1384.63 2159.94 1384.22C2173.13 1383.68 2164.51 1414.62 2163.46 1421.43C2158.76 1451.81 2158.46 1482.57 2154.1 1512.86C2152.39 1524.8 2144.13 1537.67 2151.43 1548.57L2152.86 1547.14L2154.29 1544.29L2148.57 1542.86M2054.29 1392.86C2055.83 1379.01 2076.06 1385.3 2081.43 1392.86M2045.71 1394.29L2052.86 1388.57M2205.71 1388.57L2207.14 1390C2203.09 1406.46 2199.57 1425.15 2188.57 1438.57L2187.14 1438.57C2183.59 1425.62 2193.51 1394.91 2205.71 1388.57M2040 1390L2045.71 1390M1914.29 1450L1921.43 1447.14L1922.86 1448.57L1921.43 1450C1905.94 1453.7 1894.96 1443.43 1881.43 1438.73C1873.34 1435.91 1865.46 1436.97 1859.33 1429.84C1853.26 1422.8 1846.77 1405.69 1854.9 1397.88C1867.56 1385.72 1876.13 1400.78 1884.5 1405.44C1891.59 1409.38 1903.8 1403.87 1908.57 1398.57L1880 1395.71M2030 1394.29L2037.14 1397.14M1867.14 1395.71C1864.07 1407.31 1864.04 1420.8 1878.57 1424.73C1883.89 1426.16 1890.39 1422.54 1895.26 1425.75C1903.81 1431.4 1899.3 1441.03 1912.86 1444.29M1908.57 1398.57L1914.29 1398.57M1921.43 1401.43L1948.57 1404.29M2077.14 1402.86C2073.97 1416.18 2077.93 1427.22 2092.86 1428.57M1907.14 1404.29L1912.86 1404.29M1434.29 1441.43C1435.06 1431.3 1444.66 1429.31 1447.51 1440C1450.29 1450.36 1444.5 1462.36 1444.29 1472.86L1445.71 1474.29L1447.14 1474.29C1458.9 1464.34 1468.01 1470.96 1480 1476.77C1483.41 1478.43 1492.86 1483.76 1495.34 1478.1C1497.46 1473.29 1473.06 1450.67 1483.31 1448.56C1489.24 1447.34 1497.36 1455.1 1501.43 1458.46C1511.29 1466.61 1520.87 1477.01 1526.6 1488.57C1530.76 1496.96 1530.23 1507.1 1540.03 1511.44C1550.51 1516.07 1560.94 1510.97 1571.43 1513.99C1582.96 1517.3 1591.7 1527.01 1601.43 1533.54C1609.99 1539.27 1620.31 1542.09 1628.57 1548.06C1639.7 1556.1 1637.4 1571.36 1648.63 1578.24C1656.17 1582.87 1666.06 1581.47 1674.29 1584.43C1682.27 1587.31 1686.73 1594.57 1694.29 1598.07C1703.49 1602.31 1713.64 1601.49 1722.86 1606.1C1745.11 1617.23 1761.39 1637.9 1780 1653.87C1790.96 1663.29 1802.84 1666.63 1814.2 1674.09C1819.76 1677.73 1820.21 1684.93 1825.8 1688.56C1831.93 1692.54 1845.46 1689.81 1848.07 1698.5C1850.09 1705.14 1835.53 1707.43 1831.43 1708.56C1812.3 1713.8 1792.44 1715 1772.86 1717.54C1747.63 1720.83 1703.04 1721.67 1686.44 1744.31C1678 1755.81 1684.6 1767.5 1682.64 1780C1681.33 1788.43 1671.84 1788.21 1668.94 1795.74C1664.24 1807.97 1670.1 1822.1 1664.71 1834.26C1662.49 1839.29 1656.86 1840.27 1654.46 1844.71C1651.84 1849.51 1655.6 1854.73 1650.97 1859.07C1642.49 1867.04 1631.84 1866.2 1626.47 1878.57C1622.9 1886.8 1623.21 1898.84 1626.39 1907.14C1630.79 1918.66 1641.94 1925.86 1628.57 1934.29C1642.4 1950.94 1663.56 1963.56 1680 1977.76C1687.04 1983.83 1693.06 1992.13 1702.86 1992.86L1704.29 1994.29L1702.86 1995.71L1701.43 1997.14L1698.57 1994.29M2240 1432.86L2237.14 1435.71M1932.86 1450L1924.29 1451.43L1922.86 1450L1924.29 1448.57L1944.29 1448.57L1945.71 1450L1947.14 1451.43L1945.71 1452.86L1938.57 1451.43M1967.14 1452.86L1957.14 1454.29L1955.71 1452.86L1957.14 1451.43C1984.37 1445.31 2008.7 1473.27 2035.71 1464.29L2037.14 1465.71L2037.14 1467.14L2037.14 1468.57L2031.43 1465.71M1947.14 1451.43L1955.71 1452.86M1970 1454.29L1978.57 1454.29M2005.71 1462.86C2002.87 1472.46 1991.63 1473.93 1982.86 1475.71C1968.43 1478.64 1953.27 1479.51 1938.57 1478.44C1930.11 1477.83 1922.73 1473.4 1914.29 1475.71C1920.39 1487.64 1939.3 1492.84 1951.43 1496.31C1987.43 1506.63 2016.93 1511.86 2047.14 1485.71L2042.86 1481.43L2048.57 1482.86M2035.71 1471.43C2034.29 1477.74 2036.7 1480.14 2042.86 1481.43M2205.71 1490C2193.2 1510 2173.06 1528.7 2154.29 1542.86M2161.64 1561.47C2176.63 1552.6 2194.46 1578.6 2200.94 1588.57C2203.06 1591.84 2210.4 1602.04 2204.84 1605.41C2200.67 1607.94 2193.31 1602.56 2190 1600.43C2180.09 1594.09 2169.3 1586.4 2161.91 1577.14C2158.24 1572.54 2155.13 1565.31 2161.64 1561.47M2264.29 1571.43C2266.81 1576.87 2267.71 1579.04 2264.29 1584.29L2262.86 1575.71M2270 1582.86C2279.86 1613.67 2293.07 1647.61 2295.71 1680C2285.66 1677.74 2280.66 1666.09 2277.23 1657.14C2268.67 1634.79 2264.3 1608.19 2264.29 1584.29M2060 1654.29C2058.33 1664.87 2045.26 1671.19 2040.63 1681.43C2024.6 1716.8 2015.1 1749.2 1989.64 1780C1982.19 1789.03 1953.61 1811.56 1960 1822.86C1995.36 1792.27 2036.29 1746.71 2053.84 1702.86C2059.13 1689.64 2057.56 1675.97 2061.43 1662.86M1477.14 1667.14C1473.26 1671.47 1481.7 1678.69 1483.91 1682.86C1492.69 1699.37 1501.24 1716.16 1509.64 1732.86C1529.4 1772.1 1549.59 1811.24 1567.34 1851.43C1573.97 1866.44 1576.41 1884.34 1583.81 1898.57C1592.23 1914.74 1610.69 1926.37 1627.14 1932.86M1471.43 1667.14L1474.29 1670M1478.57 1668.57L1480 1671.43M2478.57 1674.29C2459.77 1712.89 2458.59 1761.06 2449.7 1802.86C2433.93 1877.04 2412.67 1949.77 2398.29 2024.29C2393.34 2049.9 2388.47 2075.61 2384.67 2101.43C2382.99 2112.87 2386.81 2124.16 2381.43 2134.29M2478.57 1681.43C2478.57 1757.3 2456.89 1836.3 2440.6 1910C2425.13 1980.06 2412.84 2055.74 2387.14 2122.86M1758.57 2057.14L1758.57 2054.29L1760 2052.86L1761.43 2054.29L1760 2055.71L1757.14 2058.57L1704.29 2002.86L1708.57 1998.57L1738.57 2024.29C1745.11 2012.06 1752.1 2020.33 1762.83 2016.09C1767.76 2014.13 1769.63 2008.34 1774.47 2006.64C1778.73 2005.14 1785.43 2009.59 1788.47 2005.03C1795.66 1994.31 1773.21 1986.71 1775.56 1977.27C1777.19 1970.69 1790.09 1967.66 1788.07 1960.06C1786.56 1954.33 1772.91 1950.16 1775.97 1943.4C1778.74 1937.21 1788.07 1933.81 1791.71 1927.14C1800.66 1910.79 1800.53 1892 1811 1875.71C1840.76 1829.41 1884.96 1792.14 1920.11 1750C1928.87 1739.5 1935.86 1725.3 1945.86 1716.19C1957.89 1705.23 1977.5 1699.94 1992.86 1695.73C2006.37 1692.03 2021.73 1687.43 2030 1701.43M2044.29 1760C2033.83 1770.8 2032.71 1779.16 2034.23 1792.86C2034.73 1797.47 2035.91 1807.21 2042.86 1806.24C2049.53 1805.31 2052.39 1795.1 2054.73 1790C2059.77 1779.01 2068.01 1752.86 2080.13 1748.23C2095.07 1742.51 2116.53 1773.96 2127.14 1781.43L2128.57 1781.43C2128.53 1768.21 2127.59 1746.94 2116.99 1737.54C2096.44 1719.29 2062.23 1747.77 2048.57 1761.43L2044.29 1757.14C2063.36 1726.64 2108.43 1706.43 2134.97 1740C2153.11 1762.94 2155.59 1793.76 2149.7 1821.43C2148.57 1826.76 2147.17 1832.11 2145.06 1837.14C2143.79 1840.13 2142.27 1843.07 2140.3 1845.66C2121.49 1870.41 2113.21 1826.04 2107.34 1817.3C2104.79 1813.49 2100.29 1811.09 2095.71 1812.56C2084.57 1816.13 2081.27 1831.71 2078.1 1841.43C2068.53 1870.79 2054.29 1907.71 2054.29 1938.57M2294.66 1737.64C2304.27 1734.5 2310.63 1765.6 2301.13 1769.74C2290.84 1774.24 2284.6 1740.93 2294.66 1737.64M2044.29 1760L2047.14 1762.86M2047.14 1760L2037.14 1781.43L2035.71 1782.86L2034.29 1781.43L2032.86 1780L2031.43 1778.57M2042.86 1762.86L2042.86 1765.71M2038.57 1765.71L2042.86 1770M2037.14 1768.57L2041.43 1772.86M2035.71 1771.43L2040 1775.71M2035.71 1782.86L2035.71 1785.71M2130 1782.86L2132.86 1790M2234.29 1867.14C2223.73 1852.53 2230.14 1830.67 2215.57 1817.47C2213.2 1815.33 2208.46 1811.93 2205.21 1814.39C2200.73 1817.8 2207.93 1824.91 2204.39 1829.09C2198.01 1836.59 2180.81 1818.83 2179.53 1812.86C2176.23 1797.47 2215.43 1789.19 2225.71 1786.31C2229.9 1785.16 2238.07 1781.54 2241.77 1785.2C2245.71 1789.1 2242.91 1800.59 2242.86 1805.71C2242.59 1827.94 2236.94 1849.59 2234.29 1871.43M2030 1784.29C2024.56 1792.24 2018.06 1805.67 2018.91 1815.66C2019.51 1822.8 2027.63 1827.87 2029.11 1835.71C2034.69 1865.17 2035.03 1900.71 2054.29 1925.71M1955.71 1818.57L1941.43 1834.29L1945.71 1838.57L1961.43 1822.86M377.14 1830C374.57 1839.07 369.85 1847.31 375.71 1855.71L382.86 1831.43M1942.86 1835.71L1930 1855.71L1928.57 1857.14L1927.14 1855.71L1924.29 1852.86L1931.43 1845.71M1944.29 1837.14L1934.29 1847.14M370 1852.86C374.87 1870.63 357.16 1890.99 354.53 1910C353.48 1917.59 358.91 1928.54 350 1931.43L352.86 1920M1925.71 1854.29L1907.27 1875.71L1874.97 1915.71L1871.43 1944.29L1872.86 1947.14L1874.29 1948.57L1877.14 1942.86M1927.14 1855.71L1924.29 1858.57M375.71 1857.14L374.29 1858.57M1918.57 1861.43L1922.86 1857.14M368.57 1858.57L372.86 1864.29M367.14 1862.86L367.14 1867.14M1415.71 1868.57C1404.24 1868.57 1387.89 1867.24 1377.14 1871.29C1373.59 1872.61 1361.81 1877.81 1367.68 1882.73C1375.15 1888.99 1387.35 1884.34 1395.71 1883.61C1405.22 1882.79 1414.07 1886.7 1421.43 1892.4C1438.79 1905.83 1444.5 1937.63 1462.86 1947.14L1464.29 1945.71C1458.46 1925.19 1451.93 1895.17 1435.66 1880.27C1429.81 1874.91 1422.36 1873.83 1415.71 1870L1415.71 1868.57L1417.14 1867.14L1462.86 1867.14L1482.51 1868L1487.79 1880L1499.61 1895.71L1558.57 1952.86L1562.86 1948.57L1537.61 1902.86L1500 1871.43L1501.43 1870C1530.91 1870.61 1545.83 1897.47 1565.71 1915.47C1612.57 1957.87 1662.4 1996.69 1707.14 2041.43C1722.6 2056.89 1736.8 2073.57 1752.86 2088.44C1756.33 2091.66 1766.47 2102.01 1771.97 2098.39C1780 2093.09 1762.69 2067.94 1761.43 2061.43L1762.86 2060L1798.57 2100C1822.69 2068.37 1835.77 2027.04 1856.29 1992.86C1864.54 1979.1 1879.97 1967.13 1877.14 1950M1195.71 1911.43L1197.14 1915.71L1198.57 1915.71L1200 1914.29L1195.71 1910C1228.8 1881.8 1281.42 1877.84 1322.86 1872.46C1338.8 1870.39 1360.12 1865.39 1375.71 1870M1487.14 1870L1500 1871.43M1200 1914.29C1212.72 1912.39 1225.35 1901.43 1238.57 1903.24C1247.84 1904.51 1251.98 1914.94 1261.43 1916.66C1269.04 1918.03 1278.43 1911.54 1285.39 1915.76C1294.34 1921.17 1286.51 1938.4 1300.02 1940.66C1311.51 1942.57 1317.54 1926.74 1331.43 1929.23C1351.55 1932.86 1363.37 1947.79 1380 1957.71C1413.35 1977.6 1452.73 1988.41 1477.84 2020C1496.63 2043.64 1504.06 2072.36 1514.56 2100C1519.89 2114.03 1524.6 2130.74 1537.14 2140C1544.61 2126 1534.4 2102.77 1530.03 2088.57C1517.64 2048.26 1497.07 2006.16 1491.43 1964.29L1492.86 1962.86L1495.71 1964.29L1497.14 1965.71L1492.86 1970M348.57 1932.86C334.94 1975.5 331.14 2024.2 326.9 2068.57C326.19 2076.06 322.34 2082.79 321.66 2090C320.85 2098.67 326.42 2106.27 325.47 2115.71C324.19 2128.6 317.86 2139.36 315.92 2151.43C308.96 2194.77 304.57 2240.07 302.91 2284.29C302.15 2304.66 310.43 2324.81 308.33 2345.71C307.11 2357.89 296.13 2363.01 294.56 2374.29C292.7 2387.53 294.45 2401.14 292.65 2414.29C286.22 2461.3 279.77 2509.24 278.59 2557.14C277.67 2594.76 281.6 2632.23 279.94 2670C278.85 2695.09 267.53 2713.96 265.84 2738.57C260.56 2815.64 269.44 2891.71 284.28 2967.14C293.79 3015.43 289.94 3064.53 297.33 3112.86C298.68 3121.67 304.47 3126.37 307.55 3134.29C312.28 3146.41 314.24 3160.1 316.54 3172.86C319.58 3189.76 322.63 3207.1 322.87 3224.29C322.98 3231.6 321.31 3242.47 327.71 3247.71C335.27 3253.9 356.31 3250 365.71 3250L468.57 3250L871.43 3250L2067.14 3250L2380 3250L2461.43 3250C2471.16 3250 2488.31 3251.6 2496.66 3245.67C2503.73 3240.64 2480.8 3215.4 2476.94 3210C2450.57 3173.14 2424.83 3136.06 2397.31 3100C2390.1 3090.56 2382.13 3081.77 2374.29 3072.86C2372.27 3070.57 2367.59 3063.66 2363.71 3065.97C2359.64 3068.4 2364 3075.83 2365.4 3078.57C2371.39 3090.19 2379.14 3100.83 2386.73 3111.43C2410.41 3144.51 2437.8 3175.64 2451.57 3214.29C2457.16 3229.94 2468.74 3233.1 2461.43 3250M1870 1937.14L1871.43 1942.86M1561.43 1950C1573.81 1961.07 1588.31 1969.1 1599.94 1981.43C1602.43 1984.07 1611.51 1993.5 1605.26 1996.89C1600.87 1999.27 1596.41 1991.06 1594.14 1988.57C1586.89 1980.63 1567.81 1968.46 1568.57 1957.14M1560 1951.43L1567.14 1958.57M528.57 1955.71L530 1957.14L525.71 1961.43L528.57 1955.71M531.43 1957.14C557.5 1983.21 579.48 2012.9 604.41 2040C627.6 2065.21 652.42 2085.67 667.14 2117.14C653.08 2117.96 636.44 2093.59 627.14 2084.29C590.68 2047.83 552.78 2006.91 525.71 1962.86M1878.57 1957.14C1894.76 1978.3 1908.26 2038.31 1878.57 2054.77C1871.31 2058.79 1866.43 2048.37 1860 2046.44C1847.94 2042.86 1838.73 2054.37 1832.47 2062.86C1818.76 2081.49 1809.84 2103.1 1797.93 2122.86C1794.64 2128.3 1789.11 2140.41 1781.43 2139.59C1772.94 2138.69 1762.81 2129.83 1755.71 2125.44C1735.96 2113.2 1716.47 2100.51 1697.14 2087.61C1658.79 2062.04 1620.29 2036.57 1580 2014.09C1552.36 1998.66 1522.1 1986.93 1497.14 1967.14M2245.71 1975.71L2247.14 2002.86L2245.71 2004.29C2241.59 1996.54 2241.59 1986.31 2245.71 1978.57M1702.86 1995.71L1707.14 2000M1701.43 1997.14L1705.71 2001.43M2245.71 2004.29L2245.71 2007.14M1741.43 2025.71L1760 2051.43M1760 2052.86L1760 2055.71M1761.43 2054.29L1765.71 2058.57M1757.14 2060L1764.29 2061.43M324.29 2082.86L327.14 2100M320 2098.57C319.89 2111.54 313.36 2127.36 321.43 2138.57M2381.43 2121.43L2382.86 2128.57M315.71 2135.71L317.14 2144.29M1698.57 2454.29C1688.69 2440.49 1701.04 2409.94 1704.29 2394.29C1716.03 2337.57 1727.8 2279.6 1749.36 2225.71C1756.03 2209.03 1757.43 2192.9 1761.17 2175.71C1762.09 2171.53 1764.33 2163.16 1769.9 2163.16C1777.21 2163.16 1775.94 2176.96 1775.47 2181.43C1773.49 2199.91 1766.56 2219.3 1761.43 2237.14C1744.49 2296.17 1728.04 2355.34 1710.83 2414.29C1704.91 2434.5 1696.3 2454.07 1691.43 2474.29M312.86 2188.57C320.86 2200.69 318.58 2222.83 318.77 2237.14C318.84 2242.29 319.47 2249.44 316.69 2254.01C314.22 2258.07 309.8 2257.33 305.71 2257.14M1057.14 2254.29C1057.19 2268 1061.24 2281.96 1062.62 2295.71C1066.13 2330.84 1068.4 2366.2 1069.94 2401.43C1075.13 2519.84 1072.27 2640.24 1067.09 2758.57C1063.88 2831.73 1061.43 2905.27 1061.43 2978.57C1061.43 3013.53 1057.18 3054.94 1068.21 3088.57C1077.02 3115.43 1095.69 3102 1115.71 3108.24C1127.04 3111.79 1132.96 3121.5 1142.86 3127.2C1149.98 3131.31 1158.28 3131.41 1165.71 3134.73C1178.28 3140.34 1189.12 3148.69 1200 3156.97C1204.51 3160.41 1215 3165.93 1216.65 3171.66C1218.7 3178.8 1201.86 3186.23 1197.14 3189.17C1178.63 3200.77 1143.8 3216.91 1134.29 3237.14C1150.01 3240.54 1156.66 3237.73 1170 3250M1057.14 2265.71C1052.79 2273.87 1054.29 2283.8 1054.29 2292.86L1054.29 2348.57C1054.29 2407.17 1051.54 2466.21 1043.24 2524.29C1040.45 2543.86 1037.55 2563.89 1031.83 2582.86C1030.46 2587.4 1027.05 2601.21 1020.09 2599.34C1014.7 2597.9 1011.84 2588.86 1010.09 2584.29C1004.49 2569.64 1003.94 2551.94 995.71 2538.57L994.29 2538.57C988.88 2556.87 991.43 2579.57 991.43 2598.57C991.43 2631.36 990.68 2664.46 988.44 2697.14C985.58 2739 983.74 2781.07 979.76 2822.86C975.64 2866.09 969.79 2910.76 972.99 2954.29C974.54 2975.43 990.88 2994.4 995.41 3015.71C1006.06 3065.7 1007.8 3117.26 1018.29 3167.14C1020.42 3177.27 1023.07 3190.46 1030.76 3197.97C1035.18 3202.3 1041.97 3203.26 1047.14 3206.51C1061.76 3215.73 1079.17 3231.83 1080 3250M302.86 2294.29L296.74 2340L295.71 2365.71M1391.43 3250C1377.94 3233.77 1351.88 3223.47 1342.86 3204.29C1358.09 3199.79 1375.67 3201.26 1391.43 3199.76C1430.39 3196.04 1469.34 3193.34 1508.57 3194.3C1522.51 3194.64 1532.99 3204.39 1545.71 3205.33C1552.33 3205.81 1557.29 3200.39 1562.86 3197.71C1572.2 3193.24 1582.47 3193.03 1591.43 3187.19C1600.14 3181.51 1606.83 3173.07 1609.04 3162.86C1611.03 3153.7 1609.29 3143.54 1617.44 3136.86C1628.24 3128.01 1646.94 3129.71 1660 3128.16C1665.51 3127.51 1673.47 3127.86 1675.26 3121.34C1677.33 3113.81 1674.33 3104.83 1674.29 3097.14C1674.19 3076.2 1674.19 3055.23 1674.29 3034.29C1674.31 3028.4 1673.76 3007.33 1680.54 3004.79C1686.63 3002.49 1687.9 3016.67 1688.46 3020C1690.46 3031.87 1684.24 3067.51 1695.93 3074.24C1701.53 3077.47 1708.89 3073.24 1714.29 3071.43C1724.36 3068.06 1735.87 3064.74 1745.71 3070C1750.04 3063.44 1748.69 3054.71 1753.59 3048.79C1759.29 3041.91 1768.64 3044.34 1773.76 3035.69C1779.13 3026.63 1778.09 3015.24 1786.01 3007.46C1792.63 3000.99 1806.77 2998.41 1813.56 3006.11C1823.86 3017.8 1806.64 3037.64 1818.9 3047.57C1830.74 3057.14 1850.99 3045.4 1862.23 3056.44C1866.84 3060.97 1863.64 3067.43 1865.86 3072.86C1870.74 3084.83 1890.84 3099.13 1904.29 3097.83C1920.06 3096.3 1918.61 3075.26 1920.96 3064.29C1923.61 3051.84 1933.93 3045.71 1938.01 3034.29C1942.7 3021.2 1937.79 3005.96 1947.7 2994.43C1964.69 2974.71 1985.66 2999.69 2004.29 2995.07C2018.89 2991.46 2023.6 2969.37 2031.43 2958.57L2032.86 2958.57L2034.29 2960C2034.84 2964.93 2037.46 2973.29 2044.1 2969.06C2051.71 2964.21 2050.17 2951.2 2056.01 2944.29C2066.3 2932.14 2082.04 2927.57 2092.43 2915.7C2101.3 2905.54 2101.71 2892.01 2109.7 2881.49C2115.46 2873.9 2126.07 2869.47 2128.57 2881.43L2130 2881.43C2140.63 2872.86 2151.14 2859.83 2156.49 2847.14C2159.24 2840.57 2158.97 2831.91 2162.99 2826.03C2168.7 2817.69 2178.94 2815.8 2184.43 2805.71C2203.13 2771.36 2209.46 2726.64 2216.31 2688.57C2228.47 2621.23 2237.86 2553.5 2247.14 2485.71C2251.79 2451.8 2258.59 2415.7 2257.09 2381.43C2256.87 2376.49 2256.49 2370.11 2253.43 2366.01C2250.53 2362.13 2237.6 2355.94 2241.63 2349.43C2245.91 2342.47 2261.6 2351.96 2265.59 2355.16C2284.4 2370.3 2278.57 2414.2 2278.57 2435.71C2278.57 2491.23 2271.79 2547.47 2275.59 2602.86C2276.83 2621.01 2271.89 2643.13 2280 2660L2281.43 2660C2307.9 2627.21 2300.84 2576.81 2304.53 2538.57C2306.66 2516.46 2312.77 2494.29 2318.4 2472.86C2324.46 2449.83 2331.1 2425.64 2341.81 2404.29C2343.6 2400.73 2353.04 2381.94 2358.31 2389.11C2365.8 2399.26 2359.16 2430 2353.69 2440C2350.7 2445.47 2345.16 2449.56 2343.47 2455.71C2340.83 2465.49 2344.07 2476.8 2341.9 2487.14C2338.57 2503.09 2332.29 2518.29 2328.87 2534.29C2322.73 2563.14 2319.89 2592.49 2314.29 2621.43C2311.61 2635.26 2309.46 2649.21 2305.89 2662.86C2304.26 2669.06 2300.21 2677.81 2302.54 2684.21C2305.84 2693.24 2319.71 2691.16 2327.14 2694.29C2317.69 2714.57 2296.19 2732.57 2283.34 2751.43C2280.27 2755.94 2270.47 2766.46 2273.2 2772.4C2275.34 2777.07 2287.04 2776.71 2291.43 2777.01C2309.06 2778.23 2342.33 2774.24 2338.34 2802.8C2337.14 2811.31 2328.76 2808.73 2322.86 2807.33C2307.07 2803.6 2288.86 2805.73 2277.61 2818.63C2274.1 2822.66 2269.16 2829.86 2271 2835.56C2274.17 2845.41 2295 2843.14 2302.86 2842.8C2335.26 2841.39 2367.64 2836.63 2400 2834.41C2464.66 2829.99 2531.53 2835.74 2595.71 2842.61C2640.04 2847.37 2688.13 2852.1 2730 2868.3C2754.57 2877.81 2779.29 2891.13 2800 2907.44C2807.59 2913.43 2819.06 2922.04 2819.31 2932.86C2819.64 2946.24 2802.94 2938.67 2797.14 2934.93C2768.33 2916.37 2746.23 2897.79 2712.86 2886.67C2629.41 2858.87 2541.44 2854.29 2454.29 2854.29C2416.54 2854.29 2371.97 2851.53 2335.71 2863.53C2321.87 2868.1 2311.96 2879.79 2300 2887.57C2278.23 2901.76 2254.9 2907.21 2238.1 2928.57C2229.04 2940.07 2217.11 2957.5 2227.14 2971.43C2255.79 2920.07 2320.46 2928.83 2365.71 2951.09C2447.24 2991.16 2525.86 3041.26 2595.71 3099.41C2622.51 3121.71 2656.19 3145.86 2672.86 3177.14L2670 3180C2620.73 3156.66 2588.13 3108.49 2541.43 3080.29C2477.41 3041.64 2404.91 3032.06 2350 2977.14L2345.71 2981.43L2344.29 2980L2347.14 2972.86L2355.71 2974.29L2357.14 2975.71L2352.86 2980M958.57 2460C950.91 2458.13 947.78 2449.61 944.73 2442.86C936.73 2425.11 933.36 2406.24 930.82 2387.14C929.98 2380.77 927.6 2365.7 933.68 2361.07C940.68 2355.74 945.63 2377.57 946.61 2381.43C953.15 2407.2 958.57 2433.34 958.57 2460M291.43 2420C298.47 2433.2 294.89 2454.06 294.23 2468.57C293.9 2475.73 293.22 2483.34 285.71 2485.71M1692.86 2451.43L1694.29 2458.57M952.86 2658.57C947.52 2648.94 946.72 2636.44 944.57 2625.71C940.3 2604.34 935.67 2583.03 932.67 2561.43C931.01 2549.47 928 2537.21 932.86 2525.71C957.87 2548.13 961.31 2595.83 958.33 2627.14C956.92 2641.9 953.02 2658.39 955.71 2672.86M277.14 2591.43L272.73 2628.57L268.57 2707.14M1674.29 2594.29C1664.39 2634.16 1666.71 2677.5 1668.51 2718.57C1669.64 2744.29 1668.37 2770.04 1670.13 2795.71C1671.09 2809.79 1675.7 2823.31 1675.71 2837.14M1675.71 2601.43C1682.26 2653.24 1678.57 2706.54 1678.57 2758.57C1678.57 2776.64 1684.27 2806.81 1675.71 2822.86M1006.17 2644.34C1017.96 2636.96 1037.19 2666.66 1025.09 2674.54C1015.81 2680.6 995.19 2651.23 1006.17 2644.34M2251.57 2796.21C2259.44 2794 2262.61 2807.53 2262.49 2812.86C2262.14 2827.93 2257.44 2843.67 2255.13 2858.57C2254.33 2863.73 2252.33 2873.7 2256.57 2877.84C2260.57 2881.76 2266.6 2877.1 2270 2874.63C2275.73 2870.44 2297.77 2847.13 2306.13 2854.39C2311.81 2859.33 2293.07 2872.67 2290 2875.3C2274.93 2888.24 2258.34 2899.89 2241.43 2910.27C2236.1 2913.54 2228.2 2920.31 2221.64 2920.21C2213.83 2920.09 2224.46 2897.26 2225.71 2892.86C2232.59 2868.93 2234.97 2844.29 2240 2820C2241.37 2813.41 2243.77 2798.4 2251.57 2796.21M265.71 2850C261.18 2858.49 262.86 2869.14 262.86 2878.57C262.86 2900.3 263.41 2922.67 265.47 2944.29C272.41 3017.21 280.18 3089.26 294.29 3161.43C298.27 3181.81 300.27 3202.47 304.28 3222.86C305.78 3230.46 306.38 3242.04 312.43 3247.71C316.29 3251.33 323.71 3250 328.57 3250M2128.57 2881.43L2125.71 2884.29M2345.71 2972.86C2338.96 2961.41 2325.76 2956.91 2312.86 2957.17C2307.04 2957.29 2294.74 2961.53 2291.69 2954.07C2286.61 2941.73 2311.11 2941.61 2317.14 2942.47C2336.41 2945.21 2363.27 2952.31 2376.53 2967.77C2388.49 2981.73 2365.99 2979.93 2358.57 2975.71M2035.71 2952.86L2031.43 2958.57M2234.29 3024.29C2228.74 3021.03 2221.34 3015.64 2220.76 3008.57C2219.77 2996.63 2242.31 2976.56 2254.09 2977.9C2261.11 2978.71 2260.01 2990.8 2260 2995.71C2259.94 3013.73 2252.91 3017.86 2237.14 3022.86L2235.71 3024.29L2237.14 3025.71C2241.39 3027.3 2245.44 3028.31 2250 3028.51C2269.53 3029.37 2274.39 3015.76 2275.59 2998.57C2276.14 2990.73 2275.47 2980.34 2284.34 2976.77C2292.27 2973.6 2300.9 2979.1 2307.14 2983.49C2322.87 2994.51 2334.46 3010.47 2350 3021.43L2351.43 3021.43L2351.43 3015.71L2345.71 3018.57M2345.71 2981.43L2350 3014.29M1512.86 3250L1504.29 3241.43C1511.27 3234.67 1522.27 3233.83 1531.43 3231.61C1555.03 3225.89 1578.73 3222.96 1602.86 3221.3C1632.03 3219.3 1657.84 3206.16 1685.71 3199.1C1706.9 3193.74 1729.26 3194.63 1750 3189.04C1760.6 3186.19 1762.96 3175.43 1768.61 3167.14C1779.21 3151.59 1793.06 3130.56 1812.86 3126.27C1852.36 3117.73 1880.01 3160.5 1920 3155.3C1971.1 3148.66 2008.14 3115.14 2047.14 3084.9C2071.63 3065.89 2099.11 3048.07 2127.14 3034.74C2142.73 3027.33 2161.1 3017.13 2178.57 3015.84C2191.66 3014.89 2212.39 3023.03 2222.86 3015.71M2227.14 3020L2220 3021.43M2352.86 3022.86L2355.71 3030M1722.86 3089.19C1729.26 3088.27 1739.84 3086.8 1745.31 3091.06C1759.41 3102.04 1743.8 3119.17 1731.43 3121C1720.76 3122.57 1695.01 3123.61 1691.21 3109.97C1687.1 3095.2 1713.51 3090.53 1722.86 3089.19M2655.71 3208.57C2649.96 3221.6 2634.9 3212.07 2624.34 3214.74C2618.93 3216.11 2616.1 3221.7 2610 3219.29C2606.29 3217.81 2594.01 3209.24 2599.51 3204.33C2603.4 3200.84 2612.6 3203.29 2617.14 3203.89C2622.37 3204.56 2627.61 3205.2 2632.86 3205.79C2640.51 3206.64 2647.99 3208.41 2655.71 3208.57M1340 3204.29L1342.86 3204.29M2657.14 3210L2684.29 3216.83L2764.29 3228.93L2805.71 3234.29L2805.71 3250M2667.14 3212.86C2663.7 3218.16 2658.46 3217.37 2652.86 3215.71M2677.14 3215.71L2668.57 3218.57M2618.57 3221.43L2627.14 3231.43L2632.86 3225.71L2624.29 3225.71M2634.29 3225.71L2635.71 3230M912.86 3250C922.88 3241.53 938.87 3242.39 951.43 3239.7C965.84 3236.61 983.47 3223.37 998.57 3227.87C1004.97 3229.79 1009.22 3235.47 1014.29 3239.44C1018.8 3242.99 1023.01 3244.8 1025.71 3250M2637.14 3231.43C2643.54 3232.69 2647.94 3239.76 2650 3245.71M2628.57 3231.43L2634.29 3231.43M544.29 3250C556.61 3239.57 580.12 3242.87 595.71 3239.59C600.85 3238.51 608.72 3233.23 613.83 3234.27C616.73 3234.87 625.45 3247.24 628.57 3250M2637.14 3232.86L2634.29 3235.71L2641.43 3237.14M2631.43 3234.29L2634.29 3237.14M2807.14 3235.71L2830 3242.86M2798.57 3237.14L2794.29 3245.71M2798.57 3237.14L2802.86 3241.43M2632.86 3238.57L2632.86 3242.86M2500 3242.86C2523.9 3256.9 2558.26 3251.73 2581.43 3240M2575.71 3244.29L2585.71 3245.71"/>
</g>

</svg>