<!DOCTYPE svg PUBLIC "-//W3C//DTD SVG 20010904//EN" "http://www.w3.org/TR/2001/REC-SVG-20010904/DTD/svg10.dtd">
<svg version="1.0" xmlns="http://www.w3.org/2000/svg" width="252px" height="252px" viewBox="0 0 2520 2520" preserveAspectRatio="xMidYMid meet">
 <g id="layer101" fill="none" stroke-width="5" stroke="black">
  <path d="M725.71 307.14L721.43 295.71L720 297.14C721.82 321.05 747.97 302.05 757.12 293.86C770.22 282.11 753.9 284.65 754.95 274.26C756.44 259.58 776.09 266.25 784.29 268.57L785.71 267.14C784.09 260.25 776.57 252.91 781.08 245.85C794.17 225.38 826.05 229.02 844.1 218.53C851.4 214.29 850.48 204.84 847.14 198.57L875.71 187.14C877.21 196.2 885.13 196.08 892.86 194.56C908.83 191.41 923.36 184.52 940 184.31C950.12 184.18 963.17 191.09 972.79 187.29C988.46 181.11 974.55 166.89 967.14 161.43C977.62 154.29 991.26 152.48 1002.86 147.34C1019.92 139.77 1033.62 126.98 1051.43 120.33C1079.02 110.02 1108.63 107.67 1135.71 95.27C1146.12 90.51 1161.91 83.67 1165.09 71.43C1166.4 66.39 1163.47 62.19 1163.85 57.36C1164.12 53.85 1167.13 53.47 1170.03 54.07C1179.58 56.04 1188.64 62.97 1197.14 67.46C1216.44 77.65 1235.56 88.08 1255.71 96.54C1304.47 116.99 1362.93 123.84 1407.14 153.19C1420.18 161.84 1431.09 173.27 1438.4 187.14C1442.86 195.59 1444.71 209 1453 214.65C1460.19 219.54 1467.31 214.81 1472.86 210L1475.71 212.86L1477.14 214.29L1470 215.71M1242.86 145.71C1240.02 140.32 1239.14 121.42 1249.96 123.93C1261.68 126.65 1269.82 156.96 1264.29 165.71L1242.86 145.71C1242.31 152.92 1239.38 156.92 1232.86 160L1247.14 178.57L1248.57 178.57L1244.29 155.71M1188.57 155.71L1194.29 157.14L1190 161.43L1188.57 161.43L1167.14 135.71C1191.92 128.39 1215.83 143.32 1232.86 160M1092.86 144.29L1121.43 158.71L1157.14 163.96L1214.29 191.43L1217.14 188.57C1212.76 179.77 1207.04 174.71 1198.57 170L1192.86 158.57M1094.29 145.71C1094.31 151.8 1098.95 163.1 1094.85 167.95C1089.4 174.39 1070.65 167.53 1072.09 181.35C1073.03 190.25 1089.62 188.64 1095.71 188.57C1120.28 188.28 1145.43 183.39 1170 181.43L1171.43 171.43M1274.29 167.14C1281.29 164.82 1288.31 155.51 1295.5 155.36C1301.27 155.24 1299.41 164.68 1304.5 166.57C1309.52 168.43 1314.71 164.56 1320 167.18C1326.67 170.48 1331.3 177.58 1337.14 182.1C1348.29 190.73 1362.2 196.99 1375.71 200.82C1382.74 202.81 1391.26 205.33 1398.57 203.72C1404.9 202.33 1411.79 194.85 1418.27 199.46C1429.27 207.28 1426.78 224.81 1424.29 235.71L1422.86 235.71L1421.43 235.71L1418.57 224.29L1400 239.7L1381.43 224.29C1380.53 227.09 1380.07 230.07 1379.09 232.84C1375.95 241.68 1367.77 242.29 1362.98 234.26C1358.88 227.36 1361.91 201.1 1348.59 202.74C1341.04 203.68 1340.02 214.69 1337.14 220C1328.37 209.12 1329.64 187.55 1318.27 179.46C1309.31 173.08 1302.91 187.38 1294.5 186.78C1290 186.46 1290.08 180.33 1287.72 177.6C1282.05 171.05 1274.66 173.34 1270 164.29M1094.29 157.14L1081.43 170M1191.43 160L1200 168.57M875.71 187.14C899.37 168.9 937.85 161.43 967.14 161.43M1265.71 165.71L1270 168.57M1202.86 167.14L1205.71 171.43M1250 180L1251.43 182.86M1170 181.43C1174.14 184.06 1180.58 186.06 1183.34 190.3C1187.4 196.56 1179.35 200.46 1174.29 201.16C1162.5 202.77 1146.91 198.59 1144.29 185.71M1111.43 188.57C1118.02 192.76 1138.62 199.17 1136.07 209.85C1133.63 220.07 1106.9 221.5 1098.57 222.67C1078.41 225.5 1043.29 224.26 1027.71 239.37C1023.21 243.73 1023.33 250.58 1020 255.71L1021.43 257.14L1025.71 254.29M1218.57 191.43L1231.43 200M1220 195.71C1212.97 209.16 1191.19 204.49 1178.57 207.48C1163.21 211.12 1148.74 231.94 1145.71 247.14L1147.14 248.57L1165.71 242.86L1167.14 244.29C1161.73 255.63 1129.3 265.64 1126.32 246.99C1125.1 239.31 1134.58 230.15 1138.57 224.29L1137.14 222.86C1115.54 224.31 1119.92 245.11 1115.82 260C1113.74 267.54 1108.63 273.23 1102.86 278.31C1091.17 288.59 1074 293.73 1058.57 294.22C1050.64 294.48 1043.51 291.99 1035.71 294.29C1037.4 297.71 1043 302.7 1041.18 306.77C1038.5 312.75 1025.58 313.79 1020 314.84C1000.69 318.48 979.69 319.13 961.43 326.97C950.59 331.62 945.11 345.04 934.29 347.95C923.06 350.97 912.81 344.84 901.43 350.39C888.17 356.86 874.86 376.35 860.01 377.6C852.21 378.26 851.07 370.17 852.09 364.29C854.24 351.88 866.92 336.97 863.83 324.31C861.75 315.83 851.32 315.35 847.4 308.31C845.23 304.4 849.92 292.63 844.05 292.44C835.77 292.18 815.11 309.74 816.9 318.42C818.38 325.57 831.9 326.33 826.27 335.59C821.52 343.41 797.71 365.04 805.81 376.28C811.7 384.45 828.5 369.83 836.52 376.78C844.25 383.47 833.11 389.55 827.14 390.22C811.09 392.02 794.23 383.75 778.57 387.14L786.65 400.88L762.98 418.59L727.14 472.86L714.29 464.29L712.86 465.71L705.31 525.71L714.89 612.86L732.03 705.71L742.86 762.86C759.02 757.75 754.3 760.58 767.17 768.94C773.42 773 779.78 772.33 784.96 778.63C804.22 802.07 797.82 838.04 815.71 861.43C825.56 842.98 815.75 816.96 824.79 797.14C828.15 789.78 844.36 782.76 843.87 775.65C842.73 759.03 820.49 752.63 823.49 732.86C827.54 706.08 839.59 680.62 845.88 654.29C847.68 646.75 853.25 637.71 852.49 630C850.8 612.88 830.94 597.66 826.4 580C819.42 552.88 814.39 517.91 824.93 491.43C832.05 473.53 845.32 459.83 853.69 442.86C858.45 433.2 856.26 422.62 862.44 412.86C870.04 400.86 881.61 399.6 891.22 390.87C896.39 386.16 896.57 379.51 904.29 377.71C917.1 374.71 935.62 383.26 945.71 374.29L947.14 375.71L947.14 378.57L945.71 378.57L944.29 380M727.14 300L722.86 288.57C730.46 279.58 735.04 268.57 742.99 260.01C761.83 239.72 788.84 225.61 812.86 212.42C823.51 206.57 834.8 199.66 847.14 198.57M884.29 251.43C869.37 253.03 848.6 257.53 834.29 252.05C830.36 250.55 816.54 241 823.74 235.88C827.65 233.1 836.78 237.2 841.43 236.99C854.18 236.44 866.19 232.18 878.57 229.73C894.76 226.51 888.15 234.84 897.6 240.97C902.84 244.38 912.62 243.14 918.57 242.73C945.53 240.88 977.5 233.73 1001.43 220.97C1011.48 215.61 1028.1 198.68 1040.97 205.15C1050.82 210.1 1035 216.36 1030 215.71L1028.57 217.14L1031.43 221.43L1030 222.86C1026.72 221.16 1025.53 219.75 1028.57 217.14M1474.29 210C1505.33 195.06 1502.71 230.04 1513.79 245.69C1520.13 254.65 1534.33 256.26 1535.56 268.57C1536.93 282.27 1526 293.15 1525.71 307.14L1527.14 308.57L1538.57 308.57L1532.86 284.29M1477.14 214.29C1492.86 216.04 1494.8 239.42 1479.97 244.85C1470.79 248.21 1462.49 238.34 1454.29 235.79C1444.29 232.68 1435.61 236.28 1425.71 237.14M1027.14 224.29L1021.43 220L1022.86 218.57L1024.29 218.57M1035.71 218.57L1032.86 221.43M1020 255.71C1016.03 255.04 1010.09 252.1 1006.19 253.78C1001.92 255.63 1004.56 261.88 1001.94 265.09C995.71 272.75 986.87 265.86 985.71 258.57C969.99 259.76 955.01 275.71 938.57 279.39C928.58 281.63 916.36 283.25 907.29 277.14C900.08 272.27 896.77 259.61 905.87 254.75C917.59 248.48 937.65 259.16 951.43 255.86C977.51 249.62 997.14 230.11 1021.43 220M1024.29 225.71L985.71 257.14M1420 230L1424.29 234.29M1090 265.71L1091.43 267.14C1086.84 269.59 1082.36 270.36 1077.14 270.69C1073.3 270.94 1069.54 270.23 1065.71 270.06C1036.82 268.78 1068.6 243.47 1080 236.97C1082.93 235.3 1089.89 230.78 1093.34 233.16C1098.19 236.51 1087.85 244.69 1085.71 246.52C1073.16 257.21 1075.8 260.27 1090 265.71M1417.14 235.71C1413.96 241.3 1400.74 261.95 1392.27 256.95C1389.31 255.2 1388.42 248.71 1387.14 245.71L1385.71 245.71C1378.88 255.55 1372.23 251.99 1365.02 258.06C1357.44 264.45 1361.43 286.73 1361.43 295.71L1362.86 297.14L1382.7 265.6L1395.71 285.71C1403.13 277.19 1398.32 263.94 1410.06 257.6C1425.34 249.34 1440.07 264.53 1454.29 266.96C1466.94 269.12 1476.8 260.03 1487.14 254.29M1161.43 244.29L1165.71 248.57M878.57 252.86C872.18 265.47 851.68 278.66 838.57 283.62C833.94 285.37 827.49 283.53 823.47 285.88C818.35 288.88 818.72 296.47 812.79 299.55C804.54 303.83 795.97 301 788.9 308.73C773.28 325.78 802.61 343.01 787.84 362.86C775.95 378.82 755.23 392.12 751.64 412.86C750.39 420.01 747.8 425.52 752.86 431.43M1487.14 257.14C1477.57 275.39 1471.43 292.95 1466.24 312.86C1464.57 319.31 1459.79 329.55 1467.36 334.03C1482.1 342.77 1507.77 332.26 1524.29 337.14C1515.57 358.19 1512.73 372.81 1527.37 392.86C1531 397.84 1538.21 408.04 1545.66 405.37C1556.73 401.41 1557.14 388.06 1557.14 378.57C1557.14 352.88 1548.57 333.61 1540 310M878.57 282.86C887.38 282.93 912.9 285.35 914.4 297.2C915.37 304.9 891.71 319.45 884.75 317.41C879.28 315.8 883.69 306.43 884 302.86C884.66 295.35 879.98 286.8 872.86 284.29M730 284.29L728.57 292.86M721.43 291.43L721.43 295.71M1361.43 298.57L1361.43 301.43M725.71 311.43C725.14 324.79 723.38 338.04 723.05 351.43C722.96 355.18 720.59 361.73 723.78 364.72C734.71 374.97 771.91 338.78 742.86 343.16C740.34 343.54 738.01 344.38 735.72 345.46C732.19 347.12 728.96 349.29 725.71 351.43M965.71 370C951.55 361.26 962.44 356.33 974.29 352.49C992.88 346.47 1012.32 344.11 1031.43 340.29C1062.63 334.05 1093.84 319.09 1125.71 317.28C1139.71 316.48 1150.89 326.16 1164.29 328.85C1183.17 332.63 1204.79 328.95 1222.86 334.29C1219.79 340.01 1213.16 340.24 1207.14 341.43C1191.95 344.42 1173.96 349.07 1158.57 345.99C1143.89 343.05 1132.87 332.97 1117.14 332.97C1092.04 332.97 1065.14 342.62 1041.43 349.96C1018.4 357.09 994.55 361.2 971.43 367.73C963.55 369.96 956.64 374.94 948.57 377.14M1287.14 324.29C1319.2 324.31 1353.18 318.63 1380 341.43L1374.29 347.14L1375.71 348.57C1417.83 355.25 1444.13 399.57 1461.77 434.29C1486.87 483.66 1508.36 534.36 1525.23 587.14C1535.41 619.03 1540.5 656.45 1557.14 685.71L1558.57 685.71L1561.43 680C1574.94 686.55 1577.06 700.54 1583.21 712.86C1588.43 723.32 1596.69 737.72 1595.01 750C1594.44 754.18 1590.29 757.22 1590.29 761.43C1590.29 768.09 1596.53 775.32 1597.01 782.86C1598.1 799.7 1584.99 817.87 1575.71 831.43L1574.29 831.43L1572.86 830C1572.86 806.14 1569.9 766.98 1581.43 745.71L1588.57 758.57M1224.29 335.71C1273.59 334.7 1326.84 322.64 1372.86 347.14M1380 342.86L1382.86 348.57M721.43 367.14L714.29 464.29M935.71 380L878.58 415.22L857.14 435.71M1555.71 395.71C1564.87 412.87 1558.39 444.73 1560.24 464.29C1564.14 505.29 1576.11 545.97 1577.13 587.14C1577.64 608.15 1577.06 629.08 1575.59 650C1574.74 662.05 1572.23 675.33 1575.71 687.14M1171.43 415.71C1167.66 423.16 1156.04 425.17 1148.57 427.97C1128.95 435.3 1108.7 442.6 1088.57 448.37C1081.92 450.28 1072.67 454.56 1065.74 451.99C1056.39 448.52 1051.6 429.07 1060.4 422.77C1068 417.32 1085.16 419.32 1094.29 418.7C1105.23 417.95 1116.2 417.77 1127.14 417.02C1141.02 416.06 1157.94 411.73 1171.43 415.71M747.14 430L747.14 432.86M1426.73 463.03C1431.43 459.17 1442.1 466.65 1445.71 469.27C1456.7 477.24 1485.77 505.26 1465.44 518.54C1460.97 521.46 1455.74 520.29 1453.11 515.56C1450.34 510.56 1452.4 504.01 1450.74 498.57C1447.71 488.63 1440.16 482.28 1432.89 475.47C1430.74 473.47 1422.65 466.38 1426.73 463.03M727.14 472.86L714.29 497.14M1517.14 628.57L1510 628.57L1508.57 627.14C1508.57 623.44 1507.47 616.53 1510.86 613.93C1518.67 607.92 1521.47 625.3 1518.57 630L1520 631.43L1521.43 632.86L1524.29 628.57M1510 628.57C1510.74 644.77 1521.9 676.79 1537.14 684.29C1541.83 668.3 1530.6 649.28 1525.71 634.29M1390 664.29C1401.91 664.29 1418.37 663.97 1428.5 671.22C1442.77 681.43 1421.98 696.45 1411.43 698.57C1411.41 666.17 1379.62 665.7 1355.71 668.5C1345.42 669.7 1325.85 676.14 1321.68 687.18C1318.24 696.3 1337.16 699.88 1342.86 700.8C1352.79 702.41 1363.05 701.56 1372.86 703.18C1389.42 705.91 1396.38 710.9 1411.43 698.57M1331.43 678.57L1328.57 672.86L1337.14 672.86M1382.86 707.14C1377.23 711.23 1369.8 711.87 1364.61 716.51C1360.55 720.14 1359.78 726.94 1354.2 728.81C1344.29 732.14 1335.97 725.52 1325.71 732.58C1320.12 736.43 1307.13 754.8 1299.19 748.99C1293.39 744.74 1295.71 731.91 1295.71 725.71C1295.71 703.6 1299.35 674.88 1327.14 674.29M1030 702.86C1037.11 694.57 1048.31 694.05 1058.57 692C1084.08 686.9 1121.92 680.57 1145.71 694.29C1140.39 700.78 1135.74 709.78 1128.55 714.28C1111.38 725.01 1083.57 721.43 1064.29 721.43C1050.54 721.43 1019.06 726.16 1030 704.29C1019.31 702.75 1004.2 718.79 1017.23 726.55C1034.98 737.13 1064.35 730.81 1084.29 733.27C1104.36 735.73 1120.13 746.89 1141.43 746.89C1150.54 746.89 1168.08 746.91 1175.28 740.62C1195.7 722.8 1160.7 698.99 1147.14 694.29M1427.14 725.71C1439.74 718.99 1462.04 722.31 1475.71 724.94C1480.66 725.89 1493.73 729.15 1487.69 736.69C1482.76 742.83 1471.91 738.12 1465.71 736.86C1446.8 733.02 1427.72 725.71 1408.57 725.71M1555.71 802.86C1546.49 797.91 1540.77 762.22 1547.19 753.37C1554.74 742.94 1558.8 766.38 1559.04 770C1559.34 774.3 1558.77 778.57 1558.57 782.86C1558.26 789.5 1557.61 796.5 1555.71 802.86M1362.86 755.71L1308.57 771.43C1299.32 752.07 1330.86 752.86 1342.86 752.86C1375.6 752.86 1429.46 752.13 1455.71 774.29L1451.43 778.57L1452.86 780L1454.29 780L1455.71 780L1457.14 778.57L1455.71 775.71M1512.86 754.29C1536.67 765.39 1522.89 784.62 1507.14 795.71L1512.19 772.86L1512.86 754.29M1597.14 755.71L1594.29 768.57M742.86 762.86C732.75 775.27 719.14 785.54 714.35 801.43C706.95 825.96 714.03 854.29 719.39 878.57C729.42 923.98 741.63 968.58 750.44 1014.29C755.34 1039.69 799.8 1080.3 827.14 1067.14L828.57 1055.71L827.14 1054.29L825.71 1054.29L824.29 1054.29L822.86 1055.71L822.86 1058.57L824.29 1060L825.71 1061.43L827.14 1060L828.57 1058.57M1268.57 781.43C1238.59 768.78 1214.55 793.19 1203.46 818.57C1200.6 825.13 1193.58 847.82 1185.65 849.1C1177.04 850.48 1180.9 833.78 1182.06 830C1184.82 821.01 1192.29 816.58 1196.35 808.57C1201.92 797.55 1197.93 785.1 1208.82 776.65C1221.23 767.01 1248.96 764.09 1264.29 764.31C1278.85 764.53 1282.38 773.51 1270 781.43C1278.62 789.19 1290.05 794.43 1294.8 805.71C1297.78 812.79 1291.16 827.49 1300.08 830.5C1311.11 834.22 1314.04 820.35 1311.77 812.86C1307.57 798.99 1294.68 779.09 1281.43 772.86M1308.57 771.43C1310.82 784.02 1319.38 794.5 1327.14 804.29C1340.33 790.8 1355.95 782.29 1375.71 782.89C1381.8 783.08 1386.82 787.29 1392.86 786.75C1403.66 785.77 1412.55 778.84 1422.86 776.47C1432.47 774.26 1442.04 776.63 1451.43 778.57M1041.43 815.71C1046.24 800.43 1091.41 800.48 1104.29 804.29L1105.71 805.71C1087.84 816.81 1063.07 815.29 1042.86 817.19C1021.26 819.23 996.26 824.46 975.71 831.43L974.29 830C977.2 811.12 1004.5 801.41 1020 795.15C1060.91 778.63 1102.81 773.98 1142.86 794.87C1153.22 800.27 1162.81 802.87 1170 812.86C1156.16 820.23 1143.73 808.04 1130 807.14L1141.43 794.29M1204.29 781.43L1221.43 785.71M1385.71 787.14C1377.72 792.04 1368.52 791.16 1360.02 794.95C1346.43 801.02 1344.93 818.82 1328.57 804.29M1507.14 788.57L1511.43 792.86M1505.71 795.71L1495.71 805.71M742.86 887.14C726.15 872.82 727.01 844.1 728.69 824.29C729.32 816.93 731.98 802.87 741.43 802.21C751.86 801.48 752.85 814.21 752.86 821.43C752.89 841.61 752.03 868.87 742.86 887.14M1134.29 804.29L1134.29 805.71M1554.29 804.29L1555.71 812.86M1105.71 805.71L1128.57 805.71M1594.29 805.71C1600.31 831.03 1594.33 860.01 1594.29 885.71C1594.17 959.64 1592.93 1040.36 1565.07 1110C1550.51 1146.39 1523.9 1176.47 1510.09 1212.86C1502.24 1233.57 1498.6 1255.01 1500.13 1277.14C1500.9 1288.41 1510.31 1304.55 1504.29 1314.29L1505.71 1315.71L1508.57 1317.14L1508.57 1311.43M1201.43 980C1207.31 968.37 1217.49 959.73 1223.05 947.14C1230.4 930.54 1231.5 912.17 1238.4 895.71C1240.36 891.02 1248.92 872.27 1256.3 878.16C1263.14 883.61 1259.95 901.33 1258.68 908.57C1254.83 930.48 1243.59 950.47 1229.16 967.12C1222.18 975.18 1212.55 982.8 1201.43 980M798.61 882.82C806.68 881.04 808.52 893.17 809.37 898.57C811.22 910.32 807.46 947.96 791.43 949.75C783.07 950.68 778.51 937.63 777 931.43C773.11 915.51 783.86 915.23 788.72 902.85C791.22 896.51 789.75 884.77 798.61 882.82M1484.29 1085.71L1482.86 1085.71C1468.36 1065.17 1463.26 1043.33 1444.04 1024.89C1424.65 1006.27 1392.63 992.93 1380 968.57C1393.82 964.78 1409.1 977.49 1420 984.76C1448.03 1003.45 1506.16 1044.94 1484.29 1085.71M1124.29 1114.29L1144.29 1128.57L1144.29 1130C1133.61 1135.7 1119 1132.5 1107.14 1135.26C1098.86 1137.19 1056.76 1168.84 1067.14 1135.71L1065.71 1134.29C1044.27 1139.96 1016.75 1118.64 1020.6 1094.29C1022.24 1083.93 1030.55 1073.87 1036.61 1065.71C1050.74 1046.72 1066.75 1028.48 1084.29 1012.61C1090.45 1007.04 1100.6 993.89 1109.82 993.91C1120.05 993.93 1110.11 1017.02 1108.5 1021.43C1101.2 1041.4 1093.16 1061.85 1089.45 1082.86C1087.55 1093.63 1087.1 1104 1098.57 1108.67C1121.01 1117.82 1150.52 1110.43 1174.29 1111.48C1199.06 1112.58 1220.52 1123.06 1245.71 1116.08C1272.17 1108.75 1298.18 1104.29 1325.71 1104.29C1332.36 1104.29 1346.78 1101.59 1352.32 1105.75C1358.39 1110.33 1347.55 1116.44 1344.29 1118.23C1331.45 1125.29 1315.86 1130.8 1301.43 1132.86C1303.24 1127.14 1306.05 1126.27 1311.43 1128.57M1152.86 1018.57C1187.14 981.6 1224.94 1039.99 1260 1039.99C1283.37 1039.99 1301.56 1021.37 1318.57 1007.78C1324.45 1003.09 1336.92 990.56 1345.39 993.78C1351.78 996.21 1349.58 1004.45 1345.5 1007.84C1337.28 1014.67 1327.69 1013.57 1320.02 1022.91C1303.57 1042.95 1299.3 1075.3 1270 1081.88C1242.37 1088.09 1219.4 1055.08 1206.03 1035.96C1202.96 1031.57 1202.09 1023.06 1197.84 1020.04C1186.6 1012.05 1166.14 1025.66 1152.86 1018.57M1151.43 1018.57L1152.86 1018.57M1182.86 1021.43L1201.43 1031.43M828.57 1058.57C833 1061.21 832.52 1062.86 830 1067.14L831.43 1068.57C844.99 1073.41 847.14 1103.14 850.82 1115.71C857.7 1139.23 867.39 1161.94 877.34 1184.29C881.84 1194.39 885.79 1206.94 892.92 1215.5C897.63 1221.15 906.24 1217.33 910.1 1222.29C914.27 1227.64 905.9 1236.15 902.86 1240L895.71 1220M835.71 1065.71L835.71 1068.57M827.14 1067.14L830 1067.14M1428.57 1079.33C1446.5 1075.56 1459.97 1115.44 1440 1119.39C1427.63 1121.83 1400.41 1109.02 1406.4 1092.92C1409.05 1085.78 1421.67 1080.79 1428.57 1079.33M1045.92 1087.39C1057.72 1082.62 1066.3 1114.76 1052.8 1119.75C1040.15 1124.42 1034.81 1091.89 1045.92 1087.39M1417.14 1118.57C1408.3 1118.57 1393.45 1120.17 1385.99 1114.49C1375.7 1106.66 1398.13 1095.48 1404.29 1094.29M1088.57 1105.71L1094.29 1138.57M1190 1115.71C1186.98 1135.08 1158.12 1131.09 1144.29 1130M1231.43 1121.43C1228.75 1124.79 1222.64 1130.35 1226.64 1134.86C1229.63 1138.23 1238.58 1139.09 1242.86 1139.51C1249.21 1140.14 1255.16 1137.43 1261.43 1137.07C1274.08 1136.35 1290.12 1139.43 1301.43 1132.86M1260 1135.71C1261.86 1119.03 1287.72 1115.98 1284.29 1135.71M1304.29 1127.14L1308.57 1131.43M1174.29 1131.43C1186.67 1138.04 1208.83 1135.71 1222.86 1135.71M1061.43 1135.71L1065.71 1140M1285.71 1137.14C1288.65 1141.61 1291.21 1140.86 1295.71 1138.57M1227.14 1207.14L1227.14 1205.71C1239.04 1195.97 1263.98 1198.4 1278.57 1198.58C1283.1 1198.63 1293.99 1198.87 1293.99 1205.64C1293.99 1211.56 1282.83 1213.24 1278.57 1213.86C1261.8 1216.28 1242.61 1213.99 1227.14 1207.14M902.86 1241.43C888.47 1259.09 864.78 1275.9 857.89 1298.57C855.79 1305.47 860.07 1309.54 861.83 1315.77C865.01 1326.99 862.59 1337.77 868.57 1348.57L880.11 1311.43L900 1270M898.57 1282.86C888.46 1316.76 897.55 1346.22 906.28 1378.55C908.21 1385.7 904.05 1392.21 906.34 1400C914.4 1427.43 929.5 1452.14 936.46 1480C940.66 1496.79 941.23 1513.1 943.68 1530C944.89 1538.31 946.6 1544.3 955.71 1545.71C955.71 1567.3 975.19 1600.81 964.29 1620L962.86 1620C955.17 1604.04 951.72 1586.21 943.17 1570C939.9 1563.8 936.63 1553.57 928.57 1555.71L922.86 1540C927.28 1542.64 926.81 1544.29 924.29 1548.57M855.71 1310C853.36 1306.04 852.76 1304.99 855.71 1301.43M851.43 1305.71C838.42 1322.78 830.66 1340.69 814.29 1355.47C762.54 1402.21 691.19 1423.57 628.57 1451.23C564.32 1479.61 501.47 1510.1 435.71 1535.11C412.18 1544.06 388.4 1553.14 364.29 1560.4C340.41 1567.59 314.98 1573.69 294.29 1588.17C282.06 1596.73 267.03 1608.24 259.5 1621.43C254.23 1630.67 256.7 1639.17 248.32 1648.57C223.3 1676.66 205.52 1708.04 185.98 1740C179.38 1750.81 168.37 1760.24 163.13 1771.43C145.1 1809.86 135.65 1856.84 129.18 1898.57C124.47 1928.9 129.07 1959.44 125.31 1990C119.53 2036.87 105.79 2084.09 105.71 2131.43C105.69 2146.21 105.7 2161.43 110.06 2175.71C113.09 2185.64 120.23 2194.11 122.19 2204.29C125.38 2220.89 123.88 2238.96 122.73 2255.71C118.28 2320.66 111.43 2384.77 111.43 2450C111.43 2463.16 112.56 2476.91 111.02 2490C110.16 2497.26 107.49 2509.84 110.86 2516.69C114.08 2523.23 133.79 2520 140 2520L232.86 2520L621.43 2520L2005.71 2520L2344.29 2520L2427.14 2520C2433.4 2520 2451.43 2523.07 2455.67 2517.71C2458.51 2514.13 2456.99 2507.13 2457.39 2502.86C2458.79 2488.17 2459.46 2473.26 2457.54 2458.57C2453.9 2430.51 2439.34 2412.89 2426.16 2388.57C2409.49 2357.83 2394.23 2326.41 2380.4 2294.29C2374.71 2281.07 2368.03 2266.99 2365.03 2252.86C2362.9 2242.83 2364.21 2233.91 2359.47 2224.29C2351.41 2207.94 2338.16 2194.16 2328.66 2178.57C2315.59 2157.13 2306.01 2132.8 2299.61 2108.57C2291.2 2076.6 2290.99 2042.59 2285.6 2010C2281.11 1982.91 2270.69 1959.13 2264.1 1932.86C2257.34 1905.81 2254.67 1877.87 2245.6 1851.43C2230.23 1806.6 2208.03 1764.29 2185.27 1722.86C2176.23 1706.39 2159 1687.74 2154.29 1670L2152.86 1668.57L2151.43 1670L2148.57 1672.86L2154.29 1675.71M855.71 1310C855.71 1318.67 855.61 1324.55 861.43 1331.43C855.11 1338.9 856.39 1345.13 855.31 1354.29C852.75 1375.92 854.83 1403.43 861.43 1424.29L864.29 1424.29L864.32 1391.43L868.57 1348.57M1502.86 1340C1502.86 1345.7 1498.86 1360.38 1502.9 1364.7C1507.76 1369.91 1524.57 1355.91 1528.57 1352.86C1519.34 1346.15 1505.63 1341.81 1500.17 1331.42C1496.93 1325.25 1490.17 1311.4 1502.86 1314.29M1512.86 1317.14C1523.33 1332.07 1536.6 1340.23 1551.43 1350C1580.11 1368.9 1612.54 1386.29 1645.71 1395.84C1666.21 1401.74 1687.24 1401.76 1707.14 1410.02C1718.69 1414.8 1730.77 1421.61 1739.87 1430.26C1747.81 1437.81 1751.8 1446.96 1761.43 1452.97C1783.63 1466.84 1822.89 1484.39 1845.71 1468.57L1847.14 1468.57C1846.23 1474.84 1843.4 1477.59 1837.14 1478.57M1268.57 1327.75C1297.41 1323.95 1331.27 1326.79 1360 1330.61C1366.78 1331.51 1384.85 1330.87 1387.57 1338.89C1391.4 1350.15 1369.82 1366.64 1362.86 1372.96C1330.09 1402.73 1294.92 1416.6 1251.43 1422.45C1216.94 1427.1 1178.48 1428.64 1145.71 1414.83C1136.3 1410.87 1115.08 1400.03 1118.15 1387.14C1120.26 1378.29 1130.49 1369.55 1137.15 1363.94C1165.78 1339.8 1198.39 1345.4 1232.86 1339.59C1246 1337.37 1255.02 1329.53 1268.57 1327.75M1510 1341.43L1510 1347.14L1511.43 1348.57L1512.86 1347.14L1515.71 1344.29M1534.29 1341.43L1528.57 1352.86M1511.43 1350L1515.71 1358.57M1517.14 1362.86L1521.43 1388.57L1520 1390L1512.86 1385.71L1517.14 1395.71L1520 1390M868.57 1378.57C874.87 1387.33 872.7 1393.87 865.71 1401.43M910 1387.14C915.78 1401.03 922.68 1416.33 931.49 1428.56C935.54 1434.2 942.64 1436.89 945.83 1442.94C954.53 1459.41 954.92 1480.63 958.58 1498.57C961.54 1513.1 969.7 1532.44 957.14 1544.29M1291.43 1692.86L1284.29 1695.71L1285.71 1698.57C1295.29 1695.69 1320.84 1680.6 1324.98 1671.4C1329.79 1660.73 1326.78 1647.87 1332.17 1637.14C1339.91 1621.71 1356.53 1613 1347.14 1594.29L1354.29 1592.86C1362.65 1579.97 1377.76 1573.19 1386.37 1560.77C1389.26 1556.61 1385.86 1551.77 1387.18 1547.14C1389.73 1538.19 1398.23 1529.5 1404.41 1522.86C1424.11 1501.67 1449.77 1483.66 1464.99 1458.57C1469.46 1451.19 1463.01 1448.37 1463.94 1441.43C1465.57 1429.17 1482.3 1415.2 1487.06 1402.86C1488.66 1398.7 1489.8 1392.24 1494.4 1390.25C1505.69 1385.37 1499.44 1416.19 1509.63 1414.4C1517.69 1412.98 1510.59 1396.91 1510 1392.86M1520 1394.29C1528.04 1409.12 1520.94 1425.52 1516.2 1440C1502 1483.37 1465.61 1507.89 1434.29 1538.57L1427.14 1531.43L1444.29 1508.57L1450 1517.14C1444.96 1519.9 1442.27 1519.7 1437.14 1517.14M1517.14 1395.71L1514.29 1401.43M874.29 1397.14C874.71 1448.47 902.37 1493.03 921.43 1538.57M1505.71 1415.71L1504.29 1427.14L1505.71 1428.57L1512.86 1417.14M1512.86 1418.57L1520 1427.14M861.43 1424.29L861.43 1432.86C866.27 1431.59 866.77 1429.13 867.14 1424.29M1514.29 1424.29L1517.14 1434.29M1504.29 1430C1500.86 1446.54 1476.01 1473.94 1487.14 1487.14M865.71 1432.86L870 1451.43L865.71 1452.86L867.14 1442.86M862.86 1434.29L862.86 1441.43M1748.57 1437.14L1755.71 1440L1752.86 1444.29L1751.43 1445.71L1752.86 1441.43M1757.14 1440C1781.84 1454.06 1812.69 1462.54 1840 1470M1460 1445.71L1460 1450L1465.71 1450M1467.14 1445.71L1470 1450M1458.57 1450L1408.57 1500L1375.71 1525.91L1360 1527.39L1328.57 1534.04L1294.29 1528.57C1295.61 1532.31 1298.23 1538.54 1292.64 1540.16C1284.61 1542.46 1275.65 1534.24 1267.57 1538C1262.91 1540.19 1259.39 1549.04 1255.69 1552.86C1242.45 1566.53 1224.45 1578.53 1220.67 1598.57C1212.29 1642.97 1262.3 1632.5 1287.14 1627.16C1298.23 1624.79 1306.13 1625.34 1315.71 1618.09C1323.08 1612.51 1332.87 1605.41 1337.32 1597.14C1341.58 1589.23 1340.49 1581.47 1347.29 1574.34C1355.23 1566.03 1370.2 1557.1 1381.43 1562.86M845.71 1457.14L840 1462.86L838.57 1461.43L840 1452.86C853.45 1459.76 843.2 1466.8 842.86 1477.14L844.29 1478.57L845.71 1478.57L851.43 1472.86C864.18 1492.91 868.56 1516.51 876.69 1538.39C881.25 1550.63 891.74 1554.4 880 1567.14C861.56 1543.31 850.34 1507.84 844.29 1478.57M865.71 1452.86L865.71 1458.57L867.14 1460L871.43 1455.71L871.43 1452.86M872.86 1458.57L870 1465.71L867.14 1462.86L867.14 1460M840 1462.86L842.86 1468.57M847.14 1467.14L851.43 1471.43M872.86 1467.14C882.05 1511.57 911.07 1559.2 937.14 1595.71C948.27 1580.79 923.28 1565.9 931.43 1550L925.71 1551.43M1848.57 1470C1890.5 1475.64 1933.63 1489.24 1974.29 1500.83C1992.77 1506.1 2015.36 1508.86 2031.3 1520.14C2084.69 1557.93 2113.63 1616.1 2152.86 1667.14M1841.43 1471.43L1845.71 1475.71M1481.43 1481.43L1474.29 1484.29L1481.43 1475.71M1472.86 1485.71L1475.71 1491.43M1471.43 1490L1467.14 1495.71L1465.71 1494.29L1464.29 1492.86L1462.86 1491.43L1471.43 1488.57M1464.29 1492.86L1454.29 1514.29L1460 1505.71M1465.71 1494.29L1461.43 1498.57M1472.86 1494.29L1474.29 1495.71M1447.14 1511.43L1460 1497.14M1452.86 1502.86L1445.71 1510M1452.86 1508.57L1454.29 1508.57M2008.57 1510L2002.86 1515.71C2011.07 1521.26 2027.21 1535.8 2037.14 1528.57M2000 1511.43L2001.43 1514.29M1448.57 1515.71L1444.29 1520M1438.57 1518.57L1440 1525.71L1438.57 1527.14L1437.14 1528.57L1435.71 1527.14L1434.29 1525.71L1432.86 1524.29M1402.86 1625.71C1394.96 1626.87 1382.92 1634.37 1381.07 1642.86C1378.85 1653.06 1392.02 1650.43 1396.5 1646.59C1398.79 1644.61 1400.79 1642.19 1402.86 1640L1397.14 1634.29C1411.13 1617.5 1429.04 1606.04 1447.14 1594.29L1442.86 1590L1507.14 1518.57L1508.57 1520C1506.51 1540.59 1489.31 1560.29 1476.77 1575.71C1469.96 1584.09 1464.33 1591.44 1452.86 1591.43L1451.43 1592.86L1452.86 1594.29L1455.71 1597.14L1458.57 1594.29M1427.14 1525.71L1431.43 1527.14L1427.14 1522.86L1428.57 1521.43L1430 1521.43L1431.43 1521.43M1438.57 1524.29L1435.71 1527.14M1427.14 1531.43L1422.86 1530L1427.14 1525.71M1438.57 1528.57L1441.43 1531.43M1422.86 1531.43L1391.43 1557.14M1432.86 1538.57L1354.29 1608.57M877.14 1542.86L870 1550M875.71 1547.14L872.86 1555.71M2067.14 1552.86L2058.57 1561.43C2066.31 1568.43 2073.71 1573.07 2075.03 1584.29C2075.63 1589.37 2068.93 1602.36 2072.44 1605.67C2077.69 1610.63 2090.37 1610.84 2097.14 1616.13C2116.86 1631.51 2132.83 1653.53 2148.57 1672.86M888.57 1562.86C888.11 1568.8 884.34 1573.77 880 1567.14M2057.14 1564.29L2061.43 1567.14M915.71 1565.71L917.14 1572.86L918.57 1572.86L920 1571.43L921.43 1570M2052.86 1568.57L2055.71 1567.14M922.86 1572.86L918.57 1577.14L924.29 1578.57M924.29 1578.57C920.27 1589.04 931.15 1604.64 935.71 1614.29L937.14 1614.29L942.86 1601.43L937.14 1595.71M885.93 1582.56C899.96 1577.21 915.71 1611.8 919.78 1621.43C921.14 1624.64 926.81 1635.67 921.97 1638.2C917.54 1640.53 911.25 1632.67 908.82 1630C899.98 1620.31 891.26 1608.69 885.03 1597.14C882.72 1592.87 879.5 1585 885.93 1582.56M1351.43 1588.57L1357.14 1587.14M941.43 1591.43L944.29 1600M1352.86 1591.43L1348.57 1595.71M1341.43 1595.71L1347.14 1594.29M1440 1595.71L1442.86 1592.86M1442.86 1592.86L1445.71 1592.86M1448.57 1594.29L1451.43 1592.86M1455.71 1598.57L1404.29 1640M1350 1600L1347.14 1602.86M1350 1611.43L1342.86 1607.14L1344.29 1604.29L1345.71 1602.86L1347.14 1602.86M942.86 1604.29C951.32 1609.44 944.44 1619.93 935.71 1615.71M1352.86 1604.29L1357.14 1604.29M1351.43 1607.14L1347.14 1611.43M2065.71 1608.57L2068.57 1607.14M1342.86 1608.57L1332.86 1617.14M941.43 1612.86L941.43 1615.71M940 1620C941.67 1639.04 953.53 1656.3 955.47 1675.71C956.72 1688.23 951.35 1699.67 961.69 1709.53C981.4 1728.34 1017.49 1730.47 1033.75 1752.99C1039.9 1761.51 1025.63 1766.71 1020 1770L1024.29 1774.29L1022.86 1775.71L1015.71 1777.14L1018.57 1770M1395.71 1627.14L1400 1631.43L1397.14 1628.57M175.71 1755.71C169.1 1745 181.44 1729.57 186.93 1720C203.98 1690.3 227.44 1648.54 255.71 1628.57M1395.71 1637.14L1392.86 1647.14M1395.71 1641.43L1398.57 1642.86M1302.86 1688.57L1298.57 1682.86L1307.14 1684.29M1298.57 1690L1294.29 1684.29L1298.57 1682.86M1295.71 1691.43L1290 1685.71L1294.29 1684.29M1024.29 1774.29C1043.3 1769.89 1061.5 1761.4 1080 1755.24C1149.08 1732.2 1219.08 1702.11 1290 1685.71M1278.57 1697.14L1131.43 1748.09L1008.57 1789.93L955.71 1810L957.14 1814.29C1016.82 1800.49 1076.44 1776.29 1134.29 1756.2C1182.96 1739.31 1235.81 1725.74 1281.43 1701.43L1278.57 1697.14L1280 1695.71L1281.43 1695.71L1282.86 1695.71L1284.29 1695.71M1364.29 1698C1382.07 1694.13 1399.11 1719.84 1375.71 1724.93C1358 1728.79 1340.89 1703.07 1364.29 1698M1274.29 1698.57L1278.57 1702.86M1285.71 1698.57L1282.86 1701.43M1267.14 1701.43L1271.43 1705.71M1272.86 1701.43L1272.86 1702.86M1260 1704.29L1264.29 1708.57M170 1752.86L174.29 1758.57M168.57 1755.71L168.57 1760M1008.57 1774.29L1008.57 1780L1010 1780L1011.43 1780L1014.29 1772.86M1018.57 1772.86L1018.57 1774.29M1007.14 1781.43L1002.86 1777.14L1004.29 1775.71L1005.71 1775.71L1007.14 1775.71M1002.86 1782.86L998.57 1778.57L1000 1777.14L1001.43 1777.14L1002.86 1777.14M930 1811.43L924.29 1808.57L924.29 1807.14L925.71 1805.71C933.88 1811.9 939.96 1807.46 948.57 1804C964.79 1797.5 981.21 1791.47 997.14 1784.29L994.29 1780L998.57 1778.57M991.43 1784.29L994.29 1780M988.57 1787.14L984.29 1782.86L990 1781.43M927.14 1805.71C944.34 1795.67 964.86 1787.36 984.29 1782.86M978.57 1801.43L982.86 1805.71M974.29 1802.86L978.57 1807.14M970 1804.29L974.29 1808.57M922.86 1807.14L908.57 1820C915.83 1826.56 920.28 1826.13 928.57 1821.43L921.43 1810M968.57 1807.14L968.57 1808.57M964.29 1808.57L964.29 1810M955.71 1815.71L950 1814.29L955.71 1810M960 1810L960 1811.43M918.57 1815.71L922.86 1815.71M928.57 1821.43L948.57 1815.71M901.43 1824.29L907.14 1830L905.71 1831.43C895.14 1831.6 904.06 1822.67 908.57 1820M905.71 1821.43L907.14 1825.71M914.29 1827.14L908.57 1831.43M884.29 1840L897.14 1831.43M855.71 1875.71L857.14 1877.14L857.14 1881.43L855.71 1882.86L854.29 1881.43L852.86 1880L851.43 1878.57L855.71 1875.71M851.43 1880C824.65 1908.24 821.61 1956.63 813.02 1992.86C810.13 2005.06 800.89 2024.73 808.57 2035.71L817.14 2020M855.71 1882.86L825.71 2024.29L824.29 2025.71L820 2022.86L817.14 2022.86M824.29 2025.71L780.48 2168.57L761.43 2218.57C745.25 2204.9 757.47 2185.27 763.82 2167.14C777.76 2127.3 795.66 2081.4 801.43 2038.57L802.86 2037.14L807.14 2041.43L810 2035.71M817.14 2030L818.57 2032.86M802.86 2032.86L802.86 2037.14M810 2035.71L817.14 2042.86M801.43 2041.43L805.71 2045.71L807.14 2041.43M805.71 2045.71L804.29 2051.43L800 2047.14M798.57 2051.43L802.86 2055.71L804.29 2051.43M802.86 2055.71L801.43 2061.43L797.14 2057.14M795.71 2061.43L800 2065.71L801.43 2061.43M800 2065.71L798.57 2070L794.29 2068.57M798.57 2070L797.14 2075.71L792.86 2071.43M797.14 2075.71L795.71 2080L791.43 2078.57M795.71 2080L794.29 2085.71L790 2081.43M794.29 2085.71L792.86 2090L788.57 2088.57M792.86 2090C789.11 2107.46 783.69 2134.41 772.86 2148.57M787.14 2091.43L791.43 2095.71M785.71 2100L788.57 2102.86M780 2115.71L784.29 2120M778.57 2120L782.86 2124.29M774.29 2134.29L778.57 2138.57M772.86 2138.57L777.14 2142.86M771.43 2157.14L768.57 2172.86L767.14 2174.29L765.71 2172.86L764.29 2171.43L762.86 2170M765.71 2161.43L770 2165.71M764.29 2165.71L768.57 2170M761.43 2174.29L765.71 2178.57L767.14 2174.29M760 2178.57L764.29 2182.86L765.71 2178.57M758.57 2182.86L762.86 2187.14L764.29 2182.86M762.86 2187.14L761.43 2195.71L760 2197.14L758.57 2195.71L757.14 2194.29L755.71 2192.86M757.14 2188.57L761.43 2192.86M754.29 2197.14L758.57 2201.43L760 2197.14M752.86 2201.43L757.14 2205.71L758.57 2201.43M751.43 2205.71L755.71 2210L757.14 2205.71M755.71 2210L755.71 2212.86M748.57 2212.86C751.82 2217.93 760.09 2220.29 760.57 2227.01C761.45 2239.24 750.73 2257.36 746.28 2268.57C732.04 2304.46 718.49 2343.69 694.29 2374.29L692.86 2374.29C690.35 2359.21 701.32 2339.67 706.54 2325.71C720.07 2289.53 733.24 2253.17 747.14 2217.14M754.29 2214.29L754.29 2217.14M747.14 2217.14L754.29 2227.14L761.43 2218.57M752.86 2220L751.43 2221.43M754.29 2227.14L757.14 2232.86M757.14 2230L758.57 2231.43M2082.86 2320L2077.14 2321.43L2075.71 2322.86L2077.14 2324.29L2080 2327.14C2088.36 2313.43 2101.04 2299.99 2117.14 2295.41C2139.17 2289.16 2149.69 2306.33 2142.73 2325.71C2134.14 2349.64 2114.54 2367.93 2100.49 2388.57C2075.2 2425.71 2047.87 2475.66 2038.57 2520M2134.29 2297.14L2135.71 2301.43L2140 2297.14M2002.86 2312.86C1992.77 2313.81 1985.76 2324.13 1981.87 2332.86C1980.51 2335.93 1978.06 2343.19 1982.27 2345.36C1987.4 2347.99 1995.53 2338.76 1998.51 2335.7C2009.67 2324.26 2011.83 2317.66 2000 2307.14C2017.29 2295 2027.36 2309.27 2025.3 2327.14C2021.61 2359.36 1998.66 2387.71 1998.57 2420C2011.16 2417.13 2017.21 2398.81 2023.07 2388.57C2034.74 2368.16 2053.81 2335.93 2075.71 2325.71M2135.71 2301.43C2139.81 2323.61 2124.19 2347.16 2101.43 2350.96C2085.8 2353.57 2070.8 2344.99 2080 2328.57M1998.57 2310L1998.57 2311.43M1917.14 2520C1906.31 2504.79 1912.76 2489.26 1918.1 2472.86C1928.46 2441.07 1942.33 2410.49 1955.91 2380C1961.71 2366.97 1967.61 2347.97 1978.57 2338.57M692.86 2367.14L697.14 2371.43M2215.71 2405.71C2206.8 2413.5 2207.9 2426.24 2199.67 2433.37C2192.26 2439.8 2168.64 2445.29 2167.49 2429.97C2166.24 2413.49 2192.09 2380.04 2207.14 2374.67C2212.7 2372.7 2218.57 2375.76 2224.29 2375.71L2225.71 2377.14L2224.29 2378.57L2220 2377.14M2224.29 2378.57L2230 2391.43L2231.43 2391.43L2232.86 2390L2232.86 2388.57L2227.14 2388.57M2222.86 2380L2227.14 2384.29M2230 2382.86L2231.43 2384.29M2187.14 2391.43L2184.29 2388.57L2191.43 2385.71M2185.71 2390L2181.43 2394.29M2232.86 2392.86C2236.63 2408.7 2228.71 2421.84 2221.79 2435.71C2205.13 2469.03 2181.36 2492.86 2157.14 2520M2071.43 2520C2073.07 2509.64 2079.19 2508.03 2087.14 2502.86L2082.86 2498.57L2149.93 2428.57L2181.43 2394.29M2214.29 2410C2214.14 2419.3 2218.43 2421.33 2227.14 2421.43M2208.57 2412.86L2211.43 2415.71M2122.86 2481.43L2087.14 2520M2107.14 2495.71L2104.29 2492.86L2111.43 2490M2105.71 2494.29L2108.57 2494.29M2088.57 2502.86L2104.29 2492.86M2204.29 2520C2204.84 2509.76 2210.94 2499.36 2221.43 2496.53C2228.16 2494.71 2242.81 2497.73 2241.91 2507.14C2241.4 2512.43 2235.3 2515.63 2232.86 2520M2235.71 2498.57L2234.29 2515.71M2080 2504.29L2082.86 2501.43M2082.86 2501.43L2085.71 2501.43M2044.29 2507.14C2052.74 2514.07 2060.69 2516.06 2071.43 2515.71M2232.86 2510L2237.14 2514.29M1955.71 2520C1964.59 2513.63 1975.31 2516.11 1985.71 2515.66C2003.79 2514.87 2021.9 2511.47 2040 2511.43M2224.29 2520L2230 2514.29M2230 2515.71L2232.86 2518.57"/>
</g>

</svg>