<!DOCTYPE svg PUBLIC "-//W3C//DTD SVG 20010904//EN" "http://www.w3.org/TR/2001/REC-SVG-20010904/DTD/svg10.dtd">
<svg version="1.0" xmlns="http://www.w3.org/2000/svg" width="500px" height="500px" viewBox="0 0 5000 5000" preserveAspectRatio="xMidYMid meet">
 <g id="layer101" fill="none" stroke-width="5" stroke="black">
  <path d="M704.29 1535.71L710 1534.29L708.57 1535.71L707.14 1537.14L705.71 1537.14C693.88 1520.86 681.18 1498 683.1 1477.14C684.66 1460.19 698.8 1433.69 692 1417.3C689.34 1410.9 682.3 1412.45 677.17 1409.75C670.97 1406.47 670.5 1399.39 665.39 1395.29C656.81 1388.4 640.98 1392.78 640.52 1377.14C640.14 1364.47 650.51 1356.95 657.9 1348.44C666.84 1338.16 675.82 1318.36 673.01 1304.31C668.93 1283.93 626.55 1313.97 620.68 1288.57C615.45 1265.99 651.53 1250.89 647.97 1230.16C646.56 1221.98 632.98 1224.29 627.14 1224.29C611.84 1224.29 582.65 1223.21 580.36 1202.86C579.08 1191.41 587.36 1179.01 593.36 1170C608.5 1147.31 631.44 1129.8 644.29 1105.71L642.86 1104.29C626.64 1104.62 609.96 1110.9 594.29 1114.82C590.91 1115.66 579.81 1120.32 577.39 1116.22C574.76 1111.75 582.94 1106.37 585.72 1104.31C597 1095.92 609.21 1088.94 621.43 1082.03C645.61 1068.38 671.42 1058 697.14 1047.71C715.06 1040.55 735.58 1033.18 749.75 1019.57C758.93 1010.75 760.27 998.66 767.14 988.57C769.7 991.6 772.66 996.19 777.16 996.07C786.68 995.82 788.33 984.76 781.34 979.99C771.64 973.37 757.06 971.32 745.71 969.41C718.72 964.87 691.42 963.65 664.29 960.41C652.4 958.99 627.31 960.89 619.66 949.69C615.4 943.47 621.83 938.6 627.14 936.4C652.03 926.12 671.89 921.01 690.09 898.57C692.31 895.84 694.44 893.07 696.17 890C704.95 874.39 685.88 870.16 674.29 866.52C670.77 865.42 663.48 863.47 664.17 858.48C665.14 851.61 677.34 848.14 682.86 846.63C701.08 841.64 725.14 846.17 741.43 837.14C733.73 829 720.65 827.52 710 825.43C685.39 820.61 660.19 819.16 635.71 813.68C625.57 811.41 602.66 806.36 599.84 794.26C596.24 778.8 632.5 775.48 641.43 771.6C655.18 765.62 650.93 751.2 662.86 745.08C683.9 734.29 713.97 733.15 737.14 730.41C746.97 729.24 759.78 732.74 764.71 721.41C774.07 699.87 752.05 683.04 744.8 665.71C741.79 658.51 745.51 650.84 740.8 644.29C736.66 638.52 718.73 628.69 721.07 620.45C723.31 612.6 744.89 618.99 750 620.17C774.72 625.86 798.26 635.45 822.86 641.61C827.82 642.85 843.27 649.22 846.95 643.42C854.74 631.17 819.73 616.15 824.65 604.91C827.8 597.72 845.1 603.15 851.21 598.77C856.99 594.64 852.52 589.88 854.6 584.66C861.42 567.56 872.3 552.23 866.69 531.51C865.05 525.45 857.45 523.38 852.86 519.94C843.45 512.89 835.69 503.75 828.8 494.29C825.93 490.34 819.52 482.78 821.77 477.47C825.88 467.78 846.42 473.43 853.96 466.54C867.81 453.9 853.42 426.75 872.92 416.17C887.94 408.02 896.47 429.25 909.93 430.46C921.92 431.53 908.58 414.95 917.36 413.57C930.61 411.5 944.81 428.76 958.49 421.39C966.78 416.92 966.89 405.24 968.22 397.14C970.66 382.23 974.78 361.15 988.59 352.29C1000.76 344.48 1006.22 364.11 1011.43 371.43L1012.86 371.43C1019.95 358.13 1012.55 337.7 1008.1 324.29C1006.49 319.44 1000.92 308.53 1004.38 303.72C1008.82 297.56 1034.3 301.43 1041.43 301.43C1052.03 301.43 1066.67 301.61 1075.5 294.71C1079.89 291.28 1081.61 285.36 1085.71 281.43C1067.05 256.93 1040.68 239.26 1020.84 215.71C1016.85 210.97 1001.61 194.84 1010.46 188.83C1016.3 184.85 1026.77 187.7 1032.86 189.64C1051.72 195.66 1069.84 206.7 1084.23 220.24C1089.1 224.83 1093.31 232.6 1100 234.74C1107.25 237.05 1113.39 227.62 1118.57 224C1128.86 216.82 1151.21 210.84 1162.59 218.58C1174.93 226.99 1172.73 248.21 1181.13 260C1190.63 273.32 1205.01 277.14 1218.57 284.9C1228.8 290.75 1238.76 299.27 1250 302.86C1249.19 292.16 1236.96 282.95 1242.9 271.45C1249.18 259.27 1264.86 262.79 1275.71 259.26C1290.07 254.58 1301.58 244.28 1311.07 232.86C1315.77 227.2 1321.62 216.48 1330 216.25C1336.86 216.07 1341.81 223.58 1345.2 228.57C1352.98 240.02 1358.5 257.01 1371.43 263.65C1379.18 267.63 1391.89 260.79 1397.51 267.6C1403.58 274.94 1397.58 297.28 1414.29 294.76C1432.27 292.05 1439.89 265.63 1451.56 254.44C1456.23 249.97 1464.94 249.59 1468.11 244.07C1473.34 234.99 1466.61 222.64 1477.3 215.84C1485.16 210.84 1494.33 213.76 1502.86 214.14C1511.97 214.54 1522.81 212.4 1531.43 209.48C1544.83 204.95 1556.41 195.94 1570 191.23C1612.63 176.44 1661.96 166.26 1707.14 165.72C1727.59 165.48 1746.87 171.37 1767.14 172.73C1786.94 174.06 1808.81 170.31 1828.57 168.33C1843.71 166.81 1859.97 164.33 1874.29 158.99C1886.64 154.37 1896.71 147.45 1910 144.94C1954.66 136.52 2003.26 136.84 2048.57 135.74C2174.66 132.65 2300.07 145.87 2425.71 151.37C2447.43 152.32 2469.87 152.17 2491.43 149.59C2509.07 147.48 2527.91 142.83 2545.71 144.53C2587.36 148.49 2625.53 168.45 2667.14 171.3C2710 174.24 2753.8 161.82 2797.14 162.88C2860.54 164.43 2918.23 178.5 2980 190.86C3031.19 201.1 3084.03 205.15 3132.86 224.93C3148.03 231.08 3160.2 241.07 3174.29 248.57M3027.14 232.86C3038 234.06 3048.81 242.61 3058.57 247.5C3091.81 264.12 3119.23 285.38 3144.29 312.86C3152.2 321.53 3172.63 342.08 3168.67 355.56C3163.59 372.88 3142.91 347.09 3138.57 342.98C3124.19 329.43 3107.76 316.88 3091.43 305.76C3087.99 303.41 3078.3 295.51 3073.86 298.76C3070.09 301.51 3075.29 312.43 3073.43 316.94C3071.9 320.61 3066.93 321.77 3066.47 325.92C3065.74 332.44 3072.4 340.88 3076.06 345.71C3089.41 363.39 3106.44 371.33 3122.86 384.91C3181.23 433.18 3233.63 489.35 3287.14 542.86C3332.04 587.76 3379.59 633.02 3417.31 684.29C3458.07 739.68 3489.47 802.2 3526.7 860C3588.71 956.28 3648.93 1047.66 3677.67 1160C3707.31 1275.82 3709.04 1397.22 3714.23 1515.71C3714.97 1532.57 3717.53 1553.47 3715.49 1570C3714.3 1579.5 3708.74 1586.87 3708.57 1597.14C3708.44 1605.51 3708.3 1626.14 3698.43 1629.63C3691.21 1632.19 3684.96 1620.57 3682.07 1615.71C3678.04 1608.9 3673.61 1599.57 3676.77 1591.56C3678.89 1586.19 3683.47 1583.29 3684.13 1577.14C3684.76 1571.24 3680.33 1562.87 3682.43 1557.61C3684.14 1553.3 3690.74 1555.91 3694.14 1554.19C3699.24 1551.59 3701.37 1544.57 3704.29 1540L3705.71 1540L3707.14 1541.43C3707.34 1565.69 3715.37 1586.01 3717.01 1610C3719.84 1651.4 3716.1 1694.7 3722.04 1735.71C3724.64 1753.7 3724.96 1772.17 3728.57 1790C3730.41 1799.09 3735.61 1807.39 3730 1815.71L3731.43 1817.14L3732.86 1818.57L3735.71 1814.29M3038.57 232.86L3128.57 241.43L3168.57 245.71M1085.71 282.86L1098.57 298.57M1048.58 313.92C1065.69 307.59 1053.64 334.98 1042.86 338.47C1027.89 343.33 1040.02 317.09 1048.58 313.92M2028.57 332.86L2042.86 341.43L2044.29 341.43L2045.71 340L2047.14 337.14L2041.43 335.71M2047.14 337.14L2080 349.24L2086.89 359.01L2075.71 358.08L2044.29 341.43M2098.57 492.86L2132.86 514.29L2134.29 515.71L2132.86 517.14L2130 517.14L2128.57 518.57L2130 520L2135.71 521.43L2137.14 520L2135.71 515.71M2127.14 514.29L2127.14 517.14M2132.86 514.29L2132.86 517.14M2137.14 517.14L2135.71 518.57M2140 518.57L2167.14 540C2155.41 541.64 2143.06 529.62 2134.29 522.86M2135.71 682.86C2122.4 671.34 2103.37 660.7 2095.71 644.29C2112.84 640.99 2130.87 667.92 2141.43 678.57L2137.14 682.86L2142.86 685.71L2144.29 685.71L2141.43 680M1677.14 658.57L1731.43 712.86C1738.07 719.51 1744.4 730.49 1754.29 731.43L1755.71 732.86L1754.29 734.29L1752.86 735.71L1750 732.86M1754.29 734.29L1782.86 762.86L1752.86 735.71M1784.29 762.86L1787.14 767.14L1781.43 765.71M2334.29 770C2348.6 776.68 2361.76 795.37 2370 808.57L2365.71 812.86C2356.34 803.48 2331.96 784.37 2334.29 770M2371.43 811.43L2374.29 815.71L2372.86 817.14L2368.57 812.86M2877.14 1334.29L2872.86 1337.14L2872.86 1338.57L2874.29 1340C2878.16 1337.51 2884.57 1337.31 2887.51 1333.81C2897.29 1322.15 2878.26 1301.87 2877.27 1290C2876.03 1274.89 2886.04 1260.09 2883.74 1245.71C2882.59 1238.57 2875.9 1234.24 2874.61 1227.14C2872.61 1216.18 2878.59 1205.02 2874.83 1194.29C2871.93 1185.99 2862.49 1181.84 2860.89 1172.86C2859.47 1164.94 2866.1 1164.74 2871.43 1167.14C2876.97 1156.77 2871.87 1144.8 2868.53 1134.29C2861.94 1113.59 2852.03 1092.48 2840.2 1074.29C2836.3 1068.31 2829.04 1064.22 2825.77 1058.27C2823.1 1053.42 2826.41 1047.94 2826.24 1042.86C2825.9 1032.64 2816.91 1024.88 2808.57 1020.47C2801.56 1016.75 2791.64 1013.51 2784.34 1018.2C2780.74 1020.52 2777.51 1026.84 2772.83 1026.85C2767.37 1026.85 2761.86 1018.17 2757.14 1015.59C2748.76 1011.03 2738.89 1011.58 2730 1008.57L2728.57 1007.14L2730 1005.71C2736.37 1003.18 2745.09 1001.05 2748.26 994.22C2754.76 980.22 2725.24 968.85 2715.71 966.4C2702.46 962.99 2688.29 968.64 2675.8 965.26C2670.54 963.84 2669.31 958.18 2665.51 954.88C2659.7 949.84 2650.27 948.76 2642.86 948.59C2629.11 948.28 2612.09 960.91 2600 957.93C2590.41 955.56 2586.33 943.27 2577.14 939.08C2558.19 930.42 2534.36 938.25 2514.29 935.28C2507.69 934.31 2499.93 925.77 2494.21 926.66C2487.97 927.63 2483.27 933.72 2477.14 935.5C2472.71 936.78 2467.26 933.79 2463.3 935.9C2457.6 938.96 2458.76 946.99 2451.4 949.6C2440.43 953.5 2428.14 945.13 2417.2 949.43C2409.86 952.32 2411.93 966.42 2405.5 966.98C2397.87 967.64 2392.24 956.95 2384.29 956.6C2375.54 956.22 2372.6 968.18 2362.86 963.61C2353.86 959.39 2348.13 947.11 2337.14 947.38C2322.04 947.75 2311.9 966.42 2295.71 968.31C2285.14 969.54 2275.1 964.63 2264.29 965.98C2250.97 967.64 2237.8 973.1 2224.29 975.1C2194.51 979.51 2163.8 979.74 2134.29 985.72C2099.67 992.74 2065.77 1006.66 2032.86 1019.18C1991.31 1034.98 1949.53 1051.39 1910 1071.8C1901.24 1076.32 1894.29 1083.46 1885.71 1087.94C1874.66 1093.72 1862.44 1091.53 1851.43 1098.72C1838.87 1106.91 1832.03 1120.48 1820 1129.09C1811.86 1134.92 1798.84 1134.14 1791.99 1140.62C1783.63 1148.52 1791.9 1164.2 1779.97 1168.94C1768.13 1173.65 1753.77 1164.04 1741.46 1166.06C1734.6 1167.19 1732.69 1174.75 1725.71 1176.47C1700.51 1182.71 1660.6 1182.1 1635.71 1174.59C1631.69 1173.38 1626.76 1171.39 1625.39 1166.99C1624.43 1163.92 1626.67 1158.24 1622.4 1157.04C1617.74 1155.74 1610.74 1158.88 1605.71 1158.73C1594.31 1158.39 1583.11 1154.8 1572.86 1150C1581.83 1132.73 1612.39 1132.29 1627.14 1121.53C1631.96 1118.02 1639.24 1107.44 1645.5 1107.44C1650.91 1107.44 1650.46 1119.31 1652.7 1122.84C1657.66 1130.6 1667.09 1134.3 1675.71 1136.19C1724.1 1146.74 1771.59 1118.07 1812.86 1096.77C1835.81 1084.93 1858.47 1071.9 1880 1057.62C1893.41 1048.71 1905.04 1037.65 1920 1031.25C1947.69 1019.39 1983.24 1009.59 2012.86 1004.01C2025.14 1001.69 2037.9 1002.43 2050 999.32C2071.81 993.71 2089.23 977.1 2111.43 970.61C2162.3 955.72 2214.14 952.59 2265.71 942.22C2275.94 940.16 2288.54 938.05 2297.09 931.71C2302.54 927.67 2305.74 916.74 2312.89 915.71C2322.09 914.38 2332.57 927.47 2342.86 928.25C2352.41 928.98 2362.07 923.4 2371.43 921.84C2385.77 919.44 2399.93 921.12 2414.29 919.76C2443.56 916.97 2470.1 901.69 2498.57 898.82C2514.77 897.19 2530.8 909.26 2548.57 907.47C2552.79 907.05 2558.87 906.75 2561.87 903.28C2565.39 899.21 2562.14 892.7 2570.03 893.24C2586.63 894.38 2598.04 913.88 2614.21 914.94C2619.77 915.31 2622.34 908.68 2627.17 906.77C2634.76 903.79 2643.63 907.12 2651.43 904.9C2656.99 903.31 2661.16 897.64 2667.14 897.66C2682.07 897.72 2689.49 919.18 2705.71 916.53C2713.09 915.32 2719.53 911.07 2727.14 910.25C2739.23 908.95 2751 911.2 2762.86 907.54C2769.07 905.62 2779.16 895.71 2785.31 896.97C2790.43 898.03 2789.83 906.2 2790.06 910C2790.69 920.95 2795 931.8 2803.29 939.24C2815.96 950.63 2822.56 938.36 2835.71 940.48C2848.49 942.53 2860.79 954.78 2870 963.1C2903.56 993.41 2896.53 1025.24 2902.04 1065.71C2904.99 1087.36 2916.14 1108.51 2917.09 1130C2917.87 1147.94 2911.36 1166.26 2910.13 1184.29C2907.31 1225.36 2907.31 1267.49 2910.13 1308.57C2911.51 1328.83 2915.69 1348.88 2924.81 1367.14C2930.26 1378.04 2944.1 1391.87 2944.94 1404.2C2945.57 1413.28 2933.5 1406.15 2929.03 1408.06C2922.29 1410.95 2928.07 1422.79 2930 1427.14L2928.57 1428.57L2927.14 1430L2908.57 1417.14L2907.14 1418.57L2932.86 1474.29L2930 1477.14C2910.04 1472.6 2932.49 1511.26 2936.46 1517.14C2947.61 1533.67 2964.17 1545.24 2975.81 1561.43C2982.17 1570.26 2981.71 1580.91 2987.24 1590C2995.47 1603.53 3008.24 1613.49 3018.13 1625.71C3025.84 1635.26 3027.66 1658.3 3038.57 1661.43L3040 1662.86C3034.87 1673.49 3052.14 1688.5 3058.09 1697.14C3079.54 1728.33 3102.09 1759.96 3118.33 1794.29C3133.2 1825.7 3148.39 1862.94 3154.84 1897.14C3159.54 1922.06 3158.13 1948.2 3164.14 1972.86C3168.04 1988.86 3177.99 1999.74 3184.33 2014.29C3188.26 2023.29 3183.09 2030.07 3184.97 2038.56C3187.06 2047.99 3195.77 2055.17 3197.93 2065.71C3201.63 2083.8 3201.17 2102.04 3206.33 2120C3211.54 2138.19 3221.46 2154.2 3225.89 2172.86C3229.41 2187.73 3226.17 2209.41 3233.67 2222.64C3236.96 2228.43 3243.54 2225.91 3248.27 2229.43C3253.1 2233.04 3254.46 2239.66 3258.87 2243.73C3268.36 2252.47 3283.81 2252.64 3295.71 2250.27C3307.89 2247.86 3335.29 2237.24 3324.29 2221.43C3335.14 2211.23 3335.9 2193.76 3339.8 2180C3349.16 2146.99 3360.19 2113.6 3367.14 2080L3368.57 2078.57L3372.86 2082.86L3374.29 2081.43C3370.86 2067.44 3376.74 2037.66 3387.47 2025.96C3395.71 2016.96 3408.46 2015.63 3414.29 2004.29C3418.03 1997.01 3419.63 1970.39 3427.64 1967.64C3434.39 1965.33 3441.09 1981.56 3450 1980.5C3462.71 1979 3460.84 1937.5 3479.43 1958.61C3481.31 1960.77 3482.76 1963.31 3484.29 1965.71C3491.94 1958.21 3486.37 1945.29 3493.59 1937.6C3499.87 1930.93 3512.41 1941.56 3515.63 1931.34C3518.54 1922.04 3505.01 1901.2 3513.71 1894.33C3523.97 1886.23 3543.3 1902.59 3555.51 1895.46C3561.73 1891.83 3562.54 1881.37 3566.73 1875.71C3574.57 1865.11 3585.21 1856.87 3595.71 1849.11C3614.17 1835.46 3636.27 1822.94 3658.57 1816.99C3677.21 1812 3705.36 1809.57 3715.06 1790C3727.4 1765.13 3676.47 1757.31 3683.31 1730C3685.74 1720.29 3695.91 1722.67 3702.73 1718.37C3705.31 1716.73 3708.83 1712.1 3712.31 1713.34C3715.44 1714.46 3718.06 1720.36 3720 1722.86M948.57 907.81C959.79 905.79 968.07 911.15 958.49 921.41C950.45 930.01 937.71 939.21 925.71 940.94C915.63 942.39 906.97 933.16 914.62 924.42C922.57 915.34 936.94 909.89 948.57 907.81M1294.29 1037.14C1289.44 1041.75 1284.69 1045.56 1286.63 1052.86C1288.51 1059.9 1299.95 1073.96 1292.38 1080.57C1287.79 1084.58 1281.07 1081.56 1275.87 1083.72C1269.53 1086.35 1270.67 1094.85 1264.2 1097.51C1254.12 1101.67 1242.19 1092.8 1231.43 1094.97C1216.35 1098.02 1210.21 1108.21 1192.86 1107.02C1178.56 1106.03 1153.67 1093.55 1140.22 1099.43C1135.05 1101.69 1134.95 1123.36 1130.1 1130C1119.19 1144.97 1102.23 1153.93 1090.97 1168.57C1081.68 1180.65 1079.08 1196.84 1071.43 1210C1054.15 1184.35 1096.84 1153.9 1107.91 1135.71C1124.05 1109.19 1108.28 1086.97 1091.43 1065.71C1088.79 1062.37 1068.81 1038.36 1077.65 1035.34C1085.15 1032.78 1098.23 1046.94 1102.86 1051.45C1117.12 1065.36 1131.4 1079.34 1150 1087.32C1156.7 1090.2 1165.78 1093.48 1172.79 1089.74C1195.32 1077.74 1162.2 1051.23 1155.43 1041.43C1151.47 1035.68 1148.98 1026.04 1157.23 1022.71C1165.37 1019.42 1173.89 1026.06 1180 1030.72C1195.6 1042.61 1207.64 1057.69 1221.43 1071.43C1225.51 1075.5 1237.97 1090.58 1244.71 1084.79C1252.94 1077.71 1247.03 1059.93 1241.95 1052.86C1236.91 1045.87 1229.21 1041.55 1224.44 1034.28C1219.07 1026.11 1216.96 1015.88 1212.49 1007.14C1202.76 988.17 1191.83 969.71 1180.86 951.43C1175.18 941.97 1169.3 932.58 1164.09 922.86C1162.88 920.59 1158.9 913.9 1163.37 912.61C1173.76 909.61 1193.91 932.34 1197.94 940C1210.49 963.85 1223.72 983.15 1245.71 1000.16C1254.01 1006.57 1264.27 1010.01 1272.38 1016.11C1276.85 1019.46 1273 1025.21 1276.6 1028.95C1280.43 1032.94 1289.32 1034.26 1294.29 1037.14M1143.72 965.97C1147.83 963.67 1152.63 970.17 1154.59 972.86C1159.06 979.02 1170.77 1004.2 1160.81 1009.88C1149.94 1016.07 1145.75 983.1 1143.7 977.14C1142.73 974.34 1140.02 968.03 1143.72 965.97M1014.29 999.62C1023.15 996.61 1026.95 1004.04 1023.3 1011.43C1019.24 1019.65 1010.34 1027.75 1001.43 1030.28C993.43 1032.55 988.83 1027.47 992.82 1020C997.06 1012.06 1005.55 1002.58 1014.29 999.62M1265.71 1060C1251.53 1050.98 1240.02 1034.34 1234.29 1018.57C1252.46 1015.62 1276.86 1043.11 1265.71 1060M1294.29 1038.57L1297.14 1041.43L1291.43 1042.86M791.43 1077.14C798.99 1062.35 825.54 1053.61 840 1046.83C845.71 1044.15 855.29 1039 858.72 1047.23C860.05 1050.41 860.62 1056.35 856.69 1058C851.72 1060.08 845.63 1056.7 840 1059.09C824.51 1065.68 809.93 1082.46 791.43 1077.14M1298.57 1044.29C1339.61 1072.85 1392.64 1058.34 1435.71 1082.86L1431.43 1087.14L1432.86 1088.57L1437.14 1088.57L1438.57 1087.14L1435.71 1084.29M1314.29 1057.14C1327.8 1086.1 1361.29 1073.62 1385.71 1075.96C1401.87 1077.5 1415.9 1083.46 1431.43 1087.14M1001.43 1125.71C972.37 1137.97 937.05 1125.7 907.14 1138.57L905.71 1137.14C906.78 1131.77 914.21 1124.2 913.03 1119.08C912.01 1114.69 904.12 1117.72 901.43 1118.27C893.83 1119.82 877.94 1120.2 875.67 1109.96C873.06 1098.15 892.39 1104.84 895.35 1098.12C898.22 1091.6 885.36 1080.19 882.86 1074.29C893.14 1071.77 905.88 1079.61 915.71 1082.86C940.72 1091.11 959.36 1095.56 981.43 1110.47C988.17 1115.03 997.36 1118.49 1001.43 1125.71M1545.71 1080L1548.57 1075.71L1550 1075.71L1551.43 1077.14L1547.14 1081.43C1563.21 1097.5 1581.76 1107.34 1604.29 1111.31C1608.27 1112.01 1626.84 1116.07 1626.84 1108.39C1626.84 1102.62 1614.19 1099.12 1610 1097.43C1591.14 1089.82 1571.26 1081.73 1551.43 1077.14M1440 1088.57C1460.71 1099.15 1472.43 1085.78 1494.29 1089.2C1504.8 1090.84 1515.94 1093.76 1525.71 1098.03C1532.57 1101.02 1536.43 1105.93 1544.29 1105.71L1545.71 1107.14C1535.03 1126.69 1563.94 1132.47 1577.14 1128.57L1547.14 1107.14M1465.71 1097.14C1485.56 1099.71 1494.63 1108.52 1507.6 1122.72C1510.86 1126.29 1518.43 1133.28 1523.77 1129.9C1528.24 1127.07 1524.14 1119.85 1524.67 1115.72C1525.41 1110.02 1529.99 1107.32 1534.29 1104.29M1540 1107.14L1540 1110M1580 1130L1594.29 1131.43M795.71 1158.57L790 1158.57L788.57 1157.14L801.43 1154.29M792.86 1161.43C782.44 1170.45 770.73 1179.3 758.57 1185.86C754.87 1187.85 747.76 1191.57 743.72 1188.51C737.86 1184.07 744.88 1175.45 748.63 1172.55C759.85 1163.9 774.68 1158.94 788.57 1157.14M724.29 1164.29C721.24 1170.94 715.46 1174.96 714.56 1182.86C713.4 1192.98 719.4 1202.71 716.21 1212.86C714.69 1217.71 709.19 1226.13 703.01 1223.92C695.85 1221.35 696.94 1210.2 697.2 1204.29C697.9 1188.28 701.62 1157.65 724.29 1164.29M807.25 1198.41C813.12 1196.92 815.79 1204.02 816.23 1208.57C817 1216.48 812.65 1234.56 802.9 1235.83C797.45 1236.53 795.99 1229.72 795.78 1225.71C795.38 1217.83 797.87 1200.81 807.25 1198.41M1065.71 1210L1071.43 1211.43M1064.29 1212.86L1070 1214.29M1062.86 1215.71L1068.57 1217.14M1061.43 1218.57L1067.14 1220M1060 1221.43L1065.71 1222.86M1060 1221.43C1049.34 1233.92 1037.65 1248.76 1031.82 1264.29C1028.32 1273.59 1028.5 1284.57 1026.21 1294.29C1022.06 1311.83 1015.83 1329 1009.14 1345.71C1003.25 1360.44 996.48 1381.77 984.04 1392.26C967.59 1406.12 933.15 1405.11 912.86 1410C907.17 1390.15 933.68 1356.8 948.63 1345.87C953.11 1342.59 977.13 1336.49 967.69 1326.58C962.09 1320.7 950.2 1327.45 944.29 1329.51C921.62 1337.38 898.11 1342.95 875.71 1351.52C867.52 1354.66 846.62 1361.84 846.62 1372.8C846.62 1381.31 862.33 1380.7 860.16 1390.02C857.67 1400.69 841.04 1410.1 832.86 1416.25C813.64 1430.69 793.8 1444.54 775.71 1460.41C767.52 1467.6 760.57 1478.97 751.37 1484.63C739.86 1491.71 727.84 1468.23 718.7 1482.94C705.99 1503.4 740.36 1518.5 749.49 1531.43C753.57 1537.2 751.43 1546.11 751.43 1552.86L752.86 1554.29L754.29 1554.29L771.43 1520C798.83 1550.46 797.23 1581.79 806.43 1618.57C810.11 1633.29 819.8 1644.46 822.5 1660C824.59 1671.99 833.65 1695.41 827.14 1705.71C809.38 1683.34 803.85 1669.46 801.19 1641.43C800.17 1630.8 797.64 1618.34 802.86 1608.57M1058.57 1222.86C1065.67 1234.37 1047.34 1263.41 1042.59 1275.71C1027.63 1314.44 1016.87 1354.66 1000.4 1392.86C994.31 1406.97 987.5 1427.14 974.26 1436.14C966.63 1441.33 955.82 1441.31 947.14 1443.89C931.03 1448.67 915.43 1454.81 900 1461.43C893.17 1464.36 877.41 1469.81 874.65 1477.41C869.87 1490.59 904.25 1501.79 912.86 1504.06C939.18 1511 949.02 1491.99 960.45 1471.43C964.16 1464.74 974.64 1448.37 984.2 1452.96C993.03 1457.19 989.35 1468.9 986.48 1475.71C978.33 1495.06 959.4 1505.39 947.14 1521.43L951.43 1525.71C959.62 1517.9 986.5 1506.91 974.13 1528.57C968.6 1538.26 958.64 1550.41 948.58 1555.61C937.03 1561.59 940.85 1543.76 943.12 1538.57C945.45 1533.24 946.97 1528.39 948.57 1522.86M760 1232.25C770.53 1230.36 770.74 1240.55 766.21 1247.14C760.36 1255.66 748.01 1265.53 737.17 1266.19C728.32 1266.73 731.74 1257.29 734.64 1252.86C740.06 1244.57 749.75 1234.1 760 1232.25M2874.29 1341.43C2882.16 1347.76 2887.26 1344.47 2895.71 1347.29C2906.44 1350.86 2913.87 1366.84 2915.71 1377.14L2914.29 1378.57C2900.19 1373.48 2904.87 1386.12 2895.5 1386.78C2888.9 1387.24 2881.56 1378.32 2875.71 1375.71C2870.09 1396.41 2896.14 1415.8 2903.63 1432.86C2907.04 1440.61 2899.31 1441.3 2896.77 1447.3C2894.84 1451.86 2895.6 1458.1 2896.34 1462.86C2901.34 1494.66 2921.61 1514.44 2940.47 1538.57C2943.73 1542.74 2956.49 1561.43 2942.86 1558.57M811.43 1475.71C811.41 1458.67 837.97 1437.9 850 1427.77C853.19 1425.08 862.79 1415.34 867.58 1418.77C872.98 1422.63 862.27 1435.69 859.74 1438.57C848.72 1451.1 828.19 1472.39 811.43 1475.71M877.14 1455.71C874.62 1446.93 881.39 1417.55 895.39 1422.37C912.17 1428.16 883.43 1453.06 877.14 1455.71M925.71 1465.03C947.77 1460.4 935.9 1482.41 921.43 1485.63C915.54 1486.94 898.69 1483.13 904.4 1473.59C907.37 1468.61 920.4 1466.14 925.71 1465.03M704.29 1515.71C719.59 1525.44 739.27 1544.9 717.14 1555.71C720.85 1561.14 724.71 1566.44 729.18 1571.3C754.37 1598.64 772.49 1576.33 794.29 1558.57M705.71 1517.14L708.57 1532.86M878.57 1522.54C888.38 1519.3 895.43 1530 895.45 1538.57C895.48 1556.01 877.26 1567.06 874.93 1584.29C874.04 1590.9 881.91 1608.07 871.35 1610.24C860.83 1612.4 855.76 1592.97 854.71 1585.71C851.84 1565.8 855.39 1530.23 878.57 1522.54M950 1524.29L947.14 1527.14M980 1610C966.94 1626.91 949.55 1644.06 932.86 1657.41C929.85 1659.83 915.28 1672.04 912.56 1663.83C908.32 1651.06 930.83 1634.14 932.75 1621.43C935.1 1605.84 920.74 1594.73 915.71 1581.43C909 1563.7 930.3 1533.06 945.71 1525.71M711.43 1538.57L707.14 1541.43L710 1545.71L711.43 1547.14L712.86 1545.71L714.29 1544.29L710 1542.86M714.29 1542.86L720 1550L718.57 1551.43L717.14 1552.86L715.71 1554.29M711.43 1548.57L717.14 1548.57M714.29 1552.86L715.71 1554.29M717.14 1552.86L717.14 1555.71M2945.71 1561.43L2978.44 1600L3027.14 1655.71M997.14 1615.71C993.18 1619.89 980.14 1632.4 985.44 1639.14C988.09 1642.51 996.15 1640.2 996.07 1645.93C995.94 1656 975.18 1666.49 992.83 1672.99C995.26 1673.89 997.62 1674.69 1000 1675.71C994.22 1688 977.48 1695.67 965.71 1701.47C959.27 1704.64 951.67 1706.36 950.21 1697.14C949.33 1691.56 949.44 1682.2 953.86 1678.01C956.66 1675.37 961.71 1676.5 963.37 1672.51C966.67 1664.6 961.26 1652.43 962.21 1644.21C963 1637.36 967.68 1635.8 964.29 1628.57M985.71 1628.57L982.86 1625.71L990 1622.86M971.43 1624.29L967.14 1628.57M965.71 1647.14C968.83 1638.69 974.65 1632.4 982.86 1628.57M967.14 1632.86L971.43 1637.14M3642.89 1636.83C3649.79 1634.47 3656.71 1640.1 3661.43 1644.41C3672.91 1654.93 3683.21 1667.34 3692.24 1680C3694.43 1683.06 3704.36 1696.5 3696.69 1698.84C3691.86 1700.31 3684.29 1695.29 3680 1693.46C3664.5 1686.84 3648.2 1679.19 3638.96 1664.29C3633.87 1656.09 3630.87 1640.94 3642.89 1636.83M962.86 1640L967.14 1644.29M961.43 1642.86L965.71 1647.14M960 1647.14C939.68 1671.87 930.36 1708.74 927.39 1740C926.05 1754.01 927.17 1767.57 923.6 1781.43C920.42 1793.79 891.45 1808.47 903.31 1821.03C917.51 1836.07 935.01 1813.66 945.77 1807.27C951.37 1803.94 960.44 1803.16 964.83 1808.97C975.26 1822.76 946.97 1825.34 942.49 1830.61C937.96 1835.96 939.08 1850.7 940.56 1857.14C945.12 1876.96 968.91 1872.99 979.38 1885.87C988.36 1896.9 977.66 1912.17 982.49 1924.26C987.86 1937.71 996.05 1926.83 994.29 1917.14L995.71 1915.71C1012.34 1920.07 1014.79 1939.87 1018.39 1954.29C1028.13 1993.24 1034.96 2034.21 1037.19 2074.29C1039.74 2119.96 1048.87 2165.31 1049.98 2211.43C1050.69 2240.73 1037.44 2265.69 1037.09 2294.29C1036.75 2321.53 1042.76 2350.01 1045.47 2377.14C1051.58 2438.23 1061.35 2498.97 1076.25 2558.57C1114.15 2710.16 1169.18 2857.71 1222.78 3004.29C1288.08 3182.83 1354.9 3360.33 1471.26 3512.86C1559.8 3628.91 1663.37 3733.4 1770 3832.73C1794.5 3855.56 1819.53 3878.23 1845.71 3899.14C1865.51 3914.96 1887.46 3928.69 1903.61 3948.57C1932.79 3984.47 1943.49 4042.17 1956.64 4085.71C1960.46 4098.31 1945.73 4112.86 1954.29 4122.86C1981.74 4099.54 1968.93 4148.63 1964.76 4161.43C1947.44 4214.57 1930.1 4267.34 1915.89 4321.43C1882.59 4448.03 1858.64 4576.63 1837.26 4705.71C1830.63 4745.7 1823.96 4785.67 1817.74 4825.71C1815.69 4839 1817.41 4862.69 1810.01 4873.97C1802.53 4885.39 1777.43 4880.84 1765.71 4883.94C1739.77 4890.8 1721.06 4907.24 1700 4922.86C1696.67 4902.2 1711.34 4873.63 1715.04 4852.89C1716.79 4843.06 1702.37 4839.97 1704.04 4830C1707.31 4810.33 1721.59 4794.54 1729.1 4777.13C1740.97 4749.59 1748.2 4718.66 1757.1 4690C1797.81 4558.99 1839.77 4428.2 1884.77 4298.57C1896.9 4263.66 1909.23 4228.76 1922.59 4194.29C1931.79 4170.51 1943.3 4146.39 1948.57 4121.43M3034.29 1661.43L3034.29 1665.71M3041.43 1662.86C3092.66 1714.51 3123.47 1786.47 3153.3 1851.43C3162.13 1870.66 3180.67 1890.01 3185.81 1910C3187.5 1916.54 3183.6 1922.3 3184.97 1928.56C3187.04 1938.1 3194.84 1945.01 3196.51 1955.71C3198.76 1970.07 3194.84 1985.36 3195.84 2000C3197.61 2025.99 3205.76 2052.26 3216.83 2075.71C3234.97 2114.13 3247.09 2153.76 3254.17 2195.71C3255.81 2205.5 3256.03 2234.23 3267.29 2238.2C3275.89 2241.24 3286.73 2222.99 3292.86 2218.57L3294.29 2218.57L3295.71 2220L3294.29 2224.29L3292.86 2225.71L3288.57 2221.43M854.29 1800C846.61 1787.53 845.13 1770 842.74 1755.71C842.03 1751.44 839.04 1743.21 841.6 1739.26C844.64 1734.54 859.1 1732.07 864.29 1728.5C876.86 1719.81 884.24 1708.33 892.1 1695.71C896.46 1688.7 920.25 1663.1 928.47 1678.79C933.22 1687.86 915.93 1706.11 910.89 1712.86C893.35 1736.34 855.66 1769.9 855.91 1801.43C855.98 1810.23 861.99 1820.26 864.76 1828.57C870.9 1847 876.65 1865.5 881.59 1884.29C903.45 1967.4 923.56 2065.84 975.71 2135.71M3195.71 1718.57C3184.6 1713.69 3176.43 1704.19 3172.1 1692.86C3170.86 1689.6 3168.03 1681.16 3172.29 1678.83C3176.44 1676.54 3181.23 1683.09 3183.33 1685.71C3190.29 1694.4 3199.69 1707.1 3195.71 1718.57M832.86 1704.29L832.86 1708.57M827.14 1707.14L828.57 1708.57M834.29 1708.57L831.43 1714.29L830 1712.86L830 1711.43M835.71 1711.43C842.08 1718.57 844.21 1724.8 844.29 1734.29M837.14 1712.86L831.43 1715.71M832.86 1717.14L841.43 1737.14M2160 1772.86C2163.17 1756.79 2175.3 1738.29 2185.71 1725.71L2187.14 1725.71C2189.07 1729.73 2189.27 1748.56 2195.63 1746.66C2202.06 1744.73 2209.41 1736.31 2215.71 1732.9C2228.34 1726.04 2243.06 1721.73 2257.14 1719.17C2278.09 1715.39 2297.56 1723.47 2318.57 1725.47C2347.34 1728.21 2376.84 1724.5 2405.71 1725.77C2412.81 1726.09 2423.29 1726.09 2429.7 1729.3C2434.24 1731.59 2436.49 1736.3 2441.46 1738.2C2455.47 1743.53 2485.4 1744.17 2498.57 1737.14C2492.09 1730.1 2476.66 1724.59 2467.14 1724.29M2024.29 1874.29C2018.79 1873.89 1993.11 1874.1 1994.37 1865.56C1995.97 1854.74 2011.9 1850.39 2008.11 1837.14C2004.77 1825.47 1988.23 1821.71 1978.57 1817.14L1978.57 1815.71L1978.57 1814.29C1994.61 1809.54 2014.61 1816.81 2029.91 1808.14C2036.04 1804.66 2032.87 1797.97 2037.61 1794.09C2042.1 1790.41 2052.87 1793.77 2055.36 1788.11C2058.59 1780.79 2038.64 1768.41 2045.23 1762.96C2049.36 1759.53 2059.66 1764.39 2064.29 1765C2077.49 1766.73 2090.61 1759.17 2095.71 1747.14C2090.74 1746.1 2079.03 1751.66 2075.77 1747.66C2070.86 1741.6 2080.3 1722.2 2088.57 1724.3C2103.49 1728.06 2120.74 1753.6 2131.43 1764.29L2132.86 1764.29L2134.29 1762.86L2155.71 1730L2157.14 1730L2161.43 1761.43M2477.14 1725.71C2492.06 1717.76 2516.31 1723.66 2530 1732.1C2536.44 1736.07 2542.26 1744.04 2550 1745.43C2558.61 1746.97 2565.63 1736.43 2575.71 1737.39C2604.31 1740.1 2634.93 1754.63 2661.43 1765.14C2672.71 1769.63 2687.86 1773.91 2696.9 1782.3C2703.23 1788.16 2695.07 1794.43 2698.81 1801.11C2702.41 1807.53 2713.06 1810.59 2718.3 1815.96C2724.43 1822.21 2722.71 1829 2726.81 1835.41C2731.41 1842.59 2743.57 1845.63 2751.43 1845.71M971.43 1725.24C975.83 1724.81 980.14 1726.79 984.29 1727.96C989.11 1729.33 998.29 1729.64 1001.67 1733.7C1008.22 1741.54 995.6 1760.26 991.87 1767.14C988.55 1773.27 982.86 1789.09 974.32 1789.09C964.53 1789.09 962.79 1775.07 950.03 1776.89C947.82 1777.2 944.96 1777.93 943.98 1775.2C942.43 1770.86 946.44 1763.94 948 1760C952.49 1748.69 956.48 1726.69 971.43 1725.24M2698.57 1804.29C2686.73 1811.57 2659.49 1820.23 2645.71 1815.69C2623.99 1808.5 2596.54 1784.2 2571.51 1789.16C2563.9 1790.66 2566.23 1801.9 2562.24 1807.09C2555.93 1815.27 2543.9 1819.81 2534.29 1822.66C2519.31 1827.07 2502.83 1830.63 2487.14 1829.94C2474.6 1829.4 2462.69 1825.99 2450 1827.56C2438.8 1828.93 2429.59 1835.07 2418.57 1837.03C2376.91 1844.43 2333.67 1848.07 2291.43 1848.57C2268.47 1848.84 2231.4 1857.53 2210.21 1846.21C2197.54 1839.44 2216.59 1820.26 2221.29 1814.29C2223.84 1811.01 2228.53 1804.91 2222.61 1802.3C2203.27 1793.74 2198.04 1824.13 2185.66 1829.19C2175.53 1833.33 2170.17 1817.53 2174.74 1810.46C2177.6 1806.03 2185.5 1806.43 2190 1804.43C2199.91 1800.01 2211.04 1792.86 2215.71 1782.86L2207.14 1780C2212.49 1768.56 2240.33 1746.94 2254.29 1751.2C2262.89 1753.81 2265.36 1767.63 2275.71 1765.26C2291.41 1761.64 2301.5 1742.9 2317.14 1737.27C2338.11 1729.73 2362.84 1736.19 2384.29 1738.33C2398.1 1739.71 2413.86 1738.93 2427.14 1742.86L2411.43 1760C2426.94 1764.59 2449.87 1754.26 2458.57 1741.43M2498.57 1737.14L2501.43 1737.14M2454.29 1741.43L2454.29 1744.29M2458.57 1747.14C2504.49 1772.33 2560.24 1752.69 2610 1761.07C2615.03 1761.93 2623.27 1763.31 2623.21 1770.03C2623.16 1776.26 2614.54 1782.04 2622.96 1786.69C2629.77 1790.44 2640.91 1789.34 2648.57 1790.63C2664.93 1793.37 2680.79 1799.23 2697.14 1801.43M2128.57 1761.43L2132.86 1758.57M3264.29 1764.29C3282.1 1772.77 3294.2 1809.96 3295.71 1828.57L3294.29 1830L3292.86 1830L3271.63 1785.71L3264.29 1764.29M3268.57 1765.71L3264.29 1770M3245.71 1842.86L3204.29 1787.14C3221.51 1783.83 3236.5 1811.74 3243.67 1824.29C3247.66 1831.24 3251.69 1836.93 3247.14 1844.29L3248.57 1845.71L3250 1847.14L3252.86 1842.86M2708.57 1804.29L2712.86 1804.29M3394.29 2021.43C3397.53 2025.5 3399.21 2033.23 3403.3 2036.14C3408.34 2039.74 3414.89 2034.39 3418.57 2031.16C3426.7 2024.03 3435.71 1993.19 3448.54 1996.93C3460.6 2000.43 3459.17 2017.69 3461.66 2027.14C3466.59 2045.96 3483.87 2086.49 3505.71 2090.46C3520.07 2093.07 3534.79 2067.79 3535.37 2055.71C3535.73 2048.19 3529.99 2039.93 3527.61 2032.86C3521.9 2015.77 3516.14 1998.26 3517.2 1980C3518.09 1964.66 3535.54 1961.71 3538.1 1947.14C3539.74 1937.83 3532.11 1925.91 3537.19 1917.36C3547.83 1899.36 3573.81 1933.5 3584.84 1925.61C3592.16 1920.39 3578.66 1895.31 3584.33 1886.04C3588.14 1879.79 3600.04 1878.56 3605.66 1872.83C3613.63 1864.7 3617.14 1853.7 3625.73 1845.99C3642.93 1830.53 3667.17 1827.09 3688.57 1820.83C3703.14 1816.56 3716.8 1804.63 3730 1815.71M2630 1824.29C2622.89 1829.3 2611.86 1834.13 2602.86 1831.93C2590.17 1828.83 2588.26 1816.74 2601.43 1812.77C2609.03 1810.49 2619.23 1811.01 2625.51 1816.33C2628.21 1818.61 2629.73 1823.37 2633.29 1824.44C2639.93 1826.44 2647.21 1820.86 2654.13 1823.71C2660.94 1826.53 2659.66 1835.91 2665.8 1839.99C2680.53 1849.79 2724.6 1852.5 2740 1844.29M3735.71 1818.57C3748.49 1834.11 3758.53 1853.3 3770.04 1870C3820.6 1943.36 3866.16 2033.9 3859.87 2125.71C3856.57 2173.96 3840.84 2218.66 3826.2 2264.29C3810.69 2312.69 3796.03 2361.61 3785.71 2411.43C3777.49 2451.2 3772.44 2491.44 3759 2530C3740.97 2581.74 3714.11 2626.04 3686.36 2672.86C3678.77 2685.66 3671.43 2699.1 3665.73 2712.86C3661.26 2723.64 3660.69 2733.46 3651.43 2741.43L3654.29 2744.29L3655.71 2745.71L3657.14 2738.57M2600 1832.86C2587.07 1840.89 2565.13 1845.21 2550 1842.53C2540.91 1840.93 2535.77 1834.39 2525.71 1836.19C2514.23 1838.24 2507.56 1851.39 2495.71 1852.17C2485.99 1852.81 2476.07 1839.73 2466.17 1842.71C2459.33 1844.79 2469.37 1856.14 2459.91 1857.99C2453.3 1859.29 2445.23 1855.04 2438.57 1854.4C2421.06 1852.69 2401.11 1852.4 2384.29 1858.7C2373.99 1862.57 2374.44 1873.53 2364.29 1877.56C2343.29 1885.89 2295.8 1886.13 2284.54 1908.57C2278.81 1920 2291.39 1934.74 2300 1940.8C2322.49 1956.59 2357.73 1958.06 2384.29 1959.87C2415.11 1961.99 2446.44 1961.06 2477.14 1964.7C2502.91 1967.74 2526.24 1975.76 2551.43 1981.13C2584.71 1988.21 2618.77 1992.77 2651.43 2002.46C2693.01 2014.8 2729.73 2035.61 2770 2050.81C2787.03 2057.24 2804.4 2059.26 2821.43 2064.29L2822.86 2065.71C2798.03 2082.63 2749.66 2084.14 2721.43 2075.71L2720 2074.29L2721.43 2072.86C2725.77 2071.57 2738.9 2073.31 2741.17 2069.14C2745.17 2061.81 2721.91 2048.07 2717.14 2044.7C2688.5 2024.5 2657.29 2009.99 2622.86 2002.86C2504.71 1978.39 2379.86 1987.14 2260 1988.57C2232.73 1988.89 2205.76 1990.19 2178.57 1991.37C2153.97 1992.44 2128.81 1992.8 2107.14 2006.19C2085.1 2019.79 2078.41 2043.91 2088.39 2067.14C2090.93 2073.06 2094.91 2082.96 2101.43 2085.46C2110.73 2089.04 2111.27 2066.17 2122.7 2073.74C2137.46 2083.53 2121.31 2110.23 2145.71 2109.97C2173.76 2109.67 2203.33 2101.53 2231.43 2098.81C2304.36 2091.76 2377.2 2087.74 2450 2078.17C2497.84 2071.87 2544.67 2059.14 2592.86 2055.84C2618.96 2054.06 2644.17 2063.76 2670 2064.29L2671.43 2065.71C2662.66 2072.76 2653.26 2069.2 2642.86 2068.63C2620.94 2067.4 2599.14 2066.89 2577.14 2067.14C2508.09 2067.97 2438.53 2092.01 2370 2100.23C2347.07 2102.97 2324.74 2104.14 2302.86 2112.59C2297.43 2114.69 2281.41 2118.57 2284.54 2127.09C2288.89 2138.99 2310.71 2144.11 2321.43 2146.97C2357.83 2156.7 2395.34 2161.79 2432.86 2164.41C2444.06 2165.2 2479.83 2165.49 2477.9 2184.21C2477.49 2188.3 2473.56 2190.17 2470 2190.94C2453.89 2194.39 2447.66 2204.01 2432.86 2210.4C2395.31 2226.6 2350.8 2236.34 2310 2238.63C2295.33 2239.44 2280.19 2242.01 2265.71 2237.87C2257.44 2235.5 2252.44 2228.09 2244.29 2225.63C2232.26 2222.03 2219.34 2222.19 2207.14 2218.3C2178.21 2209.07 2150.26 2194.41 2124.29 2178.86C2110.51 2170.6 2093.46 2161.61 2083.66 2148.57C2065.87 2124.91 2067.2 2090.29 2059.79 2062.86C2054.66 2043.89 2042.9 2027.94 2039.44 2008.57C2036.46 1991.81 2040.41 1967.97 2031.03 1953.07C2026.89 1946.49 2018.54 1950.99 2013.59 1945.37C2006.94 1937.84 2011.14 1924.73 2007.16 1915.74C1999.03 1897.41 1975.13 1914.43 1962.86 1918.57C1957.07 1894.54 2007.31 1885.67 2021.43 1875.71M2515.71 1840L2520 1844.29L2511.43 1844.29M2520 1844.29L2527.14 1845.71C2523.5 1853.36 2503.11 1866.76 2501.43 1851.43M2498.57 1855.71L2500 1855.71M1270 2225.71C1299.89 2201.61 1331.56 2179.81 1364.29 2159.73C1384.21 2147.5 1405.13 2136.7 1424.29 2123.26C1435.06 2115.7 1447.81 2107.1 1452.67 2094.29C1456.34 2084.61 1455.1 2074 1458.7 2064.29C1461.91 2055.66 1477.49 2041.41 1461.43 2036.53C1445.64 2031.73 1427.64 2034.94 1411.43 2034.23C1377.72 2032.76 1343.71 2029.11 1310 2033.27C1296.59 2034.91 1285.76 2041.46 1272.86 2044.44C1249.22 2049.91 1222.79 2052.74 1198.57 2052.86C1177.89 2052.96 1157.86 2054.06 1137.14 2052.91C1131.35 2052.59 1119.26 2053.13 1115.36 2047.9C1112.72 2044.37 1117.26 2042.37 1120.03 2041.7C1133.6 2038.4 1145.39 2033.49 1157.14 2025.71C1170.31 2017 1182.4 2006.11 1197.14 2000.03C1211.58 1994.07 1228 1993.23 1242.86 1988.09C1249.53 1985.77 1268.28 1980.8 1268.28 1971.63C1268.28 1967.36 1254.73 1965.1 1251.43 1961.43C1258.84 1957.9 1267.24 1954.4 1271.79 1947.13C1274.33 1943.06 1272.59 1936.21 1277.41 1933.91C1284.76 1930.41 1297.7 1932.86 1305.71 1932.86C1322.55 1932.86 1339.29 1931.2 1355.71 1927.31C1365.37 1925.01 1376.18 1922.4 1384.21 1916.23C1389.46 1912.2 1391.81 1905.66 1398.58 1903.67C1408.33 1900.83 1419.94 1903.47 1430 1902.73C1440.66 1901.94 1449.53 1895.27 1460 1894.41C1473.8 1893.29 1486.69 1898.57 1500 1898.06C1508 1897.74 1510.13 1889.76 1517.17 1887.76C1531.21 1883.79 1549.47 1889.8 1562.86 1893.89C1570.03 1896.07 1579.16 1899.06 1583.37 1905.77C1585.64 1909.41 1584.23 1913.3 1585.47 1917.14C1587.84 1924.49 1596.3 1929.33 1602.86 1932.4C1611.74 1936.56 1622.93 1940.33 1632.86 1939.86C1637.96 1939.6 1647.47 1934.91 1651.94 1938.61C1654.7 1940.9 1652.87 1945.24 1654.46 1948.14C1657.14 1953.07 1662.83 1953.46 1663.56 1960C1665.51 1977.77 1644.67 2004.99 1668.57 2012.86C1666 2017.71 1660.84 2021.37 1660.27 2027.14C1658.69 2043.31 1679 2063.5 1687.54 2075.71C1704.94 2100.63 1723.29 2128.83 1725.59 2160C1730.06 2220.61 1699.53 2260.47 1658.57 2301.43C1629.54 2330.46 1597.6 2356.63 1560 2373.84C1534.51 2385.51 1506.33 2392.13 1478.57 2395.49C1471.83 2396.31 1454.19 2400.71 1450.23 2392.43C1445.41 2382.31 1473.43 2366 1480 2361.47C1505.69 2343.73 1571.24 2316.36 1552.9 2275.71C1542.81 2253.39 1492.2 2269.53 1472.86 2271.84C1463.87 2272.91 1453.81 2275.8 1447.14 2268.57L1448.57 2267.14C1510.4 2266.97 1572.94 2244.69 1632.86 2231.73C1649.06 2228.23 1665.17 2224.39 1681.43 2221.14C1687.29 2219.97 1697.51 2219.84 1702.16 2215.8C1708.04 2210.69 1703.44 2193.9 1702.99 2187.14C1701.06 2159.04 1698.76 2116.86 1671.43 2100.69C1661.64 2094.9 1650.71 2096.37 1640 2097.11C1614.73 2098.83 1588.81 2105.49 1564.29 2111.61C1485.4 2131.33 1407.09 2157.53 1334.29 2193.93C1314.78 2203.69 1297.61 2217.07 1278.57 2227.33C1271.86 2230.94 1266.32 2228.84 1260 2234.29L1264.29 2238.57C1269.52 2234.8 1272.76 2232 1270 2225.71M3670 1904.94C3696.74 1900.14 3737.33 1909.71 3757.14 1928.63C3772 1942.83 3779.8 1962.87 3787.74 1981.43C3804.07 2019.59 3818.01 2060.89 3818.54 2102.86C3818.74 2118.83 3815.87 2135.84 3812.56 2151.43C3806.71 2178.87 3796.99 2207.04 3783.04 2231.43C3779.01 2238.47 3771.9 2252.3 3762.86 2253.36C3754.94 2254.3 3745.69 2245.04 3740.89 2239.76C3725.13 2222.47 3719.03 2196.33 3713.07 2174.29C3696.24 2112.06 3686.14 2048.43 3665.71 1987.14C3660.66 1971.97 3655.26 1957.41 3645.91 1944.29C3642.33 1939.24 3632.11 1929.59 3632.9 1923C3633.99 1913.91 3662.3 1906.33 3670 1904.94M944.29 1958.57C940.65 1952.63 935.91 1920.71 949.87 1922.74C965.25 1924.99 950.15 1954.2 944.29 1958.57M1497.6 1922.96C1503.06 1919.57 1513.36 1924.51 1518.57 1926.57C1533.91 1932.64 1563.57 1943.77 1568.86 1961.43C1571.66 1970.77 1559.26 1969.91 1556.03 1975.93C1552.64 1982.21 1558.04 1989.27 1552.4 1995.16C1539.26 2008.9 1506.3 2009.51 1488.57 2011.5C1432.41 2017.8 1375.02 2023.1 1318.57 2025.66C1300.99 2026.46 1283.23 2029.79 1265.71 2027.33C1259.06 2026.4 1247.71 2025.13 1249.25 2015.71C1251.71 2000.73 1271.76 1989.04 1281.18 1978.57C1289.05 1969.83 1294.83 1950.33 1304.36 1944.91C1315.97 1938.33 1332.77 1938.47 1345.71 1936.91C1375.82 1933.31 1409.74 1926.67 1440 1928.7C1452.33 1929.53 1465.26 1931.54 1477.14 1934.9C1481.5 1936.13 1489.31 1940.39 1493.77 1938.1C1499.34 1935.24 1491.73 1926.59 1497.6 1922.96M1237.14 1968.57L1251.43 1961.43M1248.57 1967.14L1252.86 1967.14M1038.57 2090C1033.66 2098.51 1034.59 2122.59 1021.42 2123.5C1011.46 2124.2 1004.71 2109.06 1002.18 2101.43C999.6 2093.69 1001.16 2084.37 996.94 2077.23C992.99 2070.54 985.38 2069.37 982.52 2061.43C979.02 2051.69 981.06 2041.2 977.81 2031.43C975.28 2023.84 959.4 2019.61 961.19 2011.63C962.97 2003.69 987.17 2010.41 994.29 2006.54C1004.43 2001.03 1009.84 1985.14 1022.86 1988.57M2320 2033.74C2326.7 2032.56 2330.93 2038.39 2327.49 2044.29C2324.09 2050.1 2316.73 2055.31 2310 2056.3C2293.47 2058.73 2310.6 2035.4 2320 2033.74M3377.14 2062.86L3377.14 2068.57L3375.71 2070L3372.86 2068.57L3371.43 2068.57M2671.43 2065.71L2697.14 2068.97L2714.29 2074.29L2715.71 2072.86L2704.29 2072.86M2680 2067.14C2682.87 2075.81 2696.06 2075.01 2702.86 2071.43M2691.43 2068.57L2691.43 2072.86M3375.71 2070L3375.71 2075.71M2668.57 2071.43L2678.57 2072.86M2717.14 2072.86L2718.57 2074.29M3368.57 2075.71L3368.57 2078.57M3372.86 2082.86C3370.89 2107.63 3361.69 2133.31 3354.89 2157.14C3350.46 2172.64 3346.94 2189.76 3337.14 2202.86M970 2128.57L971.43 2135.71M977.14 2135.71L974.29 2141.43L972.86 2140L972.86 2138.57M980 2140L975.71 2144.29L977.14 2145.71L980 2141.43M974.29 2142.86L975.71 2144.29M982.86 2145.71L978.57 2150L980 2151.43L982.86 2147.14M985.71 2151.43L982.86 2157.14L984.29 2158.57L985.71 2158.57L985.71 2152.86M985.71 2158.57C1000.69 2181.17 1014.9 2206.4 1022.25 2232.86C1027.2 2250.66 1026.97 2273.87 1035.71 2290M3445.71 2200C3441.54 2193.14 3445.41 2185.51 3454.29 2186.1C3461.89 2186.6 3470.64 2192.27 3477.14 2195.93C3508.3 2213.46 3535.1 2235.91 3559.99 2261.43C3576.76 2278.63 3587.19 2301.04 3607.14 2315.29C3619.39 2324.01 3635.04 2321.27 3647.09 2330.97C3689.87 2365.46 3659.71 2435.93 3628.57 2465.66C3618.36 2475.41 3601 2490.74 3585.71 2489.79C3576.5 2489.21 3570.97 2480.61 3567.79 2472.86C3559.16 2451.76 3554.94 2430.76 3541.79 2411.43C3529.17 2392.89 3510.97 2398.76 3495.77 2382.86C3472.23 2358.24 3458.23 2321.81 3447.61 2290C3442.29 2274 3437.2 2258.3 3438.53 2241.43C3439.51 2228.81 3434.11 2211.9 3444.5 2201.64C3454.91 2191.34 3469.51 2207.11 3477.13 2214.19C3496.89 2232.56 3512 2253.37 3507.26 2281.43C3505.51 2291.71 3501.46 2304.54 3490 2307.59C3475.54 2311.41 3461.24 2291.76 3454.94 2281.43C3451.37 2275.56 3449.6 2264.93 3441.43 2267.14M1442.86 2196.53C1455.06 2195.74 1463.6 2217.74 1456.09 2226.69C1446.81 2237.71 1440.73 2214.97 1433.26 2217.64C1428.13 2219.46 1430.26 2230.21 1429.73 2234.29C1428.45 2244.41 1421.44 2250.47 1411.43 2251.3C1401.16 2252.14 1361.39 2245.89 1373.74 2227.29C1377.54 2221.57 1385.43 2218.61 1391.43 2215.91C1406.82 2208.99 1425.74 2197.64 1442.86 2196.53M3335.71 2195.71L3340 2200M3440 2198.57L3440 2202.86M3330 2220L3330 2224.29M1401.43 2222.19C1420.29 2218.13 1414.49 2237.4 1400 2240.67C1379.72 2245.26 1385.54 2225.61 1401.43 2222.19M3324.29 2222.86C3314.39 2235.01 3292.87 2252.49 3292.86 2225.71M1270 2225.71L1270 2228.57M1261.43 2235.71C1256.41 2249.06 1244.66 2258.13 1236.78 2270C1229.21 2281.4 1225.27 2295.29 1222.57 2308.57C1220.83 2317.13 1217.27 2326.19 1221.43 2334.29L1288.7 2282.23L1322.86 2275.31L1412.86 2271.43C1416.09 2281.07 1439.93 2274.36 1448.57 2274.29M1220 2334.29C1216.29 2338.9 1192.24 2355.86 1190.76 2341.34C1189.82 2332.11 1202.68 2323.51 1206.44 2315.71C1218.57 2290.56 1226.71 2247.57 1258.57 2238.57M1262.86 2237.14L1260 2240M3440 2244.29L3440 2252.86M3444.29 2254.29L3440 2261.43M3445.71 2260L3445.71 2264.29M1431.43 2274.29C1433.79 2267.17 1440.69 2268.57 1447.14 2268.57M1414.29 2270L1431.43 2270M1284.29 2288.57L1411.43 2277.14M1288.57 2284.29L1288.57 2285.71M2210 2461.43C2244.29 2464.11 2281.11 2468 2314.29 2477.37C2325.64 2480.57 2335.76 2487 2347.14 2490.4C2362.89 2495.09 2380.87 2496.11 2395.71 2503.33C2405.46 2508.07 2404.46 2519.19 2414.29 2524.29C2424.39 2529.53 2437.5 2523.37 2445.66 2528.14C2456.23 2534.33 2456.54 2549.87 2467.16 2556.99C2479.33 2565.13 2495.67 2564.3 2508.57 2572.66C2552.23 2600.99 2593.87 2639.8 2631.43 2675.66C2659.41 2702.39 2693.83 2727.94 2716 2760C2728.57 2778.2 2733.97 2804.4 2744.73 2824.29C2752.74 2839.11 2767.09 2853.96 2771.79 2870C2784.89 2914.76 2777.14 2969.53 2777.14 3015.71C2777.14 3033.76 2784.51 3055.63 2782.33 3072.86C2780.39 3088.1 2761.49 3095.79 2760.89 3111.4C2760.51 3120.91 2770.51 3114.76 2775.57 3117.24C2780.14 3119.5 2782.53 3125.43 2783.97 3130C2786.96 3139.54 2787.33 3150.63 2783.6 3160C2781.11 3166.24 2775.89 3171.53 2775.87 3178.57C2775.84 3199.36 2794.71 3221.2 2783.63 3242.86C2768.8 3271.81 2758.53 3226.96 2748.44 3225.6C2739.99 3224.46 2734.81 3241.79 2727.09 3244.63C2720.97 3246.89 2714.8 3242.73 2710 3239.37C2697.56 3230.66 2680.8 3218.24 2674.29 3204.29C2685.27 3202.16 2694.94 3212.21 2702.86 3218.69C2706.29 3221.49 2711.86 3227.29 2716.84 3225.36C2739.49 3216.54 2710.93 3185.64 2708.06 3175.71C2705.67 3167.49 2709.74 3157.26 2703.67 3150.21C2692.9 3137.73 2691.57 3158.09 2682.83 3156.67C2674.59 3155.34 2668.93 3144.29 2673.71 3137.27C2677.79 3131.34 2685.6 3129.36 2691.43 3125.71L2690 3124.29C2680.89 3121.57 2671.54 3121.77 2662.86 3117.16C2656.2 3113.63 2651.87 3106.6 2644.29 3104.84C2632.13 3102.04 2618.91 3108.39 2607.16 3105.1C2592.64 3101.03 2587.9 3087.29 2570 3088.7C2547.09 3090.51 2528.17 3110.8 2510 3122.74C2487.67 3137.41 2465.27 3143.01 2441.43 3153.34C2435.16 3156.06 2431.43 3162.44 2425.53 3164.86C2411.94 3170.41 2392.56 3161.03 2377.14 3165.36C2351.87 3172.44 2324.6 3176.77 2300 3185.79C2284.47 3191.49 2271.43 3202.1 2255.71 3207.1C2243.57 3210.96 2230.31 3209.47 2218.57 3213.73C2211.51 3216.3 2208.51 3223.47 2201.43 3226.06C2186.67 3231.41 2170.86 3228.63 2155.71 3231.07C2138.37 3233.89 2127.36 3243.96 2111.43 3248.94C2087.81 3256.34 2063.06 3254.7 2044.84 3275.96C2041.01 3280.43 2039.96 3286.37 2037.14 3291.43C2016.09 3268.44 1967.87 3269.03 1938.57 3267.01C1903.79 3264.61 1868.93 3261.07 1834.29 3256.91C1818.73 3255.06 1802.76 3250.4 1787.14 3250.01C1768.66 3249.57 1751.11 3255.67 1732.86 3257.01C1721.54 3257.84 1709.49 3258.21 1698.57 3254.64C1689.83 3251.77 1681 3244.76 1671.43 3248.59C1659.41 3253.4 1652.41 3269.17 1644.29 3278.57L1642.86 3278.57C1639.06 3271.46 1642.2 3259.07 1634.1 3254.76C1625.86 3250.39 1613.06 3256.81 1604.29 3257.09C1593.21 3257.41 1592.8 3251.14 1585.4 3245.29C1574.4 3236.61 1564.33 3244.01 1565.71 3225.71C1540.53 3232.79 1541.57 3267.67 1534.29 3287.14L1532.86 3288.57L1531.43 3287.14C1526.29 3269.89 1525.51 3242.81 1531.57 3225.71C1534.73 3216.84 1542.41 3212.26 1546.49 3204.27C1550.49 3196.44 1547.61 3186.56 1545.49 3178.57C1542.84 3168.63 1524.16 3136.5 1540.03 3132.04C1554.37 3128.01 1558.97 3140.3 1567.2 3148.44C1580.47 3161.57 1597.53 3172.97 1614.29 3181.06C1646.5 3196.61 1680.64 3182.89 1714.29 3182.86L1714.29 3187.14L1721.43 3185.71L1722.86 3184.29L1721.43 3182.86L1718.57 3181.43L1715.71 3181.43M2211.43 2462.86C2217.5 2477.19 2231.71 2489.33 2241.43 2501.43C2256.46 2520.14 2268.73 2540.43 2277.41 2562.86C2284.33 2580.71 2288.56 2600.89 2289.87 2620C2290.87 2634.61 2287.79 2652.2 2294.29 2665.71L2295.71 2665.71C2302.54 2658.11 2307.76 2644.91 2318.57 2642.3C2333.13 2638.79 2351.07 2655.39 2361.43 2663.46C2393.56 2688.51 2420.6 2719.84 2457.14 2738.21C2467.89 2743.63 2472.96 2754.76 2481.49 2762.6C2483.83 2764.77 2488.67 2769.54 2492.24 2767.27C2497.89 2763.7 2484.53 2748.64 2482.86 2744.29C2494.43 2741.11 2507.37 2749.67 2517.14 2755.31C2520.51 2757.26 2526.23 2759.77 2526.23 2764.41C2526.23 2777.33 2502.71 2781.77 2499.33 2794.29C2495.47 2808.53 2516.49 2810.5 2518.19 2822.86C2520.34 2838.53 2503.27 2851.66 2507.14 2867.14C2513.44 2865 2520.33 2862.51 2525.23 2857.81C2529.6 2853.61 2530.59 2846.3 2537.17 2844.76C2550.07 2841.74 2558.49 2855.3 2568.57 2860C2570.19 2854.71 2570.06 2847.61 2574.84 2843.94C2586.87 2834.7 2609.3 2860.86 2613.66 2870C2617 2877.03 2614.9 2884.73 2619.5 2891.43C2623.61 2897.41 2629.31 2902.4 2635.71 2905.71C2639.9 2891.53 2631.67 2875.63 2637.9 2861.43C2653.06 2826.89 2689.29 2867.11 2700 2882.86C2704.8 2874.99 2699.14 2868.51 2694.74 2861.43C2684.41 2844.86 2672.34 2826.97 2655.71 2816.07C2650.33 2812.53 2642.31 2812.99 2637.61 2808.94C2633.9 2805.74 2635.84 2801.24 2634.53 2797.14C2632.91 2792.13 2628.21 2788.01 2624.29 2784.76C2614.3 2776.49 2601.91 2770.91 2591.43 2763.2C2536.31 2722.67 2477.17 2688.24 2421.43 2648.57C2408.79 2639.57 2397.06 2629.27 2384.29 2620.5C2378.26 2616.36 2368.54 2613.53 2363.79 2608.14C2359.7 2603.5 2358.66 2594.33 2361.06 2588.66C2365.76 2577.57 2382.33 2590.33 2388.57 2593.89C2414.39 2608.57 2438.81 2625.59 2464.29 2640.86C2483.26 2652.23 2503.83 2660.24 2522.86 2671.44C2567.23 2697.57 2609.44 2730.64 2647.14 2765.59C2680.53 2796.53 2713.09 2831.47 2730.57 2874.29C2748.7 2918.69 2749.33 2961.7 2747.2 3008.57C2746.47 3024.63 2748.13 3050.16 2739.47 3064.21C2728.03 3082.8 2696.44 3047.17 2694.9 3034.29C2692.83 3016.9 2712.69 2995.24 2719.56 2980C2730.81 2955.01 2724.71 2919.09 2711.43 2895.71L2707.14 2898.57L2705.71 2897.14L2705.71 2895.71L2710 2891.43L2704.29 2892.86M1550 2807.14L1555.71 2810L1555.71 2808.57L1551.43 2802.86L1550 2804.29C1547.2 2819.97 1535.41 2835.81 1526.31 2848.57C1509.69 2871.87 1491.67 2894.6 1478.26 2920C1445.57 2981.9 1441.43 3039.94 1441.43 3108.57L1442.86 3110C1454.74 3093.94 1458.81 3063.8 1462.86 3044.29C1471.74 3048.59 1466.31 3059.54 1464.47 3067.14C1459.4 3088.04 1456.09 3109.47 1449.51 3130C1447.27 3136.96 1443.2 3153.26 1432.86 3148.67C1420.5 3143.2 1413.25 3128.09 1410.34 3115.71C1403.27 3085.71 1405.57 3052.09 1405.72 3021.43C1405.9 2984.06 1408.23 2945.19 1416.32 2908.57C1420.83 2888.16 1428.77 2868.87 1433.76 2848.57C1436.97 2835.41 1433.07 2822.73 1436.06 2810C1443.67 2777.36 1460.84 2744.97 1476.7 2715.71C1487.5 2695.79 1502.21 2680.16 1514.1 2661.43C1518.1 2655.1 1517.7 2642.53 1523.31 2638.03C1527.87 2634.37 1533.41 2639.33 1537.87 2636.13C1542.94 2632.49 1545.9 2626.27 1551.43 2622.5C1575.19 2606.24 1606.07 2593.56 1634.29 2587.79C1643.73 2585.86 1668.3 2580.91 1674.19 2591.74C1678.27 2599.26 1668.51 2611.47 1664.4 2617.14C1653.27 2632.46 1623.66 2671.99 1601.43 2664.29M1744.56 2647.27C1757.76 2641.01 1761.03 2670.91 1747.11 2676.17C1731.39 2682.1 1734.31 2652.11 1744.56 2647.27M1605.71 2667.14C1635.57 2771.8 1549.29 2874.2 1500 2958.57C1492.79 2947.76 1505.99 2927.83 1511.06 2917.14C1526.49 2884.71 1548.99 2847.29 1554.29 2811.43M2100 2708.57C2134.5 2688.67 2174.19 2716 2205.71 2728.29C2211.73 2730.61 2237.59 2731.81 2238.81 2737.36C2242.3 2753.09 2207.36 2754.14 2202.49 2765.84C2198.89 2774.5 2205.41 2787.84 2197.64 2794.94C2190.4 2801.56 2185.56 2789.99 2185.79 2784.29C2186.36 2769.47 2204.4 2752.63 2178.57 2751.49C2143.06 2749.91 2113.57 2766.07 2080 2773.34C2065.36 2776.51 2049.63 2771.09 2035.71 2774.9C2023.14 2778.36 2020.33 2795.29 2007.14 2799.84C2002.24 2801.54 1993.83 2802.14 1991.93 2795.69C1991.19 2793.19 2014.7 2775.71 2018.63 2773.01C2048.37 2752.56 2095.64 2755.8 2130 2750.11C2138.79 2748.66 2173.36 2744.67 2162.07 2728.7C2153.46 2716.53 2133.51 2714.21 2120 2712.46C2080.61 2707.34 2054.27 2725.49 2025.71 2751.19C2014.17 2761.57 1999.17 2773.26 1994.29 2788.57M3651.43 2742.86L3618.57 2778.57C3626.46 2785.24 3636.13 2786.87 3645.71 2782.86L3647.14 2784.29L3642.99 2840L3651.43 2908.57L3652.86 2910C3659.01 2904.29 3658.26 2898.36 3654.29 2891.43M3655.71 2745.71L3647.14 2782.86M2497.14 2768.57L2492.86 2771.43M3617.14 2781.43L3621.43 2784.29M1721.43 2783.96C1739.44 2779.76 1758.01 2784.97 1772.86 2795.31C1783.57 2802.79 1799.29 2813.13 1778.57 2819.37C1768.97 2822.27 1761.71 2819.04 1752.86 2820.26C1736.94 2822.44 1715.84 2830.94 1700.06 2823.36C1678.47 2812.97 1709.17 2786.81 1721.43 2783.96M3617.14 2782.86C3604.7 2796.66 3597.9 2839.1 3611.99 2853.96C3617.84 2860.13 3628.71 2854.1 3632.8 2859.44C3636.31 2864.03 3631.24 2874.13 3632.86 2880L3647.14 2880M1720 2784.29L1724.29 2788.57L1725.71 2784.29M1731.43 2822.86C1717.57 2814.03 1704.99 2803.81 1722.86 2790M3650 2894.29C3625.61 2888.13 3628.66 2932.81 3624.44 2948.57C3623.07 2953.71 3619.89 2966.84 3612.89 2966.84C3602.21 2966.84 3608.56 2937.51 3608.11 2931.43C3606.16 2905.36 3591.39 2884.94 3587.03 2860C3585.83 2853.11 3591.6 2836.61 3584.07 2833.14C3570.97 2827.13 3558.06 2850.49 3552.86 2858.57C3547.6 2848.7 3552.86 2842.91 3560 2835.71C3574.51 2821.1 3591.76 2799.46 3610 2790M1551.43 2802.86L1551.43 2797.14L1552.86 2795.71L1555.71 2805.71M2104.29 2830C2113.93 2824.94 2133.3 2834.53 2130.61 2847.14C2128.89 2855.21 2119.16 2860.89 2114.29 2867.14L2115.71 2868.57C2122.21 2868.06 2132.57 2864.5 2137.51 2870.46C2141.69 2875.49 2140.53 2883.03 2145.09 2888.27C2151.3 2895.43 2158.94 2897.73 2163.03 2907.14C2165.74 2913.4 2172.2 2934.36 2162.64 2937.83C2156.63 2940.01 2150.71 2933.3 2148.53 2928.56C2146.1 2923.27 2147.63 2913.44 2143.43 2909.49C2140.3 2906.54 2135.39 2908.54 2132.29 2905.2C2129.77 2902.5 2130.07 2896.87 2125.5 2896.5C2109.07 2895.13 2109.21 2919.77 2098.49 2923.8C2068.54 2935.01 2030.7 2913.46 2004.29 2937.14L2002.86 2937.14L2001.43 2935.71C2001.49 2928.53 2005.64 2914.61 1996.94 2910.86C1990.76 2908.2 1983.44 2911.36 1977.2 2908.11C1967.21 2902.93 1973.01 2885.61 1960 2884.63C1952.77 2884.09 1944.11 2888.43 1937.14 2890.19C1921.54 2894.1 1905.23 2896.6 1890 2901.73C1876.81 2906.16 1863.34 2912.71 1850.21 2902.87C1836.8 2892.8 1874.37 2877.74 1881.43 2875.29C1895.43 2870.4 1913.77 2871.69 1925.71 2862.86C1910.27 2851.86 1889.43 2846.6 1881.76 2827.14C1871.56 2801.3 1914.83 2797.77 1929.97 2804.3C1951.37 2813.5 1928.37 2849.97 1960 2851.37C1996.83 2853 2023.94 2819.2 2051.43 2801C2060.53 2794.99 2085.57 2796.13 2093.97 2803.47C2101.64 2810.2 2098.91 2821.86 2104.29 2830M1784.29 2804.29L1765.71 2820M1757.14 2820L1764.29 2817.14M1750 2821.43L1758.57 2821.43M3552.86 2858.57C3552.86 2878.76 3554.61 2898.66 3558.01 2918.57C3559.17 2925.41 3555.01 2934.53 3562.86 2937.14L3560 2928.57M2705.71 2882.86L2700 2884.29M2707.14 2885.71L2701.43 2887.14M2708.57 2887.14L2708.57 2890M2702.86 2890L2704.29 2891.43M1722.86 3184.29C1750.86 3179.09 1781.7 3182.4 1807.11 3167.31C1819.09 3160.21 1809.77 3150.89 1816.6 3143.71C1820.21 3139.93 1829.44 3139.77 1834.29 3137.44C1848.47 3130.64 1858.76 3121.37 1874.29 3116.74C1920.09 3103.1 1969.21 3106.59 2015.71 3095.87C2023.44 3094.1 2035.17 3092.36 2040.97 3086.54C2045.33 3082.19 2043.73 3075.23 2050.09 3072.49C2061.1 3067.73 2075.46 3070.14 2087.14 3067.29C2100.67 3063.99 2112.14 3055.34 2125.71 3052.39C2175.46 3041.53 2228.13 3049.3 2278.57 3047.09C2306.83 3045.84 2333.66 3037.11 2361.43 3035.77C2404.5 3033.67 2448.67 3034.7 2491.43 3028.76C2517.26 3025.17 2545.34 3017.94 2564.13 2998.44C2569.94 2992.41 2569.43 2985.1 2573.71 2978.59C2577.67 2972.6 2583.99 2969.49 2587.14 2962.86C2569.3 2955.53 2577.39 2939.71 2572.54 2924.29C2570.59 2918.07 2563.9 2911.06 2565.06 2904.31C2566.21 2897.56 2573.87 2894.39 2580 2894.41C2599.06 2894.47 2590.21 2908.59 2595.81 2918.13C2597.97 2921.79 2603.14 2921.69 2604.8 2925.93C2606.63 2930.64 2603.91 2935.21 2608.8 2938.77C2627.31 2952.21 2639.33 2923.99 2657.14 2930.14C2666.76 2933.47 2680.77 2939.86 2684.66 2950C2687.73 2958.03 2680.64 2970.17 2690.3 2975.43C2699.53 2980.44 2704.23 2966.27 2706.11 2960C2712.24 2939.56 2709.77 2919.26 2707.14 2898.57M3652.86 2910C3652.86 2955.26 3655.71 3000.39 3655.71 3045.71C3655.71 3059.31 3660.77 3084.57 3650 3094.29L3648.57 3092.86C3643.01 3057.21 3606.43 3083.04 3593.36 3061.43C3586.26 3049.69 3584.93 3034.64 3582.29 3021.43C3577.23 2996.2 3573.37 2968.36 3564.29 2944.29L3560 2947.14L3558.57 2937.14M2234.29 2917.14C2253.93 2913.34 2264.79 2945 2251.93 2957.93C2245.66 2964.24 2234.5 2954.63 2235.07 2947.3C2235.51 2941.46 2243.1 2942.83 2244.7 2938.13C2246.91 2931.57 2236.79 2922.77 2234.29 2917.14M3564.29 2938.57L3564.29 2944.29M3560 2947.14C3560.16 2965.89 3565.77 2984.57 3569.43 3002.86C3573.63 3023.83 3576.13 3046.87 3586.97 3065.71C3597.44 3083.9 3616.06 3094.33 3625.27 3114.29C3632.46 3129.86 3636.77 3146.4 3650.01 3158.3C3656.41 3164.06 3663.47 3169.2 3671.43 3164.29C3657.34 3144.46 3653.36 3117.84 3650 3094.29M1494.29 2958.57L1500 2960M1492.86 2960L1497.14 2965.71C1483.83 2983.74 1476.89 3004.54 1475.71 3025.71L1471.43 3017.14M1498.57 2962.86L1497.14 2964.29M1491.43 2965.71L1495.71 2968.57M1490 2967.14L1490 2971.43M1945.97 2974.54C1952.97 2971.37 1953.57 2984.74 1953.44 2988.57C1952.96 3002.01 1950.39 3024.83 1935.71 3030.37C1931.2 3032.07 1922.33 3031.11 1924.76 3024.26C1928.44 3013.84 1937.19 3007.54 1939.34 2995.71C1940.43 2989.73 1939.13 2977.64 1945.97 2974.54M2602.29 2985.96C2611.76 2980.73 2626.84 3005.04 2625.93 3012.86C2623.63 3032.36 2600.16 3056.29 2584.29 3065.81C2569.03 3074.97 2548.13 3075.03 2531.43 3082.03C2501.29 3094.67 2472.84 3108.77 2441.43 3118.53C2389.07 3134.8 2334.94 3145.41 2282.86 3162.39C2258.23 3170.41 2235.09 3179.14 2212.86 3192.57C2208.59 3195.14 2196.01 3204.23 2192.29 3196.69C2187.21 3186.41 2197.01 3172.5 2205.71 3168.13C2212.87 3164.53 2222.21 3165.21 2230 3163.64C2247.46 3160.13 2267.06 3154.31 2279.94 3141.37C2292.36 3128.87 2283.27 3112.24 2298.57 3101.13C2319.63 3085.83 2350.8 3082.13 2375.71 3077.14C2429.2 3066.44 2486.11 3061.36 2537.14 3041.14C2559.47 3032.29 2564.61 3015.86 2581.46 3001.76C2586.16 2997.81 2592.21 2999.51 2596.53 2996.16C2599.71 2993.66 2598.9 2987.83 2602.29 2985.96M1478.57 3011.43L1477.14 3017.14M1471.43 3018.57L1475.71 3022.86M1468.57 3025.71L1472.86 3034.29L1472.86 3035.71L1471.43 3037.14L1467.14 3031.43M1474.29 3027.14L1472.86 3031.43M1465.71 3035.71L1464.29 3042.86M1471.43 3037.14L1470 3045.71M3655.71 3092.86L3652.86 3102.86M2340 3096.47C2346.51 3094.97 2367.34 3093.67 2364.44 3105.66C2362.49 3113.74 2348.41 3117.97 2341.43 3119.66C2316.07 3125.77 2318.09 3101.53 2340 3096.47M2245.71 3108.57C2239.14 3122.31 2225.87 3116.99 2216.2 3125.21C2209.33 3131.07 2210 3140.43 2210 3148.57L2208.57 3150L2207.14 3150L2195.71 3135.71L2190 3140L2188.57 3138.57C2183.43 3129.34 2168.21 3135.54 2160 3138.09C2136.41 3145.37 2092.07 3147.54 2076.44 3168.63C2068.57 3179.26 2069.43 3199.83 2077.7 3209.94C2084.1 3217.74 2092.96 3220.14 2097.14 3230C2059.64 3241.09 2061.57 3195.06 2052 3171.43C2047.31 3159.89 2037.93 3149.41 2035.71 3137.14C2043.34 3139.1 2054.56 3150 2062.4 3143.43C2072.16 3135.26 2057.67 3121.09 2075.71 3116.69C2083.71 3114.74 2096.71 3114.09 2104.2 3117.96C2109.19 3120.53 2110.74 3127.66 2117.17 3126.67C2125.27 3125.41 2133.2 3120.87 2141.43 3119.21C2161.67 3115.14 2182.43 3114.04 2202.86 3111.04C2216.86 3108.97 2231.83 3103.91 2245.71 3108.57M2265.71 3109.49C2276.23 3106.53 2281.4 3114.9 2277.69 3124.29C2274.11 3133.34 2265 3140.73 2255.71 3143.37C2247.89 3145.61 2232.1 3141.06 2237.63 3130.13C2241.97 3121.51 2256.6 3112.04 2265.71 3109.49M1442.86 3110L1441.43 3122.86M2190 3134.29L2192.86 3134.29M2034.29 3135.71L2035.71 3137.14M2190 3140C2189 3152.6 2188.76 3169.61 2180.63 3179.94C2173.09 3189.51 2160.41 3189.13 2150 3193.51C2137.44 3198.8 2130.14 3210.26 2118.57 3216.54C2110.56 3220.9 2101.79 3218.89 2094.29 3224.29M2020 3154.29L2021.43 3155.71C2012.31 3166.31 1993.41 3171.43 1980 3171.43C1975.87 3171.43 1965.09 3173.03 1964.17 3167C1963.34 3161.5 1971.87 3159.26 1975.71 3158.23C1989.97 3154.37 2005.36 3154.29 2020 3154.29M3671.43 3164.29C3685.94 3181.17 3708.91 3193.61 3725.71 3208.81C3753.29 3233.77 3779.06 3264.6 3801.43 3294.29C3792.19 3299.21 3783.07 3297.66 3774.3 3304.96C3759.73 3317.07 3750.1 3335.23 3740.83 3351.43C3721.97 3384.39 3707.2 3419.64 3688.77 3452.86C3674.8 3478.03 3656.37 3500.6 3640.04 3524.29C3611.73 3565.36 3584.71 3607.33 3556.66 3648.57C3488.59 3748.6 3410.13 3838.57 3334.86 3932.86C3293.89 3984.17 3259.01 4040.54 3215.49 4090C3144.2 4171.03 3063.74 4243.36 2998.76 4330C2946.44 4399.76 2893.2 4468.81 2840.9 4538.57C2815.49 4572.46 2782.86 4608.5 2782.86 4652.86L2784.29 4654.29L2785.71 4654.29C2795.21 4637.16 2796.64 4621 2811.67 4605.96C2823.89 4593.73 2840.11 4581.16 2857.14 4576.8C2873.13 4572.7 2891.71 4576.94 2907.14 4581.43C2946.4 4592.83 2978.5 4615.94 3010 4641.14C3082.51 4699.16 3152.74 4760 3225.71 4817.44C3264.84 4848.26 3304.53 4882.37 3348.57 4905.71C3344.84 4916.87 3364.71 4925.21 3372.86 4929.99C3391.79 4941.06 3412.81 4951.76 3434.29 4956.8C3447.51 4959.91 3459.94 4954.37 3471.43 4962.86L3487.36 4908.57L3508.57 4841.43L3507.14 4840L3505.71 4840L3502.86 4842.86L3502.86 4844.29L3502.86 4845.71L3502.86 4847.14M1964.29 3170C1934.17 3186.07 1882.69 3156.03 1867.14 3197.14L1865.71 3197.14C1857.29 3186.9 1845.31 3179.79 1831.43 3181.87C1812.61 3184.69 1821.69 3205.03 1831.43 3212.86L1830 3214.29L1828.57 3215.71L1827.14 3217.14L1825.71 3215.71L1825.71 3214.29L1825.71 3211.43M1998.57 3170C2012.16 3177.24 2035.26 3167.53 2046.53 3180.33C2053.19 3187.89 2047.79 3199.13 2042.39 3205.71C2029.19 3221.81 2010.94 3234.77 1991.43 3242.01C1973.61 3248.63 1969.03 3239.54 1952.86 3236.01C1937.31 3232.63 1921.34 3234.9 1905.71 3231.09C1895.23 3228.53 1887.36 3220.49 1877.14 3217.9C1861.54 3213.94 1847.03 3222.5 1832.86 3212.86M3668.57 3170L3672.86 3170M1775.71 3178.57L1801.43 3186.73L1820 3197.14M3691.43 3211.43L3687.14 3214.29C3679.29 3204.64 3653.44 3178.39 3642.86 3198.57C3634.21 3194.34 3639.57 3184.79 3647.17 3182.36C3665.5 3176.53 3685.57 3195.99 3691.43 3211.43M1827.14 3217.14C1826.89 3239.29 1778.11 3234.7 1761.43 3235.84C1729.01 3238.07 1696.84 3240 1664.29 3240C1647.67 3240 1630.19 3241.43 1614.29 3235.59C1600.54 3230.53 1587 3218.04 1579.37 3205.71C1575.5 3199.44 1573.91 3190.64 1581.59 3186.53C1600.89 3176.16 1630.8 3198.31 1651.43 3198.57C1672.84 3198.81 1691.91 3191.27 1712.86 3188.57M3635.71 3198.57L3632.73 3388.57L3622.86 3474.29L3624.29 3475.71L3625.71 3475.71C3650.57 3448.66 3666.71 3411.53 3681.97 3378.57C3694.99 3350.44 3708.57 3324.77 3708.57 3292.86C3708.57 3272.26 3708.71 3244.79 3694.29 3228.57L3698.57 3224.29L3694.29 3227.14M3641.43 3200C3641.43 3246.56 3649.43 3294.1 3657.03 3340C3659.26 3353.41 3661.44 3382.84 3680 3380M3688.57 3205.71L3684.29 3210M3692.86 3212.86L3688.57 3217.14L3690 3218.57L3692.86 3214.29M3687.14 3215.71L3688.57 3217.14M2092.86 3218.57L2097.14 3218.57M3695.71 3220L3692.86 3224.29M1567.14 3224.29L1565.71 3225.71M3700 3227.14L3700 3231.43M1532.86 3288.57L1532.86 3292.86M3801.43 3295.71C3828.41 3323.91 3847.29 3361.89 3878.57 3385.71L3874.29 3391.43L3874.29 3392.86L3875.71 3394.29L3878.57 3391.43L3878.57 3387.14M2144.29 3461.43C2144.51 3475.51 2114.63 3460.06 2105.87 3464.74C2098.03 3468.94 2101.23 3478.99 2097.01 3485.56C2094.46 3489.56 2090.33 3491.56 2085.73 3489.81C2075.44 3485.9 2070.43 3471.57 2071.87 3461.43C2072.59 3456.39 2077.2 3449.54 2073.4 3444.9C2060.01 3428.56 2050.01 3459.5 2041.43 3460.6C2028.89 3462.2 2041.56 3432.87 2024.34 3444.9C2022.46 3446.23 2020.9 3448.16 2019.56 3450.01C2017.6 3452.71 2016.09 3455.77 2014.29 3458.57L2012.86 3458.57C2010 3453.07 2008.43 3447.93 2001.43 3447.31C1996.96 3446.93 1984.51 3452.5 1982.44 3446.69C1979.69 3438.93 1993.81 3424.86 1998.63 3420.06C2006.8 3411.91 2017.3 3405.61 2028.57 3402.91C2037.54 3400.77 2048.21 3402.29 2055.39 3395.31C2060.33 3390.53 2060.76 3383.33 2062.86 3377.14L2064.29 3375.71C2067.63 3380.39 2070.91 3388.76 2077.17 3390.04C2088.17 3392.31 2096.06 3369.93 2093.81 3361.64C2092.1 3355.33 2074.56 3358.84 2082.51 3347.44C2087.16 3340.79 2096.04 3341.99 2102.86 3339.64C2119.39 3333.94 2125.43 3321.06 2120 3305.71C2128.71 3303.51 2138.23 3306.53 2147.14 3306.77C2159.74 3307.11 2173.74 3304.76 2185.71 3300.94C2190.11 3299.53 2200.67 3294.26 2203.6 3300.46C2206.37 3306.31 2200 3316.61 2197.04 3321.43C2189.46 3333.79 2178.29 3344.93 2164.29 3349.49C2157.04 3351.84 2149.63 3350.67 2142.86 3354.29L2142.86 3355.71C2177.79 3383.89 2233.26 3343.24 2271.43 3361.31C2274.57 3362.8 2277.4 3364.83 2279.84 3367.29C2300.66 3388.27 2268.84 3390.83 2257.14 3400.47C2235.19 3418.57 2215.09 3433.77 2188.57 3445.1C2175.04 3450.89 2155.87 3451.66 2144.29 3460L2142.86 3458.57L2142.86 3457.14L2142.86 3455.71L2144.29 3454.29L2145.71 3454.29L2147.14 3454.29M2117.14 3305.71L2120 3305.71M3814.29 3315.71C3814.14 3323 3811.84 3330.29 3815.27 3337.14C3822.6 3351.81 3842.11 3354.53 3848.56 3370C3855.4 3386.39 3860.06 3403.61 3867.59 3420C3893.46 3476.36 3921.91 3527.23 3915.47 3591.43C3909.87 3647.24 3887.44 3701.21 3870.49 3754.29C3847.07 3827.59 3827.9 3902.69 3789.39 3970C3774.33 3996.33 3753.84 4016.23 3735.56 4040C3713.56 4068.57 3694.71 4099.74 3677.59 4131.43C3656.69 4170.07 3649.41 4211.26 3632.84 4251.43C3620.63 4281.03 3605.06 4309.03 3592.87 4338.57C3568.23 4398.31 3547.34 4460.23 3526.67 4521.43C3493.41 4619.84 3450.94 4714.57 3421.03 4814.29C3413.31 4840.01 3404.96 4866.19 3401.24 4892.86C3400.04 4901.5 3403.06 4919.83 3396.3 4926.29C3386.53 4935.6 3357.64 4911.6 3350 4905.71M3880 3390L3920 3414.29L3921.43 3415.71L3920 3417.14L3918.57 3418.57L3915.71 3414.29M3884.29 3391.43L3875.71 3405.71C3879.6 3403.73 3879.73 3402.74 3878.57 3398.57M3875.71 3394.29L3875.71 3397.14M3881.43 3404.29L3918.57 3477.14C3929.71 3460.47 3898.27 3435.73 3915.71 3420M3882.86 3405.71L3877.14 3408.57M3897.14 3407.14L3892.86 3418.57M3878.57 3410C3885.61 3435.73 3899.41 3461.31 3910.2 3485.71C3914.41 3495.26 3917.3 3507.83 3927.14 3512.86L3934.29 3501.43L3932.86 3500L3931.43 3500L3928.57 3502.86L3918.57 3478.57M3922.86 3415.71C3955.54 3435.71 3989.49 3451.11 4020 3474.89C4101.44 3538.34 4170.43 3615.89 4252.86 3678.74C4346.36 3750.04 4452.77 3804.27 4555.71 3860.43C4655.2 3914.71 4771.66 3941.03 4878.57 3976.67C4906.49 3985.97 4934.61 3995.41 4962.86 4003.69C4971.29 4006.14 4991.87 4009 4997.1 4016.44C4999.77 4020.24 4998.57 4027.04 4998.57 4031.43L4998.57 4070L4998.57 4217.14L4998.57 4777.14L4998.57 4947.14L4998.57 4987.14C4998.56 4991.61 4999.44 4997.94 4994.07 4999.54C4973.1 5005.77 4941.93 5000 4920 5000L4752.86 5000L4205.71 5000L2414.29 5000L1790 5000C1754.97 5000 1717.64 5003.71 1682.86 4999.81C1671.61 4998.56 1656.47 4999.07 1645.8 4995.39C1640.4 4993.53 1639.16 4987.23 1632.83 4987.49C1625.8 4987.79 1621.86 4993.36 1615.66 4995.51C1602.87 4999.94 1569.67 5005.89 1557.36 4998.53C1544.67 4990.96 1572.31 4967.37 1577.56 4961.43C1598.77 4937.37 1621.76 4914.24 1644.29 4891.43C1653.37 4882.23 1663.21 4868.53 1675.71 4864.29L1686.8 4884.29L1698.14 4960L1722.86 5000M3924.29 3477.14L3920 3480M3925.71 3478.57L3921.43 3484.29M3927.14 3484.29L3922.86 3487.14M3928.57 3485.71L3924.29 3491.43M3930 3491.43L3925.71 3494.29M3931.43 3492.86L3927.14 3498.57M3932.86 3497.14L3932.86 3500M3928.57 3504.29L3930 3505.71M3935.71 3504.29L3930 3511.43L3931.43 3512.86L3932.86 3514.29L3937.14 3508.57M3932.86 3514.29L3934.29 3518.57L3937.14 3512.86M3934.29 3518.57L3935.71 3524.29L3937.14 3524.29L3940 3521.43L3938.57 3517.14M3935.71 3524.29L3935.71 3528.57L3940 3522.86M3942.86 3528.57C3954.47 3584.89 3943 3636.57 3927.74 3691.43C3907.81 3763.16 3881.6 3832.2 3858.57 3902.86C3849.61 3898.41 3857.04 3887.1 3859.51 3880C3867.11 3858.09 3875.04 3836.29 3882.39 3814.29C3904.56 3747.77 3931.46 3677.4 3938.14 3607.14C3939.5 3592.83 3932.29 3580.19 3932.89 3565.71C3933.39 3553.4 3937.69 3542.91 3937.14 3530M3937.14 3555.71C3941.71 3564.29 3941.71 3578.57 3937.14 3587.14M2220 3998.57C2218.17 3988.71 2210.54 3958.66 2218.2 3950.86C2223.16 3945.81 2231.26 3951.79 2236.69 3947.49C2242.14 3943.19 2239.54 3937.03 2247.14 3934.29L2248.57 3932.86C2238.89 3917.21 2264.44 3888.89 2265.59 3871.43C2265.96 3865.69 2260.17 3852.39 2263.04 3848.01C2267.33 3841.49 2278.03 3852.04 2283.41 3848.4C2292.57 3842.2 2272.79 3818.97 2297.14 3821.71C2309.49 3823.11 2303 3832.53 2308.2 3839.7C2313.16 3846.51 2327.6 3850.76 2335.71 3851.11C2348.53 3851.7 2348.47 3840.66 2350.49 3831.46C2351.41 3827.26 2354.06 3823.93 2358.47 3826.66C2372 3835.04 2372.74 3858.09 2378.03 3871.43C2379.91 3876.2 2382.26 3881.6 2387.2 3883.9C2390.03 3885.23 2394.99 3883.89 2396.97 3886.63C2400.01 3890.81 2395.76 3897.71 2398.61 3902.56C2404.24 3912.13 2423.13 3912.9 2432.86 3914.06C2447.31 3915.8 2467.43 3919.19 2481.41 3913.91C2487.59 3911.57 2491.03 3905.56 2497.14 3903.06C2504.99 3899.86 2512.7 3898.96 2520 3894.14C2525.86 3890.27 2545.49 3868.77 2553.36 3874.46C2558.2 3877.96 2550.11 3887.24 2547.91 3890C2540.51 3899.26 2514.86 3916.21 2515.17 3928.54C2515.46 3939.59 2535.36 3939.04 2538.27 3950.01C2542.23 3964.87 2521.87 3970.39 2520.67 3982.86C2519.33 3996.76 2553.99 4006.19 2562.86 4000C2543.83 3974.94 2579.67 3979.99 2590.8 3966.84C2596.23 3960.43 2590.6 3952.94 2593.71 3946.04C2595.64 3941.79 2600.56 3941.54 2604.1 3943.94C2610.66 3948.37 2608.91 3956.59 2612.09 3962.86C2615.9 3970.43 2627.9 3974.17 2628.71 3982.86C2630.44 4001.1 2608.99 4014.79 2613.41 4034.29C2615.23 4042.26 2623.97 4047.66 2624.89 4055.63C2625.81 4063.67 2608.11 4063.34 2617.76 4073.73C2626.71 4083.34 2637.81 4077.63 2648.57 4077.3C2652.11 4077.19 2658.27 4078.1 2658.27 4082.86C2658.27 4096.07 2628.36 4087.03 2623.71 4098.64C2617.17 4115.09 2636.5 4136.54 2621.11 4150.87C2608.17 4162.9 2603.34 4150.44 2592.83 4144.94C2584.47 4140.57 2571.77 4140.43 2562.86 4142.94C2550.99 4146.3 2557.01 4162.5 2545.71 4169.81C2523.06 4184.46 2496.61 4174.51 2472.86 4182.56C2463.53 4185.71 2458.69 4200.96 2448.57 4200.49C2440.47 4200.1 2439.21 4188.43 2434.01 4183.83C2428.09 4178.59 2420.11 4176.96 2414.43 4171.29C2402.26 4159.11 2399.57 4133.11 2404.29 4117.14C2410.24 4120.4 2413.97 4129 2421.41 4129.39C2436.37 4130.19 2424.41 4114.01 2417.14 4111.49C2406.24 4107.7 2394.14 4107.83 2382.86 4109.64C2377.34 4110.54 2368.36 4113.49 2363.71 4108.94C2357.41 4102.76 2364.33 4081.03 2360.54 4071.43C2350.14 4045.07 2322.19 4025.37 2297.14 4014.09C2278.94 4005.9 2258.71 3999.17 2238.57 3999.17C2216.16 3999.17 2193.9 4007.64 2171.43 4005.47C2148.67 4003.27 2121.56 4000.46 2100 3992.73C2091.67 3989.74 2082.14 3978.01 2074.39 3977.03C2068.23 3976.24 2059.5 3985.5 2051.43 3985.7C2033.77 3986.13 2017.59 3978.57 2000 3978.57M2095.71 3957.14L2074.29 3934.29C2095.73 3927.94 2119.6 3942.79 2141.43 3935.23C2158.53 3929.29 2147.01 3908.63 2168.57 3905.94C2179.66 3904.56 2195.59 3901.6 2205.5 3908.59C2208.74 3910.87 2209.07 3916.64 2212.29 3918.2C2214.96 3919.5 2218.06 3916.99 2219.94 3915.39C2235.09 3902.54 2221.36 3897.93 2220.17 3884.29C2219.09 3871.67 2228.2 3855.37 2237.14 3847.14C2247.79 3872.39 2241.7 3918.37 2224.29 3938.57L2227.14 3941.43L2238.57 3937.14M2604.29 3854.29L2602.86 3855.71C2589.96 3856.61 2591.99 3868.19 2581.4 3870.23C2574.47 3871.57 2562.64 3863.69 2565.91 3855.77C2571.59 3842 2596.54 3845.49 2604.29 3854.29M2605.71 3857.14L2608.57 3858.57M2416.04 3864.33C2427.11 3857.79 2441.43 3877.33 2447.11 3884.29C2449.79 3887.56 2454.57 3893.23 2449.53 3896.69C2441.04 3902.5 2420.61 3901.74 2413.79 3893.8C2408.21 3887.3 2407.81 3869.19 2416.04 3864.33M2740 3866.33C2749.1 3865.03 2766.37 3862.99 2773.83 3869.57C2778.87 3874.03 2776.96 3882.84 2780.33 3888.57C2783.91 3894.64 2791.26 3897.99 2794.21 3904.3C2799.23 3915 2781.04 3923.84 2772.86 3924.99C2750.86 3928.07 2753.64 3904.64 2744.59 3892.99C2739.77 3886.79 2708.23 3873.49 2731.43 3867.81C2734.23 3867.13 2737.16 3866.73 2740 3866.33M2348.57 3867.14C2363.96 3874.34 2371.96 3897.31 2375.86 3912.86C2376.91 3917.06 2381.34 3930.17 2375.1 3932.36C2369.13 3934.46 2363.8 3922.44 2361.8 3918.57C2354.01 3903.53 2343.46 3884.47 2348.57 3867.14M3098.57 4127.14C3097.24 4117.93 3114.44 4106.19 3107.66 4097.76C3101.29 4089.86 3084.49 4099.56 3075.71 4097.24C3068.39 4095.3 3064.27 4087.96 3057.14 4086.4C3051.47 4085.16 3039.21 4091.5 3042.67 4080C3049.06 4058.79 3084.81 4061.6 3099.76 4046.89C3112.8 4034.01 3109.96 4012.29 3122.19 4000.61C3129.5 3993.66 3139.54 4002.03 3146.71 3996.29C3150.34 3993.37 3150.99 3988.24 3154.61 3985.21C3162.39 3978.74 3175.41 3977.43 3184.29 3971.39C3206.23 3956.46 3225.41 3938.29 3245.71 3921.31C3261.9 3907.79 3278.57 3893.5 3297.14 3883.3C3301.41 3880.96 3312.77 3873.39 3317.64 3877.24C3322.64 3881.19 3312.71 3892.36 3310.47 3895.71C3299.11 3912.76 3287.03 3929.29 3274.81 3945.71C3226.8 4010.34 3173.79 4093.64 3098.57 4127.14M2718.63 3892.7C2731.73 3889.51 2734.13 3917.74 2721.41 3920.24C2708.13 3922.86 2706.5 3895.64 2718.63 3892.7M2580 3927.14C2585.8 3913.77 2585.1 3902.41 2601.43 3898.43C2605.09 3897.54 2616 3894.91 2617.39 3900.46C2618.66 3905.57 2611.81 3910.26 2608.57 3912.97C2598.71 3921.2 2586.27 3930.44 2572.86 3928.57M3852.86 3901.43C3849.39 3907.11 3848.36 3910.46 3852.86 3915.71L3857.14 3904.29M2248.57 3932.86C2254.81 3932.99 2262.89 3935.77 2268.36 3931.8C2278.39 3924.51 2273.03 3912.06 2288.57 3907.21C2302.59 3902.86 2320.4 3905.59 2332.86 3912.99C2337.54 3915.77 2347.67 3921.59 2343.34 3928.27C2335.97 3939.66 2309 3938.47 2297.14 3939.76C2290.57 3940.49 2281.84 3941.69 2280.83 3950C2280.33 3954.13 2283.36 3957.2 2287.17 3958.1C2292.21 3959.29 2297.69 3955.23 2302.39 3956.84C2306.61 3958.3 2304.16 3964.9 2306.63 3967.96C2309.63 3971.64 2336.87 3974.29 2327.64 3984.67C2323.81 3989 2315.2 3988.54 2310 3988.57C2294.21 3988.64 2278.64 3987.11 2262.86 3987.14C2254.59 3987.16 2242.93 3986.44 2240 3995.71M3847.14 3914.29L3851.43 3920L3852.86 3918.57L3852.86 3917.14L3852.86 3915.71M3845.71 3920L3851.43 3921.43M3844.29 3921.43L3848.57 3927.14L3850 3925.71L3850 3924.29L3850 3922.86M2161.43 3922.86C2170.81 3930.66 2188.76 3949.41 2173.73 3961.87C2168.07 3966.54 2155.57 3962.17 2155.36 3954.24C2155.23 3949.5 2160.5 3946.43 2162.73 3942.73C2165.6 3937.97 2165.67 3932.51 2165.71 3927.14M2581.43 3922.86L2585.71 3927.14M2575.71 3928.57L2580 3924.29M3842.86 3925.71L3847.14 3931.43L3847.14 3932.86L3845.71 3934.29L3844.29 3932.86L3841.43 3930L3841.43 3930M3848.57 3928.57L3847.14 3930M2242.86 3931.43L2242.86 3934.29M3840 3932.86L3844.29 3938.57L3845.71 3937.14L3845.71 3935.71L3845.71 3934.29M2818.57 4027.14C2792.14 4027.37 2787.89 4054.7 2767.14 4065.17C2747.66 4075.01 2725.24 4067.47 2705.71 4076.46C2696.16 4080.86 2693.27 4090.31 2685.66 4096.81C2683.6 4098.59 2678.31 4102.56 2675.91 4099.07C2673.16 4095.1 2679.27 4088.54 2681.44 4085.71C2692.27 4071.73 2696.43 4060.76 2701.43 4044.29L2715.71 4058.57L2717.14 4058.57C2721.76 4049.91 2721.81 4032.64 2714.79 4024.89C2710.86 4020.56 2705.03 4019.74 2702.09 4014.23C2698.44 4007.4 2699.63 3999.49 2694.79 3992.91C2690.56 3987.17 2673.71 3982.5 2676.06 3974.26C2680.16 3959.83 2701.4 3946.77 2714.29 3941.24C2718.5 3939.44 2727.67 3934.99 2731.93 3938.61C2737.1 3943.01 2726.79 3954.94 2724.23 3958.57C2714.24 3972.77 2696.71 3990.89 2715.97 4006.66C2723.76 4013.03 2728.43 3999.6 2735.71 3997.79C2741.91 3996.23 2748.2 4000.83 2754.2 3998.81C2760.59 3996.66 2761.2 3987.87 2767.17 3984.49C2774.27 3980.46 2782.64 3982.69 2790 3979.79C2795.33 3977.69 2800.23 3967.07 2805.8 3968.59C2812.89 3970.5 2832.43 3989.7 2827.04 3997.99C2823.77 4003.03 2813.71 3998.61 2808.81 4000.86C2798.56 4005.57 2819.2 4019.89 2822.86 4022.86L2818.57 4027.14L2820 4028.57L2824.29 4028.57L2825.71 4027.14L2824.29 4025.71L2822.86 4024.29M3838.57 3937.14L3842.86 3942.86L3842.86 3944.29L3841.43 3945.71L3840 3944.29L3837.14 3941.43L3837.14 3941.43M2221.43 3938.57L2224.29 3938.57M3844.29 3940L3842.86 3941.43M3835.71 3944.29C3842.96 3960.31 3825.03 3979.57 3819.14 3994.29C3800.1 4041.84 3778.19 4088.16 3759.14 4135.71C3702.27 4277.77 3650.84 4421.6 3599.56 4565.71C3583.66 4610.39 3568.19 4655.2 3552.66 4700C3548.17 4712.93 3541.01 4726.89 3537.54 4739.76C3535.74 4746.43 3539.26 4749.1 3534.29 4755.71L3534.29 4744.29M3841.43 3947.14L3840 3948.57M3834.29 3948.57L3838.57 3954.29M3832.86 3954.29L3837.14 3957.14M2092.86 3954.29C2085.86 3958.01 2077.71 3957.24 2070 3958.87C2052.56 3962.56 2028.56 3967.66 2014.29 3978.57M3831.43 3955.71L3835.71 3961.43M3830 3960L3832.86 3965.71M2882.86 3990C2878.99 3975.74 2895.96 3961.34 2910 3963.24C2915.37 3963.97 2922.66 3970.74 2918.51 3976.54C2915.71 3980.46 2908.34 3976.87 2904.29 3977.76C2896.39 3979.49 2889.99 3986.46 2882.86 3990M3830 3962.86L3830 3972.86M3827.14 3970L3824.29 3978.57M2642.86 4057.14C2637.04 4045.07 2650.04 4039.77 2654.29 4029.99C2659.09 4018.94 2649.87 4007.41 2653.94 3997.3C2655.6 3993.16 2662.53 3989.39 2666.09 3993.73C2668.93 3997.19 2664.61 4003.04 2665.36 4007.14C2666.33 4012.64 2670.4 4017.13 2670.7 4022.86C2671.44 4037.69 2654.34 4051.01 2642.86 4057.14M2564.29 4002.86L2560 4005.71M2553.73 4026.09C2562.51 4021.54 2588.91 4052.03 2575.39 4059.71C2563.76 4066.31 2555.43 4044.87 2553.16 4037.14C2552.36 4034.4 2550.2 4027.9 2553.73 4026.09M3022.77 4112.64C3032.03 4112.86 3031.66 4131.47 3026.41 4136.09C3020.41 4141.34 3012.47 4134.89 3005.8 4137.11C2999.36 4139.29 2998.9 4147.49 2991.43 4148.3C2987.33 4148.74 2980.19 4144.69 2976.71 4147.31C2971.1 4151.56 2979.54 4166.91 2965.71 4166.06C2957.64 4165.56 2945.81 4154.17 2953.31 4146.59C2965.4 4134.36 2987.57 4127.76 3002.86 4120.37C3008.34 4117.71 3016.56 4112.5 3022.77 4112.64M1948.57 4121.43L1950 4128.57M2904.29 4211.43C2895.87 4204.44 2889.73 4195.21 2895.27 4184.29C2896.97 4180.93 2900.81 4175.21 2905.29 4175.77C2916.44 4177.16 2907.86 4206.6 2904.29 4211.43M2787.74 4205.79C2798.61 4199.16 2805.67 4221.09 2794.23 4227.36C2783.19 4233.41 2779.5 4210.8 2787.74 4205.79M2827.14 4213.99C2837.57 4210.56 2845.29 4223.03 2847.11 4231.43C2849.94 4244.46 2842.63 4255.91 2830 4259.91C2796.24 4270.61 2804.67 4221.36 2827.14 4213.99M2004.29 4214.29L2024.29 4250C2011.01 4256.4 2012.91 4282.6 2012.86 4295.71C2012.64 4340.47 2010 4385.16 2010 4430C2010 4554.66 2021.49 4679.57 2040.6 4802.86C2047.43 4846.83 2055.54 4890.56 2063.73 4934.29C2067.76 4955.77 2074.77 4978.14 2075.71 5000M2004.29 4222.86L1998.59 4314.29L2001.37 4521.43L2011.67 4747.14L2031.73 4884.29L2057.14 5000M2025.71 4252.86L2061.63 4324.29L2072.86 4355.71L2074.29 4357.14L2075.71 4357.14L2078.57 4354.29L2075.71 4350M2657.14 4425.71L2658.57 4427.14C2670.31 4424.1 2685.24 4419.34 2697.14 4422.86C2684.97 4448.94 2651.93 4445.89 2628.57 4451.27C2619.34 4453.39 2606.71 4459.83 2597.17 4457.83C2591.37 4456.6 2589.47 4450.33 2584.21 4448.2C2577.26 4445.4 2551.24 4456.3 2551.24 4442.8C2551.24 4427 2577.04 4429.89 2582.73 4419.46C2586.5 4412.56 2574.19 4407.6 2580.04 4398.63C2595.83 4374.47 2627.84 4370.56 2650 4356.36C2667.39 4345.21 2679.79 4328.3 2695.71 4315.43C2704.91 4308 2716.6 4305.6 2725.4 4298.94C2731.06 4294.64 2732.56 4287 2738.6 4282.56C2753.64 4271.49 2794.86 4274.41 2797.74 4298.57C2798.43 4304.31 2792.71 4307.29 2788.57 4309.8C2777 4316.8 2766.94 4324.96 2757.14 4334.23C2753.91 4337.27 2749.2 4342.57 2744.31 4342.41C2731.87 4342.03 2730.41 4316.26 2712.86 4322.51C2694.56 4329.03 2689.71 4360.63 2691.69 4377.14C2692.41 4383.21 2697.77 4392.33 2694.23 4398.14C2686.49 4410.83 2662.24 4408.34 2657.14 4425.71M2080 4357.14L2075.71 4361.43L2077.14 4362.86L2080 4358.57M2082.86 4362.86L2078.57 4367.14L2078.57 4368.57L2082.86 4364.29M2085.71 4370L2080 4371.43M2087.14 4372.86L2081.43 4374.29M2088.57 4375.71L2082.86 4377.14M2088.57 4375.71C2102.84 4395.77 2112.2 4420.84 2123.21 4442.86C2141.8 4480.04 2161.36 4516.79 2182.04 4552.86C2205.87 4594.43 2232.49 4634.29 2256.54 4675.71C2267.57 4694.71 2275.79 4715.69 2287.23 4734.29C2292.87 4743.43 2301.7 4747.83 2307.51 4755.9C2313.16 4763.74 2315.11 4775.63 2320.29 4784.29C2331.64 4803.31 2346.04 4820.6 2356.7 4840C2373.06 4869.76 2384.24 4902.24 2389.89 4935.71C2393.94 4959.79 2387.66 4982.07 2405.71 5000M2084.29 4378.57C2089.09 4395.24 2098.2 4411.23 2105.11 4427.14C2120 4461.49 2135.07 4495.76 2150.2 4530C2184.67 4608.03 2218.4 4686.47 2250 4765.71C2255.17 4778.69 2256.94 4793.06 2262.11 4805.71C2265.57 4814.17 2272.99 4820.01 2276.5 4828.57C2290.93 4863.76 2295.97 4904.27 2303.14 4941.43C2305.86 4955.54 2306.26 4979.54 2315.7 4990.97C2319.54 4995.61 2327.9 4995.81 2332.86 5000M1904.29 4570C1883.83 4554.03 1894.29 4519.19 1897.73 4497.14C1898.73 4490.7 1898.14 4474.44 1907.14 4472.94C1914.93 4471.64 1915.44 4492.34 1915.66 4497.14C1916.61 4518.91 1918.63 4552.23 1904.29 4570M1904.29 4570C1915.66 4594.99 1914.81 4615.8 1917.39 4642.86C1924.6 4718.64 1908.77 4794.91 1937.93 4867.14C1940.41 4873.31 1940.5 4881.04 1943.59 4886.81C1946.49 4892.21 1953.84 4891.26 1957.51 4896.04C1963.33 4903.59 1965.83 4916.94 1970.37 4925.71C1981.39 4947 2013.86 4975.46 2004.29 5000M1812.86 4877.14C1839.27 4882.6 1866.09 4885.59 1892.86 4888.8C1898.34 4889.44 1916.56 4894.07 1920.36 4889.13C1923.5 4885.03 1916.86 4880.06 1914.29 4877.74C1898.33 4863.41 1905.07 4848.69 1899.04 4830C1894.29 4815.29 1886.99 4801.14 1884.71 4785.71C1878.59 4744.21 1885.59 4701.43 1888.44 4660C1889.89 4639.06 1890.63 4618.03 1892.61 4597.14C1893.61 4586.64 1891.4 4578.84 1902.86 4574.29M2785.71 4654.29C2775.74 4672.97 2799.04 4683.57 2792.9 4701.43C2786.67 4719.53 2769.23 4732.13 2755.96 4744.71C2737.16 4762.54 2719.07 4780.93 2700 4798.7C2689.33 4808.64 2678.14 4821.79 2664.29 4827.14C2664.44 4811.21 2686.6 4793.51 2697.14 4782.86C2728.63 4751.06 2777.57 4724.46 2781.43 4675.71M2764.29 4722.86L2758.57 4732.86L2757.14 4734.29L2755.71 4732.86L2754.29 4731.43L2752.86 4730M2757.14 4734.29L2761.43 4740M3541.43 4737.14L3540 4744.29M2755.71 4738.57L2755.71 4741.43M2745.71 4744.29L2752.86 4745.71M3534.29 4745.71L3538.57 4750M3534.29 4757.14L3517.14 4802.86L3522.86 4794.29M2742.86 4765.71C2754.53 4773.8 2724.67 4799.16 2720.57 4807.14C2719.07 4810.07 2717.56 4813.63 2718.87 4816.9C2720.63 4821.29 2725.19 4824.16 2727.19 4828.57C2731.76 4838.66 2729.01 4848.6 2738.63 4856.39C2766.67 4879.04 2816.16 4861.04 2844.29 4848.13C2856.26 4842.63 2873.66 4830.91 2887.14 4834.29C2881.6 4848.59 2865.84 4862.77 2851.43 4867.89C2846.11 4869.77 2839.46 4867.34 2834.69 4870.26C2829.56 4873.4 2827.41 4882.44 2823.61 4887.14C2815.61 4897.04 2805.3 4905.11 2796.13 4913.86C2789.79 4919.9 2759.33 4928.09 2767.04 4941.11C2776.11 4956.43 2808.7 4949.26 2818.01 4938.43C2823.26 4932.31 2822.73 4923.34 2827.87 4917.47C2831.51 4913.31 2836.1 4913.46 2838.36 4918.66C2845.73 4935.61 2829.99 4962.29 2817.14 4972.3C2811.79 4976.47 2794.7 4980.64 2795.77 4989.69C2796.3 4994.16 2810.56 4996.84 2814.29 5000M1727.14 4785.71L1724.29 4801.43L1722.86 4802.86L1721.43 4801.43L1720 4800L1717.14 4797.14M1720 4790L1725.71 4795.71M1718.57 4794.29L1724.29 4800M1715.71 4801.43L1721.43 4807.14L1722.86 4802.86M3518.57 4805.71L3508.57 4828.57L3510 4830L3514.29 4821.43M1721.43 4807.14L1717.14 4844.29M1708.57 4825.71L1718.57 4817.14M3510 4830L3505.71 4840M1677.14 4862.86L1701.43 4834.29M2572.86 5000C2572.86 4961.63 2591.37 4921.83 2609.8 4888.57C2615.74 4877.86 2621.7 4861.73 2632.86 4855.71C2636.74 4871.13 2622.74 4893.57 2616.06 4907.14C2600.81 4938.16 2591.54 4966.13 2585.71 5000M2762.86 4938.57C2748.8 4926.4 2723.17 4914.56 2712.84 4938.57C2708.83 4947.93 2713.13 4963.61 2702.7 4969.19C2688.59 4976.73 2667.51 4966.06 2651.43 4971.1C2638.29 4975.23 2618.61 5003.29 2603.47 4986.74C2594.61 4977.07 2603.96 4953.79 2609.46 4944.29C2625.64 4916.31 2659.04 4902.09 2688.57 4892.83C2694.49 4890.96 2721.24 4879.13 2725.37 4886.57C2727.17 4889.81 2723.47 4896.54 2722.86 4900L2724.29 4901.43C2745.63 4894.49 2754.47 4905.09 2774.29 4910L2775.71 4894.29C2770.24 4897.3 2770.07 4901.2 2770 4907.14M3341.43 4904.29L3345.71 4911.43M3351.43 4908.57L3347.14 4912.86M2767.14 4910L2771.43 4914.29L2772.86 4910M3355.71 4911.43L3351.43 4915.71M2798.57 4917.14C2806.29 4913.83 2816.99 4910.19 2824.29 4915.71M1700 4915.71L1704.29 4920M2770 4915.71L2765.71 4921.43L2768.57 4924.29L2770 4925.71L2771.43 4927.14M1697.14 4924.29L1694.29 4928.57M2764.29 4924.29L2767.14 4928.57M1968.57 5000C1966.77 4989.99 1956.61 4977.89 1962.9 4967.36C1966.79 4960.83 1973.93 4964.27 1977.81 4968.73C1985.34 4977.36 1989.5 4988.69 1990 5000M3471.43 4962.86C3471.19 4974.8 3467.7 4989.81 3461.43 5000M1620 4994.29C1627.04 4998.04 1634.39 4998.04 1641.43 4994.29M1557.14 5000C1565.37 4994.09 1576.06 4994.09 1584.29 5000"/>
</g>

</svg>